G75*
%MOIN*%
%OFA0B0*%
%FSLAX24Y24*%
%IPPOS*%
%LPD*%
%AMOC8*
5,1,8,0,0,1.08239X$1,22.5*
%
%ADD10C,0.0660*%
%ADD11C,0.0700*%
%ADD12C,0.0019*%
%ADD13C,0.0926*%
%ADD14C,0.0021*%
%ADD15C,0.0023*%
%ADD16C,0.0614*%
%ADD17C,0.0023*%
%ADD18OC8,0.0660*%
%ADD19C,0.0905*%
%ADD20C,0.0022*%
%ADD21C,0.0335*%
%ADD22C,0.0020*%
%ADD23C,0.0018*%
%ADD24C,0.0660*%
%ADD25C,0.0662*%
%ADD26C,0.1365*%
%ADD27C,0.1083*%
%ADD28C,0.1601*%
%ADD29OC8,0.0634*%
%ADD30C,0.0299*%
%ADD31OC8,0.0680*%
%ADD32C,0.1286*%
%ADD33C,0.0019*%
%ADD34R,0.0060X0.0720*%
%ADD35C,0.0022*%
%ADD36C,0.0021*%
%ADD37C,0.0021*%
%ADD38C,0.0023*%
%ADD39C,0.0020*%
%ADD40C,0.1024*%
%ADD41C,0.1404*%
%ADD42C,0.2382*%
%ADD43R,0.0396X0.0396*%
%ADD44R,0.1201X0.1201*%
%ADD45C,0.0320*%
%ADD46C,0.0260*%
%ADD47C,0.0396*%
%ADD48R,0.0320X0.0320*%
%ADD49R,0.0350X0.0350*%
%ADD50C,0.0317*%
%ADD51R,0.0357X0.0357*%
%ADD52C,0.0360*%
%ADD53C,0.0380*%
%ADD54R,0.0377X0.0377*%
D10*
X013092Y006480D02*
X013092Y007120D01*
X014092Y007120D02*
X014092Y006480D01*
X015092Y006480D02*
X015092Y007120D01*
X010719Y013488D02*
X010079Y013488D01*
X010079Y014388D02*
X010719Y014388D01*
X010719Y015288D02*
X010079Y015288D01*
X012322Y018025D02*
X012322Y018665D01*
X013322Y018665D02*
X013322Y018025D01*
X014322Y018025D02*
X014322Y018665D01*
X010274Y022784D02*
X009634Y022784D01*
X009634Y023784D02*
X010274Y023784D01*
X010274Y024784D02*
X009634Y024784D01*
X031298Y007306D02*
X031298Y006666D01*
X032298Y006666D02*
X032298Y007306D01*
X033298Y007306D02*
X033298Y006666D01*
X038106Y006627D02*
X038106Y007267D01*
X039106Y007267D02*
X039106Y006627D01*
X040106Y006627D02*
X040106Y007267D01*
X044427Y022814D02*
X044427Y023454D01*
X045327Y023454D02*
X045327Y022814D01*
X046227Y022814D02*
X046227Y023454D01*
X046109Y024507D02*
X046109Y025147D01*
X045209Y025147D02*
X045209Y024507D01*
X044309Y024507D02*
X044309Y025147D01*
X035282Y040609D02*
X035282Y041249D01*
X034382Y041249D02*
X034382Y040609D01*
X033482Y040609D02*
X033482Y041249D01*
D11*
X006697Y031374D03*
X002697Y031374D03*
X010292Y009396D03*
X014292Y009396D03*
D12*
X017421Y009465D02*
X017421Y008085D01*
X017421Y009465D02*
X018053Y009465D01*
X018053Y008085D01*
X017421Y008085D01*
X017421Y008103D02*
X018053Y008103D01*
X018053Y008121D02*
X017421Y008121D01*
X017421Y008139D02*
X018053Y008139D01*
X018053Y008157D02*
X017421Y008157D01*
X017421Y008175D02*
X018053Y008175D01*
X018053Y008193D02*
X017421Y008193D01*
X017421Y008211D02*
X018053Y008211D01*
X018053Y008229D02*
X017421Y008229D01*
X017421Y008247D02*
X018053Y008247D01*
X018053Y008265D02*
X017421Y008265D01*
X017421Y008283D02*
X018053Y008283D01*
X018053Y008301D02*
X017421Y008301D01*
X017421Y008319D02*
X018053Y008319D01*
X018053Y008337D02*
X017421Y008337D01*
X017421Y008355D02*
X018053Y008355D01*
X018053Y008373D02*
X017421Y008373D01*
X017421Y008391D02*
X018053Y008391D01*
X018053Y008409D02*
X017421Y008409D01*
X017421Y008427D02*
X018053Y008427D01*
X018053Y008445D02*
X017421Y008445D01*
X017421Y008463D02*
X018053Y008463D01*
X018053Y008481D02*
X017421Y008481D01*
X017421Y008499D02*
X018053Y008499D01*
X018053Y008517D02*
X017421Y008517D01*
X017421Y008535D02*
X018053Y008535D01*
X018053Y008553D02*
X017421Y008553D01*
X017421Y008571D02*
X018053Y008571D01*
X018053Y008589D02*
X017421Y008589D01*
X017421Y008607D02*
X018053Y008607D01*
X018053Y008625D02*
X017421Y008625D01*
X017421Y008643D02*
X018053Y008643D01*
X018053Y008661D02*
X017421Y008661D01*
X017421Y008679D02*
X018053Y008679D01*
X018053Y008697D02*
X017421Y008697D01*
X017421Y008715D02*
X018053Y008715D01*
X018053Y008733D02*
X017421Y008733D01*
X017421Y008751D02*
X018053Y008751D01*
X018053Y008769D02*
X017421Y008769D01*
X017421Y008787D02*
X018053Y008787D01*
X018053Y008805D02*
X017421Y008805D01*
X017421Y008823D02*
X018053Y008823D01*
X018053Y008841D02*
X017421Y008841D01*
X017421Y008859D02*
X018053Y008859D01*
X018053Y008877D02*
X017421Y008877D01*
X017421Y008895D02*
X018053Y008895D01*
X018053Y008913D02*
X017421Y008913D01*
X017421Y008931D02*
X018053Y008931D01*
X018053Y008949D02*
X017421Y008949D01*
X017421Y008967D02*
X018053Y008967D01*
X018053Y008985D02*
X017421Y008985D01*
X017421Y009003D02*
X018053Y009003D01*
X018053Y009021D02*
X017421Y009021D01*
X017421Y009039D02*
X018053Y009039D01*
X018053Y009057D02*
X017421Y009057D01*
X017421Y009075D02*
X018053Y009075D01*
X018053Y009093D02*
X017421Y009093D01*
X017421Y009111D02*
X018053Y009111D01*
X018053Y009129D02*
X017421Y009129D01*
X017421Y009147D02*
X018053Y009147D01*
X018053Y009165D02*
X017421Y009165D01*
X017421Y009183D02*
X018053Y009183D01*
X018053Y009201D02*
X017421Y009201D01*
X017421Y009219D02*
X018053Y009219D01*
X018053Y009237D02*
X017421Y009237D01*
X017421Y009255D02*
X018053Y009255D01*
X018053Y009273D02*
X017421Y009273D01*
X017421Y009291D02*
X018053Y009291D01*
X018053Y009309D02*
X017421Y009309D01*
X017421Y009327D02*
X018053Y009327D01*
X018053Y009345D02*
X017421Y009345D01*
X017421Y009363D02*
X018053Y009363D01*
X018053Y009381D02*
X017421Y009381D01*
X017421Y009399D02*
X018053Y009399D01*
X018053Y009417D02*
X017421Y009417D01*
X017421Y009435D02*
X018053Y009435D01*
X018053Y009453D02*
X017421Y009453D01*
X017421Y007339D02*
X017421Y005959D01*
X017421Y007339D02*
X018053Y007339D01*
X018053Y005959D01*
X017421Y005959D01*
X017421Y005977D02*
X018053Y005977D01*
X018053Y005995D02*
X017421Y005995D01*
X017421Y006013D02*
X018053Y006013D01*
X018053Y006031D02*
X017421Y006031D01*
X017421Y006049D02*
X018053Y006049D01*
X018053Y006067D02*
X017421Y006067D01*
X017421Y006085D02*
X018053Y006085D01*
X018053Y006103D02*
X017421Y006103D01*
X017421Y006121D02*
X018053Y006121D01*
X018053Y006139D02*
X017421Y006139D01*
X017421Y006157D02*
X018053Y006157D01*
X018053Y006175D02*
X017421Y006175D01*
X017421Y006193D02*
X018053Y006193D01*
X018053Y006211D02*
X017421Y006211D01*
X017421Y006229D02*
X018053Y006229D01*
X018053Y006247D02*
X017421Y006247D01*
X017421Y006265D02*
X018053Y006265D01*
X018053Y006283D02*
X017421Y006283D01*
X017421Y006301D02*
X018053Y006301D01*
X018053Y006319D02*
X017421Y006319D01*
X017421Y006337D02*
X018053Y006337D01*
X018053Y006355D02*
X017421Y006355D01*
X017421Y006373D02*
X018053Y006373D01*
X018053Y006391D02*
X017421Y006391D01*
X017421Y006409D02*
X018053Y006409D01*
X018053Y006427D02*
X017421Y006427D01*
X017421Y006445D02*
X018053Y006445D01*
X018053Y006463D02*
X017421Y006463D01*
X017421Y006481D02*
X018053Y006481D01*
X018053Y006499D02*
X017421Y006499D01*
X017421Y006517D02*
X018053Y006517D01*
X018053Y006535D02*
X017421Y006535D01*
X017421Y006553D02*
X018053Y006553D01*
X018053Y006571D02*
X017421Y006571D01*
X017421Y006589D02*
X018053Y006589D01*
X018053Y006607D02*
X017421Y006607D01*
X017421Y006625D02*
X018053Y006625D01*
X018053Y006643D02*
X017421Y006643D01*
X017421Y006661D02*
X018053Y006661D01*
X018053Y006679D02*
X017421Y006679D01*
X017421Y006697D02*
X018053Y006697D01*
X018053Y006715D02*
X017421Y006715D01*
X017421Y006733D02*
X018053Y006733D01*
X018053Y006751D02*
X017421Y006751D01*
X017421Y006769D02*
X018053Y006769D01*
X018053Y006787D02*
X017421Y006787D01*
X017421Y006805D02*
X018053Y006805D01*
X018053Y006823D02*
X017421Y006823D01*
X017421Y006841D02*
X018053Y006841D01*
X018053Y006859D02*
X017421Y006859D01*
X017421Y006877D02*
X018053Y006877D01*
X018053Y006895D02*
X017421Y006895D01*
X017421Y006913D02*
X018053Y006913D01*
X018053Y006931D02*
X017421Y006931D01*
X017421Y006949D02*
X018053Y006949D01*
X018053Y006967D02*
X017421Y006967D01*
X017421Y006985D02*
X018053Y006985D01*
X018053Y007003D02*
X017421Y007003D01*
X017421Y007021D02*
X018053Y007021D01*
X018053Y007039D02*
X017421Y007039D01*
X017421Y007057D02*
X018053Y007057D01*
X018053Y007075D02*
X017421Y007075D01*
X017421Y007093D02*
X018053Y007093D01*
X018053Y007111D02*
X017421Y007111D01*
X017421Y007129D02*
X018053Y007129D01*
X018053Y007147D02*
X017421Y007147D01*
X017421Y007165D02*
X018053Y007165D01*
X018053Y007183D02*
X017421Y007183D01*
X017421Y007201D02*
X018053Y007201D01*
X018053Y007219D02*
X017421Y007219D01*
X017421Y007237D02*
X018053Y007237D01*
X018053Y007255D02*
X017421Y007255D01*
X017421Y007273D02*
X018053Y007273D01*
X018053Y007291D02*
X017421Y007291D01*
X017421Y007309D02*
X018053Y007309D01*
X018053Y007327D02*
X017421Y007327D01*
X020525Y011903D02*
X021157Y011903D01*
X020525Y011903D02*
X020525Y012967D01*
X021157Y012967D01*
X021157Y011903D01*
X021157Y011921D02*
X020525Y011921D01*
X020525Y011939D02*
X021157Y011939D01*
X021157Y011957D02*
X020525Y011957D01*
X020525Y011975D02*
X021157Y011975D01*
X021157Y011993D02*
X020525Y011993D01*
X020525Y012011D02*
X021157Y012011D01*
X021157Y012029D02*
X020525Y012029D01*
X020525Y012047D02*
X021157Y012047D01*
X021157Y012065D02*
X020525Y012065D01*
X020525Y012083D02*
X021157Y012083D01*
X021157Y012101D02*
X020525Y012101D01*
X020525Y012119D02*
X021157Y012119D01*
X021157Y012137D02*
X020525Y012137D01*
X020525Y012155D02*
X021157Y012155D01*
X021157Y012173D02*
X020525Y012173D01*
X020525Y012191D02*
X021157Y012191D01*
X021157Y012209D02*
X020525Y012209D01*
X020525Y012227D02*
X021157Y012227D01*
X021157Y012245D02*
X020525Y012245D01*
X020525Y012263D02*
X021157Y012263D01*
X021157Y012281D02*
X020525Y012281D01*
X020525Y012299D02*
X021157Y012299D01*
X021157Y012317D02*
X020525Y012317D01*
X020525Y012335D02*
X021157Y012335D01*
X021157Y012353D02*
X020525Y012353D01*
X020525Y012371D02*
X021157Y012371D01*
X021157Y012389D02*
X020525Y012389D01*
X020525Y012407D02*
X021157Y012407D01*
X021157Y012425D02*
X020525Y012425D01*
X020525Y012443D02*
X021157Y012443D01*
X021157Y012461D02*
X020525Y012461D01*
X020525Y012479D02*
X021157Y012479D01*
X021157Y012497D02*
X020525Y012497D01*
X020525Y012515D02*
X021157Y012515D01*
X021157Y012533D02*
X020525Y012533D01*
X020525Y012551D02*
X021157Y012551D01*
X021157Y012569D02*
X020525Y012569D01*
X020525Y012587D02*
X021157Y012587D01*
X021157Y012605D02*
X020525Y012605D01*
X020525Y012623D02*
X021157Y012623D01*
X021157Y012641D02*
X020525Y012641D01*
X020525Y012659D02*
X021157Y012659D01*
X021157Y012677D02*
X020525Y012677D01*
X020525Y012695D02*
X021157Y012695D01*
X021157Y012713D02*
X020525Y012713D01*
X020525Y012731D02*
X021157Y012731D01*
X021157Y012749D02*
X020525Y012749D01*
X020525Y012767D02*
X021157Y012767D01*
X021157Y012785D02*
X020525Y012785D01*
X020525Y012803D02*
X021157Y012803D01*
X021157Y012821D02*
X020525Y012821D01*
X020525Y012839D02*
X021157Y012839D01*
X021157Y012857D02*
X020525Y012857D01*
X020525Y012875D02*
X021157Y012875D01*
X021157Y012893D02*
X020525Y012893D01*
X020525Y012911D02*
X021157Y012911D01*
X021157Y012929D02*
X020525Y012929D01*
X020525Y012947D02*
X021157Y012947D01*
X021157Y012965D02*
X020525Y012965D01*
X021627Y011903D02*
X022259Y011903D01*
X021627Y011903D02*
X021627Y012967D01*
X022259Y012967D01*
X022259Y011903D01*
X022259Y011921D02*
X021627Y011921D01*
X021627Y011939D02*
X022259Y011939D01*
X022259Y011957D02*
X021627Y011957D01*
X021627Y011975D02*
X022259Y011975D01*
X022259Y011993D02*
X021627Y011993D01*
X021627Y012011D02*
X022259Y012011D01*
X022259Y012029D02*
X021627Y012029D01*
X021627Y012047D02*
X022259Y012047D01*
X022259Y012065D02*
X021627Y012065D01*
X021627Y012083D02*
X022259Y012083D01*
X022259Y012101D02*
X021627Y012101D01*
X021627Y012119D02*
X022259Y012119D01*
X022259Y012137D02*
X021627Y012137D01*
X021627Y012155D02*
X022259Y012155D01*
X022259Y012173D02*
X021627Y012173D01*
X021627Y012191D02*
X022259Y012191D01*
X022259Y012209D02*
X021627Y012209D01*
X021627Y012227D02*
X022259Y012227D01*
X022259Y012245D02*
X021627Y012245D01*
X021627Y012263D02*
X022259Y012263D01*
X022259Y012281D02*
X021627Y012281D01*
X021627Y012299D02*
X022259Y012299D01*
X022259Y012317D02*
X021627Y012317D01*
X021627Y012335D02*
X022259Y012335D01*
X022259Y012353D02*
X021627Y012353D01*
X021627Y012371D02*
X022259Y012371D01*
X022259Y012389D02*
X021627Y012389D01*
X021627Y012407D02*
X022259Y012407D01*
X022259Y012425D02*
X021627Y012425D01*
X021627Y012443D02*
X022259Y012443D01*
X022259Y012461D02*
X021627Y012461D01*
X021627Y012479D02*
X022259Y012479D01*
X022259Y012497D02*
X021627Y012497D01*
X021627Y012515D02*
X022259Y012515D01*
X022259Y012533D02*
X021627Y012533D01*
X021627Y012551D02*
X022259Y012551D01*
X022259Y012569D02*
X021627Y012569D01*
X021627Y012587D02*
X022259Y012587D01*
X022259Y012605D02*
X021627Y012605D01*
X021627Y012623D02*
X022259Y012623D01*
X022259Y012641D02*
X021627Y012641D01*
X021627Y012659D02*
X022259Y012659D01*
X022259Y012677D02*
X021627Y012677D01*
X021627Y012695D02*
X022259Y012695D01*
X022259Y012713D02*
X021627Y012713D01*
X021627Y012731D02*
X022259Y012731D01*
X022259Y012749D02*
X021627Y012749D01*
X021627Y012767D02*
X022259Y012767D01*
X022259Y012785D02*
X021627Y012785D01*
X021627Y012803D02*
X022259Y012803D01*
X022259Y012821D02*
X021627Y012821D01*
X021627Y012839D02*
X022259Y012839D01*
X022259Y012857D02*
X021627Y012857D01*
X021627Y012875D02*
X022259Y012875D01*
X022259Y012893D02*
X021627Y012893D01*
X021627Y012911D02*
X022259Y012911D01*
X022259Y012929D02*
X021627Y012929D01*
X021627Y012947D02*
X022259Y012947D01*
X022259Y012965D02*
X021627Y012965D01*
X034578Y014700D02*
X034578Y016080D01*
X035210Y016080D01*
X035210Y014700D01*
X034578Y014700D01*
X034578Y014718D02*
X035210Y014718D01*
X035210Y014736D02*
X034578Y014736D01*
X034578Y014754D02*
X035210Y014754D01*
X035210Y014772D02*
X034578Y014772D01*
X034578Y014790D02*
X035210Y014790D01*
X035210Y014808D02*
X034578Y014808D01*
X034578Y014826D02*
X035210Y014826D01*
X035210Y014844D02*
X034578Y014844D01*
X034578Y014862D02*
X035210Y014862D01*
X035210Y014880D02*
X034578Y014880D01*
X034578Y014898D02*
X035210Y014898D01*
X035210Y014916D02*
X034578Y014916D01*
X034578Y014934D02*
X035210Y014934D01*
X035210Y014952D02*
X034578Y014952D01*
X034578Y014970D02*
X035210Y014970D01*
X035210Y014988D02*
X034578Y014988D01*
X034578Y015006D02*
X035210Y015006D01*
X035210Y015024D02*
X034578Y015024D01*
X034578Y015042D02*
X035210Y015042D01*
X035210Y015060D02*
X034578Y015060D01*
X034578Y015078D02*
X035210Y015078D01*
X035210Y015096D02*
X034578Y015096D01*
X034578Y015114D02*
X035210Y015114D01*
X035210Y015132D02*
X034578Y015132D01*
X034578Y015150D02*
X035210Y015150D01*
X035210Y015168D02*
X034578Y015168D01*
X034578Y015186D02*
X035210Y015186D01*
X035210Y015204D02*
X034578Y015204D01*
X034578Y015222D02*
X035210Y015222D01*
X035210Y015240D02*
X034578Y015240D01*
X034578Y015258D02*
X035210Y015258D01*
X035210Y015276D02*
X034578Y015276D01*
X034578Y015294D02*
X035210Y015294D01*
X035210Y015312D02*
X034578Y015312D01*
X034578Y015330D02*
X035210Y015330D01*
X035210Y015348D02*
X034578Y015348D01*
X034578Y015366D02*
X035210Y015366D01*
X035210Y015384D02*
X034578Y015384D01*
X034578Y015402D02*
X035210Y015402D01*
X035210Y015420D02*
X034578Y015420D01*
X034578Y015438D02*
X035210Y015438D01*
X035210Y015456D02*
X034578Y015456D01*
X034578Y015474D02*
X035210Y015474D01*
X035210Y015492D02*
X034578Y015492D01*
X034578Y015510D02*
X035210Y015510D01*
X035210Y015528D02*
X034578Y015528D01*
X034578Y015546D02*
X035210Y015546D01*
X035210Y015564D02*
X034578Y015564D01*
X034578Y015582D02*
X035210Y015582D01*
X035210Y015600D02*
X034578Y015600D01*
X034578Y015618D02*
X035210Y015618D01*
X035210Y015636D02*
X034578Y015636D01*
X034578Y015654D02*
X035210Y015654D01*
X035210Y015672D02*
X034578Y015672D01*
X034578Y015690D02*
X035210Y015690D01*
X035210Y015708D02*
X034578Y015708D01*
X034578Y015726D02*
X035210Y015726D01*
X035210Y015744D02*
X034578Y015744D01*
X034578Y015762D02*
X035210Y015762D01*
X035210Y015780D02*
X034578Y015780D01*
X034578Y015798D02*
X035210Y015798D01*
X035210Y015816D02*
X034578Y015816D01*
X034578Y015834D02*
X035210Y015834D01*
X035210Y015852D02*
X034578Y015852D01*
X034578Y015870D02*
X035210Y015870D01*
X035210Y015888D02*
X034578Y015888D01*
X034578Y015906D02*
X035210Y015906D01*
X035210Y015924D02*
X034578Y015924D01*
X034578Y015942D02*
X035210Y015942D01*
X035210Y015960D02*
X034578Y015960D01*
X034578Y015978D02*
X035210Y015978D01*
X035210Y015996D02*
X034578Y015996D01*
X034578Y016014D02*
X035210Y016014D01*
X035210Y016032D02*
X034578Y016032D01*
X034578Y016050D02*
X035210Y016050D01*
X035210Y016068D02*
X034578Y016068D01*
X034578Y016826D02*
X034578Y018206D01*
X035210Y018206D01*
X035210Y016826D01*
X034578Y016826D01*
X034578Y016844D02*
X035210Y016844D01*
X035210Y016862D02*
X034578Y016862D01*
X034578Y016880D02*
X035210Y016880D01*
X035210Y016898D02*
X034578Y016898D01*
X034578Y016916D02*
X035210Y016916D01*
X035210Y016934D02*
X034578Y016934D01*
X034578Y016952D02*
X035210Y016952D01*
X035210Y016970D02*
X034578Y016970D01*
X034578Y016988D02*
X035210Y016988D01*
X035210Y017006D02*
X034578Y017006D01*
X034578Y017024D02*
X035210Y017024D01*
X035210Y017042D02*
X034578Y017042D01*
X034578Y017060D02*
X035210Y017060D01*
X035210Y017078D02*
X034578Y017078D01*
X034578Y017096D02*
X035210Y017096D01*
X035210Y017114D02*
X034578Y017114D01*
X034578Y017132D02*
X035210Y017132D01*
X035210Y017150D02*
X034578Y017150D01*
X034578Y017168D02*
X035210Y017168D01*
X035210Y017186D02*
X034578Y017186D01*
X034578Y017204D02*
X035210Y017204D01*
X035210Y017222D02*
X034578Y017222D01*
X034578Y017240D02*
X035210Y017240D01*
X035210Y017258D02*
X034578Y017258D01*
X034578Y017276D02*
X035210Y017276D01*
X035210Y017294D02*
X034578Y017294D01*
X034578Y017312D02*
X035210Y017312D01*
X035210Y017330D02*
X034578Y017330D01*
X034578Y017348D02*
X035210Y017348D01*
X035210Y017366D02*
X034578Y017366D01*
X034578Y017384D02*
X035210Y017384D01*
X035210Y017402D02*
X034578Y017402D01*
X034578Y017420D02*
X035210Y017420D01*
X035210Y017438D02*
X034578Y017438D01*
X034578Y017456D02*
X035210Y017456D01*
X035210Y017474D02*
X034578Y017474D01*
X034578Y017492D02*
X035210Y017492D01*
X035210Y017510D02*
X034578Y017510D01*
X034578Y017528D02*
X035210Y017528D01*
X035210Y017546D02*
X034578Y017546D01*
X034578Y017564D02*
X035210Y017564D01*
X035210Y017582D02*
X034578Y017582D01*
X034578Y017600D02*
X035210Y017600D01*
X035210Y017618D02*
X034578Y017618D01*
X034578Y017636D02*
X035210Y017636D01*
X035210Y017654D02*
X034578Y017654D01*
X034578Y017672D02*
X035210Y017672D01*
X035210Y017690D02*
X034578Y017690D01*
X034578Y017708D02*
X035210Y017708D01*
X035210Y017726D02*
X034578Y017726D01*
X034578Y017744D02*
X035210Y017744D01*
X035210Y017762D02*
X034578Y017762D01*
X034578Y017780D02*
X035210Y017780D01*
X035210Y017798D02*
X034578Y017798D01*
X034578Y017816D02*
X035210Y017816D01*
X035210Y017834D02*
X034578Y017834D01*
X034578Y017852D02*
X035210Y017852D01*
X035210Y017870D02*
X034578Y017870D01*
X034578Y017888D02*
X035210Y017888D01*
X035210Y017906D02*
X034578Y017906D01*
X034578Y017924D02*
X035210Y017924D01*
X035210Y017942D02*
X034578Y017942D01*
X034578Y017960D02*
X035210Y017960D01*
X035210Y017978D02*
X034578Y017978D01*
X034578Y017996D02*
X035210Y017996D01*
X035210Y018014D02*
X034578Y018014D01*
X034578Y018032D02*
X035210Y018032D01*
X035210Y018050D02*
X034578Y018050D01*
X034578Y018068D02*
X035210Y018068D01*
X035210Y018086D02*
X034578Y018086D01*
X034578Y018104D02*
X035210Y018104D01*
X035210Y018122D02*
X034578Y018122D01*
X034578Y018140D02*
X035210Y018140D01*
X035210Y018158D02*
X034578Y018158D01*
X034578Y018176D02*
X035210Y018176D01*
X035210Y018194D02*
X034578Y018194D01*
X034246Y026454D02*
X032866Y026454D01*
X034246Y026454D02*
X034246Y025822D01*
X032866Y025822D01*
X032866Y026454D01*
X032866Y025840D02*
X034246Y025840D01*
X034246Y025858D02*
X032866Y025858D01*
X032866Y025876D02*
X034246Y025876D01*
X034246Y025894D02*
X032866Y025894D01*
X032866Y025912D02*
X034246Y025912D01*
X034246Y025930D02*
X032866Y025930D01*
X032866Y025948D02*
X034246Y025948D01*
X034246Y025966D02*
X032866Y025966D01*
X032866Y025984D02*
X034246Y025984D01*
X034246Y026002D02*
X032866Y026002D01*
X032866Y026020D02*
X034246Y026020D01*
X034246Y026038D02*
X032866Y026038D01*
X032866Y026056D02*
X034246Y026056D01*
X034246Y026074D02*
X032866Y026074D01*
X032866Y026092D02*
X034246Y026092D01*
X034246Y026110D02*
X032866Y026110D01*
X032866Y026128D02*
X034246Y026128D01*
X034246Y026146D02*
X032866Y026146D01*
X032866Y026164D02*
X034246Y026164D01*
X034246Y026182D02*
X032866Y026182D01*
X032866Y026200D02*
X034246Y026200D01*
X034246Y026218D02*
X032866Y026218D01*
X032866Y026236D02*
X034246Y026236D01*
X034246Y026254D02*
X032866Y026254D01*
X032866Y026272D02*
X034246Y026272D01*
X034246Y026290D02*
X032866Y026290D01*
X032866Y026308D02*
X034246Y026308D01*
X034246Y026326D02*
X032866Y026326D01*
X032866Y026344D02*
X034246Y026344D01*
X034246Y026362D02*
X032866Y026362D01*
X032866Y026380D02*
X034246Y026380D01*
X034246Y026398D02*
X032866Y026398D01*
X032866Y026416D02*
X034246Y026416D01*
X034246Y026434D02*
X032866Y026434D01*
X032866Y026452D02*
X034246Y026452D01*
X034991Y026454D02*
X036371Y026454D01*
X036371Y025822D01*
X034991Y025822D01*
X034991Y026454D01*
X034991Y025840D02*
X036371Y025840D01*
X036371Y025858D02*
X034991Y025858D01*
X034991Y025876D02*
X036371Y025876D01*
X036371Y025894D02*
X034991Y025894D01*
X034991Y025912D02*
X036371Y025912D01*
X036371Y025930D02*
X034991Y025930D01*
X034991Y025948D02*
X036371Y025948D01*
X036371Y025966D02*
X034991Y025966D01*
X034991Y025984D02*
X036371Y025984D01*
X036371Y026002D02*
X034991Y026002D01*
X034991Y026020D02*
X036371Y026020D01*
X036371Y026038D02*
X034991Y026038D01*
X034991Y026056D02*
X036371Y026056D01*
X036371Y026074D02*
X034991Y026074D01*
X034991Y026092D02*
X036371Y026092D01*
X036371Y026110D02*
X034991Y026110D01*
X034991Y026128D02*
X036371Y026128D01*
X036371Y026146D02*
X034991Y026146D01*
X034991Y026164D02*
X036371Y026164D01*
X036371Y026182D02*
X034991Y026182D01*
X034991Y026200D02*
X036371Y026200D01*
X036371Y026218D02*
X034991Y026218D01*
X034991Y026236D02*
X036371Y026236D01*
X036371Y026254D02*
X034991Y026254D01*
X034991Y026272D02*
X036371Y026272D01*
X036371Y026290D02*
X034991Y026290D01*
X034991Y026308D02*
X036371Y026308D01*
X036371Y026326D02*
X034991Y026326D01*
X034991Y026344D02*
X036371Y026344D01*
X036371Y026362D02*
X034991Y026362D01*
X034991Y026380D02*
X036371Y026380D01*
X036371Y026398D02*
X034991Y026398D01*
X034991Y026416D02*
X036371Y026416D01*
X036371Y026434D02*
X034991Y026434D01*
X034991Y026452D02*
X036371Y026452D01*
X033859Y033508D02*
X033227Y033508D01*
X033227Y034572D01*
X033859Y034572D01*
X033859Y033508D01*
X033859Y033526D02*
X033227Y033526D01*
X033227Y033544D02*
X033859Y033544D01*
X033859Y033562D02*
X033227Y033562D01*
X033227Y033580D02*
X033859Y033580D01*
X033859Y033598D02*
X033227Y033598D01*
X033227Y033616D02*
X033859Y033616D01*
X033859Y033634D02*
X033227Y033634D01*
X033227Y033652D02*
X033859Y033652D01*
X033859Y033670D02*
X033227Y033670D01*
X033227Y033688D02*
X033859Y033688D01*
X033859Y033706D02*
X033227Y033706D01*
X033227Y033724D02*
X033859Y033724D01*
X033859Y033742D02*
X033227Y033742D01*
X033227Y033760D02*
X033859Y033760D01*
X033859Y033778D02*
X033227Y033778D01*
X033227Y033796D02*
X033859Y033796D01*
X033859Y033814D02*
X033227Y033814D01*
X033227Y033832D02*
X033859Y033832D01*
X033859Y033850D02*
X033227Y033850D01*
X033227Y033868D02*
X033859Y033868D01*
X033859Y033886D02*
X033227Y033886D01*
X033227Y033904D02*
X033859Y033904D01*
X033859Y033922D02*
X033227Y033922D01*
X033227Y033940D02*
X033859Y033940D01*
X033859Y033958D02*
X033227Y033958D01*
X033227Y033976D02*
X033859Y033976D01*
X033859Y033994D02*
X033227Y033994D01*
X033227Y034012D02*
X033859Y034012D01*
X033859Y034030D02*
X033227Y034030D01*
X033227Y034048D02*
X033859Y034048D01*
X033859Y034066D02*
X033227Y034066D01*
X033227Y034084D02*
X033859Y034084D01*
X033859Y034102D02*
X033227Y034102D01*
X033227Y034120D02*
X033859Y034120D01*
X033859Y034138D02*
X033227Y034138D01*
X033227Y034156D02*
X033859Y034156D01*
X033859Y034174D02*
X033227Y034174D01*
X033227Y034192D02*
X033859Y034192D01*
X033859Y034210D02*
X033227Y034210D01*
X033227Y034228D02*
X033859Y034228D01*
X033859Y034246D02*
X033227Y034246D01*
X033227Y034264D02*
X033859Y034264D01*
X033859Y034282D02*
X033227Y034282D01*
X033227Y034300D02*
X033859Y034300D01*
X033859Y034318D02*
X033227Y034318D01*
X033227Y034336D02*
X033859Y034336D01*
X033859Y034354D02*
X033227Y034354D01*
X033227Y034372D02*
X033859Y034372D01*
X033859Y034390D02*
X033227Y034390D01*
X033227Y034408D02*
X033859Y034408D01*
X033859Y034426D02*
X033227Y034426D01*
X033227Y034444D02*
X033859Y034444D01*
X033859Y034462D02*
X033227Y034462D01*
X033227Y034480D02*
X033859Y034480D01*
X033859Y034498D02*
X033227Y034498D01*
X033227Y034516D02*
X033859Y034516D01*
X033859Y034534D02*
X033227Y034534D01*
X033227Y034552D02*
X033859Y034552D01*
X033859Y034570D02*
X033227Y034570D01*
X032757Y033508D02*
X032125Y033508D01*
X032125Y034572D01*
X032757Y034572D01*
X032757Y033508D01*
X032757Y033526D02*
X032125Y033526D01*
X032125Y033544D02*
X032757Y033544D01*
X032757Y033562D02*
X032125Y033562D01*
X032125Y033580D02*
X032757Y033580D01*
X032757Y033598D02*
X032125Y033598D01*
X032125Y033616D02*
X032757Y033616D01*
X032757Y033634D02*
X032125Y033634D01*
X032125Y033652D02*
X032757Y033652D01*
X032757Y033670D02*
X032125Y033670D01*
X032125Y033688D02*
X032757Y033688D01*
X032757Y033706D02*
X032125Y033706D01*
X032125Y033724D02*
X032757Y033724D01*
X032757Y033742D02*
X032125Y033742D01*
X032125Y033760D02*
X032757Y033760D01*
X032757Y033778D02*
X032125Y033778D01*
X032125Y033796D02*
X032757Y033796D01*
X032757Y033814D02*
X032125Y033814D01*
X032125Y033832D02*
X032757Y033832D01*
X032757Y033850D02*
X032125Y033850D01*
X032125Y033868D02*
X032757Y033868D01*
X032757Y033886D02*
X032125Y033886D01*
X032125Y033904D02*
X032757Y033904D01*
X032757Y033922D02*
X032125Y033922D01*
X032125Y033940D02*
X032757Y033940D01*
X032757Y033958D02*
X032125Y033958D01*
X032125Y033976D02*
X032757Y033976D01*
X032757Y033994D02*
X032125Y033994D01*
X032125Y034012D02*
X032757Y034012D01*
X032757Y034030D02*
X032125Y034030D01*
X032125Y034048D02*
X032757Y034048D01*
X032757Y034066D02*
X032125Y034066D01*
X032125Y034084D02*
X032757Y034084D01*
X032757Y034102D02*
X032125Y034102D01*
X032125Y034120D02*
X032757Y034120D01*
X032757Y034138D02*
X032125Y034138D01*
X032125Y034156D02*
X032757Y034156D01*
X032757Y034174D02*
X032125Y034174D01*
X032125Y034192D02*
X032757Y034192D01*
X032757Y034210D02*
X032125Y034210D01*
X032125Y034228D02*
X032757Y034228D01*
X032757Y034246D02*
X032125Y034246D01*
X032125Y034264D02*
X032757Y034264D01*
X032757Y034282D02*
X032125Y034282D01*
X032125Y034300D02*
X032757Y034300D01*
X032757Y034318D02*
X032125Y034318D01*
X032125Y034336D02*
X032757Y034336D01*
X032757Y034354D02*
X032125Y034354D01*
X032125Y034372D02*
X032757Y034372D01*
X032757Y034390D02*
X032125Y034390D01*
X032125Y034408D02*
X032757Y034408D01*
X032757Y034426D02*
X032125Y034426D01*
X032125Y034444D02*
X032757Y034444D01*
X032757Y034462D02*
X032125Y034462D01*
X032125Y034480D02*
X032757Y034480D01*
X032757Y034498D02*
X032125Y034498D01*
X032125Y034516D02*
X032757Y034516D01*
X032757Y034534D02*
X032125Y034534D01*
X032125Y034552D02*
X032757Y034552D01*
X032757Y034570D02*
X032125Y034570D01*
X033022Y034939D02*
X033022Y036319D01*
X033654Y036319D01*
X033654Y034939D01*
X033022Y034939D01*
X033022Y034957D02*
X033654Y034957D01*
X033654Y034975D02*
X033022Y034975D01*
X033022Y034993D02*
X033654Y034993D01*
X033654Y035011D02*
X033022Y035011D01*
X033022Y035029D02*
X033654Y035029D01*
X033654Y035047D02*
X033022Y035047D01*
X033022Y035065D02*
X033654Y035065D01*
X033654Y035083D02*
X033022Y035083D01*
X033022Y035101D02*
X033654Y035101D01*
X033654Y035119D02*
X033022Y035119D01*
X033022Y035137D02*
X033654Y035137D01*
X033654Y035155D02*
X033022Y035155D01*
X033022Y035173D02*
X033654Y035173D01*
X033654Y035191D02*
X033022Y035191D01*
X033022Y035209D02*
X033654Y035209D01*
X033654Y035227D02*
X033022Y035227D01*
X033022Y035245D02*
X033654Y035245D01*
X033654Y035263D02*
X033022Y035263D01*
X033022Y035281D02*
X033654Y035281D01*
X033654Y035299D02*
X033022Y035299D01*
X033022Y035317D02*
X033654Y035317D01*
X033654Y035335D02*
X033022Y035335D01*
X033022Y035353D02*
X033654Y035353D01*
X033654Y035371D02*
X033022Y035371D01*
X033022Y035389D02*
X033654Y035389D01*
X033654Y035407D02*
X033022Y035407D01*
X033022Y035425D02*
X033654Y035425D01*
X033654Y035443D02*
X033022Y035443D01*
X033022Y035461D02*
X033654Y035461D01*
X033654Y035479D02*
X033022Y035479D01*
X033022Y035497D02*
X033654Y035497D01*
X033654Y035515D02*
X033022Y035515D01*
X033022Y035533D02*
X033654Y035533D01*
X033654Y035551D02*
X033022Y035551D01*
X033022Y035569D02*
X033654Y035569D01*
X033654Y035587D02*
X033022Y035587D01*
X033022Y035605D02*
X033654Y035605D01*
X033654Y035623D02*
X033022Y035623D01*
X033022Y035641D02*
X033654Y035641D01*
X033654Y035659D02*
X033022Y035659D01*
X033022Y035677D02*
X033654Y035677D01*
X033654Y035695D02*
X033022Y035695D01*
X033022Y035713D02*
X033654Y035713D01*
X033654Y035731D02*
X033022Y035731D01*
X033022Y035749D02*
X033654Y035749D01*
X033654Y035767D02*
X033022Y035767D01*
X033022Y035785D02*
X033654Y035785D01*
X033654Y035803D02*
X033022Y035803D01*
X033022Y035821D02*
X033654Y035821D01*
X033654Y035839D02*
X033022Y035839D01*
X033022Y035857D02*
X033654Y035857D01*
X033654Y035875D02*
X033022Y035875D01*
X033022Y035893D02*
X033654Y035893D01*
X033654Y035911D02*
X033022Y035911D01*
X033022Y035929D02*
X033654Y035929D01*
X033654Y035947D02*
X033022Y035947D01*
X033022Y035965D02*
X033654Y035965D01*
X033654Y035983D02*
X033022Y035983D01*
X033022Y036001D02*
X033654Y036001D01*
X033654Y036019D02*
X033022Y036019D01*
X033022Y036037D02*
X033654Y036037D01*
X033654Y036055D02*
X033022Y036055D01*
X033022Y036073D02*
X033654Y036073D01*
X033654Y036091D02*
X033022Y036091D01*
X033022Y036109D02*
X033654Y036109D01*
X033654Y036127D02*
X033022Y036127D01*
X033022Y036145D02*
X033654Y036145D01*
X033654Y036163D02*
X033022Y036163D01*
X033022Y036181D02*
X033654Y036181D01*
X033654Y036199D02*
X033022Y036199D01*
X033022Y036217D02*
X033654Y036217D01*
X033654Y036235D02*
X033022Y036235D01*
X033022Y036253D02*
X033654Y036253D01*
X033654Y036271D02*
X033022Y036271D01*
X033022Y036289D02*
X033654Y036289D01*
X033654Y036307D02*
X033022Y036307D01*
X033022Y037065D02*
X033022Y038445D01*
X033654Y038445D01*
X033654Y037065D01*
X033022Y037065D01*
X033022Y037083D02*
X033654Y037083D01*
X033654Y037101D02*
X033022Y037101D01*
X033022Y037119D02*
X033654Y037119D01*
X033654Y037137D02*
X033022Y037137D01*
X033022Y037155D02*
X033654Y037155D01*
X033654Y037173D02*
X033022Y037173D01*
X033022Y037191D02*
X033654Y037191D01*
X033654Y037209D02*
X033022Y037209D01*
X033022Y037227D02*
X033654Y037227D01*
X033654Y037245D02*
X033022Y037245D01*
X033022Y037263D02*
X033654Y037263D01*
X033654Y037281D02*
X033022Y037281D01*
X033022Y037299D02*
X033654Y037299D01*
X033654Y037317D02*
X033022Y037317D01*
X033022Y037335D02*
X033654Y037335D01*
X033654Y037353D02*
X033022Y037353D01*
X033022Y037371D02*
X033654Y037371D01*
X033654Y037389D02*
X033022Y037389D01*
X033022Y037407D02*
X033654Y037407D01*
X033654Y037425D02*
X033022Y037425D01*
X033022Y037443D02*
X033654Y037443D01*
X033654Y037461D02*
X033022Y037461D01*
X033022Y037479D02*
X033654Y037479D01*
X033654Y037497D02*
X033022Y037497D01*
X033022Y037515D02*
X033654Y037515D01*
X033654Y037533D02*
X033022Y037533D01*
X033022Y037551D02*
X033654Y037551D01*
X033654Y037569D02*
X033022Y037569D01*
X033022Y037587D02*
X033654Y037587D01*
X033654Y037605D02*
X033022Y037605D01*
X033022Y037623D02*
X033654Y037623D01*
X033654Y037641D02*
X033022Y037641D01*
X033022Y037659D02*
X033654Y037659D01*
X033654Y037677D02*
X033022Y037677D01*
X033022Y037695D02*
X033654Y037695D01*
X033654Y037713D02*
X033022Y037713D01*
X033022Y037731D02*
X033654Y037731D01*
X033654Y037749D02*
X033022Y037749D01*
X033022Y037767D02*
X033654Y037767D01*
X033654Y037785D02*
X033022Y037785D01*
X033022Y037803D02*
X033654Y037803D01*
X033654Y037821D02*
X033022Y037821D01*
X033022Y037839D02*
X033654Y037839D01*
X033654Y037857D02*
X033022Y037857D01*
X033022Y037875D02*
X033654Y037875D01*
X033654Y037893D02*
X033022Y037893D01*
X033022Y037911D02*
X033654Y037911D01*
X033654Y037929D02*
X033022Y037929D01*
X033022Y037947D02*
X033654Y037947D01*
X033654Y037965D02*
X033022Y037965D01*
X033022Y037983D02*
X033654Y037983D01*
X033654Y038001D02*
X033022Y038001D01*
X033022Y038019D02*
X033654Y038019D01*
X033654Y038037D02*
X033022Y038037D01*
X033022Y038055D02*
X033654Y038055D01*
X033654Y038073D02*
X033022Y038073D01*
X033022Y038091D02*
X033654Y038091D01*
X033654Y038109D02*
X033022Y038109D01*
X033022Y038127D02*
X033654Y038127D01*
X033654Y038145D02*
X033022Y038145D01*
X033022Y038163D02*
X033654Y038163D01*
X033654Y038181D02*
X033022Y038181D01*
X033022Y038199D02*
X033654Y038199D01*
X033654Y038217D02*
X033022Y038217D01*
X033022Y038235D02*
X033654Y038235D01*
X033654Y038253D02*
X033022Y038253D01*
X033022Y038271D02*
X033654Y038271D01*
X033654Y038289D02*
X033022Y038289D01*
X033022Y038307D02*
X033654Y038307D01*
X033654Y038325D02*
X033022Y038325D01*
X033022Y038343D02*
X033654Y038343D01*
X033654Y038361D02*
X033022Y038361D01*
X033022Y038379D02*
X033654Y038379D01*
X033654Y038397D02*
X033022Y038397D01*
X033022Y038415D02*
X033654Y038415D01*
X033654Y038433D02*
X033022Y038433D01*
X006076Y031058D02*
X005050Y031058D01*
X005050Y031690D01*
X006076Y031690D01*
X006076Y031058D01*
X006076Y031076D02*
X005050Y031076D01*
X005050Y031094D02*
X006076Y031094D01*
X006076Y031112D02*
X005050Y031112D01*
X005050Y031130D02*
X006076Y031130D01*
X006076Y031148D02*
X005050Y031148D01*
X005050Y031166D02*
X006076Y031166D01*
X006076Y031184D02*
X005050Y031184D01*
X005050Y031202D02*
X006076Y031202D01*
X006076Y031220D02*
X005050Y031220D01*
X005050Y031238D02*
X006076Y031238D01*
X006076Y031256D02*
X005050Y031256D01*
X005050Y031274D02*
X006076Y031274D01*
X006076Y031292D02*
X005050Y031292D01*
X005050Y031310D02*
X006076Y031310D01*
X006076Y031328D02*
X005050Y031328D01*
X005050Y031346D02*
X006076Y031346D01*
X006076Y031364D02*
X005050Y031364D01*
X005050Y031382D02*
X006076Y031382D01*
X006076Y031400D02*
X005050Y031400D01*
X005050Y031418D02*
X006076Y031418D01*
X006076Y031436D02*
X005050Y031436D01*
X005050Y031454D02*
X006076Y031454D01*
X006076Y031472D02*
X005050Y031472D01*
X005050Y031490D02*
X006076Y031490D01*
X006076Y031508D02*
X005050Y031508D01*
X005050Y031526D02*
X006076Y031526D01*
X006076Y031544D02*
X005050Y031544D01*
X005050Y031562D02*
X006076Y031562D01*
X006076Y031580D02*
X005050Y031580D01*
X005050Y031598D02*
X006076Y031598D01*
X006076Y031616D02*
X005050Y031616D01*
X005050Y031634D02*
X006076Y031634D01*
X006076Y031652D02*
X005050Y031652D01*
X005050Y031670D02*
X006076Y031670D01*
X006076Y031688D02*
X005050Y031688D01*
X004659Y031058D02*
X003633Y031058D01*
X003633Y031690D01*
X004659Y031690D01*
X004659Y031058D01*
X004659Y031076D02*
X003633Y031076D01*
X003633Y031094D02*
X004659Y031094D01*
X004659Y031112D02*
X003633Y031112D01*
X003633Y031130D02*
X004659Y031130D01*
X004659Y031148D02*
X003633Y031148D01*
X003633Y031166D02*
X004659Y031166D01*
X004659Y031184D02*
X003633Y031184D01*
X003633Y031202D02*
X004659Y031202D01*
X004659Y031220D02*
X003633Y031220D01*
X003633Y031238D02*
X004659Y031238D01*
X004659Y031256D02*
X003633Y031256D01*
X003633Y031274D02*
X004659Y031274D01*
X004659Y031292D02*
X003633Y031292D01*
X003633Y031310D02*
X004659Y031310D01*
X004659Y031328D02*
X003633Y031328D01*
X003633Y031346D02*
X004659Y031346D01*
X004659Y031364D02*
X003633Y031364D01*
X003633Y031382D02*
X004659Y031382D01*
X004659Y031400D02*
X003633Y031400D01*
X003633Y031418D02*
X004659Y031418D01*
X004659Y031436D02*
X003633Y031436D01*
X003633Y031454D02*
X004659Y031454D01*
X004659Y031472D02*
X003633Y031472D01*
X003633Y031490D02*
X004659Y031490D01*
X004659Y031508D02*
X003633Y031508D01*
X003633Y031526D02*
X004659Y031526D01*
X004659Y031544D02*
X003633Y031544D01*
X003633Y031562D02*
X004659Y031562D01*
X004659Y031580D02*
X003633Y031580D01*
X003633Y031598D02*
X004659Y031598D01*
X004659Y031616D02*
X003633Y031616D01*
X003633Y031634D02*
X004659Y031634D01*
X004659Y031652D02*
X003633Y031652D01*
X003633Y031670D02*
X004659Y031670D01*
X004659Y031688D02*
X003633Y031688D01*
D13*
X008735Y026240D02*
X008735Y025334D01*
X008735Y022240D02*
X008735Y021334D01*
X008992Y009912D02*
X008992Y009007D01*
X008992Y005912D02*
X008992Y005007D01*
D14*
X020376Y007340D02*
X020376Y007852D01*
X020376Y007340D02*
X019786Y007340D01*
X019786Y007852D01*
X020376Y007852D01*
X020376Y007360D02*
X019786Y007360D01*
X019786Y007380D02*
X020376Y007380D01*
X020376Y007400D02*
X019786Y007400D01*
X019786Y007420D02*
X020376Y007420D01*
X020376Y007440D02*
X019786Y007440D01*
X019786Y007460D02*
X020376Y007460D01*
X020376Y007480D02*
X019786Y007480D01*
X019786Y007500D02*
X020376Y007500D01*
X020376Y007520D02*
X019786Y007520D01*
X019786Y007540D02*
X020376Y007540D01*
X020376Y007560D02*
X019786Y007560D01*
X019786Y007580D02*
X020376Y007580D01*
X020376Y007600D02*
X019786Y007600D01*
X019786Y007620D02*
X020376Y007620D01*
X020376Y007640D02*
X019786Y007640D01*
X019786Y007660D02*
X020376Y007660D01*
X020376Y007680D02*
X019786Y007680D01*
X019786Y007700D02*
X020376Y007700D01*
X020376Y007720D02*
X019786Y007720D01*
X019786Y007740D02*
X020376Y007740D01*
X020376Y007760D02*
X019786Y007760D01*
X019786Y007780D02*
X020376Y007780D01*
X020376Y007800D02*
X019786Y007800D01*
X019786Y007820D02*
X020376Y007820D01*
X020376Y007840D02*
X019786Y007840D01*
X020376Y008009D02*
X020376Y008521D01*
X020376Y008009D02*
X019786Y008009D01*
X019786Y008521D01*
X020376Y008521D01*
X020376Y008029D02*
X019786Y008029D01*
X019786Y008049D02*
X020376Y008049D01*
X020376Y008069D02*
X019786Y008069D01*
X019786Y008089D02*
X020376Y008089D01*
X020376Y008109D02*
X019786Y008109D01*
X019786Y008129D02*
X020376Y008129D01*
X020376Y008149D02*
X019786Y008149D01*
X019786Y008169D02*
X020376Y008169D01*
X020376Y008189D02*
X019786Y008189D01*
X019786Y008209D02*
X020376Y008209D01*
X020376Y008229D02*
X019786Y008229D01*
X019786Y008249D02*
X020376Y008249D01*
X020376Y008269D02*
X019786Y008269D01*
X019786Y008289D02*
X020376Y008289D01*
X020376Y008309D02*
X019786Y008309D01*
X019786Y008329D02*
X020376Y008329D01*
X020376Y008349D02*
X019786Y008349D01*
X019786Y008369D02*
X020376Y008369D01*
X020376Y008389D02*
X019786Y008389D01*
X019786Y008409D02*
X020376Y008409D01*
X020376Y008429D02*
X019786Y008429D01*
X019786Y008449D02*
X020376Y008449D01*
X020376Y008469D02*
X019786Y008469D01*
X019786Y008489D02*
X020376Y008489D01*
X020376Y008509D02*
X019786Y008509D01*
D15*
X025270Y011884D02*
X025700Y011884D01*
X025700Y011336D01*
X025270Y011336D01*
X025270Y011884D01*
X025270Y011358D02*
X025700Y011358D01*
X025700Y011380D02*
X025270Y011380D01*
X025270Y011402D02*
X025700Y011402D01*
X025700Y011424D02*
X025270Y011424D01*
X025270Y011446D02*
X025700Y011446D01*
X025700Y011468D02*
X025270Y011468D01*
X025270Y011490D02*
X025700Y011490D01*
X025700Y011512D02*
X025270Y011512D01*
X025270Y011534D02*
X025700Y011534D01*
X025700Y011556D02*
X025270Y011556D01*
X025270Y011578D02*
X025700Y011578D01*
X025700Y011600D02*
X025270Y011600D01*
X025270Y011622D02*
X025700Y011622D01*
X025700Y011644D02*
X025270Y011644D01*
X025270Y011666D02*
X025700Y011666D01*
X025700Y011688D02*
X025270Y011688D01*
X025270Y011710D02*
X025700Y011710D01*
X025700Y011732D02*
X025270Y011732D01*
X025270Y011754D02*
X025700Y011754D01*
X025700Y011776D02*
X025270Y011776D01*
X025270Y011798D02*
X025700Y011798D01*
X025700Y011820D02*
X025270Y011820D01*
X025270Y011842D02*
X025700Y011842D01*
X025700Y011864D02*
X025270Y011864D01*
X025270Y012517D02*
X025700Y012517D01*
X025270Y012517D02*
X025270Y013065D01*
X025700Y013065D01*
X025700Y012517D01*
X025700Y012539D02*
X025270Y012539D01*
X025270Y012561D02*
X025700Y012561D01*
X025700Y012583D02*
X025270Y012583D01*
X025270Y012605D02*
X025700Y012605D01*
X025700Y012627D02*
X025270Y012627D01*
X025270Y012649D02*
X025700Y012649D01*
X025700Y012671D02*
X025270Y012671D01*
X025270Y012693D02*
X025700Y012693D01*
X025700Y012715D02*
X025270Y012715D01*
X025270Y012737D02*
X025700Y012737D01*
X025700Y012759D02*
X025270Y012759D01*
X025270Y012781D02*
X025700Y012781D01*
X025700Y012803D02*
X025270Y012803D01*
X025270Y012825D02*
X025700Y012825D01*
X025700Y012847D02*
X025270Y012847D01*
X025270Y012869D02*
X025700Y012869D01*
X025700Y012891D02*
X025270Y012891D01*
X025270Y012913D02*
X025700Y012913D01*
X025700Y012935D02*
X025270Y012935D01*
X025270Y012957D02*
X025700Y012957D01*
X025700Y012979D02*
X025270Y012979D01*
X025270Y013001D02*
X025700Y013001D01*
X025700Y013023D02*
X025270Y013023D01*
X025270Y013045D02*
X025700Y013045D01*
X026057Y012517D02*
X026487Y012517D01*
X026057Y012517D02*
X026057Y013065D01*
X026487Y013065D01*
X026487Y012517D01*
X026487Y012539D02*
X026057Y012539D01*
X026057Y012561D02*
X026487Y012561D01*
X026487Y012583D02*
X026057Y012583D01*
X026057Y012605D02*
X026487Y012605D01*
X026487Y012627D02*
X026057Y012627D01*
X026057Y012649D02*
X026487Y012649D01*
X026487Y012671D02*
X026057Y012671D01*
X026057Y012693D02*
X026487Y012693D01*
X026487Y012715D02*
X026057Y012715D01*
X026057Y012737D02*
X026487Y012737D01*
X026487Y012759D02*
X026057Y012759D01*
X026057Y012781D02*
X026487Y012781D01*
X026487Y012803D02*
X026057Y012803D01*
X026057Y012825D02*
X026487Y012825D01*
X026487Y012847D02*
X026057Y012847D01*
X026057Y012869D02*
X026487Y012869D01*
X026487Y012891D02*
X026057Y012891D01*
X026057Y012913D02*
X026487Y012913D01*
X026487Y012935D02*
X026057Y012935D01*
X026057Y012957D02*
X026487Y012957D01*
X026487Y012979D02*
X026057Y012979D01*
X026057Y013001D02*
X026487Y013001D01*
X026487Y013023D02*
X026057Y013023D01*
X026057Y013045D02*
X026487Y013045D01*
X026487Y011884D02*
X026057Y011884D01*
X026487Y011884D02*
X026487Y011336D01*
X026057Y011336D01*
X026057Y011884D01*
X026057Y011358D02*
X026487Y011358D01*
X026487Y011380D02*
X026057Y011380D01*
X026057Y011402D02*
X026487Y011402D01*
X026487Y011424D02*
X026057Y011424D01*
X026057Y011446D02*
X026487Y011446D01*
X026487Y011468D02*
X026057Y011468D01*
X026057Y011490D02*
X026487Y011490D01*
X026487Y011512D02*
X026057Y011512D01*
X026057Y011534D02*
X026487Y011534D01*
X026487Y011556D02*
X026057Y011556D01*
X026057Y011578D02*
X026487Y011578D01*
X026487Y011600D02*
X026057Y011600D01*
X026057Y011622D02*
X026487Y011622D01*
X026487Y011644D02*
X026057Y011644D01*
X026057Y011666D02*
X026487Y011666D01*
X026487Y011688D02*
X026057Y011688D01*
X026057Y011710D02*
X026487Y011710D01*
X026487Y011732D02*
X026057Y011732D01*
X026057Y011754D02*
X026487Y011754D01*
X026487Y011776D02*
X026057Y011776D01*
X026057Y011798D02*
X026487Y011798D01*
X026487Y011820D02*
X026057Y011820D01*
X026057Y011842D02*
X026487Y011842D01*
X026487Y011864D02*
X026057Y011864D01*
X032809Y016789D02*
X032809Y017219D01*
X033357Y017219D01*
X033357Y016789D01*
X032809Y016789D01*
X032809Y016811D02*
X033357Y016811D01*
X033357Y016833D02*
X032809Y016833D01*
X032809Y016855D02*
X033357Y016855D01*
X033357Y016877D02*
X032809Y016877D01*
X032809Y016899D02*
X033357Y016899D01*
X033357Y016921D02*
X032809Y016921D01*
X032809Y016943D02*
X033357Y016943D01*
X033357Y016965D02*
X032809Y016965D01*
X032809Y016987D02*
X033357Y016987D01*
X033357Y017009D02*
X032809Y017009D01*
X032809Y017031D02*
X033357Y017031D01*
X033357Y017053D02*
X032809Y017053D01*
X032809Y017075D02*
X033357Y017075D01*
X033357Y017097D02*
X032809Y017097D01*
X032809Y017119D02*
X033357Y017119D01*
X033357Y017141D02*
X032809Y017141D01*
X032809Y017163D02*
X033357Y017163D01*
X033357Y017185D02*
X032809Y017185D01*
X032809Y017207D02*
X033357Y017207D01*
X032809Y017576D02*
X032809Y018006D01*
X033357Y018006D01*
X033357Y017576D01*
X032809Y017576D01*
X032809Y017598D02*
X033357Y017598D01*
X033357Y017620D02*
X032809Y017620D01*
X032809Y017642D02*
X033357Y017642D01*
X033357Y017664D02*
X032809Y017664D01*
X032809Y017686D02*
X033357Y017686D01*
X033357Y017708D02*
X032809Y017708D01*
X032809Y017730D02*
X033357Y017730D01*
X033357Y017752D02*
X032809Y017752D01*
X032809Y017774D02*
X033357Y017774D01*
X033357Y017796D02*
X032809Y017796D01*
X032809Y017818D02*
X033357Y017818D01*
X033357Y017840D02*
X032809Y017840D01*
X032809Y017862D02*
X033357Y017862D01*
X033357Y017884D02*
X032809Y017884D01*
X032809Y017906D02*
X033357Y017906D01*
X033357Y017928D02*
X032809Y017928D01*
X032809Y017950D02*
X033357Y017950D01*
X033357Y017972D02*
X032809Y017972D01*
X032809Y017994D02*
X033357Y017994D01*
X030604Y018482D02*
X030604Y018912D01*
X031152Y018912D01*
X031152Y018482D01*
X030604Y018482D01*
X030604Y018504D02*
X031152Y018504D01*
X031152Y018526D02*
X030604Y018526D01*
X030604Y018548D02*
X031152Y018548D01*
X031152Y018570D02*
X030604Y018570D01*
X030604Y018592D02*
X031152Y018592D01*
X031152Y018614D02*
X030604Y018614D01*
X030604Y018636D02*
X031152Y018636D01*
X031152Y018658D02*
X030604Y018658D01*
X030604Y018680D02*
X031152Y018680D01*
X031152Y018702D02*
X030604Y018702D01*
X030604Y018724D02*
X031152Y018724D01*
X031152Y018746D02*
X030604Y018746D01*
X030604Y018768D02*
X031152Y018768D01*
X031152Y018790D02*
X030604Y018790D01*
X030604Y018812D02*
X031152Y018812D01*
X031152Y018834D02*
X030604Y018834D01*
X030604Y018856D02*
X031152Y018856D01*
X031152Y018878D02*
X030604Y018878D01*
X030604Y018900D02*
X031152Y018900D01*
X030604Y019269D02*
X030604Y019699D01*
X031152Y019699D01*
X031152Y019269D01*
X030604Y019269D01*
X030604Y019291D02*
X031152Y019291D01*
X031152Y019313D02*
X030604Y019313D01*
X030604Y019335D02*
X031152Y019335D01*
X031152Y019357D02*
X030604Y019357D01*
X030604Y019379D02*
X031152Y019379D01*
X031152Y019401D02*
X030604Y019401D01*
X030604Y019423D02*
X031152Y019423D01*
X031152Y019445D02*
X030604Y019445D01*
X030604Y019467D02*
X031152Y019467D01*
X031152Y019489D02*
X030604Y019489D01*
X030604Y019511D02*
X031152Y019511D01*
X031152Y019533D02*
X030604Y019533D01*
X030604Y019555D02*
X031152Y019555D01*
X031152Y019577D02*
X030604Y019577D01*
X030604Y019599D02*
X031152Y019599D01*
X031152Y019621D02*
X030604Y019621D01*
X030604Y019643D02*
X031152Y019643D01*
X031152Y019665D02*
X030604Y019665D01*
X030604Y019687D02*
X031152Y019687D01*
X030267Y025706D02*
X029837Y025706D01*
X029837Y026254D01*
X030267Y026254D01*
X030267Y025706D01*
X030267Y025728D02*
X029837Y025728D01*
X029837Y025750D02*
X030267Y025750D01*
X030267Y025772D02*
X029837Y025772D01*
X029837Y025794D02*
X030267Y025794D01*
X030267Y025816D02*
X029837Y025816D01*
X029837Y025838D02*
X030267Y025838D01*
X030267Y025860D02*
X029837Y025860D01*
X029837Y025882D02*
X030267Y025882D01*
X030267Y025904D02*
X029837Y025904D01*
X029837Y025926D02*
X030267Y025926D01*
X030267Y025948D02*
X029837Y025948D01*
X029837Y025970D02*
X030267Y025970D01*
X030267Y025992D02*
X029837Y025992D01*
X029837Y026014D02*
X030267Y026014D01*
X030267Y026036D02*
X029837Y026036D01*
X029837Y026058D02*
X030267Y026058D01*
X030267Y026080D02*
X029837Y026080D01*
X029837Y026102D02*
X030267Y026102D01*
X030267Y026124D02*
X029837Y026124D01*
X029837Y026146D02*
X030267Y026146D01*
X030267Y026168D02*
X029837Y026168D01*
X029837Y026190D02*
X030267Y026190D01*
X030267Y026212D02*
X029837Y026212D01*
X029837Y026234D02*
X030267Y026234D01*
X029479Y025706D02*
X029049Y025706D01*
X029049Y026254D01*
X029479Y026254D01*
X029479Y025706D01*
X029479Y025728D02*
X029049Y025728D01*
X029049Y025750D02*
X029479Y025750D01*
X029479Y025772D02*
X029049Y025772D01*
X029049Y025794D02*
X029479Y025794D01*
X029479Y025816D02*
X029049Y025816D01*
X029049Y025838D02*
X029479Y025838D01*
X029479Y025860D02*
X029049Y025860D01*
X029049Y025882D02*
X029479Y025882D01*
X029479Y025904D02*
X029049Y025904D01*
X029049Y025926D02*
X029479Y025926D01*
X029479Y025948D02*
X029049Y025948D01*
X029049Y025970D02*
X029479Y025970D01*
X029479Y025992D02*
X029049Y025992D01*
X029049Y026014D02*
X029479Y026014D01*
X029479Y026036D02*
X029049Y026036D01*
X029049Y026058D02*
X029479Y026058D01*
X029479Y026080D02*
X029049Y026080D01*
X029049Y026102D02*
X029479Y026102D01*
X029479Y026124D02*
X029049Y026124D01*
X029049Y026146D02*
X029479Y026146D01*
X029479Y026168D02*
X029049Y026168D01*
X029049Y026190D02*
X029479Y026190D01*
X029479Y026212D02*
X029049Y026212D01*
X029049Y026234D02*
X029479Y026234D01*
X028613Y032672D02*
X028183Y032672D01*
X028613Y032672D02*
X028613Y032124D01*
X028183Y032124D01*
X028183Y032672D01*
X028183Y032146D02*
X028613Y032146D01*
X028613Y032168D02*
X028183Y032168D01*
X028183Y032190D02*
X028613Y032190D01*
X028613Y032212D02*
X028183Y032212D01*
X028183Y032234D02*
X028613Y032234D01*
X028613Y032256D02*
X028183Y032256D01*
X028183Y032278D02*
X028613Y032278D01*
X028613Y032300D02*
X028183Y032300D01*
X028183Y032322D02*
X028613Y032322D01*
X028613Y032344D02*
X028183Y032344D01*
X028183Y032366D02*
X028613Y032366D01*
X028613Y032388D02*
X028183Y032388D01*
X028183Y032410D02*
X028613Y032410D01*
X028613Y032432D02*
X028183Y032432D01*
X028183Y032454D02*
X028613Y032454D01*
X028613Y032476D02*
X028183Y032476D01*
X028183Y032498D02*
X028613Y032498D01*
X028613Y032520D02*
X028183Y032520D01*
X028183Y032542D02*
X028613Y032542D01*
X028613Y032564D02*
X028183Y032564D01*
X028183Y032586D02*
X028613Y032586D01*
X028613Y032608D02*
X028183Y032608D01*
X028183Y032630D02*
X028613Y032630D01*
X028613Y032652D02*
X028183Y032652D01*
X027826Y032672D02*
X027396Y032672D01*
X027826Y032672D02*
X027826Y032124D01*
X027396Y032124D01*
X027396Y032672D01*
X027396Y032146D02*
X027826Y032146D01*
X027826Y032168D02*
X027396Y032168D01*
X027396Y032190D02*
X027826Y032190D01*
X027826Y032212D02*
X027396Y032212D01*
X027396Y032234D02*
X027826Y032234D01*
X027826Y032256D02*
X027396Y032256D01*
X027396Y032278D02*
X027826Y032278D01*
X027826Y032300D02*
X027396Y032300D01*
X027396Y032322D02*
X027826Y032322D01*
X027826Y032344D02*
X027396Y032344D01*
X027396Y032366D02*
X027826Y032366D01*
X027826Y032388D02*
X027396Y032388D01*
X027396Y032410D02*
X027826Y032410D01*
X027826Y032432D02*
X027396Y032432D01*
X027396Y032454D02*
X027826Y032454D01*
X027826Y032476D02*
X027396Y032476D01*
X027396Y032498D02*
X027826Y032498D01*
X027826Y032520D02*
X027396Y032520D01*
X027396Y032542D02*
X027826Y032542D01*
X027826Y032564D02*
X027396Y032564D01*
X027396Y032586D02*
X027826Y032586D01*
X027826Y032608D02*
X027396Y032608D01*
X027396Y032630D02*
X027826Y032630D01*
X027826Y032652D02*
X027396Y032652D01*
X027474Y033108D02*
X027904Y033108D01*
X027474Y033108D02*
X027474Y033656D01*
X027904Y033656D01*
X027904Y033108D01*
X027904Y033130D02*
X027474Y033130D01*
X027474Y033152D02*
X027904Y033152D01*
X027904Y033174D02*
X027474Y033174D01*
X027474Y033196D02*
X027904Y033196D01*
X027904Y033218D02*
X027474Y033218D01*
X027474Y033240D02*
X027904Y033240D01*
X027904Y033262D02*
X027474Y033262D01*
X027474Y033284D02*
X027904Y033284D01*
X027904Y033306D02*
X027474Y033306D01*
X027474Y033328D02*
X027904Y033328D01*
X027904Y033350D02*
X027474Y033350D01*
X027474Y033372D02*
X027904Y033372D01*
X027904Y033394D02*
X027474Y033394D01*
X027474Y033416D02*
X027904Y033416D01*
X027904Y033438D02*
X027474Y033438D01*
X027474Y033460D02*
X027904Y033460D01*
X027904Y033482D02*
X027474Y033482D01*
X027474Y033504D02*
X027904Y033504D01*
X027904Y033526D02*
X027474Y033526D01*
X027474Y033548D02*
X027904Y033548D01*
X027904Y033570D02*
X027474Y033570D01*
X027474Y033592D02*
X027904Y033592D01*
X027904Y033614D02*
X027474Y033614D01*
X027474Y033636D02*
X027904Y033636D01*
X028262Y033108D02*
X028692Y033108D01*
X028262Y033108D02*
X028262Y033656D01*
X028692Y033656D01*
X028692Y033108D01*
X028692Y033130D02*
X028262Y033130D01*
X028262Y033152D02*
X028692Y033152D01*
X028692Y033174D02*
X028262Y033174D01*
X028262Y033196D02*
X028692Y033196D01*
X028692Y033218D02*
X028262Y033218D01*
X028262Y033240D02*
X028692Y033240D01*
X028692Y033262D02*
X028262Y033262D01*
X028262Y033284D02*
X028692Y033284D01*
X028692Y033306D02*
X028262Y033306D01*
X028262Y033328D02*
X028692Y033328D01*
X028692Y033350D02*
X028262Y033350D01*
X028262Y033372D02*
X028692Y033372D01*
X028692Y033394D02*
X028262Y033394D01*
X028262Y033416D02*
X028692Y033416D01*
X028692Y033438D02*
X028262Y033438D01*
X028262Y033460D02*
X028692Y033460D01*
X028692Y033482D02*
X028262Y033482D01*
X028262Y033504D02*
X028692Y033504D01*
X028692Y033526D02*
X028262Y033526D01*
X028262Y033548D02*
X028692Y033548D01*
X028692Y033570D02*
X028262Y033570D01*
X028262Y033592D02*
X028692Y033592D01*
X028692Y033614D02*
X028262Y033614D01*
X028262Y033636D02*
X028692Y033636D01*
X045978Y020703D02*
X046408Y020703D01*
X046408Y020155D01*
X045978Y020155D01*
X045978Y020703D01*
X045978Y020177D02*
X046408Y020177D01*
X046408Y020199D02*
X045978Y020199D01*
X045978Y020221D02*
X046408Y020221D01*
X046408Y020243D02*
X045978Y020243D01*
X045978Y020265D02*
X046408Y020265D01*
X046408Y020287D02*
X045978Y020287D01*
X045978Y020309D02*
X046408Y020309D01*
X046408Y020331D02*
X045978Y020331D01*
X045978Y020353D02*
X046408Y020353D01*
X046408Y020375D02*
X045978Y020375D01*
X045978Y020397D02*
X046408Y020397D01*
X046408Y020419D02*
X045978Y020419D01*
X045978Y020441D02*
X046408Y020441D01*
X046408Y020463D02*
X045978Y020463D01*
X045978Y020485D02*
X046408Y020485D01*
X046408Y020507D02*
X045978Y020507D01*
X045978Y020529D02*
X046408Y020529D01*
X046408Y020551D02*
X045978Y020551D01*
X045978Y020573D02*
X046408Y020573D01*
X046408Y020595D02*
X045978Y020595D01*
X045978Y020617D02*
X046408Y020617D01*
X046408Y020639D02*
X045978Y020639D01*
X045978Y020661D02*
X046408Y020661D01*
X046408Y020683D02*
X045978Y020683D01*
X046766Y020703D02*
X047196Y020703D01*
X047196Y020155D01*
X046766Y020155D01*
X046766Y020703D01*
X046766Y020177D02*
X047196Y020177D01*
X047196Y020199D02*
X046766Y020199D01*
X046766Y020221D02*
X047196Y020221D01*
X047196Y020243D02*
X046766Y020243D01*
X046766Y020265D02*
X047196Y020265D01*
X047196Y020287D02*
X046766Y020287D01*
X046766Y020309D02*
X047196Y020309D01*
X047196Y020331D02*
X046766Y020331D01*
X046766Y020353D02*
X047196Y020353D01*
X047196Y020375D02*
X046766Y020375D01*
X046766Y020397D02*
X047196Y020397D01*
X047196Y020419D02*
X046766Y020419D01*
X046766Y020441D02*
X047196Y020441D01*
X047196Y020463D02*
X046766Y020463D01*
X046766Y020485D02*
X047196Y020485D01*
X047196Y020507D02*
X046766Y020507D01*
X046766Y020529D02*
X047196Y020529D01*
X047196Y020551D02*
X046766Y020551D01*
X046766Y020573D02*
X047196Y020573D01*
X047196Y020595D02*
X046766Y020595D01*
X046766Y020617D02*
X047196Y020617D01*
X047196Y020639D02*
X046766Y020639D01*
X046766Y020661D02*
X047196Y020661D01*
X047196Y020683D02*
X046766Y020683D01*
X018141Y014289D02*
X017711Y014289D01*
X017711Y014837D01*
X018141Y014837D01*
X018141Y014289D01*
X018141Y014311D02*
X017711Y014311D01*
X017711Y014333D02*
X018141Y014333D01*
X018141Y014355D02*
X017711Y014355D01*
X017711Y014377D02*
X018141Y014377D01*
X018141Y014399D02*
X017711Y014399D01*
X017711Y014421D02*
X018141Y014421D01*
X018141Y014443D02*
X017711Y014443D01*
X017711Y014465D02*
X018141Y014465D01*
X018141Y014487D02*
X017711Y014487D01*
X017711Y014509D02*
X018141Y014509D01*
X018141Y014531D02*
X017711Y014531D01*
X017711Y014553D02*
X018141Y014553D01*
X018141Y014575D02*
X017711Y014575D01*
X017711Y014597D02*
X018141Y014597D01*
X018141Y014619D02*
X017711Y014619D01*
X017711Y014641D02*
X018141Y014641D01*
X018141Y014663D02*
X017711Y014663D01*
X017711Y014685D02*
X018141Y014685D01*
X018141Y014707D02*
X017711Y014707D01*
X017711Y014729D02*
X018141Y014729D01*
X018141Y014751D02*
X017711Y014751D01*
X017711Y014773D02*
X018141Y014773D01*
X018141Y014795D02*
X017711Y014795D01*
X017711Y014817D02*
X018141Y014817D01*
X017353Y014289D02*
X016923Y014289D01*
X016923Y014837D01*
X017353Y014837D01*
X017353Y014289D01*
X017353Y014311D02*
X016923Y014311D01*
X016923Y014333D02*
X017353Y014333D01*
X017353Y014355D02*
X016923Y014355D01*
X016923Y014377D02*
X017353Y014377D01*
X017353Y014399D02*
X016923Y014399D01*
X016923Y014421D02*
X017353Y014421D01*
X017353Y014443D02*
X016923Y014443D01*
X016923Y014465D02*
X017353Y014465D01*
X017353Y014487D02*
X016923Y014487D01*
X016923Y014509D02*
X017353Y014509D01*
X017353Y014531D02*
X016923Y014531D01*
X016923Y014553D02*
X017353Y014553D01*
X017353Y014575D02*
X016923Y014575D01*
X016923Y014597D02*
X017353Y014597D01*
X017353Y014619D02*
X016923Y014619D01*
X016923Y014641D02*
X017353Y014641D01*
X017353Y014663D02*
X016923Y014663D01*
X016923Y014685D02*
X017353Y014685D01*
X017353Y014707D02*
X016923Y014707D01*
X016923Y014729D02*
X017353Y014729D01*
X017353Y014751D02*
X016923Y014751D01*
X016923Y014773D02*
X017353Y014773D01*
X017353Y014795D02*
X016923Y014795D01*
X016923Y014817D02*
X017353Y014817D01*
X017314Y013853D02*
X016884Y013853D01*
X017314Y013853D02*
X017314Y013305D01*
X016884Y013305D01*
X016884Y013853D01*
X016884Y013327D02*
X017314Y013327D01*
X017314Y013349D02*
X016884Y013349D01*
X016884Y013371D02*
X017314Y013371D01*
X017314Y013393D02*
X016884Y013393D01*
X016884Y013415D02*
X017314Y013415D01*
X017314Y013437D02*
X016884Y013437D01*
X016884Y013459D02*
X017314Y013459D01*
X017314Y013481D02*
X016884Y013481D01*
X016884Y013503D02*
X017314Y013503D01*
X017314Y013525D02*
X016884Y013525D01*
X016884Y013547D02*
X017314Y013547D01*
X017314Y013569D02*
X016884Y013569D01*
X016884Y013591D02*
X017314Y013591D01*
X017314Y013613D02*
X016884Y013613D01*
X016884Y013635D02*
X017314Y013635D01*
X017314Y013657D02*
X016884Y013657D01*
X016884Y013679D02*
X017314Y013679D01*
X017314Y013701D02*
X016884Y013701D01*
X016884Y013723D02*
X017314Y013723D01*
X017314Y013745D02*
X016884Y013745D01*
X016884Y013767D02*
X017314Y013767D01*
X017314Y013789D02*
X016884Y013789D01*
X016884Y013811D02*
X017314Y013811D01*
X017314Y013833D02*
X016884Y013833D01*
X017671Y013853D02*
X018101Y013853D01*
X018101Y013305D01*
X017671Y013305D01*
X017671Y013853D01*
X017671Y013327D02*
X018101Y013327D01*
X018101Y013349D02*
X017671Y013349D01*
X017671Y013371D02*
X018101Y013371D01*
X018101Y013393D02*
X017671Y013393D01*
X017671Y013415D02*
X018101Y013415D01*
X018101Y013437D02*
X017671Y013437D01*
X017671Y013459D02*
X018101Y013459D01*
X018101Y013481D02*
X017671Y013481D01*
X017671Y013503D02*
X018101Y013503D01*
X018101Y013525D02*
X017671Y013525D01*
X017671Y013547D02*
X018101Y013547D01*
X018101Y013569D02*
X017671Y013569D01*
X017671Y013591D02*
X018101Y013591D01*
X018101Y013613D02*
X017671Y013613D01*
X017671Y013635D02*
X018101Y013635D01*
X018101Y013657D02*
X017671Y013657D01*
X017671Y013679D02*
X018101Y013679D01*
X018101Y013701D02*
X017671Y013701D01*
X017671Y013723D02*
X018101Y013723D01*
X018101Y013745D02*
X017671Y013745D01*
X017671Y013767D02*
X018101Y013767D01*
X018101Y013789D02*
X017671Y013789D01*
X017671Y013811D02*
X018101Y013811D01*
X018101Y013833D02*
X017671Y013833D01*
X009479Y031690D02*
X009049Y031690D01*
X009049Y032238D01*
X009479Y032238D01*
X009479Y031690D01*
X009479Y031712D02*
X009049Y031712D01*
X009049Y031734D02*
X009479Y031734D01*
X009479Y031756D02*
X009049Y031756D01*
X009049Y031778D02*
X009479Y031778D01*
X009479Y031800D02*
X009049Y031800D01*
X009049Y031822D02*
X009479Y031822D01*
X009479Y031844D02*
X009049Y031844D01*
X009049Y031866D02*
X009479Y031866D01*
X009479Y031888D02*
X009049Y031888D01*
X009049Y031910D02*
X009479Y031910D01*
X009479Y031932D02*
X009049Y031932D01*
X009049Y031954D02*
X009479Y031954D01*
X009479Y031976D02*
X009049Y031976D01*
X009049Y031998D02*
X009479Y031998D01*
X009479Y032020D02*
X009049Y032020D01*
X009049Y032042D02*
X009479Y032042D01*
X009479Y032064D02*
X009049Y032064D01*
X009049Y032086D02*
X009479Y032086D01*
X009479Y032108D02*
X009049Y032108D01*
X009049Y032130D02*
X009479Y032130D01*
X009479Y032152D02*
X009049Y032152D01*
X009049Y032174D02*
X009479Y032174D01*
X009479Y032196D02*
X009049Y032196D01*
X009049Y032218D02*
X009479Y032218D01*
X008692Y031690D02*
X008262Y031690D01*
X008262Y032238D01*
X008692Y032238D01*
X008692Y031690D01*
X008692Y031712D02*
X008262Y031712D01*
X008262Y031734D02*
X008692Y031734D01*
X008692Y031756D02*
X008262Y031756D01*
X008262Y031778D02*
X008692Y031778D01*
X008692Y031800D02*
X008262Y031800D01*
X008262Y031822D02*
X008692Y031822D01*
X008692Y031844D02*
X008262Y031844D01*
X008262Y031866D02*
X008692Y031866D01*
X008692Y031888D02*
X008262Y031888D01*
X008262Y031910D02*
X008692Y031910D01*
X008692Y031932D02*
X008262Y031932D01*
X008262Y031954D02*
X008692Y031954D01*
X008692Y031976D02*
X008262Y031976D01*
X008262Y031998D02*
X008692Y031998D01*
X008692Y032020D02*
X008262Y032020D01*
X008262Y032042D02*
X008692Y032042D01*
X008692Y032064D02*
X008262Y032064D01*
X008262Y032086D02*
X008692Y032086D01*
X008692Y032108D02*
X008262Y032108D01*
X008262Y032130D02*
X008692Y032130D01*
X008692Y032152D02*
X008262Y032152D01*
X008262Y032174D02*
X008692Y032174D01*
X008692Y032196D02*
X008262Y032196D01*
X008262Y032218D02*
X008692Y032218D01*
X005424Y040900D02*
X004994Y040900D01*
X005424Y040900D02*
X005424Y040352D01*
X004994Y040352D01*
X004994Y040900D01*
X004994Y040374D02*
X005424Y040374D01*
X005424Y040396D02*
X004994Y040396D01*
X004994Y040418D02*
X005424Y040418D01*
X005424Y040440D02*
X004994Y040440D01*
X004994Y040462D02*
X005424Y040462D01*
X005424Y040484D02*
X004994Y040484D01*
X004994Y040506D02*
X005424Y040506D01*
X005424Y040528D02*
X004994Y040528D01*
X004994Y040550D02*
X005424Y040550D01*
X005424Y040572D02*
X004994Y040572D01*
X004994Y040594D02*
X005424Y040594D01*
X005424Y040616D02*
X004994Y040616D01*
X004994Y040638D02*
X005424Y040638D01*
X005424Y040660D02*
X004994Y040660D01*
X004994Y040682D02*
X005424Y040682D01*
X005424Y040704D02*
X004994Y040704D01*
X004994Y040726D02*
X005424Y040726D01*
X005424Y040748D02*
X004994Y040748D01*
X004994Y040770D02*
X005424Y040770D01*
X005424Y040792D02*
X004994Y040792D01*
X004994Y040814D02*
X005424Y040814D01*
X005424Y040836D02*
X004994Y040836D01*
X004994Y040858D02*
X005424Y040858D01*
X005424Y040880D02*
X004994Y040880D01*
X004637Y040900D02*
X004207Y040900D01*
X004637Y040900D02*
X004637Y040352D01*
X004207Y040352D01*
X004207Y040900D01*
X004207Y040374D02*
X004637Y040374D01*
X004637Y040396D02*
X004207Y040396D01*
X004207Y040418D02*
X004637Y040418D01*
X004637Y040440D02*
X004207Y040440D01*
X004207Y040462D02*
X004637Y040462D01*
X004637Y040484D02*
X004207Y040484D01*
X004207Y040506D02*
X004637Y040506D01*
X004637Y040528D02*
X004207Y040528D01*
X004207Y040550D02*
X004637Y040550D01*
X004637Y040572D02*
X004207Y040572D01*
X004207Y040594D02*
X004637Y040594D01*
X004637Y040616D02*
X004207Y040616D01*
X004207Y040638D02*
X004637Y040638D01*
X004637Y040660D02*
X004207Y040660D01*
X004207Y040682D02*
X004637Y040682D01*
X004637Y040704D02*
X004207Y040704D01*
X004207Y040726D02*
X004637Y040726D01*
X004637Y040748D02*
X004207Y040748D01*
X004207Y040770D02*
X004637Y040770D01*
X004637Y040792D02*
X004207Y040792D01*
X004207Y040814D02*
X004637Y040814D01*
X004637Y040836D02*
X004207Y040836D01*
X004207Y040858D02*
X004637Y040858D01*
X004637Y040880D02*
X004207Y040880D01*
D16*
X025670Y039409D03*
X025670Y038409D03*
X025670Y037409D03*
X025670Y036409D03*
X025670Y035409D03*
X025670Y034409D03*
X025670Y033409D03*
X025670Y032409D03*
X030670Y032409D03*
X030670Y033409D03*
X030670Y034409D03*
X030670Y035409D03*
X030670Y036409D03*
X030670Y037409D03*
X030670Y038409D03*
X030670Y039409D03*
X032008Y032362D03*
X032008Y031362D03*
X032008Y030362D03*
X032008Y029362D03*
X032008Y028362D03*
X032008Y027362D03*
X032008Y026362D03*
X032008Y025362D03*
X031969Y023976D03*
X031969Y022976D03*
X031969Y021976D03*
X031969Y020976D03*
X031969Y019976D03*
X031969Y018976D03*
X031969Y017976D03*
X031969Y016976D03*
X029449Y017189D03*
X029449Y018189D03*
X029449Y016189D03*
X029449Y015189D03*
X029449Y014189D03*
X029449Y013189D03*
X029449Y012189D03*
X029449Y011189D03*
X024449Y011189D03*
X024449Y012189D03*
X024449Y013189D03*
X024449Y014189D03*
X024449Y015189D03*
X024449Y016189D03*
X024449Y017189D03*
X024449Y018189D03*
X020985Y018590D03*
X020985Y017590D03*
X020985Y016590D03*
X020985Y015590D03*
X020985Y014590D03*
X020985Y013590D03*
X015985Y013590D03*
X015985Y014590D03*
X015985Y015590D03*
X015985Y016590D03*
X015985Y017590D03*
X015985Y018590D03*
X015985Y019590D03*
X015985Y020590D03*
X020985Y020590D03*
X020985Y019590D03*
X036969Y019976D03*
X036969Y018976D03*
X036969Y017976D03*
X036969Y016976D03*
X036969Y020976D03*
X036969Y021976D03*
X036969Y022976D03*
X036969Y023976D03*
X037008Y025362D03*
X037008Y026362D03*
X037008Y027362D03*
X037008Y028362D03*
X037008Y029362D03*
X037008Y030362D03*
X037008Y031362D03*
X037008Y032362D03*
X043359Y032787D03*
X043359Y035787D03*
X041519Y040200D03*
X040732Y040200D03*
D17*
X012200Y015535D02*
X012200Y015097D01*
X011512Y015097D01*
X011512Y015535D01*
X012200Y015535D01*
X012200Y015119D02*
X011512Y015119D01*
X011512Y015141D02*
X012200Y015141D01*
X012200Y015163D02*
X011512Y015163D01*
X011512Y015185D02*
X012200Y015185D01*
X012200Y015207D02*
X011512Y015207D01*
X011512Y015229D02*
X012200Y015229D01*
X012200Y015251D02*
X011512Y015251D01*
X011512Y015273D02*
X012200Y015273D01*
X012200Y015295D02*
X011512Y015295D01*
X011512Y015317D02*
X012200Y015317D01*
X012200Y015339D02*
X011512Y015339D01*
X011512Y015361D02*
X012200Y015361D01*
X012200Y015383D02*
X011512Y015383D01*
X011512Y015405D02*
X012200Y015405D01*
X012200Y015427D02*
X011512Y015427D01*
X011512Y015449D02*
X012200Y015449D01*
X012200Y015471D02*
X011512Y015471D01*
X011512Y015493D02*
X012200Y015493D01*
X012200Y015515D02*
X011512Y015515D01*
X012200Y014375D02*
X012200Y013937D01*
X011512Y013937D01*
X011512Y014375D01*
X012200Y014375D01*
X012200Y013959D02*
X011512Y013959D01*
X011512Y013981D02*
X012200Y013981D01*
X012200Y014003D02*
X011512Y014003D01*
X011512Y014025D02*
X012200Y014025D01*
X012200Y014047D02*
X011512Y014047D01*
X011512Y014069D02*
X012200Y014069D01*
X012200Y014091D02*
X011512Y014091D01*
X011512Y014113D02*
X012200Y014113D01*
X012200Y014135D02*
X011512Y014135D01*
X011512Y014157D02*
X012200Y014157D01*
X012200Y014179D02*
X011512Y014179D01*
X011512Y014201D02*
X012200Y014201D01*
X012200Y014223D02*
X011512Y014223D01*
X011512Y014245D02*
X012200Y014245D01*
X012200Y014267D02*
X011512Y014267D01*
X011512Y014289D02*
X012200Y014289D01*
X012200Y014311D02*
X011512Y014311D01*
X011512Y014333D02*
X012200Y014333D01*
X012200Y014355D02*
X011512Y014355D01*
D18*
X007333Y039075D03*
X007333Y040855D03*
D19*
X008313Y041345D03*
X008313Y038585D03*
D20*
X020288Y034966D02*
X020586Y034966D01*
X020288Y034966D02*
X020288Y035334D01*
X020586Y035334D01*
X020586Y034966D01*
X020586Y034987D02*
X020288Y034987D01*
X020288Y035008D02*
X020586Y035008D01*
X020586Y035029D02*
X020288Y035029D01*
X020288Y035050D02*
X020586Y035050D01*
X020586Y035071D02*
X020288Y035071D01*
X020288Y035092D02*
X020586Y035092D01*
X020586Y035113D02*
X020288Y035113D01*
X020288Y035134D02*
X020586Y035134D01*
X020586Y035155D02*
X020288Y035155D01*
X020288Y035176D02*
X020586Y035176D01*
X020586Y035197D02*
X020288Y035197D01*
X020288Y035218D02*
X020586Y035218D01*
X020586Y035239D02*
X020288Y035239D01*
X020288Y035260D02*
X020586Y035260D01*
X020586Y035281D02*
X020288Y035281D01*
X020288Y035302D02*
X020586Y035302D01*
X020586Y035323D02*
X020288Y035323D01*
X020948Y034966D02*
X021246Y034966D01*
X020948Y034966D02*
X020948Y035334D01*
X021246Y035334D01*
X021246Y034966D01*
X021246Y034987D02*
X020948Y034987D01*
X020948Y035008D02*
X021246Y035008D01*
X021246Y035029D02*
X020948Y035029D01*
X020948Y035050D02*
X021246Y035050D01*
X021246Y035071D02*
X020948Y035071D01*
X020948Y035092D02*
X021246Y035092D01*
X021246Y035113D02*
X020948Y035113D01*
X020948Y035134D02*
X021246Y035134D01*
X021246Y035155D02*
X020948Y035155D01*
X020948Y035176D02*
X021246Y035176D01*
X021246Y035197D02*
X020948Y035197D01*
X020948Y035218D02*
X021246Y035218D01*
X021246Y035239D02*
X020948Y035239D01*
X020948Y035260D02*
X021246Y035260D01*
X021246Y035281D02*
X020948Y035281D01*
X020948Y035302D02*
X021246Y035302D01*
X021246Y035323D02*
X020948Y035323D01*
X023580Y040088D02*
X023838Y040088D01*
X023580Y040088D02*
X023580Y040456D01*
X023838Y040456D01*
X023838Y040088D01*
X023838Y040109D02*
X023580Y040109D01*
X023580Y040130D02*
X023838Y040130D01*
X023838Y040151D02*
X023580Y040151D01*
X023580Y040172D02*
X023838Y040172D01*
X023838Y040193D02*
X023580Y040193D01*
X023580Y040214D02*
X023838Y040214D01*
X023838Y040235D02*
X023580Y040235D01*
X023580Y040256D02*
X023838Y040256D01*
X023838Y040277D02*
X023580Y040277D01*
X023580Y040298D02*
X023838Y040298D01*
X023838Y040319D02*
X023580Y040319D01*
X023580Y040340D02*
X023838Y040340D01*
X023838Y040361D02*
X023580Y040361D01*
X023580Y040382D02*
X023838Y040382D01*
X023838Y040403D02*
X023580Y040403D01*
X023580Y040424D02*
X023838Y040424D01*
X023838Y040445D02*
X023580Y040445D01*
X024140Y040088D02*
X024398Y040088D01*
X024140Y040088D02*
X024140Y040456D01*
X024398Y040456D01*
X024398Y040088D01*
X024398Y040109D02*
X024140Y040109D01*
X024140Y040130D02*
X024398Y040130D01*
X024398Y040151D02*
X024140Y040151D01*
X024140Y040172D02*
X024398Y040172D01*
X024398Y040193D02*
X024140Y040193D01*
X024140Y040214D02*
X024398Y040214D01*
X024398Y040235D02*
X024140Y040235D01*
X024140Y040256D02*
X024398Y040256D01*
X024398Y040277D02*
X024140Y040277D01*
X024140Y040298D02*
X024398Y040298D01*
X024398Y040319D02*
X024140Y040319D01*
X024140Y040340D02*
X024398Y040340D01*
X024398Y040361D02*
X024140Y040361D01*
X024140Y040382D02*
X024398Y040382D01*
X024398Y040403D02*
X024140Y040403D01*
X024140Y040424D02*
X024398Y040424D01*
X024398Y040445D02*
X024140Y040445D01*
X043173Y038204D02*
X043471Y038204D01*
X043471Y037836D01*
X043173Y037836D01*
X043173Y038204D01*
X043173Y037857D02*
X043471Y037857D01*
X043471Y037878D02*
X043173Y037878D01*
X043173Y037899D02*
X043471Y037899D01*
X043471Y037920D02*
X043173Y037920D01*
X043173Y037941D02*
X043471Y037941D01*
X043471Y037962D02*
X043173Y037962D01*
X043173Y037983D02*
X043471Y037983D01*
X043471Y038004D02*
X043173Y038004D01*
X043173Y038025D02*
X043471Y038025D01*
X043471Y038046D02*
X043173Y038046D01*
X043173Y038067D02*
X043471Y038067D01*
X043471Y038088D02*
X043173Y038088D01*
X043173Y038109D02*
X043471Y038109D01*
X043471Y038130D02*
X043173Y038130D01*
X043173Y038151D02*
X043471Y038151D01*
X043471Y038172D02*
X043173Y038172D01*
X043173Y038193D02*
X043471Y038193D01*
X043833Y038204D02*
X044131Y038204D01*
X044131Y037836D01*
X043833Y037836D01*
X043833Y038204D01*
X043833Y037857D02*
X044131Y037857D01*
X044131Y037878D02*
X043833Y037878D01*
X043833Y037899D02*
X044131Y037899D01*
X044131Y037920D02*
X043833Y037920D01*
X043833Y037941D02*
X044131Y037941D01*
X044131Y037962D02*
X043833Y037962D01*
X043833Y037983D02*
X044131Y037983D01*
X044131Y038004D02*
X043833Y038004D01*
X043833Y038025D02*
X044131Y038025D01*
X044131Y038046D02*
X043833Y038046D01*
X043833Y038067D02*
X044131Y038067D01*
X044131Y038088D02*
X043833Y038088D01*
X043833Y038109D02*
X044131Y038109D01*
X044131Y038130D02*
X043833Y038130D01*
X043833Y038151D02*
X044131Y038151D01*
X044131Y038172D02*
X043833Y038172D01*
X043833Y038193D02*
X044131Y038193D01*
X044078Y035961D02*
X044376Y035961D01*
X044078Y035961D02*
X044078Y036329D01*
X044376Y036329D01*
X044376Y035961D01*
X044376Y035982D02*
X044078Y035982D01*
X044078Y036003D02*
X044376Y036003D01*
X044376Y036024D02*
X044078Y036024D01*
X044078Y036045D02*
X044376Y036045D01*
X044376Y036066D02*
X044078Y036066D01*
X044078Y036087D02*
X044376Y036087D01*
X044376Y036108D02*
X044078Y036108D01*
X044078Y036129D02*
X044376Y036129D01*
X044376Y036150D02*
X044078Y036150D01*
X044078Y036171D02*
X044376Y036171D01*
X044376Y036192D02*
X044078Y036192D01*
X044078Y036213D02*
X044376Y036213D01*
X044376Y036234D02*
X044078Y036234D01*
X044078Y036255D02*
X044376Y036255D01*
X044376Y036276D02*
X044078Y036276D01*
X044078Y036297D02*
X044376Y036297D01*
X044376Y036318D02*
X044078Y036318D01*
X044738Y035961D02*
X045036Y035961D01*
X044738Y035961D02*
X044738Y036329D01*
X045036Y036329D01*
X045036Y035961D01*
X045036Y035982D02*
X044738Y035982D01*
X044738Y036003D02*
X045036Y036003D01*
X045036Y036024D02*
X044738Y036024D01*
X044738Y036045D02*
X045036Y036045D01*
X045036Y036066D02*
X044738Y036066D01*
X044738Y036087D02*
X045036Y036087D01*
X045036Y036108D02*
X044738Y036108D01*
X044738Y036129D02*
X045036Y036129D01*
X045036Y036150D02*
X044738Y036150D01*
X044738Y036171D02*
X045036Y036171D01*
X045036Y036192D02*
X044738Y036192D01*
X044738Y036213D02*
X045036Y036213D01*
X045036Y036234D02*
X044738Y036234D01*
X044738Y036255D02*
X045036Y036255D01*
X045036Y036276D02*
X044738Y036276D01*
X044738Y036297D02*
X045036Y036297D01*
X045036Y036318D02*
X044738Y036318D01*
X044773Y012314D02*
X044515Y012314D01*
X044773Y012314D02*
X044773Y011516D01*
X044515Y011516D01*
X044515Y012314D01*
X044515Y011537D02*
X044773Y011537D01*
X044773Y011558D02*
X044515Y011558D01*
X044515Y011579D02*
X044773Y011579D01*
X044773Y011600D02*
X044515Y011600D01*
X044515Y011621D02*
X044773Y011621D01*
X044773Y011642D02*
X044515Y011642D01*
X044515Y011663D02*
X044773Y011663D01*
X044773Y011684D02*
X044515Y011684D01*
X044515Y011705D02*
X044773Y011705D01*
X044773Y011726D02*
X044515Y011726D01*
X044515Y011747D02*
X044773Y011747D01*
X044773Y011768D02*
X044515Y011768D01*
X044515Y011789D02*
X044773Y011789D01*
X044773Y011810D02*
X044515Y011810D01*
X044515Y011831D02*
X044773Y011831D01*
X044773Y011852D02*
X044515Y011852D01*
X044515Y011873D02*
X044773Y011873D01*
X044773Y011894D02*
X044515Y011894D01*
X044515Y011915D02*
X044773Y011915D01*
X044773Y011936D02*
X044515Y011936D01*
X044515Y011957D02*
X044773Y011957D01*
X044773Y011978D02*
X044515Y011978D01*
X044515Y011999D02*
X044773Y011999D01*
X044773Y012020D02*
X044515Y012020D01*
X044515Y012041D02*
X044773Y012041D01*
X044773Y012062D02*
X044515Y012062D01*
X044515Y012083D02*
X044773Y012083D01*
X044773Y012104D02*
X044515Y012104D01*
X044515Y012125D02*
X044773Y012125D01*
X044773Y012146D02*
X044515Y012146D01*
X044515Y012167D02*
X044773Y012167D01*
X044773Y012188D02*
X044515Y012188D01*
X044515Y012209D02*
X044773Y012209D01*
X044773Y012230D02*
X044515Y012230D01*
X044515Y012251D02*
X044773Y012251D01*
X044773Y012272D02*
X044515Y012272D01*
X044515Y012293D02*
X044773Y012293D01*
X044773Y012314D02*
X044515Y012314D01*
X044273Y012314D02*
X044015Y012314D01*
X044273Y012314D02*
X044273Y011516D01*
X044015Y011516D01*
X044015Y012314D01*
X044015Y011537D02*
X044273Y011537D01*
X044273Y011558D02*
X044015Y011558D01*
X044015Y011579D02*
X044273Y011579D01*
X044273Y011600D02*
X044015Y011600D01*
X044015Y011621D02*
X044273Y011621D01*
X044273Y011642D02*
X044015Y011642D01*
X044015Y011663D02*
X044273Y011663D01*
X044273Y011684D02*
X044015Y011684D01*
X044015Y011705D02*
X044273Y011705D01*
X044273Y011726D02*
X044015Y011726D01*
X044015Y011747D02*
X044273Y011747D01*
X044273Y011768D02*
X044015Y011768D01*
X044015Y011789D02*
X044273Y011789D01*
X044273Y011810D02*
X044015Y011810D01*
X044015Y011831D02*
X044273Y011831D01*
X044273Y011852D02*
X044015Y011852D01*
X044015Y011873D02*
X044273Y011873D01*
X044273Y011894D02*
X044015Y011894D01*
X044015Y011915D02*
X044273Y011915D01*
X044273Y011936D02*
X044015Y011936D01*
X044015Y011957D02*
X044273Y011957D01*
X044273Y011978D02*
X044015Y011978D01*
X044015Y011999D02*
X044273Y011999D01*
X044273Y012020D02*
X044015Y012020D01*
X044015Y012041D02*
X044273Y012041D01*
X044273Y012062D02*
X044015Y012062D01*
X044015Y012083D02*
X044273Y012083D01*
X044273Y012104D02*
X044015Y012104D01*
X044015Y012125D02*
X044273Y012125D01*
X044273Y012146D02*
X044015Y012146D01*
X044015Y012167D02*
X044273Y012167D01*
X044273Y012188D02*
X044015Y012188D01*
X044015Y012209D02*
X044273Y012209D01*
X044273Y012230D02*
X044015Y012230D01*
X044015Y012251D02*
X044273Y012251D01*
X044273Y012272D02*
X044015Y012272D01*
X044015Y012293D02*
X044273Y012293D01*
X044273Y012314D02*
X044015Y012314D01*
X043773Y012314D02*
X043515Y012314D01*
X043773Y012314D02*
X043773Y011516D01*
X043515Y011516D01*
X043515Y012314D01*
X043515Y011537D02*
X043773Y011537D01*
X043773Y011558D02*
X043515Y011558D01*
X043515Y011579D02*
X043773Y011579D01*
X043773Y011600D02*
X043515Y011600D01*
X043515Y011621D02*
X043773Y011621D01*
X043773Y011642D02*
X043515Y011642D01*
X043515Y011663D02*
X043773Y011663D01*
X043773Y011684D02*
X043515Y011684D01*
X043515Y011705D02*
X043773Y011705D01*
X043773Y011726D02*
X043515Y011726D01*
X043515Y011747D02*
X043773Y011747D01*
X043773Y011768D02*
X043515Y011768D01*
X043515Y011789D02*
X043773Y011789D01*
X043773Y011810D02*
X043515Y011810D01*
X043515Y011831D02*
X043773Y011831D01*
X043773Y011852D02*
X043515Y011852D01*
X043515Y011873D02*
X043773Y011873D01*
X043773Y011894D02*
X043515Y011894D01*
X043515Y011915D02*
X043773Y011915D01*
X043773Y011936D02*
X043515Y011936D01*
X043515Y011957D02*
X043773Y011957D01*
X043773Y011978D02*
X043515Y011978D01*
X043515Y011999D02*
X043773Y011999D01*
X043773Y012020D02*
X043515Y012020D01*
X043515Y012041D02*
X043773Y012041D01*
X043773Y012062D02*
X043515Y012062D01*
X043515Y012083D02*
X043773Y012083D01*
X043773Y012104D02*
X043515Y012104D01*
X043515Y012125D02*
X043773Y012125D01*
X043773Y012146D02*
X043515Y012146D01*
X043515Y012167D02*
X043773Y012167D01*
X043773Y012188D02*
X043515Y012188D01*
X043515Y012209D02*
X043773Y012209D01*
X043773Y012230D02*
X043515Y012230D01*
X043515Y012251D02*
X043773Y012251D01*
X043773Y012272D02*
X043515Y012272D01*
X043515Y012293D02*
X043773Y012293D01*
X043773Y012314D02*
X043515Y012314D01*
X043273Y012314D02*
X043015Y012314D01*
X043273Y012314D02*
X043273Y011516D01*
X043015Y011516D01*
X043015Y012314D01*
X043015Y011537D02*
X043273Y011537D01*
X043273Y011558D02*
X043015Y011558D01*
X043015Y011579D02*
X043273Y011579D01*
X043273Y011600D02*
X043015Y011600D01*
X043015Y011621D02*
X043273Y011621D01*
X043273Y011642D02*
X043015Y011642D01*
X043015Y011663D02*
X043273Y011663D01*
X043273Y011684D02*
X043015Y011684D01*
X043015Y011705D02*
X043273Y011705D01*
X043273Y011726D02*
X043015Y011726D01*
X043015Y011747D02*
X043273Y011747D01*
X043273Y011768D02*
X043015Y011768D01*
X043015Y011789D02*
X043273Y011789D01*
X043273Y011810D02*
X043015Y011810D01*
X043015Y011831D02*
X043273Y011831D01*
X043273Y011852D02*
X043015Y011852D01*
X043015Y011873D02*
X043273Y011873D01*
X043273Y011894D02*
X043015Y011894D01*
X043015Y011915D02*
X043273Y011915D01*
X043273Y011936D02*
X043015Y011936D01*
X043015Y011957D02*
X043273Y011957D01*
X043273Y011978D02*
X043015Y011978D01*
X043015Y011999D02*
X043273Y011999D01*
X043273Y012020D02*
X043015Y012020D01*
X043015Y012041D02*
X043273Y012041D01*
X043273Y012062D02*
X043015Y012062D01*
X043015Y012083D02*
X043273Y012083D01*
X043273Y012104D02*
X043015Y012104D01*
X043015Y012125D02*
X043273Y012125D01*
X043273Y012146D02*
X043015Y012146D01*
X043015Y012167D02*
X043273Y012167D01*
X043273Y012188D02*
X043015Y012188D01*
X043015Y012209D02*
X043273Y012209D01*
X043273Y012230D02*
X043015Y012230D01*
X043015Y012251D02*
X043273Y012251D01*
X043273Y012272D02*
X043015Y012272D01*
X043015Y012293D02*
X043273Y012293D01*
X043273Y012314D02*
X043015Y012314D01*
X045015Y012314D02*
X045273Y012314D01*
X045273Y011516D01*
X045015Y011516D01*
X045015Y012314D01*
X045015Y011537D02*
X045273Y011537D01*
X045273Y011558D02*
X045015Y011558D01*
X045015Y011579D02*
X045273Y011579D01*
X045273Y011600D02*
X045015Y011600D01*
X045015Y011621D02*
X045273Y011621D01*
X045273Y011642D02*
X045015Y011642D01*
X045015Y011663D02*
X045273Y011663D01*
X045273Y011684D02*
X045015Y011684D01*
X045015Y011705D02*
X045273Y011705D01*
X045273Y011726D02*
X045015Y011726D01*
X045015Y011747D02*
X045273Y011747D01*
X045273Y011768D02*
X045015Y011768D01*
X045015Y011789D02*
X045273Y011789D01*
X045273Y011810D02*
X045015Y011810D01*
X045015Y011831D02*
X045273Y011831D01*
X045273Y011852D02*
X045015Y011852D01*
X045015Y011873D02*
X045273Y011873D01*
X045273Y011894D02*
X045015Y011894D01*
X045015Y011915D02*
X045273Y011915D01*
X045273Y011936D02*
X045015Y011936D01*
X045015Y011957D02*
X045273Y011957D01*
X045273Y011978D02*
X045015Y011978D01*
X045015Y011999D02*
X045273Y011999D01*
X045273Y012020D02*
X045015Y012020D01*
X045015Y012041D02*
X045273Y012041D01*
X045273Y012062D02*
X045015Y012062D01*
X045015Y012083D02*
X045273Y012083D01*
X045273Y012104D02*
X045015Y012104D01*
X045015Y012125D02*
X045273Y012125D01*
X045273Y012146D02*
X045015Y012146D01*
X045015Y012167D02*
X045273Y012167D01*
X045273Y012188D02*
X045015Y012188D01*
X045015Y012209D02*
X045273Y012209D01*
X045273Y012230D02*
X045015Y012230D01*
X045015Y012251D02*
X045273Y012251D01*
X045273Y012272D02*
X045015Y012272D01*
X045015Y012293D02*
X045273Y012293D01*
X045273Y012314D02*
X045015Y012314D01*
X045515Y012314D02*
X045773Y012314D01*
X045773Y011516D01*
X045515Y011516D01*
X045515Y012314D01*
X045515Y011537D02*
X045773Y011537D01*
X045773Y011558D02*
X045515Y011558D01*
X045515Y011579D02*
X045773Y011579D01*
X045773Y011600D02*
X045515Y011600D01*
X045515Y011621D02*
X045773Y011621D01*
X045773Y011642D02*
X045515Y011642D01*
X045515Y011663D02*
X045773Y011663D01*
X045773Y011684D02*
X045515Y011684D01*
X045515Y011705D02*
X045773Y011705D01*
X045773Y011726D02*
X045515Y011726D01*
X045515Y011747D02*
X045773Y011747D01*
X045773Y011768D02*
X045515Y011768D01*
X045515Y011789D02*
X045773Y011789D01*
X045773Y011810D02*
X045515Y011810D01*
X045515Y011831D02*
X045773Y011831D01*
X045773Y011852D02*
X045515Y011852D01*
X045515Y011873D02*
X045773Y011873D01*
X045773Y011894D02*
X045515Y011894D01*
X045515Y011915D02*
X045773Y011915D01*
X045773Y011936D02*
X045515Y011936D01*
X045515Y011957D02*
X045773Y011957D01*
X045773Y011978D02*
X045515Y011978D01*
X045515Y011999D02*
X045773Y011999D01*
X045773Y012020D02*
X045515Y012020D01*
X045515Y012041D02*
X045773Y012041D01*
X045773Y012062D02*
X045515Y012062D01*
X045515Y012083D02*
X045773Y012083D01*
X045773Y012104D02*
X045515Y012104D01*
X045515Y012125D02*
X045773Y012125D01*
X045773Y012146D02*
X045515Y012146D01*
X045515Y012167D02*
X045773Y012167D01*
X045773Y012188D02*
X045515Y012188D01*
X045515Y012209D02*
X045773Y012209D01*
X045773Y012230D02*
X045515Y012230D01*
X045515Y012251D02*
X045773Y012251D01*
X045773Y012272D02*
X045515Y012272D01*
X045515Y012293D02*
X045773Y012293D01*
X045773Y012314D02*
X045515Y012314D01*
X046015Y012314D02*
X046273Y012314D01*
X046273Y011516D01*
X046015Y011516D01*
X046015Y012314D01*
X046015Y011537D02*
X046273Y011537D01*
X046273Y011558D02*
X046015Y011558D01*
X046015Y011579D02*
X046273Y011579D01*
X046273Y011600D02*
X046015Y011600D01*
X046015Y011621D02*
X046273Y011621D01*
X046273Y011642D02*
X046015Y011642D01*
X046015Y011663D02*
X046273Y011663D01*
X046273Y011684D02*
X046015Y011684D01*
X046015Y011705D02*
X046273Y011705D01*
X046273Y011726D02*
X046015Y011726D01*
X046015Y011747D02*
X046273Y011747D01*
X046273Y011768D02*
X046015Y011768D01*
X046015Y011789D02*
X046273Y011789D01*
X046273Y011810D02*
X046015Y011810D01*
X046015Y011831D02*
X046273Y011831D01*
X046273Y011852D02*
X046015Y011852D01*
X046015Y011873D02*
X046273Y011873D01*
X046273Y011894D02*
X046015Y011894D01*
X046015Y011915D02*
X046273Y011915D01*
X046273Y011936D02*
X046015Y011936D01*
X046015Y011957D02*
X046273Y011957D01*
X046273Y011978D02*
X046015Y011978D01*
X046015Y011999D02*
X046273Y011999D01*
X046273Y012020D02*
X046015Y012020D01*
X046015Y012041D02*
X046273Y012041D01*
X046273Y012062D02*
X046015Y012062D01*
X046015Y012083D02*
X046273Y012083D01*
X046273Y012104D02*
X046015Y012104D01*
X046015Y012125D02*
X046273Y012125D01*
X046273Y012146D02*
X046015Y012146D01*
X046015Y012167D02*
X046273Y012167D01*
X046273Y012188D02*
X046015Y012188D01*
X046015Y012209D02*
X046273Y012209D01*
X046273Y012230D02*
X046015Y012230D01*
X046015Y012251D02*
X046273Y012251D01*
X046273Y012272D02*
X046015Y012272D01*
X046015Y012293D02*
X046273Y012293D01*
X046273Y012314D02*
X046015Y012314D01*
X046515Y012314D02*
X046773Y012314D01*
X046773Y011516D01*
X046515Y011516D01*
X046515Y012314D01*
X046515Y011537D02*
X046773Y011537D01*
X046773Y011558D02*
X046515Y011558D01*
X046515Y011579D02*
X046773Y011579D01*
X046773Y011600D02*
X046515Y011600D01*
X046515Y011621D02*
X046773Y011621D01*
X046773Y011642D02*
X046515Y011642D01*
X046515Y011663D02*
X046773Y011663D01*
X046773Y011684D02*
X046515Y011684D01*
X046515Y011705D02*
X046773Y011705D01*
X046773Y011726D02*
X046515Y011726D01*
X046515Y011747D02*
X046773Y011747D01*
X046773Y011768D02*
X046515Y011768D01*
X046515Y011789D02*
X046773Y011789D01*
X046773Y011810D02*
X046515Y011810D01*
X046515Y011831D02*
X046773Y011831D01*
X046773Y011852D02*
X046515Y011852D01*
X046515Y011873D02*
X046773Y011873D01*
X046773Y011894D02*
X046515Y011894D01*
X046515Y011915D02*
X046773Y011915D01*
X046773Y011936D02*
X046515Y011936D01*
X046515Y011957D02*
X046773Y011957D01*
X046773Y011978D02*
X046515Y011978D01*
X046515Y011999D02*
X046773Y011999D01*
X046773Y012020D02*
X046515Y012020D01*
X046515Y012041D02*
X046773Y012041D01*
X046773Y012062D02*
X046515Y012062D01*
X046515Y012083D02*
X046773Y012083D01*
X046773Y012104D02*
X046515Y012104D01*
X046515Y012125D02*
X046773Y012125D01*
X046773Y012146D02*
X046515Y012146D01*
X046515Y012167D02*
X046773Y012167D01*
X046773Y012188D02*
X046515Y012188D01*
X046515Y012209D02*
X046773Y012209D01*
X046773Y012230D02*
X046515Y012230D01*
X046515Y012251D02*
X046773Y012251D01*
X046773Y012272D02*
X046515Y012272D01*
X046515Y012293D02*
X046773Y012293D01*
X046773Y012314D02*
X046515Y012314D01*
X046515Y009894D02*
X046773Y009894D01*
X046773Y009096D01*
X046515Y009096D01*
X046515Y009894D01*
X046515Y009117D02*
X046773Y009117D01*
X046773Y009138D02*
X046515Y009138D01*
X046515Y009159D02*
X046773Y009159D01*
X046773Y009180D02*
X046515Y009180D01*
X046515Y009201D02*
X046773Y009201D01*
X046773Y009222D02*
X046515Y009222D01*
X046515Y009243D02*
X046773Y009243D01*
X046773Y009264D02*
X046515Y009264D01*
X046515Y009285D02*
X046773Y009285D01*
X046773Y009306D02*
X046515Y009306D01*
X046515Y009327D02*
X046773Y009327D01*
X046773Y009348D02*
X046515Y009348D01*
X046515Y009369D02*
X046773Y009369D01*
X046773Y009390D02*
X046515Y009390D01*
X046515Y009411D02*
X046773Y009411D01*
X046773Y009432D02*
X046515Y009432D01*
X046515Y009453D02*
X046773Y009453D01*
X046773Y009474D02*
X046515Y009474D01*
X046515Y009495D02*
X046773Y009495D01*
X046773Y009516D02*
X046515Y009516D01*
X046515Y009537D02*
X046773Y009537D01*
X046773Y009558D02*
X046515Y009558D01*
X046515Y009579D02*
X046773Y009579D01*
X046773Y009600D02*
X046515Y009600D01*
X046515Y009621D02*
X046773Y009621D01*
X046773Y009642D02*
X046515Y009642D01*
X046515Y009663D02*
X046773Y009663D01*
X046773Y009684D02*
X046515Y009684D01*
X046515Y009705D02*
X046773Y009705D01*
X046773Y009726D02*
X046515Y009726D01*
X046515Y009747D02*
X046773Y009747D01*
X046773Y009768D02*
X046515Y009768D01*
X046515Y009789D02*
X046773Y009789D01*
X046773Y009810D02*
X046515Y009810D01*
X046515Y009831D02*
X046773Y009831D01*
X046773Y009852D02*
X046515Y009852D01*
X046515Y009873D02*
X046773Y009873D01*
X046773Y009894D02*
X046515Y009894D01*
X046273Y009894D02*
X046015Y009894D01*
X046273Y009894D02*
X046273Y009096D01*
X046015Y009096D01*
X046015Y009894D01*
X046015Y009117D02*
X046273Y009117D01*
X046273Y009138D02*
X046015Y009138D01*
X046015Y009159D02*
X046273Y009159D01*
X046273Y009180D02*
X046015Y009180D01*
X046015Y009201D02*
X046273Y009201D01*
X046273Y009222D02*
X046015Y009222D01*
X046015Y009243D02*
X046273Y009243D01*
X046273Y009264D02*
X046015Y009264D01*
X046015Y009285D02*
X046273Y009285D01*
X046273Y009306D02*
X046015Y009306D01*
X046015Y009327D02*
X046273Y009327D01*
X046273Y009348D02*
X046015Y009348D01*
X046015Y009369D02*
X046273Y009369D01*
X046273Y009390D02*
X046015Y009390D01*
X046015Y009411D02*
X046273Y009411D01*
X046273Y009432D02*
X046015Y009432D01*
X046015Y009453D02*
X046273Y009453D01*
X046273Y009474D02*
X046015Y009474D01*
X046015Y009495D02*
X046273Y009495D01*
X046273Y009516D02*
X046015Y009516D01*
X046015Y009537D02*
X046273Y009537D01*
X046273Y009558D02*
X046015Y009558D01*
X046015Y009579D02*
X046273Y009579D01*
X046273Y009600D02*
X046015Y009600D01*
X046015Y009621D02*
X046273Y009621D01*
X046273Y009642D02*
X046015Y009642D01*
X046015Y009663D02*
X046273Y009663D01*
X046273Y009684D02*
X046015Y009684D01*
X046015Y009705D02*
X046273Y009705D01*
X046273Y009726D02*
X046015Y009726D01*
X046015Y009747D02*
X046273Y009747D01*
X046273Y009768D02*
X046015Y009768D01*
X046015Y009789D02*
X046273Y009789D01*
X046273Y009810D02*
X046015Y009810D01*
X046015Y009831D02*
X046273Y009831D01*
X046273Y009852D02*
X046015Y009852D01*
X046015Y009873D02*
X046273Y009873D01*
X046273Y009894D02*
X046015Y009894D01*
X045773Y009894D02*
X045515Y009894D01*
X045773Y009894D02*
X045773Y009096D01*
X045515Y009096D01*
X045515Y009894D01*
X045515Y009117D02*
X045773Y009117D01*
X045773Y009138D02*
X045515Y009138D01*
X045515Y009159D02*
X045773Y009159D01*
X045773Y009180D02*
X045515Y009180D01*
X045515Y009201D02*
X045773Y009201D01*
X045773Y009222D02*
X045515Y009222D01*
X045515Y009243D02*
X045773Y009243D01*
X045773Y009264D02*
X045515Y009264D01*
X045515Y009285D02*
X045773Y009285D01*
X045773Y009306D02*
X045515Y009306D01*
X045515Y009327D02*
X045773Y009327D01*
X045773Y009348D02*
X045515Y009348D01*
X045515Y009369D02*
X045773Y009369D01*
X045773Y009390D02*
X045515Y009390D01*
X045515Y009411D02*
X045773Y009411D01*
X045773Y009432D02*
X045515Y009432D01*
X045515Y009453D02*
X045773Y009453D01*
X045773Y009474D02*
X045515Y009474D01*
X045515Y009495D02*
X045773Y009495D01*
X045773Y009516D02*
X045515Y009516D01*
X045515Y009537D02*
X045773Y009537D01*
X045773Y009558D02*
X045515Y009558D01*
X045515Y009579D02*
X045773Y009579D01*
X045773Y009600D02*
X045515Y009600D01*
X045515Y009621D02*
X045773Y009621D01*
X045773Y009642D02*
X045515Y009642D01*
X045515Y009663D02*
X045773Y009663D01*
X045773Y009684D02*
X045515Y009684D01*
X045515Y009705D02*
X045773Y009705D01*
X045773Y009726D02*
X045515Y009726D01*
X045515Y009747D02*
X045773Y009747D01*
X045773Y009768D02*
X045515Y009768D01*
X045515Y009789D02*
X045773Y009789D01*
X045773Y009810D02*
X045515Y009810D01*
X045515Y009831D02*
X045773Y009831D01*
X045773Y009852D02*
X045515Y009852D01*
X045515Y009873D02*
X045773Y009873D01*
X045773Y009894D02*
X045515Y009894D01*
X045273Y009894D02*
X045015Y009894D01*
X045273Y009894D02*
X045273Y009096D01*
X045015Y009096D01*
X045015Y009894D01*
X045015Y009117D02*
X045273Y009117D01*
X045273Y009138D02*
X045015Y009138D01*
X045015Y009159D02*
X045273Y009159D01*
X045273Y009180D02*
X045015Y009180D01*
X045015Y009201D02*
X045273Y009201D01*
X045273Y009222D02*
X045015Y009222D01*
X045015Y009243D02*
X045273Y009243D01*
X045273Y009264D02*
X045015Y009264D01*
X045015Y009285D02*
X045273Y009285D01*
X045273Y009306D02*
X045015Y009306D01*
X045015Y009327D02*
X045273Y009327D01*
X045273Y009348D02*
X045015Y009348D01*
X045015Y009369D02*
X045273Y009369D01*
X045273Y009390D02*
X045015Y009390D01*
X045015Y009411D02*
X045273Y009411D01*
X045273Y009432D02*
X045015Y009432D01*
X045015Y009453D02*
X045273Y009453D01*
X045273Y009474D02*
X045015Y009474D01*
X045015Y009495D02*
X045273Y009495D01*
X045273Y009516D02*
X045015Y009516D01*
X045015Y009537D02*
X045273Y009537D01*
X045273Y009558D02*
X045015Y009558D01*
X045015Y009579D02*
X045273Y009579D01*
X045273Y009600D02*
X045015Y009600D01*
X045015Y009621D02*
X045273Y009621D01*
X045273Y009642D02*
X045015Y009642D01*
X045015Y009663D02*
X045273Y009663D01*
X045273Y009684D02*
X045015Y009684D01*
X045015Y009705D02*
X045273Y009705D01*
X045273Y009726D02*
X045015Y009726D01*
X045015Y009747D02*
X045273Y009747D01*
X045273Y009768D02*
X045015Y009768D01*
X045015Y009789D02*
X045273Y009789D01*
X045273Y009810D02*
X045015Y009810D01*
X045015Y009831D02*
X045273Y009831D01*
X045273Y009852D02*
X045015Y009852D01*
X045015Y009873D02*
X045273Y009873D01*
X045273Y009894D02*
X045015Y009894D01*
X044773Y009894D02*
X044515Y009894D01*
X044773Y009894D02*
X044773Y009096D01*
X044515Y009096D01*
X044515Y009894D01*
X044515Y009117D02*
X044773Y009117D01*
X044773Y009138D02*
X044515Y009138D01*
X044515Y009159D02*
X044773Y009159D01*
X044773Y009180D02*
X044515Y009180D01*
X044515Y009201D02*
X044773Y009201D01*
X044773Y009222D02*
X044515Y009222D01*
X044515Y009243D02*
X044773Y009243D01*
X044773Y009264D02*
X044515Y009264D01*
X044515Y009285D02*
X044773Y009285D01*
X044773Y009306D02*
X044515Y009306D01*
X044515Y009327D02*
X044773Y009327D01*
X044773Y009348D02*
X044515Y009348D01*
X044515Y009369D02*
X044773Y009369D01*
X044773Y009390D02*
X044515Y009390D01*
X044515Y009411D02*
X044773Y009411D01*
X044773Y009432D02*
X044515Y009432D01*
X044515Y009453D02*
X044773Y009453D01*
X044773Y009474D02*
X044515Y009474D01*
X044515Y009495D02*
X044773Y009495D01*
X044773Y009516D02*
X044515Y009516D01*
X044515Y009537D02*
X044773Y009537D01*
X044773Y009558D02*
X044515Y009558D01*
X044515Y009579D02*
X044773Y009579D01*
X044773Y009600D02*
X044515Y009600D01*
X044515Y009621D02*
X044773Y009621D01*
X044773Y009642D02*
X044515Y009642D01*
X044515Y009663D02*
X044773Y009663D01*
X044773Y009684D02*
X044515Y009684D01*
X044515Y009705D02*
X044773Y009705D01*
X044773Y009726D02*
X044515Y009726D01*
X044515Y009747D02*
X044773Y009747D01*
X044773Y009768D02*
X044515Y009768D01*
X044515Y009789D02*
X044773Y009789D01*
X044773Y009810D02*
X044515Y009810D01*
X044515Y009831D02*
X044773Y009831D01*
X044773Y009852D02*
X044515Y009852D01*
X044515Y009873D02*
X044773Y009873D01*
X044773Y009894D02*
X044515Y009894D01*
X044273Y009894D02*
X044015Y009894D01*
X044273Y009894D02*
X044273Y009096D01*
X044015Y009096D01*
X044015Y009894D01*
X044015Y009117D02*
X044273Y009117D01*
X044273Y009138D02*
X044015Y009138D01*
X044015Y009159D02*
X044273Y009159D01*
X044273Y009180D02*
X044015Y009180D01*
X044015Y009201D02*
X044273Y009201D01*
X044273Y009222D02*
X044015Y009222D01*
X044015Y009243D02*
X044273Y009243D01*
X044273Y009264D02*
X044015Y009264D01*
X044015Y009285D02*
X044273Y009285D01*
X044273Y009306D02*
X044015Y009306D01*
X044015Y009327D02*
X044273Y009327D01*
X044273Y009348D02*
X044015Y009348D01*
X044015Y009369D02*
X044273Y009369D01*
X044273Y009390D02*
X044015Y009390D01*
X044015Y009411D02*
X044273Y009411D01*
X044273Y009432D02*
X044015Y009432D01*
X044015Y009453D02*
X044273Y009453D01*
X044273Y009474D02*
X044015Y009474D01*
X044015Y009495D02*
X044273Y009495D01*
X044273Y009516D02*
X044015Y009516D01*
X044015Y009537D02*
X044273Y009537D01*
X044273Y009558D02*
X044015Y009558D01*
X044015Y009579D02*
X044273Y009579D01*
X044273Y009600D02*
X044015Y009600D01*
X044015Y009621D02*
X044273Y009621D01*
X044273Y009642D02*
X044015Y009642D01*
X044015Y009663D02*
X044273Y009663D01*
X044273Y009684D02*
X044015Y009684D01*
X044015Y009705D02*
X044273Y009705D01*
X044273Y009726D02*
X044015Y009726D01*
X044015Y009747D02*
X044273Y009747D01*
X044273Y009768D02*
X044015Y009768D01*
X044015Y009789D02*
X044273Y009789D01*
X044273Y009810D02*
X044015Y009810D01*
X044015Y009831D02*
X044273Y009831D01*
X044273Y009852D02*
X044015Y009852D01*
X044015Y009873D02*
X044273Y009873D01*
X044273Y009894D02*
X044015Y009894D01*
X043773Y009894D02*
X043515Y009894D01*
X043773Y009894D02*
X043773Y009096D01*
X043515Y009096D01*
X043515Y009894D01*
X043515Y009117D02*
X043773Y009117D01*
X043773Y009138D02*
X043515Y009138D01*
X043515Y009159D02*
X043773Y009159D01*
X043773Y009180D02*
X043515Y009180D01*
X043515Y009201D02*
X043773Y009201D01*
X043773Y009222D02*
X043515Y009222D01*
X043515Y009243D02*
X043773Y009243D01*
X043773Y009264D02*
X043515Y009264D01*
X043515Y009285D02*
X043773Y009285D01*
X043773Y009306D02*
X043515Y009306D01*
X043515Y009327D02*
X043773Y009327D01*
X043773Y009348D02*
X043515Y009348D01*
X043515Y009369D02*
X043773Y009369D01*
X043773Y009390D02*
X043515Y009390D01*
X043515Y009411D02*
X043773Y009411D01*
X043773Y009432D02*
X043515Y009432D01*
X043515Y009453D02*
X043773Y009453D01*
X043773Y009474D02*
X043515Y009474D01*
X043515Y009495D02*
X043773Y009495D01*
X043773Y009516D02*
X043515Y009516D01*
X043515Y009537D02*
X043773Y009537D01*
X043773Y009558D02*
X043515Y009558D01*
X043515Y009579D02*
X043773Y009579D01*
X043773Y009600D02*
X043515Y009600D01*
X043515Y009621D02*
X043773Y009621D01*
X043773Y009642D02*
X043515Y009642D01*
X043515Y009663D02*
X043773Y009663D01*
X043773Y009684D02*
X043515Y009684D01*
X043515Y009705D02*
X043773Y009705D01*
X043773Y009726D02*
X043515Y009726D01*
X043515Y009747D02*
X043773Y009747D01*
X043773Y009768D02*
X043515Y009768D01*
X043515Y009789D02*
X043773Y009789D01*
X043773Y009810D02*
X043515Y009810D01*
X043515Y009831D02*
X043773Y009831D01*
X043773Y009852D02*
X043515Y009852D01*
X043515Y009873D02*
X043773Y009873D01*
X043773Y009894D02*
X043515Y009894D01*
X043273Y009894D02*
X043015Y009894D01*
X043273Y009894D02*
X043273Y009096D01*
X043015Y009096D01*
X043015Y009894D01*
X043015Y009117D02*
X043273Y009117D01*
X043273Y009138D02*
X043015Y009138D01*
X043015Y009159D02*
X043273Y009159D01*
X043273Y009180D02*
X043015Y009180D01*
X043015Y009201D02*
X043273Y009201D01*
X043273Y009222D02*
X043015Y009222D01*
X043015Y009243D02*
X043273Y009243D01*
X043273Y009264D02*
X043015Y009264D01*
X043015Y009285D02*
X043273Y009285D01*
X043273Y009306D02*
X043015Y009306D01*
X043015Y009327D02*
X043273Y009327D01*
X043273Y009348D02*
X043015Y009348D01*
X043015Y009369D02*
X043273Y009369D01*
X043273Y009390D02*
X043015Y009390D01*
X043015Y009411D02*
X043273Y009411D01*
X043273Y009432D02*
X043015Y009432D01*
X043015Y009453D02*
X043273Y009453D01*
X043273Y009474D02*
X043015Y009474D01*
X043015Y009495D02*
X043273Y009495D01*
X043273Y009516D02*
X043015Y009516D01*
X043015Y009537D02*
X043273Y009537D01*
X043273Y009558D02*
X043015Y009558D01*
X043015Y009579D02*
X043273Y009579D01*
X043273Y009600D02*
X043015Y009600D01*
X043015Y009621D02*
X043273Y009621D01*
X043273Y009642D02*
X043015Y009642D01*
X043015Y009663D02*
X043273Y009663D01*
X043273Y009684D02*
X043015Y009684D01*
X043015Y009705D02*
X043273Y009705D01*
X043273Y009726D02*
X043015Y009726D01*
X043015Y009747D02*
X043273Y009747D01*
X043273Y009768D02*
X043015Y009768D01*
X043015Y009789D02*
X043273Y009789D01*
X043273Y009810D02*
X043015Y009810D01*
X043015Y009831D02*
X043273Y009831D01*
X043273Y009852D02*
X043015Y009852D01*
X043015Y009873D02*
X043273Y009873D01*
X043273Y009894D02*
X043015Y009894D01*
X029478Y007459D02*
X029478Y007161D01*
X029478Y007459D02*
X029846Y007459D01*
X029846Y007161D01*
X029478Y007161D01*
X029478Y007182D02*
X029846Y007182D01*
X029846Y007203D02*
X029478Y007203D01*
X029478Y007224D02*
X029846Y007224D01*
X029846Y007245D02*
X029478Y007245D01*
X029478Y007266D02*
X029846Y007266D01*
X029846Y007287D02*
X029478Y007287D01*
X029478Y007308D02*
X029846Y007308D01*
X029846Y007329D02*
X029478Y007329D01*
X029478Y007350D02*
X029846Y007350D01*
X029846Y007371D02*
X029478Y007371D01*
X029478Y007392D02*
X029846Y007392D01*
X029846Y007413D02*
X029478Y007413D01*
X029478Y007434D02*
X029846Y007434D01*
X029846Y007455D02*
X029478Y007455D01*
X029478Y006799D02*
X029478Y006501D01*
X029478Y006799D02*
X029846Y006799D01*
X029846Y006501D01*
X029478Y006501D01*
X029478Y006522D02*
X029846Y006522D01*
X029846Y006543D02*
X029478Y006543D01*
X029478Y006564D02*
X029846Y006564D01*
X029846Y006585D02*
X029478Y006585D01*
X029478Y006606D02*
X029846Y006606D01*
X029846Y006627D02*
X029478Y006627D01*
X029478Y006648D02*
X029846Y006648D01*
X029846Y006669D02*
X029478Y006669D01*
X029478Y006690D02*
X029846Y006690D01*
X029846Y006711D02*
X029478Y006711D01*
X029478Y006732D02*
X029846Y006732D01*
X029846Y006753D02*
X029478Y006753D01*
X029478Y006774D02*
X029846Y006774D01*
X029846Y006795D02*
X029478Y006795D01*
D21*
X043477Y003062D03*
X046626Y003062D03*
D22*
X042054Y011027D02*
X041574Y011027D01*
X041574Y011907D01*
X042054Y011907D01*
X042054Y011027D01*
X042054Y011046D02*
X041574Y011046D01*
X041574Y011065D02*
X042054Y011065D01*
X042054Y011084D02*
X041574Y011084D01*
X041574Y011103D02*
X042054Y011103D01*
X042054Y011122D02*
X041574Y011122D01*
X041574Y011141D02*
X042054Y011141D01*
X042054Y011160D02*
X041574Y011160D01*
X041574Y011179D02*
X042054Y011179D01*
X042054Y011198D02*
X041574Y011198D01*
X041574Y011217D02*
X042054Y011217D01*
X042054Y011236D02*
X041574Y011236D01*
X041574Y011255D02*
X042054Y011255D01*
X042054Y011274D02*
X041574Y011274D01*
X041574Y011293D02*
X042054Y011293D01*
X042054Y011312D02*
X041574Y011312D01*
X041574Y011331D02*
X042054Y011331D01*
X042054Y011350D02*
X041574Y011350D01*
X041574Y011369D02*
X042054Y011369D01*
X042054Y011388D02*
X041574Y011388D01*
X041574Y011407D02*
X042054Y011407D01*
X042054Y011426D02*
X041574Y011426D01*
X041574Y011445D02*
X042054Y011445D01*
X042054Y011464D02*
X041574Y011464D01*
X041574Y011483D02*
X042054Y011483D01*
X042054Y011502D02*
X041574Y011502D01*
X041574Y011521D02*
X042054Y011521D01*
X042054Y011540D02*
X041574Y011540D01*
X041574Y011559D02*
X042054Y011559D01*
X042054Y011578D02*
X041574Y011578D01*
X041574Y011597D02*
X042054Y011597D01*
X042054Y011616D02*
X041574Y011616D01*
X041574Y011635D02*
X042054Y011635D01*
X042054Y011654D02*
X041574Y011654D01*
X041574Y011673D02*
X042054Y011673D01*
X042054Y011692D02*
X041574Y011692D01*
X041574Y011711D02*
X042054Y011711D01*
X042054Y011730D02*
X041574Y011730D01*
X041574Y011749D02*
X042054Y011749D01*
X042054Y011768D02*
X041574Y011768D01*
X041574Y011787D02*
X042054Y011787D01*
X042054Y011806D02*
X041574Y011806D01*
X041574Y011825D02*
X042054Y011825D01*
X042054Y011844D02*
X041574Y011844D01*
X041574Y011863D02*
X042054Y011863D01*
X042054Y011882D02*
X041574Y011882D01*
X041574Y011901D02*
X042054Y011901D01*
X041144Y011027D02*
X040664Y011027D01*
X040664Y011907D01*
X041144Y011907D01*
X041144Y011027D01*
X041144Y011046D02*
X040664Y011046D01*
X040664Y011065D02*
X041144Y011065D01*
X041144Y011084D02*
X040664Y011084D01*
X040664Y011103D02*
X041144Y011103D01*
X041144Y011122D02*
X040664Y011122D01*
X040664Y011141D02*
X041144Y011141D01*
X041144Y011160D02*
X040664Y011160D01*
X040664Y011179D02*
X041144Y011179D01*
X041144Y011198D02*
X040664Y011198D01*
X040664Y011217D02*
X041144Y011217D01*
X041144Y011236D02*
X040664Y011236D01*
X040664Y011255D02*
X041144Y011255D01*
X041144Y011274D02*
X040664Y011274D01*
X040664Y011293D02*
X041144Y011293D01*
X041144Y011312D02*
X040664Y011312D01*
X040664Y011331D02*
X041144Y011331D01*
X041144Y011350D02*
X040664Y011350D01*
X040664Y011369D02*
X041144Y011369D01*
X041144Y011388D02*
X040664Y011388D01*
X040664Y011407D02*
X041144Y011407D01*
X041144Y011426D02*
X040664Y011426D01*
X040664Y011445D02*
X041144Y011445D01*
X041144Y011464D02*
X040664Y011464D01*
X040664Y011483D02*
X041144Y011483D01*
X041144Y011502D02*
X040664Y011502D01*
X040664Y011521D02*
X041144Y011521D01*
X041144Y011540D02*
X040664Y011540D01*
X040664Y011559D02*
X041144Y011559D01*
X041144Y011578D02*
X040664Y011578D01*
X040664Y011597D02*
X041144Y011597D01*
X041144Y011616D02*
X040664Y011616D01*
X040664Y011635D02*
X041144Y011635D01*
X041144Y011654D02*
X040664Y011654D01*
X040664Y011673D02*
X041144Y011673D01*
X041144Y011692D02*
X040664Y011692D01*
X040664Y011711D02*
X041144Y011711D01*
X041144Y011730D02*
X040664Y011730D01*
X040664Y011749D02*
X041144Y011749D01*
X041144Y011768D02*
X040664Y011768D01*
X040664Y011787D02*
X041144Y011787D01*
X041144Y011806D02*
X040664Y011806D01*
X040664Y011825D02*
X041144Y011825D01*
X041144Y011844D02*
X040664Y011844D01*
X040664Y011863D02*
X041144Y011863D01*
X041144Y011882D02*
X040664Y011882D01*
X040664Y011901D02*
X041144Y011901D01*
X040234Y011027D02*
X039754Y011027D01*
X039754Y011907D01*
X040234Y011907D01*
X040234Y011027D01*
X040234Y011046D02*
X039754Y011046D01*
X039754Y011065D02*
X040234Y011065D01*
X040234Y011084D02*
X039754Y011084D01*
X039754Y011103D02*
X040234Y011103D01*
X040234Y011122D02*
X039754Y011122D01*
X039754Y011141D02*
X040234Y011141D01*
X040234Y011160D02*
X039754Y011160D01*
X039754Y011179D02*
X040234Y011179D01*
X040234Y011198D02*
X039754Y011198D01*
X039754Y011217D02*
X040234Y011217D01*
X040234Y011236D02*
X039754Y011236D01*
X039754Y011255D02*
X040234Y011255D01*
X040234Y011274D02*
X039754Y011274D01*
X039754Y011293D02*
X040234Y011293D01*
X040234Y011312D02*
X039754Y011312D01*
X039754Y011331D02*
X040234Y011331D01*
X040234Y011350D02*
X039754Y011350D01*
X039754Y011369D02*
X040234Y011369D01*
X040234Y011388D02*
X039754Y011388D01*
X039754Y011407D02*
X040234Y011407D01*
X040234Y011426D02*
X039754Y011426D01*
X039754Y011445D02*
X040234Y011445D01*
X040234Y011464D02*
X039754Y011464D01*
X039754Y011483D02*
X040234Y011483D01*
X040234Y011502D02*
X039754Y011502D01*
X039754Y011521D02*
X040234Y011521D01*
X040234Y011540D02*
X039754Y011540D01*
X039754Y011559D02*
X040234Y011559D01*
X040234Y011578D02*
X039754Y011578D01*
X039754Y011597D02*
X040234Y011597D01*
X040234Y011616D02*
X039754Y011616D01*
X039754Y011635D02*
X040234Y011635D01*
X040234Y011654D02*
X039754Y011654D01*
X039754Y011673D02*
X040234Y011673D01*
X040234Y011692D02*
X039754Y011692D01*
X039754Y011711D02*
X040234Y011711D01*
X040234Y011730D02*
X039754Y011730D01*
X039754Y011749D02*
X040234Y011749D01*
X040234Y011768D02*
X039754Y011768D01*
X039754Y011787D02*
X040234Y011787D01*
X040234Y011806D02*
X039754Y011806D01*
X039754Y011825D02*
X040234Y011825D01*
X040234Y011844D02*
X039754Y011844D01*
X039754Y011863D02*
X040234Y011863D01*
X040234Y011882D02*
X039754Y011882D01*
X039754Y011901D02*
X040234Y011901D01*
D23*
X040195Y008593D02*
X041613Y008593D01*
X040195Y008593D02*
X040195Y009461D01*
X041613Y009461D01*
X041613Y008593D01*
X041613Y008610D02*
X040195Y008610D01*
X040195Y008627D02*
X041613Y008627D01*
X041613Y008644D02*
X040195Y008644D01*
X040195Y008661D02*
X041613Y008661D01*
X041613Y008678D02*
X040195Y008678D01*
X040195Y008695D02*
X041613Y008695D01*
X041613Y008712D02*
X040195Y008712D01*
X040195Y008729D02*
X041613Y008729D01*
X041613Y008746D02*
X040195Y008746D01*
X040195Y008763D02*
X041613Y008763D01*
X041613Y008780D02*
X040195Y008780D01*
X040195Y008797D02*
X041613Y008797D01*
X041613Y008814D02*
X040195Y008814D01*
X040195Y008831D02*
X041613Y008831D01*
X041613Y008848D02*
X040195Y008848D01*
X040195Y008865D02*
X041613Y008865D01*
X041613Y008882D02*
X040195Y008882D01*
X040195Y008899D02*
X041613Y008899D01*
X041613Y008916D02*
X040195Y008916D01*
X040195Y008933D02*
X041613Y008933D01*
X041613Y008950D02*
X040195Y008950D01*
X040195Y008967D02*
X041613Y008967D01*
X041613Y008984D02*
X040195Y008984D01*
X040195Y009001D02*
X041613Y009001D01*
X041613Y009018D02*
X040195Y009018D01*
X040195Y009035D02*
X041613Y009035D01*
X041613Y009052D02*
X040195Y009052D01*
X040195Y009069D02*
X041613Y009069D01*
X041613Y009086D02*
X040195Y009086D01*
X040195Y009103D02*
X041613Y009103D01*
X041613Y009120D02*
X040195Y009120D01*
X040195Y009137D02*
X041613Y009137D01*
X041613Y009154D02*
X040195Y009154D01*
X040195Y009171D02*
X041613Y009171D01*
X041613Y009188D02*
X040195Y009188D01*
X040195Y009205D02*
X041613Y009205D01*
X041613Y009222D02*
X040195Y009222D01*
X040195Y009239D02*
X041613Y009239D01*
X041613Y009256D02*
X040195Y009256D01*
X040195Y009273D02*
X041613Y009273D01*
X041613Y009290D02*
X040195Y009290D01*
X040195Y009307D02*
X041613Y009307D01*
X041613Y009324D02*
X040195Y009324D01*
X040195Y009341D02*
X041613Y009341D01*
X041613Y009358D02*
X040195Y009358D01*
X040195Y009375D02*
X041613Y009375D01*
X041613Y009392D02*
X040195Y009392D01*
X040195Y009409D02*
X041613Y009409D01*
X041613Y009426D02*
X040195Y009426D01*
X040195Y009443D02*
X041613Y009443D01*
X041613Y009460D02*
X040195Y009460D01*
D24*
X040017Y014331D03*
X039017Y014331D03*
X038017Y014331D03*
X038017Y015331D03*
X039017Y015331D03*
X040017Y015331D03*
X041017Y015331D03*
X041017Y014331D03*
X042017Y014331D03*
X042017Y015331D03*
X043017Y015331D03*
X044017Y015331D03*
X044017Y014331D03*
X043017Y014331D03*
X045017Y014331D03*
X045017Y015331D03*
X046017Y015331D03*
X046017Y014331D03*
X034981Y019161D03*
X033981Y019161D03*
X033981Y020161D03*
X034981Y020161D03*
X034981Y021161D03*
X033981Y021161D03*
X033981Y022161D03*
X034981Y022161D03*
X034981Y023161D03*
X033981Y023161D03*
X033863Y028020D03*
X033863Y029020D03*
X033863Y030020D03*
X033863Y031020D03*
X033863Y032020D03*
X034863Y032020D03*
X034863Y031020D03*
X034863Y030020D03*
X034863Y029020D03*
X034863Y028020D03*
X028878Y035224D03*
X027878Y035224D03*
X027878Y036224D03*
X028878Y036224D03*
X028878Y037224D03*
X027878Y037224D03*
X027878Y038224D03*
X028878Y038224D03*
X028878Y039224D03*
X027878Y039224D03*
X013996Y032122D03*
X013209Y032122D03*
X013209Y031335D03*
X013996Y031335D03*
X013996Y030547D03*
X013209Y030547D03*
X016807Y011027D03*
X016807Y010027D03*
X017807Y010027D03*
X017807Y011027D03*
X018807Y011027D03*
X018807Y010027D03*
X019807Y010027D03*
X020807Y010027D03*
X020807Y011027D03*
X019807Y011027D03*
X025091Y009098D03*
X026091Y009098D03*
X026091Y008098D03*
X025091Y008098D03*
X027091Y008098D03*
X028091Y008098D03*
X028091Y009098D03*
X027091Y009098D03*
X027524Y006030D03*
X028311Y006030D03*
X028311Y005243D03*
X027524Y005243D03*
X029099Y005243D03*
X029099Y006030D03*
X025442Y005772D03*
X024442Y005772D03*
X047500Y032594D03*
X047500Y033382D03*
X047500Y034169D03*
X048288Y034169D03*
X048288Y033382D03*
X048288Y032594D03*
D25*
X037640Y004189D03*
X036459Y004189D03*
X035278Y004189D03*
X034097Y004189D03*
D26*
X032916Y004189D03*
X038821Y004189D03*
D27*
X007886Y025075D03*
X007886Y026728D03*
X007886Y028382D03*
X005721Y028382D03*
X005721Y026728D03*
X005721Y025075D03*
D28*
X002847Y025075D03*
X002847Y028382D03*
D29*
X014485Y040047D03*
X015485Y040047D03*
X016485Y040047D03*
X016485Y041047D03*
X015485Y041047D03*
X014485Y041047D03*
X022201Y036165D03*
X023201Y036165D03*
X023201Y035165D03*
X022201Y035165D03*
X024201Y035165D03*
X024201Y036165D03*
D30*
X019997Y031884D02*
X019997Y031730D01*
X019921Y031730D01*
X019921Y031884D01*
X019997Y031884D01*
X019297Y031884D02*
X019297Y031730D01*
X019221Y031730D01*
X019221Y031884D01*
X019297Y031884D01*
X023122Y028109D02*
X023276Y028109D01*
X023122Y028109D02*
X023122Y028185D01*
X023276Y028185D01*
X023276Y028109D01*
X023276Y027409D02*
X023122Y027409D01*
X023122Y027485D01*
X023276Y027485D01*
X023276Y027409D01*
X015109Y027550D02*
X014955Y027550D01*
X015109Y027550D02*
X015109Y027474D01*
X014955Y027474D01*
X014955Y027550D01*
X014955Y028250D02*
X015109Y028250D01*
X015109Y028174D01*
X014955Y028174D01*
X014955Y028250D01*
X009526Y034952D02*
X009372Y034952D01*
X009526Y034952D02*
X009526Y034876D01*
X009372Y034876D01*
X009372Y034952D01*
X009372Y035652D02*
X009526Y035652D01*
X009526Y035576D01*
X009372Y035576D01*
X009372Y035652D01*
X027290Y017372D02*
X027444Y017372D01*
X027290Y017372D02*
X027290Y017448D01*
X027444Y017448D01*
X027444Y017372D01*
X027444Y016672D02*
X027290Y016672D01*
X027290Y016748D01*
X027444Y016748D01*
X027444Y016672D01*
X030744Y012542D02*
X030744Y012388D01*
X030744Y012542D02*
X030820Y012542D01*
X030820Y012388D01*
X030744Y012388D01*
X031444Y012388D02*
X031444Y012542D01*
X031520Y012542D01*
X031520Y012388D01*
X031444Y012388D01*
X044355Y032628D02*
X044355Y032782D01*
X044355Y032628D02*
X044279Y032628D01*
X044279Y032782D01*
X044355Y032782D01*
X045055Y032782D02*
X045055Y032628D01*
X044979Y032628D01*
X044979Y032782D01*
X045055Y032782D01*
D31*
X012993Y039220D03*
X012993Y040220D03*
X011993Y040220D03*
X011993Y039220D03*
X006000Y036551D03*
X005213Y036551D03*
X005213Y035567D03*
X006000Y035567D03*
X009445Y033657D03*
X011445Y033657D03*
D32*
X004146Y033697D03*
X004146Y038421D03*
X002886Y016957D03*
X002759Y008355D03*
D33*
X047788Y038068D02*
X048250Y038068D01*
X048250Y037436D01*
X047788Y037436D01*
X047788Y038068D01*
X047788Y037454D02*
X048250Y037454D01*
X048250Y037472D02*
X047788Y037472D01*
X047788Y037490D02*
X048250Y037490D01*
X048250Y037508D02*
X047788Y037508D01*
X047788Y037526D02*
X048250Y037526D01*
X048250Y037544D02*
X047788Y037544D01*
X047788Y037562D02*
X048250Y037562D01*
X048250Y037580D02*
X047788Y037580D01*
X047788Y037598D02*
X048250Y037598D01*
X048250Y037616D02*
X047788Y037616D01*
X047788Y037634D02*
X048250Y037634D01*
X048250Y037652D02*
X047788Y037652D01*
X047788Y037670D02*
X048250Y037670D01*
X048250Y037688D02*
X047788Y037688D01*
X047788Y037706D02*
X048250Y037706D01*
X048250Y037724D02*
X047788Y037724D01*
X047788Y037742D02*
X048250Y037742D01*
X048250Y037760D02*
X047788Y037760D01*
X047788Y037778D02*
X048250Y037778D01*
X048250Y037796D02*
X047788Y037796D01*
X047788Y037814D02*
X048250Y037814D01*
X048250Y037832D02*
X047788Y037832D01*
X047788Y037850D02*
X048250Y037850D01*
X048250Y037868D02*
X047788Y037868D01*
X047788Y037886D02*
X048250Y037886D01*
X048250Y037904D02*
X047788Y037904D01*
X047788Y037922D02*
X048250Y037922D01*
X048250Y037940D02*
X047788Y037940D01*
X047788Y037958D02*
X048250Y037958D01*
X048250Y037976D02*
X047788Y037976D01*
X047788Y037994D02*
X048250Y037994D01*
X048250Y038012D02*
X047788Y038012D01*
X047788Y038030D02*
X048250Y038030D01*
X048250Y038048D02*
X047788Y038048D01*
X047788Y038066D02*
X048250Y038066D01*
X048388Y038068D02*
X048850Y038068D01*
X048850Y037436D01*
X048388Y037436D01*
X048388Y038068D01*
X048388Y037454D02*
X048850Y037454D01*
X048850Y037472D02*
X048388Y037472D01*
X048388Y037490D02*
X048850Y037490D01*
X048850Y037508D02*
X048388Y037508D01*
X048388Y037526D02*
X048850Y037526D01*
X048850Y037544D02*
X048388Y037544D01*
X048388Y037562D02*
X048850Y037562D01*
X048850Y037580D02*
X048388Y037580D01*
X048388Y037598D02*
X048850Y037598D01*
X048850Y037616D02*
X048388Y037616D01*
X048388Y037634D02*
X048850Y037634D01*
X048850Y037652D02*
X048388Y037652D01*
X048388Y037670D02*
X048850Y037670D01*
X048850Y037688D02*
X048388Y037688D01*
X048388Y037706D02*
X048850Y037706D01*
X048850Y037724D02*
X048388Y037724D01*
X048388Y037742D02*
X048850Y037742D01*
X048850Y037760D02*
X048388Y037760D01*
X048388Y037778D02*
X048850Y037778D01*
X048850Y037796D02*
X048388Y037796D01*
X048388Y037814D02*
X048850Y037814D01*
X048850Y037832D02*
X048388Y037832D01*
X048388Y037850D02*
X048850Y037850D01*
X048850Y037868D02*
X048388Y037868D01*
X048388Y037886D02*
X048850Y037886D01*
X048850Y037904D02*
X048388Y037904D01*
X048388Y037922D02*
X048850Y037922D01*
X048850Y037940D02*
X048388Y037940D01*
X048388Y037958D02*
X048850Y037958D01*
X048850Y037976D02*
X048388Y037976D01*
X048388Y037994D02*
X048850Y037994D01*
X048850Y038012D02*
X048388Y038012D01*
X048388Y038030D02*
X048850Y038030D01*
X048850Y038048D02*
X048388Y038048D01*
X048388Y038066D02*
X048850Y038066D01*
D34*
X048319Y037752D03*
D35*
X012275Y037339D02*
X012081Y037339D01*
X012081Y037593D01*
X012275Y037593D01*
X012275Y037339D01*
X012275Y037360D02*
X012081Y037360D01*
X012081Y037381D02*
X012275Y037381D01*
X012275Y037402D02*
X012081Y037402D01*
X012081Y037423D02*
X012275Y037423D01*
X012275Y037444D02*
X012081Y037444D01*
X012081Y037465D02*
X012275Y037465D01*
X012275Y037486D02*
X012081Y037486D01*
X012081Y037507D02*
X012275Y037507D01*
X012275Y037528D02*
X012081Y037528D01*
X012081Y037549D02*
X012275Y037549D01*
X012275Y037570D02*
X012081Y037570D01*
X012081Y037591D02*
X012275Y037591D01*
X011960Y037339D02*
X011766Y037339D01*
X011766Y037593D01*
X011960Y037593D01*
X011960Y037339D01*
X011960Y037360D02*
X011766Y037360D01*
X011766Y037381D02*
X011960Y037381D01*
X011960Y037402D02*
X011766Y037402D01*
X011766Y037423D02*
X011960Y037423D01*
X011960Y037444D02*
X011766Y037444D01*
X011766Y037465D02*
X011960Y037465D01*
X011960Y037486D02*
X011766Y037486D01*
X011766Y037507D02*
X011960Y037507D01*
X011960Y037528D02*
X011766Y037528D01*
X011766Y037549D02*
X011960Y037549D01*
X011960Y037570D02*
X011766Y037570D01*
X011766Y037591D02*
X011960Y037591D01*
X011645Y037339D02*
X011451Y037339D01*
X011451Y037593D01*
X011645Y037593D01*
X011645Y037339D01*
X011645Y037360D02*
X011451Y037360D01*
X011451Y037381D02*
X011645Y037381D01*
X011645Y037402D02*
X011451Y037402D01*
X011451Y037423D02*
X011645Y037423D01*
X011645Y037444D02*
X011451Y037444D01*
X011451Y037465D02*
X011645Y037465D01*
X011645Y037486D02*
X011451Y037486D01*
X011451Y037507D02*
X011645Y037507D01*
X011645Y037528D02*
X011451Y037528D01*
X011451Y037549D02*
X011645Y037549D01*
X011645Y037570D02*
X011451Y037570D01*
X011451Y037591D02*
X011645Y037591D01*
X011330Y037339D02*
X011136Y037339D01*
X011136Y037593D01*
X011330Y037593D01*
X011330Y037339D01*
X011330Y037360D02*
X011136Y037360D01*
X011136Y037381D02*
X011330Y037381D01*
X011330Y037402D02*
X011136Y037402D01*
X011136Y037423D02*
X011330Y037423D01*
X011330Y037444D02*
X011136Y037444D01*
X011136Y037465D02*
X011330Y037465D01*
X011330Y037486D02*
X011136Y037486D01*
X011136Y037507D02*
X011330Y037507D01*
X011330Y037528D02*
X011136Y037528D01*
X011136Y037549D02*
X011330Y037549D01*
X011330Y037570D02*
X011136Y037570D01*
X011136Y037591D02*
X011330Y037591D01*
X011330Y036808D02*
X011136Y036808D01*
X011136Y037062D01*
X011330Y037062D01*
X011330Y036808D01*
X011330Y036829D02*
X011136Y036829D01*
X011136Y036850D02*
X011330Y036850D01*
X011330Y036871D02*
X011136Y036871D01*
X011136Y036892D02*
X011330Y036892D01*
X011330Y036913D02*
X011136Y036913D01*
X011136Y036934D02*
X011330Y036934D01*
X011330Y036955D02*
X011136Y036955D01*
X011136Y036976D02*
X011330Y036976D01*
X011330Y036997D02*
X011136Y036997D01*
X011136Y037018D02*
X011330Y037018D01*
X011330Y037039D02*
X011136Y037039D01*
X011136Y037060D02*
X011330Y037060D01*
X011451Y036808D02*
X011645Y036808D01*
X011451Y036808D02*
X011451Y037062D01*
X011645Y037062D01*
X011645Y036808D01*
X011645Y036829D02*
X011451Y036829D01*
X011451Y036850D02*
X011645Y036850D01*
X011645Y036871D02*
X011451Y036871D01*
X011451Y036892D02*
X011645Y036892D01*
X011645Y036913D02*
X011451Y036913D01*
X011451Y036934D02*
X011645Y036934D01*
X011645Y036955D02*
X011451Y036955D01*
X011451Y036976D02*
X011645Y036976D01*
X011645Y036997D02*
X011451Y036997D01*
X011451Y037018D02*
X011645Y037018D01*
X011645Y037039D02*
X011451Y037039D01*
X011451Y037060D02*
X011645Y037060D01*
X011766Y036808D02*
X011960Y036808D01*
X011766Y036808D02*
X011766Y037062D01*
X011960Y037062D01*
X011960Y036808D01*
X011960Y036829D02*
X011766Y036829D01*
X011766Y036850D02*
X011960Y036850D01*
X011960Y036871D02*
X011766Y036871D01*
X011766Y036892D02*
X011960Y036892D01*
X011960Y036913D02*
X011766Y036913D01*
X011766Y036934D02*
X011960Y036934D01*
X011960Y036955D02*
X011766Y036955D01*
X011766Y036976D02*
X011960Y036976D01*
X011960Y036997D02*
X011766Y036997D01*
X011766Y037018D02*
X011960Y037018D01*
X011960Y037039D02*
X011766Y037039D01*
X011766Y037060D02*
X011960Y037060D01*
X012081Y036808D02*
X012275Y036808D01*
X012081Y036808D02*
X012081Y037062D01*
X012275Y037062D01*
X012275Y036808D01*
X012275Y036829D02*
X012081Y036829D01*
X012081Y036850D02*
X012275Y036850D01*
X012275Y036871D02*
X012081Y036871D01*
X012081Y036892D02*
X012275Y036892D01*
X012275Y036913D02*
X012081Y036913D01*
X012081Y036934D02*
X012275Y036934D01*
X012275Y036955D02*
X012081Y036955D01*
X012081Y036976D02*
X012275Y036976D01*
X012275Y036997D02*
X012081Y036997D01*
X012081Y037018D02*
X012275Y037018D01*
X012275Y037039D02*
X012081Y037039D01*
X012081Y037060D02*
X012275Y037060D01*
D36*
X032786Y032612D02*
X033218Y032612D01*
X032786Y032612D02*
X032786Y033006D01*
X033218Y033006D01*
X033218Y032612D01*
X033218Y032632D02*
X032786Y032632D01*
X032786Y032652D02*
X033218Y032652D01*
X033218Y032672D02*
X032786Y032672D01*
X032786Y032692D02*
X033218Y032692D01*
X033218Y032712D02*
X032786Y032712D01*
X032786Y032732D02*
X033218Y032732D01*
X033218Y032752D02*
X032786Y032752D01*
X032786Y032772D02*
X033218Y032772D01*
X033218Y032792D02*
X032786Y032792D01*
X032786Y032812D02*
X033218Y032812D01*
X033218Y032832D02*
X032786Y032832D01*
X032786Y032852D02*
X033218Y032852D01*
X033218Y032872D02*
X032786Y032872D01*
X032786Y032892D02*
X033218Y032892D01*
X033218Y032912D02*
X032786Y032912D01*
X032786Y032932D02*
X033218Y032932D01*
X033218Y032952D02*
X032786Y032952D01*
X032786Y032972D02*
X033218Y032972D01*
X033218Y032992D02*
X032786Y032992D01*
X033456Y032612D02*
X033888Y032612D01*
X033456Y032612D02*
X033456Y033006D01*
X033888Y033006D01*
X033888Y032612D01*
X033888Y032632D02*
X033456Y032632D01*
X033456Y032652D02*
X033888Y032652D01*
X033888Y032672D02*
X033456Y032672D01*
X033456Y032692D02*
X033888Y032692D01*
X033888Y032712D02*
X033456Y032712D01*
X033456Y032732D02*
X033888Y032732D01*
X033888Y032752D02*
X033456Y032752D01*
X033456Y032772D02*
X033888Y032772D01*
X033888Y032792D02*
X033456Y032792D01*
X033456Y032812D02*
X033888Y032812D01*
X033888Y032832D02*
X033456Y032832D01*
X033456Y032852D02*
X033888Y032852D01*
X033888Y032872D02*
X033456Y032872D01*
X033456Y032892D02*
X033888Y032892D01*
X033888Y032912D02*
X033456Y032912D01*
X033456Y032932D02*
X033888Y032932D01*
X033888Y032952D02*
X033456Y032952D01*
X033456Y032972D02*
X033888Y032972D01*
X033888Y032992D02*
X033456Y032992D01*
X032853Y031711D02*
X032853Y031279D01*
X032853Y031711D02*
X033247Y031711D01*
X033247Y031279D01*
X032853Y031279D01*
X032853Y031299D02*
X033247Y031299D01*
X033247Y031319D02*
X032853Y031319D01*
X032853Y031339D02*
X033247Y031339D01*
X033247Y031359D02*
X032853Y031359D01*
X032853Y031379D02*
X033247Y031379D01*
X033247Y031399D02*
X032853Y031399D01*
X032853Y031419D02*
X033247Y031419D01*
X033247Y031439D02*
X032853Y031439D01*
X032853Y031459D02*
X033247Y031459D01*
X033247Y031479D02*
X032853Y031479D01*
X032853Y031499D02*
X033247Y031499D01*
X033247Y031519D02*
X032853Y031519D01*
X032853Y031539D02*
X033247Y031539D01*
X033247Y031559D02*
X032853Y031559D01*
X032853Y031579D02*
X033247Y031579D01*
X033247Y031599D02*
X032853Y031599D01*
X032853Y031619D02*
X033247Y031619D01*
X033247Y031639D02*
X032853Y031639D01*
X032853Y031659D02*
X033247Y031659D01*
X033247Y031679D02*
X032853Y031679D01*
X032853Y031699D02*
X033247Y031699D01*
X032853Y031041D02*
X032853Y030609D01*
X032853Y031041D02*
X033247Y031041D01*
X033247Y030609D01*
X032853Y030609D01*
X032853Y030629D02*
X033247Y030629D01*
X033247Y030649D02*
X032853Y030649D01*
X032853Y030669D02*
X033247Y030669D01*
X033247Y030689D02*
X032853Y030689D01*
X032853Y030709D02*
X033247Y030709D01*
X033247Y030729D02*
X032853Y030729D01*
X032853Y030749D02*
X033247Y030749D01*
X033247Y030769D02*
X032853Y030769D01*
X032853Y030789D02*
X033247Y030789D01*
X033247Y030809D02*
X032853Y030809D01*
X032853Y030829D02*
X033247Y030829D01*
X033247Y030849D02*
X032853Y030849D01*
X032853Y030869D02*
X033247Y030869D01*
X033247Y030889D02*
X032853Y030889D01*
X032853Y030909D02*
X033247Y030909D01*
X033247Y030929D02*
X032853Y030929D01*
X032853Y030949D02*
X033247Y030949D01*
X033247Y030969D02*
X032853Y030969D01*
X032853Y030989D02*
X033247Y030989D01*
X033247Y031009D02*
X032853Y031009D01*
X032853Y031029D02*
X033247Y031029D01*
X033388Y023848D02*
X032956Y023848D01*
X032956Y024242D01*
X033388Y024242D01*
X033388Y023848D01*
X033388Y023868D02*
X032956Y023868D01*
X032956Y023888D02*
X033388Y023888D01*
X033388Y023908D02*
X032956Y023908D01*
X032956Y023928D02*
X033388Y023928D01*
X033388Y023948D02*
X032956Y023948D01*
X032956Y023968D02*
X033388Y023968D01*
X033388Y023988D02*
X032956Y023988D01*
X032956Y024008D02*
X033388Y024008D01*
X033388Y024028D02*
X032956Y024028D01*
X032956Y024048D02*
X033388Y024048D01*
X033388Y024068D02*
X032956Y024068D01*
X032956Y024088D02*
X033388Y024088D01*
X033388Y024108D02*
X032956Y024108D01*
X032956Y024128D02*
X033388Y024128D01*
X033388Y024148D02*
X032956Y024148D01*
X032956Y024168D02*
X033388Y024168D01*
X033388Y024188D02*
X032956Y024188D01*
X032956Y024208D02*
X033388Y024208D01*
X033388Y024228D02*
X032956Y024228D01*
X033626Y023848D02*
X034058Y023848D01*
X033626Y023848D02*
X033626Y024242D01*
X034058Y024242D01*
X034058Y023848D01*
X034058Y023868D02*
X033626Y023868D01*
X033626Y023888D02*
X034058Y023888D01*
X034058Y023908D02*
X033626Y023908D01*
X033626Y023928D02*
X034058Y023928D01*
X034058Y023948D02*
X033626Y023948D01*
X033626Y023968D02*
X034058Y023968D01*
X034058Y023988D02*
X033626Y023988D01*
X033626Y024008D02*
X034058Y024008D01*
X034058Y024028D02*
X033626Y024028D01*
X033626Y024048D02*
X034058Y024048D01*
X034058Y024068D02*
X033626Y024068D01*
X033626Y024088D02*
X034058Y024088D01*
X034058Y024108D02*
X033626Y024108D01*
X033626Y024128D02*
X034058Y024128D01*
X034058Y024148D02*
X033626Y024148D01*
X033626Y024168D02*
X034058Y024168D01*
X034058Y024188D02*
X033626Y024188D01*
X033626Y024208D02*
X034058Y024208D01*
X034058Y024228D02*
X033626Y024228D01*
X034931Y024312D02*
X035363Y024312D01*
X035363Y023918D01*
X034931Y023918D01*
X034931Y024312D01*
X034931Y023938D02*
X035363Y023938D01*
X035363Y023958D02*
X034931Y023958D01*
X034931Y023978D02*
X035363Y023978D01*
X035363Y023998D02*
X034931Y023998D01*
X034931Y024018D02*
X035363Y024018D01*
X035363Y024038D02*
X034931Y024038D01*
X034931Y024058D02*
X035363Y024058D01*
X035363Y024078D02*
X034931Y024078D01*
X034931Y024098D02*
X035363Y024098D01*
X035363Y024118D02*
X034931Y024118D01*
X034931Y024138D02*
X035363Y024138D01*
X035363Y024158D02*
X034931Y024158D01*
X034931Y024178D02*
X035363Y024178D01*
X035363Y024198D02*
X034931Y024198D01*
X034931Y024218D02*
X035363Y024218D01*
X035363Y024238D02*
X034931Y024238D01*
X034931Y024258D02*
X035363Y024258D01*
X035363Y024278D02*
X034931Y024278D01*
X034931Y024298D02*
X035363Y024298D01*
X035601Y024312D02*
X036033Y024312D01*
X036033Y023918D01*
X035601Y023918D01*
X035601Y024312D01*
X035601Y023938D02*
X036033Y023938D01*
X036033Y023958D02*
X035601Y023958D01*
X035601Y023978D02*
X036033Y023978D01*
X036033Y023998D02*
X035601Y023998D01*
X035601Y024018D02*
X036033Y024018D01*
X036033Y024038D02*
X035601Y024038D01*
X035601Y024058D02*
X036033Y024058D01*
X036033Y024078D02*
X035601Y024078D01*
X035601Y024098D02*
X036033Y024098D01*
X036033Y024118D02*
X035601Y024118D01*
X035601Y024138D02*
X036033Y024138D01*
X036033Y024158D02*
X035601Y024158D01*
X035601Y024178D02*
X036033Y024178D01*
X036033Y024198D02*
X035601Y024198D01*
X035601Y024218D02*
X036033Y024218D01*
X036033Y024238D02*
X035601Y024238D01*
X035601Y024258D02*
X036033Y024258D01*
X036033Y024278D02*
X035601Y024278D01*
X035601Y024298D02*
X036033Y024298D01*
X046181Y037612D02*
X046575Y037612D01*
X046575Y037062D01*
X046181Y037062D01*
X046181Y037612D01*
X046181Y037082D02*
X046575Y037082D01*
X046575Y037102D02*
X046181Y037102D01*
X046181Y037122D02*
X046575Y037122D01*
X046575Y037142D02*
X046181Y037142D01*
X046181Y037162D02*
X046575Y037162D01*
X046575Y037182D02*
X046181Y037182D01*
X046181Y037202D02*
X046575Y037202D01*
X046575Y037222D02*
X046181Y037222D01*
X046181Y037242D02*
X046575Y037242D01*
X046575Y037262D02*
X046181Y037262D01*
X046181Y037282D02*
X046575Y037282D01*
X046575Y037302D02*
X046181Y037302D01*
X046181Y037322D02*
X046575Y037322D01*
X046575Y037342D02*
X046181Y037342D01*
X046181Y037362D02*
X046575Y037362D01*
X046575Y037382D02*
X046181Y037382D01*
X046181Y037402D02*
X046575Y037402D01*
X046575Y037422D02*
X046181Y037422D01*
X046181Y037442D02*
X046575Y037442D01*
X046575Y037462D02*
X046181Y037462D01*
X046181Y037482D02*
X046575Y037482D01*
X046575Y037502D02*
X046181Y037502D01*
X046181Y037522D02*
X046575Y037522D01*
X046575Y037542D02*
X046181Y037542D01*
X046181Y037562D02*
X046575Y037562D01*
X046575Y037582D02*
X046181Y037582D01*
X046181Y037602D02*
X046575Y037602D01*
X046929Y037612D02*
X047323Y037612D01*
X047323Y037062D01*
X046929Y037062D01*
X046929Y037612D01*
X046929Y037082D02*
X047323Y037082D01*
X047323Y037102D02*
X046929Y037102D01*
X046929Y037122D02*
X047323Y037122D01*
X047323Y037142D02*
X046929Y037142D01*
X046929Y037162D02*
X047323Y037162D01*
X047323Y037182D02*
X046929Y037182D01*
X046929Y037202D02*
X047323Y037202D01*
X047323Y037222D02*
X046929Y037222D01*
X046929Y037242D02*
X047323Y037242D01*
X047323Y037262D02*
X046929Y037262D01*
X046929Y037282D02*
X047323Y037282D01*
X047323Y037302D02*
X046929Y037302D01*
X046929Y037322D02*
X047323Y037322D01*
X047323Y037342D02*
X046929Y037342D01*
X046929Y037362D02*
X047323Y037362D01*
X047323Y037382D02*
X046929Y037382D01*
X046929Y037402D02*
X047323Y037402D01*
X047323Y037422D02*
X046929Y037422D01*
X046929Y037442D02*
X047323Y037442D01*
X047323Y037462D02*
X046929Y037462D01*
X046929Y037482D02*
X047323Y037482D01*
X047323Y037502D02*
X046929Y037502D01*
X046929Y037522D02*
X047323Y037522D01*
X047323Y037542D02*
X046929Y037542D01*
X046929Y037562D02*
X047323Y037562D01*
X047323Y037582D02*
X046929Y037582D01*
X046929Y037602D02*
X047323Y037602D01*
X046949Y038478D02*
X046555Y038478D01*
X046949Y038478D02*
X046949Y037928D01*
X046555Y037928D01*
X046555Y038478D01*
X046555Y037948D02*
X046949Y037948D01*
X046949Y037968D02*
X046555Y037968D01*
X046555Y037988D02*
X046949Y037988D01*
X046949Y038008D02*
X046555Y038008D01*
X046555Y038028D02*
X046949Y038028D01*
X046949Y038048D02*
X046555Y038048D01*
X046555Y038068D02*
X046949Y038068D01*
X046949Y038088D02*
X046555Y038088D01*
X046555Y038108D02*
X046949Y038108D01*
X046949Y038128D02*
X046555Y038128D01*
X046555Y038148D02*
X046949Y038148D01*
X046949Y038168D02*
X046555Y038168D01*
X046555Y038188D02*
X046949Y038188D01*
X046949Y038208D02*
X046555Y038208D01*
X046555Y038228D02*
X046949Y038228D01*
X046949Y038248D02*
X046555Y038248D01*
X046555Y038268D02*
X046949Y038268D01*
X046949Y038288D02*
X046555Y038288D01*
X046555Y038308D02*
X046949Y038308D01*
X046949Y038328D02*
X046555Y038328D01*
X046555Y038348D02*
X046949Y038348D01*
X046949Y038368D02*
X046555Y038368D01*
X046555Y038388D02*
X046949Y038388D01*
X046949Y038408D02*
X046555Y038408D01*
X046555Y038428D02*
X046949Y038428D01*
X046949Y038448D02*
X046555Y038448D01*
X046555Y038468D02*
X046949Y038468D01*
X031468Y008693D02*
X031074Y008693D01*
X031074Y009243D01*
X031468Y009243D01*
X031468Y008693D01*
X031468Y008713D02*
X031074Y008713D01*
X031074Y008733D02*
X031468Y008733D01*
X031468Y008753D02*
X031074Y008753D01*
X031074Y008773D02*
X031468Y008773D01*
X031468Y008793D02*
X031074Y008793D01*
X031074Y008813D02*
X031468Y008813D01*
X031468Y008833D02*
X031074Y008833D01*
X031074Y008853D02*
X031468Y008853D01*
X031468Y008873D02*
X031074Y008873D01*
X031074Y008893D02*
X031468Y008893D01*
X031468Y008913D02*
X031074Y008913D01*
X031074Y008933D02*
X031468Y008933D01*
X031468Y008953D02*
X031074Y008953D01*
X031074Y008973D02*
X031468Y008973D01*
X031468Y008993D02*
X031074Y008993D01*
X031074Y009013D02*
X031468Y009013D01*
X031468Y009033D02*
X031074Y009033D01*
X031074Y009053D02*
X031468Y009053D01*
X031468Y009073D02*
X031074Y009073D01*
X031074Y009093D02*
X031468Y009093D01*
X031468Y009113D02*
X031074Y009113D01*
X031074Y009133D02*
X031468Y009133D01*
X031468Y009153D02*
X031074Y009153D01*
X031074Y009173D02*
X031468Y009173D01*
X031468Y009193D02*
X031074Y009193D01*
X031074Y009213D02*
X031468Y009213D01*
X031468Y009233D02*
X031074Y009233D01*
X030720Y008693D02*
X030326Y008693D01*
X030326Y009243D01*
X030720Y009243D01*
X030720Y008693D01*
X030720Y008713D02*
X030326Y008713D01*
X030326Y008733D02*
X030720Y008733D01*
X030720Y008753D02*
X030326Y008753D01*
X030326Y008773D02*
X030720Y008773D01*
X030720Y008793D02*
X030326Y008793D01*
X030326Y008813D02*
X030720Y008813D01*
X030720Y008833D02*
X030326Y008833D01*
X030326Y008853D02*
X030720Y008853D01*
X030720Y008873D02*
X030326Y008873D01*
X030326Y008893D02*
X030720Y008893D01*
X030720Y008913D02*
X030326Y008913D01*
X030326Y008933D02*
X030720Y008933D01*
X030720Y008953D02*
X030326Y008953D01*
X030326Y008973D02*
X030720Y008973D01*
X030720Y008993D02*
X030326Y008993D01*
X030326Y009013D02*
X030720Y009013D01*
X030720Y009033D02*
X030326Y009033D01*
X030326Y009053D02*
X030720Y009053D01*
X030720Y009073D02*
X030326Y009073D01*
X030326Y009093D02*
X030720Y009093D01*
X030720Y009113D02*
X030326Y009113D01*
X030326Y009133D02*
X030720Y009133D01*
X030720Y009153D02*
X030326Y009153D01*
X030326Y009173D02*
X030720Y009173D01*
X030720Y009193D02*
X030326Y009193D01*
X030326Y009213D02*
X030720Y009213D01*
X030720Y009233D02*
X030326Y009233D01*
X030700Y007827D02*
X031094Y007827D01*
X030700Y007827D02*
X030700Y008377D01*
X031094Y008377D01*
X031094Y007827D01*
X031094Y007847D02*
X030700Y007847D01*
X030700Y007867D02*
X031094Y007867D01*
X031094Y007887D02*
X030700Y007887D01*
X030700Y007907D02*
X031094Y007907D01*
X031094Y007927D02*
X030700Y007927D01*
X030700Y007947D02*
X031094Y007947D01*
X031094Y007967D02*
X030700Y007967D01*
X030700Y007987D02*
X031094Y007987D01*
X031094Y008007D02*
X030700Y008007D01*
X030700Y008027D02*
X031094Y008027D01*
X031094Y008047D02*
X030700Y008047D01*
X030700Y008067D02*
X031094Y008067D01*
X031094Y008087D02*
X030700Y008087D01*
X030700Y008107D02*
X031094Y008107D01*
X031094Y008127D02*
X030700Y008127D01*
X030700Y008147D02*
X031094Y008147D01*
X031094Y008167D02*
X030700Y008167D01*
X030700Y008187D02*
X031094Y008187D01*
X031094Y008207D02*
X030700Y008207D01*
X030700Y008227D02*
X031094Y008227D01*
X031094Y008247D02*
X030700Y008247D01*
X030700Y008267D02*
X031094Y008267D01*
X031094Y008287D02*
X030700Y008287D01*
X030700Y008307D02*
X031094Y008307D01*
X031094Y008327D02*
X030700Y008327D01*
X030700Y008347D02*
X031094Y008347D01*
X031094Y008367D02*
X030700Y008367D01*
X015958Y008848D02*
X015564Y008848D01*
X015564Y009398D01*
X015958Y009398D01*
X015958Y008848D01*
X015958Y008868D02*
X015564Y008868D01*
X015564Y008888D02*
X015958Y008888D01*
X015958Y008908D02*
X015564Y008908D01*
X015564Y008928D02*
X015958Y008928D01*
X015958Y008948D02*
X015564Y008948D01*
X015564Y008968D02*
X015958Y008968D01*
X015958Y008988D02*
X015564Y008988D01*
X015564Y009008D02*
X015958Y009008D01*
X015958Y009028D02*
X015564Y009028D01*
X015564Y009048D02*
X015958Y009048D01*
X015958Y009068D02*
X015564Y009068D01*
X015564Y009088D02*
X015958Y009088D01*
X015958Y009108D02*
X015564Y009108D01*
X015564Y009128D02*
X015958Y009128D01*
X015958Y009148D02*
X015564Y009148D01*
X015564Y009168D02*
X015958Y009168D01*
X015958Y009188D02*
X015564Y009188D01*
X015564Y009208D02*
X015958Y009208D01*
X015958Y009228D02*
X015564Y009228D01*
X015564Y009248D02*
X015958Y009248D01*
X015958Y009268D02*
X015564Y009268D01*
X015564Y009288D02*
X015958Y009288D01*
X015958Y009308D02*
X015564Y009308D01*
X015564Y009328D02*
X015958Y009328D01*
X015958Y009348D02*
X015564Y009348D01*
X015564Y009368D02*
X015958Y009368D01*
X015958Y009388D02*
X015564Y009388D01*
X015210Y008848D02*
X014816Y008848D01*
X014816Y009398D01*
X015210Y009398D01*
X015210Y008848D01*
X015210Y008868D02*
X014816Y008868D01*
X014816Y008888D02*
X015210Y008888D01*
X015210Y008908D02*
X014816Y008908D01*
X014816Y008928D02*
X015210Y008928D01*
X015210Y008948D02*
X014816Y008948D01*
X014816Y008968D02*
X015210Y008968D01*
X015210Y008988D02*
X014816Y008988D01*
X014816Y009008D02*
X015210Y009008D01*
X015210Y009028D02*
X014816Y009028D01*
X014816Y009048D02*
X015210Y009048D01*
X015210Y009068D02*
X014816Y009068D01*
X014816Y009088D02*
X015210Y009088D01*
X015210Y009108D02*
X014816Y009108D01*
X014816Y009128D02*
X015210Y009128D01*
X015210Y009148D02*
X014816Y009148D01*
X014816Y009168D02*
X015210Y009168D01*
X015210Y009188D02*
X014816Y009188D01*
X014816Y009208D02*
X015210Y009208D01*
X015210Y009228D02*
X014816Y009228D01*
X014816Y009248D02*
X015210Y009248D01*
X015210Y009268D02*
X014816Y009268D01*
X014816Y009288D02*
X015210Y009288D01*
X015210Y009308D02*
X014816Y009308D01*
X014816Y009328D02*
X015210Y009328D01*
X015210Y009348D02*
X014816Y009348D01*
X014816Y009368D02*
X015210Y009368D01*
X015210Y009388D02*
X014816Y009388D01*
X015190Y007982D02*
X015584Y007982D01*
X015190Y007982D02*
X015190Y008532D01*
X015584Y008532D01*
X015584Y007982D01*
X015584Y008002D02*
X015190Y008002D01*
X015190Y008022D02*
X015584Y008022D01*
X015584Y008042D02*
X015190Y008042D01*
X015190Y008062D02*
X015584Y008062D01*
X015584Y008082D02*
X015190Y008082D01*
X015190Y008102D02*
X015584Y008102D01*
X015584Y008122D02*
X015190Y008122D01*
X015190Y008142D02*
X015584Y008142D01*
X015584Y008162D02*
X015190Y008162D01*
X015190Y008182D02*
X015584Y008182D01*
X015584Y008202D02*
X015190Y008202D01*
X015190Y008222D02*
X015584Y008222D01*
X015584Y008242D02*
X015190Y008242D01*
X015190Y008262D02*
X015584Y008262D01*
X015584Y008282D02*
X015190Y008282D01*
X015190Y008302D02*
X015584Y008302D01*
X015584Y008322D02*
X015190Y008322D01*
X015190Y008342D02*
X015584Y008342D01*
X015584Y008362D02*
X015190Y008362D01*
X015190Y008382D02*
X015584Y008382D01*
X015584Y008402D02*
X015190Y008402D01*
X015190Y008422D02*
X015584Y008422D01*
X015584Y008442D02*
X015190Y008442D01*
X015190Y008462D02*
X015584Y008462D01*
X015584Y008482D02*
X015190Y008482D01*
X015190Y008502D02*
X015584Y008502D01*
X015584Y008522D02*
X015190Y008522D01*
D37*
X014117Y008240D02*
X013717Y008240D01*
X013717Y008790D01*
X014117Y008790D01*
X014117Y008240D01*
X014117Y008260D02*
X013717Y008260D01*
X013717Y008280D02*
X014117Y008280D01*
X014117Y008300D02*
X013717Y008300D01*
X013717Y008320D02*
X014117Y008320D01*
X014117Y008340D02*
X013717Y008340D01*
X013717Y008360D02*
X014117Y008360D01*
X014117Y008380D02*
X013717Y008380D01*
X013717Y008400D02*
X014117Y008400D01*
X014117Y008420D02*
X013717Y008420D01*
X013717Y008440D02*
X014117Y008440D01*
X014117Y008460D02*
X013717Y008460D01*
X013717Y008480D02*
X014117Y008480D01*
X014117Y008500D02*
X013717Y008500D01*
X013717Y008520D02*
X014117Y008520D01*
X014117Y008540D02*
X013717Y008540D01*
X013717Y008560D02*
X014117Y008560D01*
X014117Y008580D02*
X013717Y008580D01*
X013717Y008600D02*
X014117Y008600D01*
X014117Y008620D02*
X013717Y008620D01*
X013717Y008640D02*
X014117Y008640D01*
X014117Y008660D02*
X013717Y008660D01*
X013717Y008680D02*
X014117Y008680D01*
X014117Y008700D02*
X013717Y008700D01*
X013717Y008720D02*
X014117Y008720D01*
X014117Y008740D02*
X013717Y008740D01*
X013717Y008760D02*
X014117Y008760D01*
X014117Y008780D02*
X013717Y008780D01*
X013377Y008240D02*
X012977Y008240D01*
X012977Y008790D01*
X013377Y008790D01*
X013377Y008240D01*
X013377Y008260D02*
X012977Y008260D01*
X012977Y008280D02*
X013377Y008280D01*
X013377Y008300D02*
X012977Y008300D01*
X012977Y008320D02*
X013377Y008320D01*
X013377Y008340D02*
X012977Y008340D01*
X012977Y008360D02*
X013377Y008360D01*
X013377Y008380D02*
X012977Y008380D01*
X012977Y008400D02*
X013377Y008400D01*
X013377Y008420D02*
X012977Y008420D01*
X012977Y008440D02*
X013377Y008440D01*
X013377Y008460D02*
X012977Y008460D01*
X012977Y008480D02*
X013377Y008480D01*
X013377Y008500D02*
X012977Y008500D01*
X012977Y008520D02*
X013377Y008520D01*
X013377Y008540D02*
X012977Y008540D01*
X012977Y008560D02*
X013377Y008560D01*
X013377Y008580D02*
X012977Y008580D01*
X012977Y008600D02*
X013377Y008600D01*
X013377Y008620D02*
X012977Y008620D01*
X012977Y008640D02*
X013377Y008640D01*
X013377Y008660D02*
X012977Y008660D01*
X012977Y008680D02*
X013377Y008680D01*
X013377Y008700D02*
X012977Y008700D01*
X012977Y008720D02*
X013377Y008720D01*
X013377Y008740D02*
X012977Y008740D01*
X012977Y008760D02*
X013377Y008760D01*
X013377Y008780D02*
X012977Y008780D01*
X045187Y035905D02*
X045187Y036305D01*
X045737Y036305D01*
X045737Y035905D01*
X045187Y035905D01*
X045187Y035925D02*
X045737Y035925D01*
X045737Y035945D02*
X045187Y035945D01*
X045187Y035965D02*
X045737Y035965D01*
X045737Y035985D02*
X045187Y035985D01*
X045187Y036005D02*
X045737Y036005D01*
X045737Y036025D02*
X045187Y036025D01*
X045187Y036045D02*
X045737Y036045D01*
X045737Y036065D02*
X045187Y036065D01*
X045187Y036085D02*
X045737Y036085D01*
X045737Y036105D02*
X045187Y036105D01*
X045187Y036125D02*
X045737Y036125D01*
X045737Y036145D02*
X045187Y036145D01*
X045187Y036165D02*
X045737Y036165D01*
X045737Y036185D02*
X045187Y036185D01*
X045187Y036205D02*
X045737Y036205D01*
X045737Y036225D02*
X045187Y036225D01*
X045187Y036245D02*
X045737Y036245D01*
X045737Y036265D02*
X045187Y036265D01*
X045187Y036285D02*
X045737Y036285D01*
X045737Y036305D02*
X045187Y036305D01*
X045187Y036645D02*
X045187Y037045D01*
X045737Y037045D01*
X045737Y036645D01*
X045187Y036645D01*
X045187Y036665D02*
X045737Y036665D01*
X045737Y036685D02*
X045187Y036685D01*
X045187Y036705D02*
X045737Y036705D01*
X045737Y036725D02*
X045187Y036725D01*
X045187Y036745D02*
X045737Y036745D01*
X045737Y036765D02*
X045187Y036765D01*
X045187Y036785D02*
X045737Y036785D01*
X045737Y036805D02*
X045187Y036805D01*
X045187Y036825D02*
X045737Y036825D01*
X045737Y036845D02*
X045187Y036845D01*
X045187Y036865D02*
X045737Y036865D01*
X045737Y036885D02*
X045187Y036885D01*
X045187Y036905D02*
X045737Y036905D01*
X045737Y036925D02*
X045187Y036925D01*
X045187Y036945D02*
X045737Y036945D01*
X045737Y036965D02*
X045187Y036965D01*
X045187Y036985D02*
X045737Y036985D01*
X045737Y037005D02*
X045187Y037005D01*
X045187Y037025D02*
X045737Y037025D01*
X045737Y037045D02*
X045187Y037045D01*
X043837Y036635D02*
X043437Y036635D01*
X043437Y037185D01*
X043837Y037185D01*
X043837Y036635D01*
X043837Y036655D02*
X043437Y036655D01*
X043437Y036675D02*
X043837Y036675D01*
X043837Y036695D02*
X043437Y036695D01*
X043437Y036715D02*
X043837Y036715D01*
X043837Y036735D02*
X043437Y036735D01*
X043437Y036755D02*
X043837Y036755D01*
X043837Y036775D02*
X043437Y036775D01*
X043437Y036795D02*
X043837Y036795D01*
X043837Y036815D02*
X043437Y036815D01*
X043437Y036835D02*
X043837Y036835D01*
X043837Y036855D02*
X043437Y036855D01*
X043437Y036875D02*
X043837Y036875D01*
X043837Y036895D02*
X043437Y036895D01*
X043437Y036915D02*
X043837Y036915D01*
X043837Y036935D02*
X043437Y036935D01*
X043437Y036955D02*
X043837Y036955D01*
X043837Y036975D02*
X043437Y036975D01*
X043437Y036995D02*
X043837Y036995D01*
X043837Y037015D02*
X043437Y037015D01*
X043437Y037035D02*
X043837Y037035D01*
X043837Y037055D02*
X043437Y037055D01*
X043437Y037075D02*
X043837Y037075D01*
X043837Y037095D02*
X043437Y037095D01*
X043437Y037115D02*
X043837Y037115D01*
X043837Y037135D02*
X043437Y037135D01*
X043437Y037155D02*
X043837Y037155D01*
X043837Y037175D02*
X043437Y037175D01*
X043097Y036635D02*
X042697Y036635D01*
X042697Y037185D01*
X043097Y037185D01*
X043097Y036635D01*
X043097Y036655D02*
X042697Y036655D01*
X042697Y036675D02*
X043097Y036675D01*
X043097Y036695D02*
X042697Y036695D01*
X042697Y036715D02*
X043097Y036715D01*
X043097Y036735D02*
X042697Y036735D01*
X042697Y036755D02*
X043097Y036755D01*
X043097Y036775D02*
X042697Y036775D01*
X042697Y036795D02*
X043097Y036795D01*
X043097Y036815D02*
X042697Y036815D01*
X042697Y036835D02*
X043097Y036835D01*
X043097Y036855D02*
X042697Y036855D01*
X042697Y036875D02*
X043097Y036875D01*
X043097Y036895D02*
X042697Y036895D01*
X042697Y036915D02*
X043097Y036915D01*
X043097Y036935D02*
X042697Y036935D01*
X042697Y036955D02*
X043097Y036955D01*
X043097Y036975D02*
X042697Y036975D01*
X042697Y036995D02*
X043097Y036995D01*
X043097Y037015D02*
X042697Y037015D01*
X042697Y037035D02*
X043097Y037035D01*
X043097Y037055D02*
X042697Y037055D01*
X042697Y037075D02*
X043097Y037075D01*
X043097Y037095D02*
X042697Y037095D01*
X042697Y037115D02*
X043097Y037115D01*
X043097Y037135D02*
X042697Y037135D01*
X042697Y037155D02*
X043097Y037155D01*
X043097Y037175D02*
X042697Y037175D01*
D38*
X013842Y016470D02*
X013484Y016470D01*
X013484Y017038D01*
X013842Y017038D01*
X013842Y016470D01*
X013842Y016492D02*
X013484Y016492D01*
X013484Y016514D02*
X013842Y016514D01*
X013842Y016536D02*
X013484Y016536D01*
X013484Y016558D02*
X013842Y016558D01*
X013842Y016580D02*
X013484Y016580D01*
X013484Y016602D02*
X013842Y016602D01*
X013842Y016624D02*
X013484Y016624D01*
X013484Y016646D02*
X013842Y016646D01*
X013842Y016668D02*
X013484Y016668D01*
X013484Y016690D02*
X013842Y016690D01*
X013842Y016712D02*
X013484Y016712D01*
X013484Y016734D02*
X013842Y016734D01*
X013842Y016756D02*
X013484Y016756D01*
X013484Y016778D02*
X013842Y016778D01*
X013842Y016800D02*
X013484Y016800D01*
X013484Y016822D02*
X013842Y016822D01*
X013842Y016844D02*
X013484Y016844D01*
X013484Y016866D02*
X013842Y016866D01*
X013842Y016888D02*
X013484Y016888D01*
X013484Y016910D02*
X013842Y016910D01*
X013842Y016932D02*
X013484Y016932D01*
X013484Y016954D02*
X013842Y016954D01*
X013842Y016976D02*
X013484Y016976D01*
X013484Y016998D02*
X013842Y016998D01*
X013842Y017020D02*
X013484Y017020D01*
X013202Y016470D02*
X012844Y016470D01*
X012844Y017038D01*
X013202Y017038D01*
X013202Y016470D01*
X013202Y016492D02*
X012844Y016492D01*
X012844Y016514D02*
X013202Y016514D01*
X013202Y016536D02*
X012844Y016536D01*
X012844Y016558D02*
X013202Y016558D01*
X013202Y016580D02*
X012844Y016580D01*
X012844Y016602D02*
X013202Y016602D01*
X013202Y016624D02*
X012844Y016624D01*
X012844Y016646D02*
X013202Y016646D01*
X013202Y016668D02*
X012844Y016668D01*
X012844Y016690D02*
X013202Y016690D01*
X013202Y016712D02*
X012844Y016712D01*
X012844Y016734D02*
X013202Y016734D01*
X013202Y016756D02*
X012844Y016756D01*
X012844Y016778D02*
X013202Y016778D01*
X013202Y016800D02*
X012844Y016800D01*
X012844Y016822D02*
X013202Y016822D01*
X013202Y016844D02*
X012844Y016844D01*
X012844Y016866D02*
X013202Y016866D01*
X013202Y016888D02*
X012844Y016888D01*
X012844Y016910D02*
X013202Y016910D01*
X013202Y016932D02*
X012844Y016932D01*
X012844Y016954D02*
X013202Y016954D01*
X013202Y016976D02*
X012844Y016976D01*
X012844Y016998D02*
X013202Y016998D01*
X013202Y017020D02*
X012844Y017020D01*
D39*
X017285Y004667D02*
X017285Y004273D01*
X016971Y004273D01*
X016971Y004667D01*
X017285Y004667D01*
X017285Y004292D02*
X016971Y004292D01*
X016971Y004311D02*
X017285Y004311D01*
X017285Y004330D02*
X016971Y004330D01*
X016971Y004349D02*
X017285Y004349D01*
X017285Y004368D02*
X016971Y004368D01*
X016971Y004387D02*
X017285Y004387D01*
X017285Y004406D02*
X016971Y004406D01*
X016971Y004425D02*
X017285Y004425D01*
X017285Y004444D02*
X016971Y004444D01*
X016971Y004463D02*
X017285Y004463D01*
X017285Y004482D02*
X016971Y004482D01*
X016971Y004501D02*
X017285Y004501D01*
X017285Y004520D02*
X016971Y004520D01*
X016971Y004539D02*
X017285Y004539D01*
X017285Y004558D02*
X016971Y004558D01*
X016971Y004577D02*
X017285Y004577D01*
X017285Y004596D02*
X016971Y004596D01*
X016971Y004615D02*
X017285Y004615D01*
X017285Y004634D02*
X016971Y004634D01*
X016971Y004653D02*
X017285Y004653D01*
X017285Y003880D02*
X017285Y003486D01*
X016971Y003486D01*
X016971Y003880D01*
X017285Y003880D01*
X017285Y003505D02*
X016971Y003505D01*
X016971Y003524D02*
X017285Y003524D01*
X017285Y003543D02*
X016971Y003543D01*
X016971Y003562D02*
X017285Y003562D01*
X017285Y003581D02*
X016971Y003581D01*
X016971Y003600D02*
X017285Y003600D01*
X017285Y003619D02*
X016971Y003619D01*
X016971Y003638D02*
X017285Y003638D01*
X017285Y003657D02*
X016971Y003657D01*
X016971Y003676D02*
X017285Y003676D01*
X017285Y003695D02*
X016971Y003695D01*
X016971Y003714D02*
X017285Y003714D01*
X017285Y003733D02*
X016971Y003733D01*
X016971Y003752D02*
X017285Y003752D01*
X017285Y003771D02*
X016971Y003771D01*
X016971Y003790D02*
X017285Y003790D01*
X017285Y003809D02*
X016971Y003809D01*
X016971Y003828D02*
X017285Y003828D01*
X017285Y003847D02*
X016971Y003847D01*
X016971Y003866D02*
X017285Y003866D01*
D40*
X003547Y007371D03*
X003547Y009339D03*
X003674Y015973D03*
X003674Y017941D03*
D41*
X005052Y017941D03*
X006489Y018099D03*
X006489Y015815D03*
X005052Y015973D03*
X006362Y009497D03*
X004925Y009339D03*
X004925Y007371D03*
X006362Y007213D03*
D42*
X009776Y011807D03*
X037926Y011807D03*
X037926Y039957D03*
X009776Y039957D03*
D43*
X011370Y041275D03*
X013752Y040232D03*
X016397Y038609D03*
X015996Y037255D03*
X016657Y036724D03*
X018513Y036650D03*
X020050Y036676D03*
X019028Y038118D03*
X019148Y038887D03*
X018314Y040450D03*
X021036Y040980D03*
X020923Y038812D03*
X020999Y038178D03*
X022689Y037240D03*
X023831Y037594D03*
X024461Y037634D03*
X024973Y034090D03*
X023044Y031807D03*
X022611Y030901D03*
X023319Y030350D03*
X025327Y028775D03*
X024461Y028421D03*
X024304Y027634D03*
X024894Y027240D03*
X026272Y025980D03*
X024855Y023972D03*
X025485Y023697D03*
X026902Y023264D03*
X025996Y021886D03*
X026036Y020744D03*
X024304Y020114D03*
X023556Y020114D03*
X023004Y020193D03*
X022786Y020744D03*
X022427Y018450D03*
X021626Y018539D03*
X022965Y016846D03*
X025859Y017437D03*
X027162Y017990D03*
X028162Y019012D03*
X028870Y019602D03*
X029461Y019169D03*
X030760Y020586D03*
X028162Y021177D03*
X028831Y023224D03*
X030507Y023390D03*
X029146Y026768D03*
X029146Y028790D03*
X028044Y028775D03*
X027374Y029484D03*
X021207Y027845D03*
X019500Y033697D03*
X018989Y033933D03*
X017689Y034681D03*
X014028Y034602D03*
X012132Y034860D03*
X011902Y035705D03*
X010130Y035705D03*
X009737Y036295D03*
X008752Y035311D03*
X008702Y034450D03*
X008887Y033130D03*
X007059Y033421D03*
X006508Y034012D03*
X008287Y036575D03*
X007059Y037240D03*
X003832Y039685D03*
X002667Y033360D03*
X003437Y032345D03*
X004102Y029970D03*
X002650Y026886D03*
X008852Y030307D03*
X009973Y029524D03*
X010445Y027988D03*
X013556Y028264D03*
X014136Y028136D03*
X014092Y036985D03*
X032527Y037515D03*
X032687Y036850D03*
X034062Y036630D03*
X034247Y038060D03*
X035681Y037712D03*
X036311Y037909D03*
X036174Y038867D03*
X037374Y036728D03*
X038004Y036098D03*
X037414Y035705D03*
X037335Y034405D03*
X036867Y033670D03*
X038937Y031935D03*
X039600Y031391D03*
X039776Y030665D03*
X039304Y030075D03*
X039855Y032122D03*
X042335Y032319D03*
X044182Y033300D03*
X044992Y032185D03*
X044852Y031550D03*
X046637Y031190D03*
X047335Y027791D03*
X046548Y026728D03*
X044737Y026807D03*
X043595Y026768D03*
X043382Y025530D03*
X042650Y025626D03*
X042099Y024681D03*
X043280Y024524D03*
X043201Y023854D03*
X041067Y023075D03*
X040580Y023724D03*
X039914Y023371D03*
X039096Y023601D03*
X038644Y022904D03*
X039540Y022122D03*
X039579Y021059D03*
X039549Y020139D03*
X041626Y020075D03*
X041784Y018775D03*
X043004Y019051D03*
X045091Y018185D03*
X045077Y016635D03*
X043577Y012985D03*
X042672Y012670D03*
X041981Y010193D03*
X040687Y010230D03*
X039652Y008900D03*
X036897Y009210D03*
X035445Y010390D03*
X033556Y009681D03*
X031482Y009685D03*
X029707Y008005D03*
X030302Y006015D03*
X026587Y009838D03*
X025892Y010625D03*
X023713Y009524D03*
X025982Y007320D03*
X020437Y006640D03*
X017183Y005241D03*
X016665Y005208D03*
X016814Y005688D03*
X016120Y005665D03*
X016080Y005126D03*
X015528Y005077D03*
X014976Y005193D03*
X014976Y005689D03*
X015560Y005673D03*
X014317Y005565D03*
X014284Y005136D03*
X013850Y005597D03*
X011103Y006392D03*
X010329Y006301D03*
X008963Y003561D03*
X009004Y002984D03*
X009638Y003115D03*
X010305Y003082D03*
X011005Y003074D03*
X012823Y003140D03*
X013573Y003239D03*
X014166Y003222D03*
X014767Y003263D03*
X015393Y003222D03*
X015921Y003090D03*
X017040Y003053D03*
X017634Y003255D03*
X012667Y008585D03*
X015757Y009710D03*
X016917Y008900D03*
X015802Y010990D03*
X012212Y016900D03*
X010442Y017215D03*
X017099Y018618D03*
X018477Y018972D03*
X030603Y014917D03*
X032571Y013618D03*
X032666Y012398D03*
X033634Y011925D03*
X035603Y014130D03*
X032847Y016138D03*
X040347Y017365D03*
X042138Y021256D03*
X046233Y021453D03*
X040687Y025164D03*
X041587Y026609D03*
X040925Y027154D03*
X042132Y029190D03*
X041587Y034405D03*
X042020Y035705D03*
X042020Y036728D03*
X041193Y037673D03*
X042611Y038618D03*
X043044Y039878D03*
X044363Y039504D03*
X045012Y040520D03*
X048457Y036535D03*
X048287Y035795D03*
X047482Y035985D03*
X045562Y034805D03*
X047099Y011413D03*
X045367Y010901D03*
X046626Y008618D03*
X047374Y007949D03*
X045563Y006335D03*
X045996Y005862D03*
X044776Y006413D03*
X044482Y004310D03*
X041612Y003390D03*
X040137Y003430D03*
X043137Y008765D03*
X002501Y019451D03*
X002497Y020205D03*
D44*
X002657Y003310D03*
D45*
X011005Y016612D03*
X015996Y021846D03*
X017296Y021177D03*
X017689Y021925D03*
X018319Y021964D03*
X019264Y023185D03*
X019776Y023146D03*
X020248Y023303D03*
X020760Y023264D03*
X021355Y024020D03*
X022242Y023915D03*
X022059Y025075D03*
X022729Y025586D03*
X023516Y024366D03*
X024264Y025075D03*
X024855Y026098D03*
X025681Y026413D03*
X024146Y026768D03*
X022650Y027004D03*
X021075Y027083D03*
X020800Y026610D03*
X020681Y025705D03*
X019902Y025780D03*
X019304Y026374D03*
X018792Y026453D03*
X018437Y025823D03*
X017477Y025795D03*
X016723Y027589D03*
X016587Y028185D03*
X016587Y028690D03*
X016902Y029484D03*
X017493Y029957D03*
X018044Y030153D03*
X018537Y030305D03*
X017862Y030675D03*
X016941Y030665D03*
X016622Y030145D03*
X018162Y032358D03*
X018595Y033224D03*
X017813Y033539D03*
X017020Y033106D03*
X019737Y034957D03*
X019776Y035823D03*
X020800Y034445D03*
X021193Y032004D03*
X021863Y031571D03*
X020800Y030586D03*
X020253Y030716D03*
X020209Y030272D03*
X019527Y030580D03*
X020996Y029169D03*
X021115Y028461D03*
X019765Y026685D03*
X019815Y024366D03*
X018437Y023657D03*
X017335Y023736D03*
X016469Y024090D03*
X015760Y024484D03*
X014776Y024012D03*
X015642Y023303D03*
X016666Y023146D03*
X013792Y024405D03*
X014286Y027478D03*
X010445Y032949D03*
X011902Y033106D03*
X012689Y033461D03*
X013004Y037476D03*
X013870Y037949D03*
X014422Y037555D03*
X015170Y037201D03*
X017532Y036059D03*
X022926Y039917D03*
X023332Y040425D03*
X024304Y039642D03*
X025445Y040311D03*
X026390Y040153D03*
X027335Y039957D03*
X028752Y040468D03*
X029933Y040153D03*
X027241Y041428D03*
X026548Y041413D03*
X026508Y038382D03*
X024855Y038382D03*
X024894Y034838D03*
X024894Y031846D03*
X025524Y031216D03*
X026115Y031256D03*
X026902Y031571D03*
X027807Y031768D03*
X028713Y031413D03*
X029304Y030783D03*
X029815Y031177D03*
X029500Y032358D03*
X031390Y030390D03*
X032611Y030035D03*
X033251Y030261D03*
X032984Y032167D03*
X036430Y030744D03*
X032586Y027869D03*
X032689Y027201D03*
X031469Y025823D03*
X031075Y024090D03*
X028549Y024861D03*
X028044Y024484D03*
X027453Y024878D03*
X026193Y022988D03*
X028595Y021964D03*
X029461Y021374D03*
X028595Y016689D03*
X028910Y015626D03*
X033634Y014248D03*
X031547Y008095D03*
X023556Y007870D03*
X018337Y015005D03*
X022059Y016374D03*
X022059Y017516D03*
X023004Y018775D03*
X023477Y018815D03*
X022262Y021795D03*
X020091Y021610D03*
X019382Y020783D03*
X019619Y020193D03*
X018831Y020153D03*
X018241Y020193D03*
X023366Y028591D03*
X025145Y029906D03*
X033398Y039090D03*
X038822Y034850D03*
X040642Y036098D03*
X042832Y037595D03*
X044502Y037180D03*
X044837Y037905D03*
X045477Y037695D03*
X045587Y035650D03*
X044972Y035625D03*
X044207Y035275D03*
X043797Y035465D03*
X043102Y033645D03*
X042602Y033833D03*
X044187Y032050D03*
X045878Y029681D03*
X039264Y038618D03*
X039619Y039405D03*
X045832Y039980D03*
X046390Y041394D03*
X023081Y041610D03*
X046802Y018715D03*
X046812Y018190D03*
D46*
X040390Y018025D03*
X039987Y017885D03*
X040012Y018330D03*
X039952Y019165D03*
X039902Y019535D03*
X040314Y019412D03*
X038132Y019305D03*
X037762Y019155D03*
X037937Y017505D03*
X037592Y017495D03*
X031872Y012660D03*
X031892Y012330D03*
X030897Y013110D03*
X030527Y013070D03*
X030747Y011655D03*
X030757Y011330D03*
X030767Y010990D03*
X030782Y010655D03*
X033132Y010990D03*
X033142Y011305D03*
X033217Y010660D03*
X022197Y011665D03*
X021842Y011665D03*
X021747Y013320D03*
X022142Y013340D03*
X022132Y014870D03*
X021782Y014870D03*
X020172Y012855D03*
X020167Y012450D03*
X037667Y027400D03*
X038087Y027390D03*
X038737Y027164D03*
X038757Y027550D03*
X038727Y027985D03*
X038282Y025790D03*
X037757Y025770D03*
X039123Y025756D03*
X039892Y025790D03*
X040317Y025840D03*
X034847Y033985D03*
X035224Y034183D03*
X034407Y034210D03*
X034577Y034825D03*
X034612Y035185D03*
X035108Y035025D03*
X035171Y035881D03*
X034822Y036155D03*
X034672Y035800D03*
X032702Y034960D03*
X032252Y034935D03*
D47*
X021136Y039615D03*
X020113Y039626D03*
X020485Y035941D03*
X016390Y034248D03*
X016430Y032398D03*
X004611Y025134D03*
X002756Y020867D03*
X019553Y005281D03*
X021212Y005306D03*
X034779Y006947D03*
X035644Y006944D03*
X047532Y020272D03*
X041548Y021886D03*
X046106Y029116D03*
X046821Y029042D03*
X048485Y031453D03*
D48*
X037414Y037398D03*
X037453Y037909D03*
X024461Y022004D03*
X024146Y021531D03*
X014815Y026216D03*
X013398Y025350D03*
X012335Y028106D03*
X011744Y028657D03*
X012611Y029169D03*
X013634Y029838D03*
X014658Y030193D03*
X015406Y031571D03*
D49*
X020524Y017043D03*
D50*
X020092Y020730D03*
X020524Y032450D03*
X032397Y035510D03*
X032422Y036180D03*
D51*
X023044Y026177D03*
X047277Y016465D03*
D52*
X041587Y031846D03*
D53*
X036252Y033147D03*
D54*
X007533Y038022D03*
M02*
