%
M48
M72
T01C0.0100
T02C0.0157
T03C0.0160
T04C0.0190
T05C0.0197
T06C0.0200
T07C0.0217
T08C0.0220
T09C0.0236
T10C0.0315
T11C0.0335
T12C0.0354
T13C0.0374
T14C0.0400
T15C0.0402
T16C0.0440
T17C0.0472
T18C0.0590
T19C0.0669
T20C0.0709
T21C0.0787
T22C0.0866
T23C0.0945
T24C0.0984
T25C0.1181
%
T01
X20167Y12450
X20172Y12855
X21747Y13320
X22142Y13340
X22132Y14870
X21782Y14870
X21842Y11665
X22197Y11665
X30527Y13070
X30897Y13110
X31872Y12660
X31892Y12330
X30747Y11655
X30757Y11330
X30767Y10990
X30782Y10655
X33132Y10990
X33142Y11305
X33217Y10660
X37592Y17495
X37937Y17505
X37762Y19155
X38132Y19305
X39902Y19535
X39952Y19165
X40314Y19412
X40012Y18330
X39987Y17885
X40390Y18025
X39892Y25790
X40317Y25840
X39123Y25756
X38282Y25790
X37757Y25770
X38737Y27164
X38757Y27550
X38727Y27985
X38087Y27390
X37667Y27400
X34847Y33985
X35224Y34183
X34407Y34210
X34577Y34825
X34612Y35185
X35108Y35025
X35171Y35881
X34822Y36155
X34672Y35800
X32702Y34960
X32252Y34935
T02
X32397Y35510
X32422Y36180
X20524Y32450
X20092Y20730
T03
X19382Y20783
X20091Y21610
X19619Y20193
X18831Y20153
X18241Y20193
X17296Y21177
X17689Y21925
X18319Y21964
X19264Y23185
X19776Y23146
X20248Y23303
X20760Y23264
X21355Y24020
X22242Y23915
X22059Y25075
X22729Y25586
X23516Y24366
X24264Y25075
X24855Y26098
X25681Y26413
X24146Y26768
X22650Y27004
X21075Y27083
X20800Y26610
X20681Y25705
X19902Y25780
X19304Y26374
X18792Y26453
X18437Y25823
X17477Y25795
X16723Y27589
X16587Y28185
X16587Y28690
X16902Y29484
X17493Y29957
X18044Y30153
X18537Y30305
X17862Y30675
X16941Y30665
X16622Y30145
X15406Y31571
X14658Y30193
X13634Y29838
X12611Y29169
X11744Y28657
X12335Y28106
X14286Y27478
X14815Y26216
X13398Y25350
X13792Y24405
X14776Y24012
X15642Y23303
X16666Y23146
X17335Y23736
X16469Y24090
X15760Y24484
X18437Y23657
X19815Y24366
X19765Y26685
X21115Y28461
X20996Y29169
X20209Y30272
X20253Y30716
X20800Y30586
X19527Y30580
X21193Y32004
X21863Y31571
X24894Y31846
X25524Y31216
X26115Y31256
X26902Y31571
X27807Y31768
X28713Y31413
X29304Y30783
X29815Y31177
X29500Y32358
X31390Y30390
X32611Y30035
X33251Y30261
X32984Y32167
X36430Y30744
X32586Y27869
X32689Y27201
X31469Y25823
X31075Y24090
X28549Y24861
X28044Y24484
X27453Y24878
X26193Y22988
X24461Y22004
X24146Y21531
X22262Y21795
X23004Y18775
X23477Y18815
X22059Y17516
X22059Y16374
X18337Y15005
X11005Y16612
X15996Y21846
X23366Y28591
X25145Y29906
X20800Y34445
X19737Y34957
X19776Y35823
X17532Y36059
X15170Y37201
X14422Y37555
X13870Y37949
X13004Y37476
X12689Y33461
X11902Y33106
X10445Y32949
X17020Y33106
X17813Y33539
X18595Y33224
X18162Y32358
X24894Y34838
X24855Y38382
X24304Y39642
X23332Y40425
X22926Y39917
X23081Y41610
X25445Y40311
X26390Y40153
X27335Y39957
X28752Y40468
X29933Y40153
X27241Y41428
X26548Y41413
X26508Y38382
X33398Y39090
X37453Y37909
X37414Y37398
X39264Y38618
X39619Y39405
X42832Y37595
X44502Y37180
X44837Y37905
X45477Y37695
X45587Y35650
X44972Y35625
X44207Y35275
X43797Y35465
X43102Y33645
X42602Y33833
X44187Y32050
X45878Y29681
X40642Y36098
X38822Y34850
X45832Y39980
X46390Y41394
X28595Y21964
X29461Y21374
X28595Y16689
X28910Y15626
X33634Y14248
X31547Y8095
X23556Y7870
X46812Y18190
X46802Y18715
T04
X20524Y17043
T05
X23044Y26177
X47277Y16465
T06
X41587Y31846
T07
X7533Y38022
T08
X36252Y33147
T09
X36867Y33670
X37335Y34405
X37414Y35705
X38004Y36098
X37374Y36728
X36311Y37909
X35681Y37712
X36174Y38867
X34247Y38060
X32527Y37515
X32687Y36850
X34062Y36630
X38937Y31935
X39600Y31391
X39776Y30665
X39304Y30075
X39855Y32122
X42335Y32319
X44182Y33300
X44992Y32185
X44852Y31550
X46637Y31190
X48485Y31453
X46821Y29042
X46106Y29116
X47335Y27791
X46548Y26728
X44737Y26807
X43595Y26768
X43382Y25530
X42650Y25626
X42099Y24681
X43280Y24524
X43201Y23854
X41067Y23075
X40580Y23724
X39914Y23371
X39096Y23601
X38644Y22904
X39540Y22122
X39579Y21059
X39549Y20139
X41626Y20075
X41784Y18775
X43004Y19051
X45091Y18185
X45077Y16635
X43577Y12985
X42672Y12670
X41981Y10193
X40687Y10230
X39652Y8900
X36897Y9210
X35445Y10390
X33556Y9681
X31482Y9685
X29707Y8005
X30302Y6015
X34779Y6947
X35644Y6944
X40137Y3430
X41612Y3390
X44482Y4310
X45996Y5862
X45563Y6335
X44776Y6413
X47374Y7949
X46626Y8618
X45367Y10901
X47099Y11413
X43137Y8765
X35603Y14130
X33634Y11925
X32666Y12398
X32571Y13618
X30603Y14917
X32847Y16138
X29461Y19169
X28870Y19602
X28162Y19012
X27162Y17990
X25859Y17437
X22965Y16846
X22427Y18450
X21626Y18539
X23004Y20193
X23556Y20114
X24304Y20114
X22786Y20744
X26036Y20744
X25996Y21886
X26902Y23264
X25485Y23697
X24855Y23972
X26272Y25980
X24894Y27240
X24304Y27634
X24461Y28421
X25327Y28775
X23319Y30350
X22611Y30901
X23044Y31807
X24973Y34090
X22689Y37240
X23831Y37594
X24461Y37634
X20999Y38178
X20923Y38812
X21136Y39615
X20113Y39626
X19148Y38887
X19028Y38118
X18513Y36650
X20050Y36676
X20485Y35941
X19500Y33697
X18989Y33933
X17689Y34681
X16390Y34248
X16430Y32398
X14028Y34602
X12132Y34860
X11902Y35705
X10130Y35705
X9737Y36295
X8752Y35311
X8702Y34450
X8887Y33130
X7059Y33421
X6508Y34012
X8287Y36575
X7059Y37240
X3832Y39685
X2667Y33360
X3437Y32345
X4102Y29970
X2650Y26886
X4611Y25134
X2756Y20867
X2497Y20205
X2501Y19451
X10442Y17215
X12212Y16900
X17099Y18618
X18477Y18972
X15802Y10990
X15757Y9710
X16917Y8900
X20437Y6640
X21212Y5306
X19553Y5281
X17183Y5241
X16665Y5208
X16814Y5688
X16120Y5665
X16080Y5126
X15528Y5077
X14976Y5193
X14976Y5689
X15560Y5673
X14317Y5565
X14284Y5136
X13850Y5597
X11103Y6392
X10329Y6301
X8963Y3561
X9004Y2984
X9638Y3115
X10305Y3082
X11005Y3074
X12823Y3140
X13573Y3239
X14166Y3222
X14767Y3263
X15393Y3222
X15921Y3090
X17040Y3053
X17634Y3255
X12667Y8585
X23713Y9524
X25892Y10625
X26587Y9838
X25982Y7320
X40347Y17365
X42138Y21256
X41548Y21886
X40687Y25164
X41587Y26609
X40925Y27154
X42132Y29190
X41587Y34405
X42020Y35705
X42020Y36728
X41193Y37673
X42611Y38618
X43044Y39878
X44363Y39504
X45012Y40520
X48457Y36535
X48287Y35795
X47482Y35985
X45562Y34805
X30507Y23390
X28831Y23224
X28162Y21177
X30760Y20586
X29146Y26768
X29146Y28790
X28044Y28775
X27374Y29484
X21207Y27845
X14136Y28136
X13556Y28264
X10445Y27988
X9973Y29524
X8852Y30307
X14092Y36985
X15996Y37255
X16657Y36724
X16397Y38609
X18314Y40450
X21036Y40980
X13752Y40232
X11370Y41275
X46233Y21453
X47532Y20272
T10
X46626Y3062
X43477Y3062
T11
X11445Y33657
X9445Y33657
T12
X15985Y20590
X15985Y19590
X15985Y18590
X15985Y17590
X15985Y16590
X15985Y15590
X15985Y14590
X15985Y13590
X20985Y13590
X20985Y14590
X20985Y15590
X20985Y16590
X20985Y17590
X20985Y18590
X20985Y19590
X20985Y20590
X24449Y18189
X24449Y17189
X24449Y16189
X24449Y15189
X24449Y14189
X24449Y13189
X24449Y12189
X24449Y11189
X29449Y11189
X29449Y12189
X29449Y13189
X29449Y14189
X29449Y15189
X29449Y16189
X29449Y17189
X29449Y18189
X31969Y17976
X31969Y16976
X31969Y18976
X31969Y19976
X31969Y20976
X31969Y21976
X31969Y22976
X31969Y23976
X32008Y25362
X32008Y26362
X32008Y27362
X32008Y28362
X32008Y29362
X32008Y30362
X32008Y31362
X32008Y32362
X30670Y32409
X30670Y33409
X30670Y34409
X30670Y35409
X30670Y36409
X30670Y37409
X30670Y38409
X30670Y39409
X25670Y39409
X25670Y38409
X25670Y37409
X25670Y36409
X25670Y35409
X25670Y34409
X25670Y33409
X25670Y32409
X37008Y32362
X37008Y31362
X37008Y30362
X37008Y29362
X37008Y28362
X37008Y27362
X37008Y26362
X37008Y25362
X36969Y23976
X36969Y22976
X36969Y21976
X36969Y20976
X36969Y19976
X36969Y18976
X36969Y17976
X36969Y16976
X43359Y32787
X43359Y35787
X41519Y40200
X40732Y40200
T13
X24201Y36165
X24201Y35165
X23201Y35165
X22201Y35165
X22201Y36165
X23201Y36165
X16485Y40047
X16485Y41047
X15485Y41047
X15485Y40047
X14485Y40047
X14485Y41047
X12993Y40220
X12993Y39220
X11993Y39220
X11993Y40220
X6000Y36551
X5213Y36551
X5213Y35567
X6000Y35567
T14
X7333Y39075
X7333Y40855
X13209Y32122
X13996Y32122
X13996Y31335
X13209Y31335
X13209Y30547
X13996Y30547
X9954Y24784
X9954Y23784
X9954Y22784
X12322Y18345
X13322Y18345
X14322Y18345
X10399Y15288
X10399Y14388
X10399Y13488
X16807Y11027
X16807Y10027
X17807Y10027
X17807Y11027
X18807Y11027
X18807Y10027
X19807Y10027
X20807Y10027
X20807Y11027
X19807Y11027
X25091Y9098
X26091Y9098
X26091Y8098
X25091Y8098
X27091Y8098
X28091Y8098
X28091Y9098
X27091Y9098
X27524Y6030
X28311Y6030
X28311Y5243
X27524Y5243
X29099Y5243
X29099Y6030
X31298Y6986
X32298Y6986
X33298Y6986
X38106Y6947
X39106Y6947
X40106Y6947
X40017Y14331
X39017Y14331
X38017Y14331
X38017Y15331
X39017Y15331
X40017Y15331
X41017Y15331
X41017Y14331
X42017Y14331
X42017Y15331
X43017Y15331
X44017Y15331
X44017Y14331
X43017Y14331
X45017Y14331
X45017Y15331
X46017Y15331
X46017Y14331
X46227Y23134
X45327Y23134
X44427Y23134
X44309Y24827
X45209Y24827
X46109Y24827
X47500Y32594
X47500Y33382
X47500Y34169
X48288Y34169
X48288Y33382
X48288Y32594
X34863Y32020
X33863Y32020
X33863Y31020
X34863Y31020
X34863Y30020
X33863Y30020
X33863Y29020
X34863Y29020
X34863Y28020
X33863Y28020
X33981Y23161
X33981Y22161
X33981Y21161
X33981Y20161
X33981Y19161
X34981Y19161
X34981Y20161
X34981Y21161
X34981Y22161
X34981Y23161
X28878Y35224
X27878Y35224
X27878Y36224
X28878Y36224
X28878Y37224
X27878Y37224
X27878Y38224
X28878Y38224
X28878Y39224
X27878Y39224
X33482Y40929
X34382Y40929
X35282Y40929
X15092Y6800
X14092Y6800
X13092Y6800
X24442Y5772
X25442Y5772
T15
X34097Y4189
X35278Y4189
X36459Y4189
X37640Y4189
T16
X14292Y9396
X10292Y9396
X6697Y31374
X2697Y31374
T17
X8735Y25787
X8735Y21787
X8992Y9459
X8992Y5459
T18
X8313Y38585
X8313Y41345
T19
X3674Y17941
X3674Y15973
X3547Y9339
X3547Y7371
T20
X5721Y25075
X5721Y26728
X5721Y28382
X7886Y28382
X7886Y26728
X7886Y25075
T21
X2657Y3310
T22
X2759Y8355
X2886Y16957
X4146Y33697
X4146Y38421
T23
X32916Y4189
X38821Y4189
T24
X6489Y15815
X5052Y15973
X5052Y17941
X6489Y18099
X6362Y9497
X4925Y9339
X4925Y7371
X6362Y7213
T25
X9776Y11807
X2847Y25075
X2847Y28382
X9776Y39957
X37926Y39957
X37926Y11807
M30
