G75*
%MOIN*%
%OFA0B0*%
%FSLAX24Y24*%
%IPPOS*%
%LPD*%
%AMOC8*
5,1,8,0,0,1.08239X$1,22.5*
%
%ADD10C,0.0019*%
%ADD11C,0.0020*%
%ADD12C,0.0022*%
%ADD13C,0.0022*%
%ADD14C,0.0021*%
%ADD15C,0.0019*%
%ADD16C,0.0017*%
%ADD17C,0.0283*%
%ADD18C,0.0018*%
%ADD19C,0.0020*%
%ADD20C,0.0021*%
%ADD21C,0.0020*%
%ADD22C,0.0022*%
D10*
X017276Y003495D02*
X017276Y003871D01*
X017276Y003495D02*
X016980Y003495D01*
X016980Y003871D01*
X017276Y003871D01*
X017276Y003513D02*
X016980Y003513D01*
X016980Y003531D02*
X017276Y003531D01*
X017276Y003549D02*
X016980Y003549D01*
X016980Y003567D02*
X017276Y003567D01*
X017276Y003585D02*
X016980Y003585D01*
X016980Y003603D02*
X017276Y003603D01*
X017276Y003621D02*
X016980Y003621D01*
X016980Y003639D02*
X017276Y003639D01*
X017276Y003657D02*
X016980Y003657D01*
X016980Y003675D02*
X017276Y003675D01*
X017276Y003693D02*
X016980Y003693D01*
X016980Y003711D02*
X017276Y003711D01*
X017276Y003729D02*
X016980Y003729D01*
X016980Y003747D02*
X017276Y003747D01*
X017276Y003765D02*
X016980Y003765D01*
X016980Y003783D02*
X017276Y003783D01*
X017276Y003801D02*
X016980Y003801D01*
X016980Y003819D02*
X017276Y003819D01*
X017276Y003837D02*
X016980Y003837D01*
X016980Y003855D02*
X017276Y003855D01*
X017276Y004282D02*
X017276Y004658D01*
X017276Y004282D02*
X016980Y004282D01*
X016980Y004658D01*
X017276Y004658D01*
X017276Y004300D02*
X016980Y004300D01*
X016980Y004318D02*
X017276Y004318D01*
X017276Y004336D02*
X016980Y004336D01*
X016980Y004354D02*
X017276Y004354D01*
X017276Y004372D02*
X016980Y004372D01*
X016980Y004390D02*
X017276Y004390D01*
X017276Y004408D02*
X016980Y004408D01*
X016980Y004426D02*
X017276Y004426D01*
X017276Y004444D02*
X016980Y004444D01*
X016980Y004462D02*
X017276Y004462D01*
X017276Y004480D02*
X016980Y004480D01*
X016980Y004498D02*
X017276Y004498D01*
X017276Y004516D02*
X016980Y004516D01*
X016980Y004534D02*
X017276Y004534D01*
X017276Y004552D02*
X016980Y004552D01*
X016980Y004570D02*
X017276Y004570D01*
X017276Y004588D02*
X016980Y004588D01*
X016980Y004606D02*
X017276Y004606D01*
X017276Y004624D02*
X016980Y004624D01*
X016980Y004642D02*
X017276Y004642D01*
X017431Y005969D02*
X017431Y007329D01*
X018043Y007329D01*
X018043Y005969D01*
X017431Y005969D01*
X017431Y005987D02*
X018043Y005987D01*
X018043Y006005D02*
X017431Y006005D01*
X017431Y006023D02*
X018043Y006023D01*
X018043Y006041D02*
X017431Y006041D01*
X017431Y006059D02*
X018043Y006059D01*
X018043Y006077D02*
X017431Y006077D01*
X017431Y006095D02*
X018043Y006095D01*
X018043Y006113D02*
X017431Y006113D01*
X017431Y006131D02*
X018043Y006131D01*
X018043Y006149D02*
X017431Y006149D01*
X017431Y006167D02*
X018043Y006167D01*
X018043Y006185D02*
X017431Y006185D01*
X017431Y006203D02*
X018043Y006203D01*
X018043Y006221D02*
X017431Y006221D01*
X017431Y006239D02*
X018043Y006239D01*
X018043Y006257D02*
X017431Y006257D01*
X017431Y006275D02*
X018043Y006275D01*
X018043Y006293D02*
X017431Y006293D01*
X017431Y006311D02*
X018043Y006311D01*
X018043Y006329D02*
X017431Y006329D01*
X017431Y006347D02*
X018043Y006347D01*
X018043Y006365D02*
X017431Y006365D01*
X017431Y006383D02*
X018043Y006383D01*
X018043Y006401D02*
X017431Y006401D01*
X017431Y006419D02*
X018043Y006419D01*
X018043Y006437D02*
X017431Y006437D01*
X017431Y006455D02*
X018043Y006455D01*
X018043Y006473D02*
X017431Y006473D01*
X017431Y006491D02*
X018043Y006491D01*
X018043Y006509D02*
X017431Y006509D01*
X017431Y006527D02*
X018043Y006527D01*
X018043Y006545D02*
X017431Y006545D01*
X017431Y006563D02*
X018043Y006563D01*
X018043Y006581D02*
X017431Y006581D01*
X017431Y006599D02*
X018043Y006599D01*
X018043Y006617D02*
X017431Y006617D01*
X017431Y006635D02*
X018043Y006635D01*
X018043Y006653D02*
X017431Y006653D01*
X017431Y006671D02*
X018043Y006671D01*
X018043Y006689D02*
X017431Y006689D01*
X017431Y006707D02*
X018043Y006707D01*
X018043Y006725D02*
X017431Y006725D01*
X017431Y006743D02*
X018043Y006743D01*
X018043Y006761D02*
X017431Y006761D01*
X017431Y006779D02*
X018043Y006779D01*
X018043Y006797D02*
X017431Y006797D01*
X017431Y006815D02*
X018043Y006815D01*
X018043Y006833D02*
X017431Y006833D01*
X017431Y006851D02*
X018043Y006851D01*
X018043Y006869D02*
X017431Y006869D01*
X017431Y006887D02*
X018043Y006887D01*
X018043Y006905D02*
X017431Y006905D01*
X017431Y006923D02*
X018043Y006923D01*
X018043Y006941D02*
X017431Y006941D01*
X017431Y006959D02*
X018043Y006959D01*
X018043Y006977D02*
X017431Y006977D01*
X017431Y006995D02*
X018043Y006995D01*
X018043Y007013D02*
X017431Y007013D01*
X017431Y007031D02*
X018043Y007031D01*
X018043Y007049D02*
X017431Y007049D01*
X017431Y007067D02*
X018043Y007067D01*
X018043Y007085D02*
X017431Y007085D01*
X017431Y007103D02*
X018043Y007103D01*
X018043Y007121D02*
X017431Y007121D01*
X017431Y007139D02*
X018043Y007139D01*
X018043Y007157D02*
X017431Y007157D01*
X017431Y007175D02*
X018043Y007175D01*
X018043Y007193D02*
X017431Y007193D01*
X017431Y007211D02*
X018043Y007211D01*
X018043Y007229D02*
X017431Y007229D01*
X017431Y007247D02*
X018043Y007247D01*
X018043Y007265D02*
X017431Y007265D01*
X017431Y007283D02*
X018043Y007283D01*
X018043Y007301D02*
X017431Y007301D01*
X017431Y007319D02*
X018043Y007319D01*
X017431Y008095D02*
X017431Y009455D01*
X018043Y009455D01*
X018043Y008095D01*
X017431Y008095D01*
X017431Y008113D02*
X018043Y008113D01*
X018043Y008131D02*
X017431Y008131D01*
X017431Y008149D02*
X018043Y008149D01*
X018043Y008167D02*
X017431Y008167D01*
X017431Y008185D02*
X018043Y008185D01*
X018043Y008203D02*
X017431Y008203D01*
X017431Y008221D02*
X018043Y008221D01*
X018043Y008239D02*
X017431Y008239D01*
X017431Y008257D02*
X018043Y008257D01*
X018043Y008275D02*
X017431Y008275D01*
X017431Y008293D02*
X018043Y008293D01*
X018043Y008311D02*
X017431Y008311D01*
X017431Y008329D02*
X018043Y008329D01*
X018043Y008347D02*
X017431Y008347D01*
X017431Y008365D02*
X018043Y008365D01*
X018043Y008383D02*
X017431Y008383D01*
X017431Y008401D02*
X018043Y008401D01*
X018043Y008419D02*
X017431Y008419D01*
X017431Y008437D02*
X018043Y008437D01*
X018043Y008455D02*
X017431Y008455D01*
X017431Y008473D02*
X018043Y008473D01*
X018043Y008491D02*
X017431Y008491D01*
X017431Y008509D02*
X018043Y008509D01*
X018043Y008527D02*
X017431Y008527D01*
X017431Y008545D02*
X018043Y008545D01*
X018043Y008563D02*
X017431Y008563D01*
X017431Y008581D02*
X018043Y008581D01*
X018043Y008599D02*
X017431Y008599D01*
X017431Y008617D02*
X018043Y008617D01*
X018043Y008635D02*
X017431Y008635D01*
X017431Y008653D02*
X018043Y008653D01*
X018043Y008671D02*
X017431Y008671D01*
X017431Y008689D02*
X018043Y008689D01*
X018043Y008707D02*
X017431Y008707D01*
X017431Y008725D02*
X018043Y008725D01*
X018043Y008743D02*
X017431Y008743D01*
X017431Y008761D02*
X018043Y008761D01*
X018043Y008779D02*
X017431Y008779D01*
X017431Y008797D02*
X018043Y008797D01*
X018043Y008815D02*
X017431Y008815D01*
X017431Y008833D02*
X018043Y008833D01*
X018043Y008851D02*
X017431Y008851D01*
X017431Y008869D02*
X018043Y008869D01*
X018043Y008887D02*
X017431Y008887D01*
X017431Y008905D02*
X018043Y008905D01*
X018043Y008923D02*
X017431Y008923D01*
X017431Y008941D02*
X018043Y008941D01*
X018043Y008959D02*
X017431Y008959D01*
X017431Y008977D02*
X018043Y008977D01*
X018043Y008995D02*
X017431Y008995D01*
X017431Y009013D02*
X018043Y009013D01*
X018043Y009031D02*
X017431Y009031D01*
X017431Y009049D02*
X018043Y009049D01*
X018043Y009067D02*
X017431Y009067D01*
X017431Y009085D02*
X018043Y009085D01*
X018043Y009103D02*
X017431Y009103D01*
X017431Y009121D02*
X018043Y009121D01*
X018043Y009139D02*
X017431Y009139D01*
X017431Y009157D02*
X018043Y009157D01*
X018043Y009175D02*
X017431Y009175D01*
X017431Y009193D02*
X018043Y009193D01*
X018043Y009211D02*
X017431Y009211D01*
X017431Y009229D02*
X018043Y009229D01*
X018043Y009247D02*
X017431Y009247D01*
X017431Y009265D02*
X018043Y009265D01*
X018043Y009283D02*
X017431Y009283D01*
X017431Y009301D02*
X018043Y009301D01*
X018043Y009319D02*
X017431Y009319D01*
X017431Y009337D02*
X018043Y009337D01*
X018043Y009355D02*
X017431Y009355D01*
X017431Y009373D02*
X018043Y009373D01*
X018043Y009391D02*
X017431Y009391D01*
X017431Y009409D02*
X018043Y009409D01*
X018043Y009427D02*
X017431Y009427D01*
X017431Y009445D02*
X018043Y009445D01*
X020535Y011913D02*
X021147Y011913D01*
X020535Y011913D02*
X020535Y012957D01*
X021147Y012957D01*
X021147Y011913D01*
X021147Y011931D02*
X020535Y011931D01*
X020535Y011949D02*
X021147Y011949D01*
X021147Y011967D02*
X020535Y011967D01*
X020535Y011985D02*
X021147Y011985D01*
X021147Y012003D02*
X020535Y012003D01*
X020535Y012021D02*
X021147Y012021D01*
X021147Y012039D02*
X020535Y012039D01*
X020535Y012057D02*
X021147Y012057D01*
X021147Y012075D02*
X020535Y012075D01*
X020535Y012093D02*
X021147Y012093D01*
X021147Y012111D02*
X020535Y012111D01*
X020535Y012129D02*
X021147Y012129D01*
X021147Y012147D02*
X020535Y012147D01*
X020535Y012165D02*
X021147Y012165D01*
X021147Y012183D02*
X020535Y012183D01*
X020535Y012201D02*
X021147Y012201D01*
X021147Y012219D02*
X020535Y012219D01*
X020535Y012237D02*
X021147Y012237D01*
X021147Y012255D02*
X020535Y012255D01*
X020535Y012273D02*
X021147Y012273D01*
X021147Y012291D02*
X020535Y012291D01*
X020535Y012309D02*
X021147Y012309D01*
X021147Y012327D02*
X020535Y012327D01*
X020535Y012345D02*
X021147Y012345D01*
X021147Y012363D02*
X020535Y012363D01*
X020535Y012381D02*
X021147Y012381D01*
X021147Y012399D02*
X020535Y012399D01*
X020535Y012417D02*
X021147Y012417D01*
X021147Y012435D02*
X020535Y012435D01*
X020535Y012453D02*
X021147Y012453D01*
X021147Y012471D02*
X020535Y012471D01*
X020535Y012489D02*
X021147Y012489D01*
X021147Y012507D02*
X020535Y012507D01*
X020535Y012525D02*
X021147Y012525D01*
X021147Y012543D02*
X020535Y012543D01*
X020535Y012561D02*
X021147Y012561D01*
X021147Y012579D02*
X020535Y012579D01*
X020535Y012597D02*
X021147Y012597D01*
X021147Y012615D02*
X020535Y012615D01*
X020535Y012633D02*
X021147Y012633D01*
X021147Y012651D02*
X020535Y012651D01*
X020535Y012669D02*
X021147Y012669D01*
X021147Y012687D02*
X020535Y012687D01*
X020535Y012705D02*
X021147Y012705D01*
X021147Y012723D02*
X020535Y012723D01*
X020535Y012741D02*
X021147Y012741D01*
X021147Y012759D02*
X020535Y012759D01*
X020535Y012777D02*
X021147Y012777D01*
X021147Y012795D02*
X020535Y012795D01*
X020535Y012813D02*
X021147Y012813D01*
X021147Y012831D02*
X020535Y012831D01*
X020535Y012849D02*
X021147Y012849D01*
X021147Y012867D02*
X020535Y012867D01*
X020535Y012885D02*
X021147Y012885D01*
X021147Y012903D02*
X020535Y012903D01*
X020535Y012921D02*
X021147Y012921D01*
X021147Y012939D02*
X020535Y012939D01*
X020535Y012957D02*
X021147Y012957D01*
X021637Y011913D02*
X022249Y011913D01*
X021637Y011913D02*
X021637Y012957D01*
X022249Y012957D01*
X022249Y011913D01*
X022249Y011931D02*
X021637Y011931D01*
X021637Y011949D02*
X022249Y011949D01*
X022249Y011967D02*
X021637Y011967D01*
X021637Y011985D02*
X022249Y011985D01*
X022249Y012003D02*
X021637Y012003D01*
X021637Y012021D02*
X022249Y012021D01*
X022249Y012039D02*
X021637Y012039D01*
X021637Y012057D02*
X022249Y012057D01*
X022249Y012075D02*
X021637Y012075D01*
X021637Y012093D02*
X022249Y012093D01*
X022249Y012111D02*
X021637Y012111D01*
X021637Y012129D02*
X022249Y012129D01*
X022249Y012147D02*
X021637Y012147D01*
X021637Y012165D02*
X022249Y012165D01*
X022249Y012183D02*
X021637Y012183D01*
X021637Y012201D02*
X022249Y012201D01*
X022249Y012219D02*
X021637Y012219D01*
X021637Y012237D02*
X022249Y012237D01*
X022249Y012255D02*
X021637Y012255D01*
X021637Y012273D02*
X022249Y012273D01*
X022249Y012291D02*
X021637Y012291D01*
X021637Y012309D02*
X022249Y012309D01*
X022249Y012327D02*
X021637Y012327D01*
X021637Y012345D02*
X022249Y012345D01*
X022249Y012363D02*
X021637Y012363D01*
X021637Y012381D02*
X022249Y012381D01*
X022249Y012399D02*
X021637Y012399D01*
X021637Y012417D02*
X022249Y012417D01*
X022249Y012435D02*
X021637Y012435D01*
X021637Y012453D02*
X022249Y012453D01*
X022249Y012471D02*
X021637Y012471D01*
X021637Y012489D02*
X022249Y012489D01*
X022249Y012507D02*
X021637Y012507D01*
X021637Y012525D02*
X022249Y012525D01*
X022249Y012543D02*
X021637Y012543D01*
X021637Y012561D02*
X022249Y012561D01*
X022249Y012579D02*
X021637Y012579D01*
X021637Y012597D02*
X022249Y012597D01*
X022249Y012615D02*
X021637Y012615D01*
X021637Y012633D02*
X022249Y012633D01*
X022249Y012651D02*
X021637Y012651D01*
X021637Y012669D02*
X022249Y012669D01*
X022249Y012687D02*
X021637Y012687D01*
X021637Y012705D02*
X022249Y012705D01*
X022249Y012723D02*
X021637Y012723D01*
X021637Y012741D02*
X022249Y012741D01*
X022249Y012759D02*
X021637Y012759D01*
X021637Y012777D02*
X022249Y012777D01*
X022249Y012795D02*
X021637Y012795D01*
X021637Y012813D02*
X022249Y012813D01*
X022249Y012831D02*
X021637Y012831D01*
X021637Y012849D02*
X022249Y012849D01*
X022249Y012867D02*
X021637Y012867D01*
X021637Y012885D02*
X022249Y012885D01*
X022249Y012903D02*
X021637Y012903D01*
X021637Y012921D02*
X022249Y012921D01*
X022249Y012939D02*
X021637Y012939D01*
X021637Y012957D02*
X022249Y012957D01*
X034588Y014710D02*
X034588Y016070D01*
X035200Y016070D01*
X035200Y014710D01*
X034588Y014710D01*
X034588Y014728D02*
X035200Y014728D01*
X035200Y014746D02*
X034588Y014746D01*
X034588Y014764D02*
X035200Y014764D01*
X035200Y014782D02*
X034588Y014782D01*
X034588Y014800D02*
X035200Y014800D01*
X035200Y014818D02*
X034588Y014818D01*
X034588Y014836D02*
X035200Y014836D01*
X035200Y014854D02*
X034588Y014854D01*
X034588Y014872D02*
X035200Y014872D01*
X035200Y014890D02*
X034588Y014890D01*
X034588Y014908D02*
X035200Y014908D01*
X035200Y014926D02*
X034588Y014926D01*
X034588Y014944D02*
X035200Y014944D01*
X035200Y014962D02*
X034588Y014962D01*
X034588Y014980D02*
X035200Y014980D01*
X035200Y014998D02*
X034588Y014998D01*
X034588Y015016D02*
X035200Y015016D01*
X035200Y015034D02*
X034588Y015034D01*
X034588Y015052D02*
X035200Y015052D01*
X035200Y015070D02*
X034588Y015070D01*
X034588Y015088D02*
X035200Y015088D01*
X035200Y015106D02*
X034588Y015106D01*
X034588Y015124D02*
X035200Y015124D01*
X035200Y015142D02*
X034588Y015142D01*
X034588Y015160D02*
X035200Y015160D01*
X035200Y015178D02*
X034588Y015178D01*
X034588Y015196D02*
X035200Y015196D01*
X035200Y015214D02*
X034588Y015214D01*
X034588Y015232D02*
X035200Y015232D01*
X035200Y015250D02*
X034588Y015250D01*
X034588Y015268D02*
X035200Y015268D01*
X035200Y015286D02*
X034588Y015286D01*
X034588Y015304D02*
X035200Y015304D01*
X035200Y015322D02*
X034588Y015322D01*
X034588Y015340D02*
X035200Y015340D01*
X035200Y015358D02*
X034588Y015358D01*
X034588Y015376D02*
X035200Y015376D01*
X035200Y015394D02*
X034588Y015394D01*
X034588Y015412D02*
X035200Y015412D01*
X035200Y015430D02*
X034588Y015430D01*
X034588Y015448D02*
X035200Y015448D01*
X035200Y015466D02*
X034588Y015466D01*
X034588Y015484D02*
X035200Y015484D01*
X035200Y015502D02*
X034588Y015502D01*
X034588Y015520D02*
X035200Y015520D01*
X035200Y015538D02*
X034588Y015538D01*
X034588Y015556D02*
X035200Y015556D01*
X035200Y015574D02*
X034588Y015574D01*
X034588Y015592D02*
X035200Y015592D01*
X035200Y015610D02*
X034588Y015610D01*
X034588Y015628D02*
X035200Y015628D01*
X035200Y015646D02*
X034588Y015646D01*
X034588Y015664D02*
X035200Y015664D01*
X035200Y015682D02*
X034588Y015682D01*
X034588Y015700D02*
X035200Y015700D01*
X035200Y015718D02*
X034588Y015718D01*
X034588Y015736D02*
X035200Y015736D01*
X035200Y015754D02*
X034588Y015754D01*
X034588Y015772D02*
X035200Y015772D01*
X035200Y015790D02*
X034588Y015790D01*
X034588Y015808D02*
X035200Y015808D01*
X035200Y015826D02*
X034588Y015826D01*
X034588Y015844D02*
X035200Y015844D01*
X035200Y015862D02*
X034588Y015862D01*
X034588Y015880D02*
X035200Y015880D01*
X035200Y015898D02*
X034588Y015898D01*
X034588Y015916D02*
X035200Y015916D01*
X035200Y015934D02*
X034588Y015934D01*
X034588Y015952D02*
X035200Y015952D01*
X035200Y015970D02*
X034588Y015970D01*
X034588Y015988D02*
X035200Y015988D01*
X035200Y016006D02*
X034588Y016006D01*
X034588Y016024D02*
X035200Y016024D01*
X035200Y016042D02*
X034588Y016042D01*
X034588Y016060D02*
X035200Y016060D01*
X034588Y016836D02*
X034588Y018196D01*
X035200Y018196D01*
X035200Y016836D01*
X034588Y016836D01*
X034588Y016854D02*
X035200Y016854D01*
X035200Y016872D02*
X034588Y016872D01*
X034588Y016890D02*
X035200Y016890D01*
X035200Y016908D02*
X034588Y016908D01*
X034588Y016926D02*
X035200Y016926D01*
X035200Y016944D02*
X034588Y016944D01*
X034588Y016962D02*
X035200Y016962D01*
X035200Y016980D02*
X034588Y016980D01*
X034588Y016998D02*
X035200Y016998D01*
X035200Y017016D02*
X034588Y017016D01*
X034588Y017034D02*
X035200Y017034D01*
X035200Y017052D02*
X034588Y017052D01*
X034588Y017070D02*
X035200Y017070D01*
X035200Y017088D02*
X034588Y017088D01*
X034588Y017106D02*
X035200Y017106D01*
X035200Y017124D02*
X034588Y017124D01*
X034588Y017142D02*
X035200Y017142D01*
X035200Y017160D02*
X034588Y017160D01*
X034588Y017178D02*
X035200Y017178D01*
X035200Y017196D02*
X034588Y017196D01*
X034588Y017214D02*
X035200Y017214D01*
X035200Y017232D02*
X034588Y017232D01*
X034588Y017250D02*
X035200Y017250D01*
X035200Y017268D02*
X034588Y017268D01*
X034588Y017286D02*
X035200Y017286D01*
X035200Y017304D02*
X034588Y017304D01*
X034588Y017322D02*
X035200Y017322D01*
X035200Y017340D02*
X034588Y017340D01*
X034588Y017358D02*
X035200Y017358D01*
X035200Y017376D02*
X034588Y017376D01*
X034588Y017394D02*
X035200Y017394D01*
X035200Y017412D02*
X034588Y017412D01*
X034588Y017430D02*
X035200Y017430D01*
X035200Y017448D02*
X034588Y017448D01*
X034588Y017466D02*
X035200Y017466D01*
X035200Y017484D02*
X034588Y017484D01*
X034588Y017502D02*
X035200Y017502D01*
X035200Y017520D02*
X034588Y017520D01*
X034588Y017538D02*
X035200Y017538D01*
X035200Y017556D02*
X034588Y017556D01*
X034588Y017574D02*
X035200Y017574D01*
X035200Y017592D02*
X034588Y017592D01*
X034588Y017610D02*
X035200Y017610D01*
X035200Y017628D02*
X034588Y017628D01*
X034588Y017646D02*
X035200Y017646D01*
X035200Y017664D02*
X034588Y017664D01*
X034588Y017682D02*
X035200Y017682D01*
X035200Y017700D02*
X034588Y017700D01*
X034588Y017718D02*
X035200Y017718D01*
X035200Y017736D02*
X034588Y017736D01*
X034588Y017754D02*
X035200Y017754D01*
X035200Y017772D02*
X034588Y017772D01*
X034588Y017790D02*
X035200Y017790D01*
X035200Y017808D02*
X034588Y017808D01*
X034588Y017826D02*
X035200Y017826D01*
X035200Y017844D02*
X034588Y017844D01*
X034588Y017862D02*
X035200Y017862D01*
X035200Y017880D02*
X034588Y017880D01*
X034588Y017898D02*
X035200Y017898D01*
X035200Y017916D02*
X034588Y017916D01*
X034588Y017934D02*
X035200Y017934D01*
X035200Y017952D02*
X034588Y017952D01*
X034588Y017970D02*
X035200Y017970D01*
X035200Y017988D02*
X034588Y017988D01*
X034588Y018006D02*
X035200Y018006D01*
X035200Y018024D02*
X034588Y018024D01*
X034588Y018042D02*
X035200Y018042D01*
X035200Y018060D02*
X034588Y018060D01*
X034588Y018078D02*
X035200Y018078D01*
X035200Y018096D02*
X034588Y018096D01*
X034588Y018114D02*
X035200Y018114D01*
X035200Y018132D02*
X034588Y018132D01*
X034588Y018150D02*
X035200Y018150D01*
X035200Y018168D02*
X034588Y018168D01*
X034588Y018186D02*
X035200Y018186D01*
X035001Y026444D02*
X036361Y026444D01*
X036361Y025832D01*
X035001Y025832D01*
X035001Y026444D01*
X035001Y025850D02*
X036361Y025850D01*
X036361Y025868D02*
X035001Y025868D01*
X035001Y025886D02*
X036361Y025886D01*
X036361Y025904D02*
X035001Y025904D01*
X035001Y025922D02*
X036361Y025922D01*
X036361Y025940D02*
X035001Y025940D01*
X035001Y025958D02*
X036361Y025958D01*
X036361Y025976D02*
X035001Y025976D01*
X035001Y025994D02*
X036361Y025994D01*
X036361Y026012D02*
X035001Y026012D01*
X035001Y026030D02*
X036361Y026030D01*
X036361Y026048D02*
X035001Y026048D01*
X035001Y026066D02*
X036361Y026066D01*
X036361Y026084D02*
X035001Y026084D01*
X035001Y026102D02*
X036361Y026102D01*
X036361Y026120D02*
X035001Y026120D01*
X035001Y026138D02*
X036361Y026138D01*
X036361Y026156D02*
X035001Y026156D01*
X035001Y026174D02*
X036361Y026174D01*
X036361Y026192D02*
X035001Y026192D01*
X035001Y026210D02*
X036361Y026210D01*
X036361Y026228D02*
X035001Y026228D01*
X035001Y026246D02*
X036361Y026246D01*
X036361Y026264D02*
X035001Y026264D01*
X035001Y026282D02*
X036361Y026282D01*
X036361Y026300D02*
X035001Y026300D01*
X035001Y026318D02*
X036361Y026318D01*
X036361Y026336D02*
X035001Y026336D01*
X035001Y026354D02*
X036361Y026354D01*
X036361Y026372D02*
X035001Y026372D01*
X035001Y026390D02*
X036361Y026390D01*
X036361Y026408D02*
X035001Y026408D01*
X035001Y026426D02*
X036361Y026426D01*
X036361Y026444D02*
X035001Y026444D01*
X034236Y026444D02*
X032876Y026444D01*
X034236Y026444D02*
X034236Y025832D01*
X032876Y025832D01*
X032876Y026444D01*
X032876Y025850D02*
X034236Y025850D01*
X034236Y025868D02*
X032876Y025868D01*
X032876Y025886D02*
X034236Y025886D01*
X034236Y025904D02*
X032876Y025904D01*
X032876Y025922D02*
X034236Y025922D01*
X034236Y025940D02*
X032876Y025940D01*
X032876Y025958D02*
X034236Y025958D01*
X034236Y025976D02*
X032876Y025976D01*
X032876Y025994D02*
X034236Y025994D01*
X034236Y026012D02*
X032876Y026012D01*
X032876Y026030D02*
X034236Y026030D01*
X034236Y026048D02*
X032876Y026048D01*
X032876Y026066D02*
X034236Y026066D01*
X034236Y026084D02*
X032876Y026084D01*
X032876Y026102D02*
X034236Y026102D01*
X034236Y026120D02*
X032876Y026120D01*
X032876Y026138D02*
X034236Y026138D01*
X034236Y026156D02*
X032876Y026156D01*
X032876Y026174D02*
X034236Y026174D01*
X034236Y026192D02*
X032876Y026192D01*
X032876Y026210D02*
X034236Y026210D01*
X034236Y026228D02*
X032876Y026228D01*
X032876Y026246D02*
X034236Y026246D01*
X034236Y026264D02*
X032876Y026264D01*
X032876Y026282D02*
X034236Y026282D01*
X034236Y026300D02*
X032876Y026300D01*
X032876Y026318D02*
X034236Y026318D01*
X034236Y026336D02*
X032876Y026336D01*
X032876Y026354D02*
X034236Y026354D01*
X034236Y026372D02*
X032876Y026372D01*
X032876Y026390D02*
X034236Y026390D01*
X034236Y026408D02*
X032876Y026408D01*
X032876Y026426D02*
X034236Y026426D01*
X034236Y026444D02*
X032876Y026444D01*
X032747Y033518D02*
X032135Y033518D01*
X032135Y034562D01*
X032747Y034562D01*
X032747Y033518D01*
X032747Y033536D02*
X032135Y033536D01*
X032135Y033554D02*
X032747Y033554D01*
X032747Y033572D02*
X032135Y033572D01*
X032135Y033590D02*
X032747Y033590D01*
X032747Y033608D02*
X032135Y033608D01*
X032135Y033626D02*
X032747Y033626D01*
X032747Y033644D02*
X032135Y033644D01*
X032135Y033662D02*
X032747Y033662D01*
X032747Y033680D02*
X032135Y033680D01*
X032135Y033698D02*
X032747Y033698D01*
X032747Y033716D02*
X032135Y033716D01*
X032135Y033734D02*
X032747Y033734D01*
X032747Y033752D02*
X032135Y033752D01*
X032135Y033770D02*
X032747Y033770D01*
X032747Y033788D02*
X032135Y033788D01*
X032135Y033806D02*
X032747Y033806D01*
X032747Y033824D02*
X032135Y033824D01*
X032135Y033842D02*
X032747Y033842D01*
X032747Y033860D02*
X032135Y033860D01*
X032135Y033878D02*
X032747Y033878D01*
X032747Y033896D02*
X032135Y033896D01*
X032135Y033914D02*
X032747Y033914D01*
X032747Y033932D02*
X032135Y033932D01*
X032135Y033950D02*
X032747Y033950D01*
X032747Y033968D02*
X032135Y033968D01*
X032135Y033986D02*
X032747Y033986D01*
X032747Y034004D02*
X032135Y034004D01*
X032135Y034022D02*
X032747Y034022D01*
X032747Y034040D02*
X032135Y034040D01*
X032135Y034058D02*
X032747Y034058D01*
X032747Y034076D02*
X032135Y034076D01*
X032135Y034094D02*
X032747Y034094D01*
X032747Y034112D02*
X032135Y034112D01*
X032135Y034130D02*
X032747Y034130D01*
X032747Y034148D02*
X032135Y034148D01*
X032135Y034166D02*
X032747Y034166D01*
X032747Y034184D02*
X032135Y034184D01*
X032135Y034202D02*
X032747Y034202D01*
X032747Y034220D02*
X032135Y034220D01*
X032135Y034238D02*
X032747Y034238D01*
X032747Y034256D02*
X032135Y034256D01*
X032135Y034274D02*
X032747Y034274D01*
X032747Y034292D02*
X032135Y034292D01*
X032135Y034310D02*
X032747Y034310D01*
X032747Y034328D02*
X032135Y034328D01*
X032135Y034346D02*
X032747Y034346D01*
X032747Y034364D02*
X032135Y034364D01*
X032135Y034382D02*
X032747Y034382D01*
X032747Y034400D02*
X032135Y034400D01*
X032135Y034418D02*
X032747Y034418D01*
X032747Y034436D02*
X032135Y034436D01*
X032135Y034454D02*
X032747Y034454D01*
X032747Y034472D02*
X032135Y034472D01*
X032135Y034490D02*
X032747Y034490D01*
X032747Y034508D02*
X032135Y034508D01*
X032135Y034526D02*
X032747Y034526D01*
X032747Y034544D02*
X032135Y034544D01*
X032135Y034562D02*
X032747Y034562D01*
X033237Y033518D02*
X033849Y033518D01*
X033237Y033518D02*
X033237Y034562D01*
X033849Y034562D01*
X033849Y033518D01*
X033849Y033536D02*
X033237Y033536D01*
X033237Y033554D02*
X033849Y033554D01*
X033849Y033572D02*
X033237Y033572D01*
X033237Y033590D02*
X033849Y033590D01*
X033849Y033608D02*
X033237Y033608D01*
X033237Y033626D02*
X033849Y033626D01*
X033849Y033644D02*
X033237Y033644D01*
X033237Y033662D02*
X033849Y033662D01*
X033849Y033680D02*
X033237Y033680D01*
X033237Y033698D02*
X033849Y033698D01*
X033849Y033716D02*
X033237Y033716D01*
X033237Y033734D02*
X033849Y033734D01*
X033849Y033752D02*
X033237Y033752D01*
X033237Y033770D02*
X033849Y033770D01*
X033849Y033788D02*
X033237Y033788D01*
X033237Y033806D02*
X033849Y033806D01*
X033849Y033824D02*
X033237Y033824D01*
X033237Y033842D02*
X033849Y033842D01*
X033849Y033860D02*
X033237Y033860D01*
X033237Y033878D02*
X033849Y033878D01*
X033849Y033896D02*
X033237Y033896D01*
X033237Y033914D02*
X033849Y033914D01*
X033849Y033932D02*
X033237Y033932D01*
X033237Y033950D02*
X033849Y033950D01*
X033849Y033968D02*
X033237Y033968D01*
X033237Y033986D02*
X033849Y033986D01*
X033849Y034004D02*
X033237Y034004D01*
X033237Y034022D02*
X033849Y034022D01*
X033849Y034040D02*
X033237Y034040D01*
X033237Y034058D02*
X033849Y034058D01*
X033849Y034076D02*
X033237Y034076D01*
X033237Y034094D02*
X033849Y034094D01*
X033849Y034112D02*
X033237Y034112D01*
X033237Y034130D02*
X033849Y034130D01*
X033849Y034148D02*
X033237Y034148D01*
X033237Y034166D02*
X033849Y034166D01*
X033849Y034184D02*
X033237Y034184D01*
X033237Y034202D02*
X033849Y034202D01*
X033849Y034220D02*
X033237Y034220D01*
X033237Y034238D02*
X033849Y034238D01*
X033849Y034256D02*
X033237Y034256D01*
X033237Y034274D02*
X033849Y034274D01*
X033849Y034292D02*
X033237Y034292D01*
X033237Y034310D02*
X033849Y034310D01*
X033849Y034328D02*
X033237Y034328D01*
X033237Y034346D02*
X033849Y034346D01*
X033849Y034364D02*
X033237Y034364D01*
X033237Y034382D02*
X033849Y034382D01*
X033849Y034400D02*
X033237Y034400D01*
X033237Y034418D02*
X033849Y034418D01*
X033849Y034436D02*
X033237Y034436D01*
X033237Y034454D02*
X033849Y034454D01*
X033849Y034472D02*
X033237Y034472D01*
X033237Y034490D02*
X033849Y034490D01*
X033849Y034508D02*
X033237Y034508D01*
X033237Y034526D02*
X033849Y034526D01*
X033849Y034544D02*
X033237Y034544D01*
X033237Y034562D02*
X033849Y034562D01*
X033032Y034949D02*
X033032Y036309D01*
X033644Y036309D01*
X033644Y034949D01*
X033032Y034949D01*
X033032Y034967D02*
X033644Y034967D01*
X033644Y034985D02*
X033032Y034985D01*
X033032Y035003D02*
X033644Y035003D01*
X033644Y035021D02*
X033032Y035021D01*
X033032Y035039D02*
X033644Y035039D01*
X033644Y035057D02*
X033032Y035057D01*
X033032Y035075D02*
X033644Y035075D01*
X033644Y035093D02*
X033032Y035093D01*
X033032Y035111D02*
X033644Y035111D01*
X033644Y035129D02*
X033032Y035129D01*
X033032Y035147D02*
X033644Y035147D01*
X033644Y035165D02*
X033032Y035165D01*
X033032Y035183D02*
X033644Y035183D01*
X033644Y035201D02*
X033032Y035201D01*
X033032Y035219D02*
X033644Y035219D01*
X033644Y035237D02*
X033032Y035237D01*
X033032Y035255D02*
X033644Y035255D01*
X033644Y035273D02*
X033032Y035273D01*
X033032Y035291D02*
X033644Y035291D01*
X033644Y035309D02*
X033032Y035309D01*
X033032Y035327D02*
X033644Y035327D01*
X033644Y035345D02*
X033032Y035345D01*
X033032Y035363D02*
X033644Y035363D01*
X033644Y035381D02*
X033032Y035381D01*
X033032Y035399D02*
X033644Y035399D01*
X033644Y035417D02*
X033032Y035417D01*
X033032Y035435D02*
X033644Y035435D01*
X033644Y035453D02*
X033032Y035453D01*
X033032Y035471D02*
X033644Y035471D01*
X033644Y035489D02*
X033032Y035489D01*
X033032Y035507D02*
X033644Y035507D01*
X033644Y035525D02*
X033032Y035525D01*
X033032Y035543D02*
X033644Y035543D01*
X033644Y035561D02*
X033032Y035561D01*
X033032Y035579D02*
X033644Y035579D01*
X033644Y035597D02*
X033032Y035597D01*
X033032Y035615D02*
X033644Y035615D01*
X033644Y035633D02*
X033032Y035633D01*
X033032Y035651D02*
X033644Y035651D01*
X033644Y035669D02*
X033032Y035669D01*
X033032Y035687D02*
X033644Y035687D01*
X033644Y035705D02*
X033032Y035705D01*
X033032Y035723D02*
X033644Y035723D01*
X033644Y035741D02*
X033032Y035741D01*
X033032Y035759D02*
X033644Y035759D01*
X033644Y035777D02*
X033032Y035777D01*
X033032Y035795D02*
X033644Y035795D01*
X033644Y035813D02*
X033032Y035813D01*
X033032Y035831D02*
X033644Y035831D01*
X033644Y035849D02*
X033032Y035849D01*
X033032Y035867D02*
X033644Y035867D01*
X033644Y035885D02*
X033032Y035885D01*
X033032Y035903D02*
X033644Y035903D01*
X033644Y035921D02*
X033032Y035921D01*
X033032Y035939D02*
X033644Y035939D01*
X033644Y035957D02*
X033032Y035957D01*
X033032Y035975D02*
X033644Y035975D01*
X033644Y035993D02*
X033032Y035993D01*
X033032Y036011D02*
X033644Y036011D01*
X033644Y036029D02*
X033032Y036029D01*
X033032Y036047D02*
X033644Y036047D01*
X033644Y036065D02*
X033032Y036065D01*
X033032Y036083D02*
X033644Y036083D01*
X033644Y036101D02*
X033032Y036101D01*
X033032Y036119D02*
X033644Y036119D01*
X033644Y036137D02*
X033032Y036137D01*
X033032Y036155D02*
X033644Y036155D01*
X033644Y036173D02*
X033032Y036173D01*
X033032Y036191D02*
X033644Y036191D01*
X033644Y036209D02*
X033032Y036209D01*
X033032Y036227D02*
X033644Y036227D01*
X033644Y036245D02*
X033032Y036245D01*
X033032Y036263D02*
X033644Y036263D01*
X033644Y036281D02*
X033032Y036281D01*
X033032Y036299D02*
X033644Y036299D01*
X033032Y037075D02*
X033032Y038435D01*
X033644Y038435D01*
X033644Y037075D01*
X033032Y037075D01*
X033032Y037093D02*
X033644Y037093D01*
X033644Y037111D02*
X033032Y037111D01*
X033032Y037129D02*
X033644Y037129D01*
X033644Y037147D02*
X033032Y037147D01*
X033032Y037165D02*
X033644Y037165D01*
X033644Y037183D02*
X033032Y037183D01*
X033032Y037201D02*
X033644Y037201D01*
X033644Y037219D02*
X033032Y037219D01*
X033032Y037237D02*
X033644Y037237D01*
X033644Y037255D02*
X033032Y037255D01*
X033032Y037273D02*
X033644Y037273D01*
X033644Y037291D02*
X033032Y037291D01*
X033032Y037309D02*
X033644Y037309D01*
X033644Y037327D02*
X033032Y037327D01*
X033032Y037345D02*
X033644Y037345D01*
X033644Y037363D02*
X033032Y037363D01*
X033032Y037381D02*
X033644Y037381D01*
X033644Y037399D02*
X033032Y037399D01*
X033032Y037417D02*
X033644Y037417D01*
X033644Y037435D02*
X033032Y037435D01*
X033032Y037453D02*
X033644Y037453D01*
X033644Y037471D02*
X033032Y037471D01*
X033032Y037489D02*
X033644Y037489D01*
X033644Y037507D02*
X033032Y037507D01*
X033032Y037525D02*
X033644Y037525D01*
X033644Y037543D02*
X033032Y037543D01*
X033032Y037561D02*
X033644Y037561D01*
X033644Y037579D02*
X033032Y037579D01*
X033032Y037597D02*
X033644Y037597D01*
X033644Y037615D02*
X033032Y037615D01*
X033032Y037633D02*
X033644Y037633D01*
X033644Y037651D02*
X033032Y037651D01*
X033032Y037669D02*
X033644Y037669D01*
X033644Y037687D02*
X033032Y037687D01*
X033032Y037705D02*
X033644Y037705D01*
X033644Y037723D02*
X033032Y037723D01*
X033032Y037741D02*
X033644Y037741D01*
X033644Y037759D02*
X033032Y037759D01*
X033032Y037777D02*
X033644Y037777D01*
X033644Y037795D02*
X033032Y037795D01*
X033032Y037813D02*
X033644Y037813D01*
X033644Y037831D02*
X033032Y037831D01*
X033032Y037849D02*
X033644Y037849D01*
X033644Y037867D02*
X033032Y037867D01*
X033032Y037885D02*
X033644Y037885D01*
X033644Y037903D02*
X033032Y037903D01*
X033032Y037921D02*
X033644Y037921D01*
X033644Y037939D02*
X033032Y037939D01*
X033032Y037957D02*
X033644Y037957D01*
X033644Y037975D02*
X033032Y037975D01*
X033032Y037993D02*
X033644Y037993D01*
X033644Y038011D02*
X033032Y038011D01*
X033032Y038029D02*
X033644Y038029D01*
X033644Y038047D02*
X033032Y038047D01*
X033032Y038065D02*
X033644Y038065D01*
X033644Y038083D02*
X033032Y038083D01*
X033032Y038101D02*
X033644Y038101D01*
X033644Y038119D02*
X033032Y038119D01*
X033032Y038137D02*
X033644Y038137D01*
X033644Y038155D02*
X033032Y038155D01*
X033032Y038173D02*
X033644Y038173D01*
X033644Y038191D02*
X033032Y038191D01*
X033032Y038209D02*
X033644Y038209D01*
X033644Y038227D02*
X033032Y038227D01*
X033032Y038245D02*
X033644Y038245D01*
X033644Y038263D02*
X033032Y038263D01*
X033032Y038281D02*
X033644Y038281D01*
X033644Y038299D02*
X033032Y038299D01*
X033032Y038317D02*
X033644Y038317D01*
X033644Y038335D02*
X033032Y038335D01*
X033032Y038353D02*
X033644Y038353D01*
X033644Y038371D02*
X033032Y038371D01*
X033032Y038389D02*
X033644Y038389D01*
X033644Y038407D02*
X033032Y038407D01*
X033032Y038425D02*
X033644Y038425D01*
X006066Y031068D02*
X005060Y031068D01*
X005060Y031680D01*
X006066Y031680D01*
X006066Y031068D01*
X006066Y031086D02*
X005060Y031086D01*
X005060Y031104D02*
X006066Y031104D01*
X006066Y031122D02*
X005060Y031122D01*
X005060Y031140D02*
X006066Y031140D01*
X006066Y031158D02*
X005060Y031158D01*
X005060Y031176D02*
X006066Y031176D01*
X006066Y031194D02*
X005060Y031194D01*
X005060Y031212D02*
X006066Y031212D01*
X006066Y031230D02*
X005060Y031230D01*
X005060Y031248D02*
X006066Y031248D01*
X006066Y031266D02*
X005060Y031266D01*
X005060Y031284D02*
X006066Y031284D01*
X006066Y031302D02*
X005060Y031302D01*
X005060Y031320D02*
X006066Y031320D01*
X006066Y031338D02*
X005060Y031338D01*
X005060Y031356D02*
X006066Y031356D01*
X006066Y031374D02*
X005060Y031374D01*
X005060Y031392D02*
X006066Y031392D01*
X006066Y031410D02*
X005060Y031410D01*
X005060Y031428D02*
X006066Y031428D01*
X006066Y031446D02*
X005060Y031446D01*
X005060Y031464D02*
X006066Y031464D01*
X006066Y031482D02*
X005060Y031482D01*
X005060Y031500D02*
X006066Y031500D01*
X006066Y031518D02*
X005060Y031518D01*
X005060Y031536D02*
X006066Y031536D01*
X006066Y031554D02*
X005060Y031554D01*
X005060Y031572D02*
X006066Y031572D01*
X006066Y031590D02*
X005060Y031590D01*
X005060Y031608D02*
X006066Y031608D01*
X006066Y031626D02*
X005060Y031626D01*
X005060Y031644D02*
X006066Y031644D01*
X006066Y031662D02*
X005060Y031662D01*
X005060Y031680D02*
X006066Y031680D01*
X004649Y031068D02*
X003643Y031068D01*
X003643Y031680D01*
X004649Y031680D01*
X004649Y031068D01*
X004649Y031086D02*
X003643Y031086D01*
X003643Y031104D02*
X004649Y031104D01*
X004649Y031122D02*
X003643Y031122D01*
X003643Y031140D02*
X004649Y031140D01*
X004649Y031158D02*
X003643Y031158D01*
X003643Y031176D02*
X004649Y031176D01*
X004649Y031194D02*
X003643Y031194D01*
X003643Y031212D02*
X004649Y031212D01*
X004649Y031230D02*
X003643Y031230D01*
X003643Y031248D02*
X004649Y031248D01*
X004649Y031266D02*
X003643Y031266D01*
X003643Y031284D02*
X004649Y031284D01*
X004649Y031302D02*
X003643Y031302D01*
X003643Y031320D02*
X004649Y031320D01*
X004649Y031338D02*
X003643Y031338D01*
X003643Y031356D02*
X004649Y031356D01*
X004649Y031374D02*
X003643Y031374D01*
X003643Y031392D02*
X004649Y031392D01*
X004649Y031410D02*
X003643Y031410D01*
X003643Y031428D02*
X004649Y031428D01*
X004649Y031446D02*
X003643Y031446D01*
X003643Y031464D02*
X004649Y031464D01*
X004649Y031482D02*
X003643Y031482D01*
X003643Y031500D02*
X004649Y031500D01*
X004649Y031518D02*
X003643Y031518D01*
X003643Y031536D02*
X004649Y031536D01*
X004649Y031554D02*
X003643Y031554D01*
X003643Y031572D02*
X004649Y031572D01*
X004649Y031590D02*
X003643Y031590D01*
X003643Y031608D02*
X004649Y031608D01*
X004649Y031626D02*
X003643Y031626D01*
X003643Y031644D02*
X004649Y031644D01*
X004649Y031662D02*
X003643Y031662D01*
X003643Y031680D02*
X004649Y031680D01*
D11*
X020366Y008511D02*
X020366Y008019D01*
X019796Y008019D01*
X019796Y008511D01*
X020366Y008511D01*
X020366Y008038D02*
X019796Y008038D01*
X019796Y008057D02*
X020366Y008057D01*
X020366Y008076D02*
X019796Y008076D01*
X019796Y008095D02*
X020366Y008095D01*
X020366Y008114D02*
X019796Y008114D01*
X019796Y008133D02*
X020366Y008133D01*
X020366Y008152D02*
X019796Y008152D01*
X019796Y008171D02*
X020366Y008171D01*
X020366Y008190D02*
X019796Y008190D01*
X019796Y008209D02*
X020366Y008209D01*
X020366Y008228D02*
X019796Y008228D01*
X019796Y008247D02*
X020366Y008247D01*
X020366Y008266D02*
X019796Y008266D01*
X019796Y008285D02*
X020366Y008285D01*
X020366Y008304D02*
X019796Y008304D01*
X019796Y008323D02*
X020366Y008323D01*
X020366Y008342D02*
X019796Y008342D01*
X019796Y008361D02*
X020366Y008361D01*
X020366Y008380D02*
X019796Y008380D01*
X019796Y008399D02*
X020366Y008399D01*
X020366Y008418D02*
X019796Y008418D01*
X019796Y008437D02*
X020366Y008437D01*
X020366Y008456D02*
X019796Y008456D01*
X019796Y008475D02*
X020366Y008475D01*
X020366Y008494D02*
X019796Y008494D01*
X020366Y007842D02*
X020366Y007350D01*
X019796Y007350D01*
X019796Y007842D01*
X020366Y007842D01*
X020366Y007369D02*
X019796Y007369D01*
X019796Y007388D02*
X020366Y007388D01*
X020366Y007407D02*
X019796Y007407D01*
X019796Y007426D02*
X020366Y007426D01*
X020366Y007445D02*
X019796Y007445D01*
X019796Y007464D02*
X020366Y007464D01*
X020366Y007483D02*
X019796Y007483D01*
X019796Y007502D02*
X020366Y007502D01*
X020366Y007521D02*
X019796Y007521D01*
X019796Y007540D02*
X020366Y007540D01*
X020366Y007559D02*
X019796Y007559D01*
X019796Y007578D02*
X020366Y007578D01*
X020366Y007597D02*
X019796Y007597D01*
X019796Y007616D02*
X020366Y007616D01*
X020366Y007635D02*
X019796Y007635D01*
X019796Y007654D02*
X020366Y007654D01*
X020366Y007673D02*
X019796Y007673D01*
X019796Y007692D02*
X020366Y007692D01*
X020366Y007711D02*
X019796Y007711D01*
X019796Y007730D02*
X020366Y007730D01*
X020366Y007749D02*
X019796Y007749D01*
X019796Y007768D02*
X020366Y007768D01*
X020366Y007787D02*
X019796Y007787D01*
X019796Y007806D02*
X020366Y007806D01*
X020366Y007825D02*
X019796Y007825D01*
D12*
X025280Y011874D02*
X025690Y011874D01*
X025690Y011346D01*
X025280Y011346D01*
X025280Y011874D01*
X025280Y011367D02*
X025690Y011367D01*
X025690Y011388D02*
X025280Y011388D01*
X025280Y011409D02*
X025690Y011409D01*
X025690Y011430D02*
X025280Y011430D01*
X025280Y011451D02*
X025690Y011451D01*
X025690Y011472D02*
X025280Y011472D01*
X025280Y011493D02*
X025690Y011493D01*
X025690Y011514D02*
X025280Y011514D01*
X025280Y011535D02*
X025690Y011535D01*
X025690Y011556D02*
X025280Y011556D01*
X025280Y011577D02*
X025690Y011577D01*
X025690Y011598D02*
X025280Y011598D01*
X025280Y011619D02*
X025690Y011619D01*
X025690Y011640D02*
X025280Y011640D01*
X025280Y011661D02*
X025690Y011661D01*
X025690Y011682D02*
X025280Y011682D01*
X025280Y011703D02*
X025690Y011703D01*
X025690Y011724D02*
X025280Y011724D01*
X025280Y011745D02*
X025690Y011745D01*
X025690Y011766D02*
X025280Y011766D01*
X025280Y011787D02*
X025690Y011787D01*
X025690Y011808D02*
X025280Y011808D01*
X025280Y011829D02*
X025690Y011829D01*
X025690Y011850D02*
X025280Y011850D01*
X025280Y011871D02*
X025690Y011871D01*
X026067Y011874D02*
X026477Y011874D01*
X026477Y011346D01*
X026067Y011346D01*
X026067Y011874D01*
X026067Y011367D02*
X026477Y011367D01*
X026477Y011388D02*
X026067Y011388D01*
X026067Y011409D02*
X026477Y011409D01*
X026477Y011430D02*
X026067Y011430D01*
X026067Y011451D02*
X026477Y011451D01*
X026477Y011472D02*
X026067Y011472D01*
X026067Y011493D02*
X026477Y011493D01*
X026477Y011514D02*
X026067Y011514D01*
X026067Y011535D02*
X026477Y011535D01*
X026477Y011556D02*
X026067Y011556D01*
X026067Y011577D02*
X026477Y011577D01*
X026477Y011598D02*
X026067Y011598D01*
X026067Y011619D02*
X026477Y011619D01*
X026477Y011640D02*
X026067Y011640D01*
X026067Y011661D02*
X026477Y011661D01*
X026477Y011682D02*
X026067Y011682D01*
X026067Y011703D02*
X026477Y011703D01*
X026477Y011724D02*
X026067Y011724D01*
X026067Y011745D02*
X026477Y011745D01*
X026477Y011766D02*
X026067Y011766D01*
X026067Y011787D02*
X026477Y011787D01*
X026477Y011808D02*
X026067Y011808D01*
X026067Y011829D02*
X026477Y011829D01*
X026477Y011850D02*
X026067Y011850D01*
X026067Y011871D02*
X026477Y011871D01*
X026477Y012527D02*
X026067Y012527D01*
X026067Y013055D01*
X026477Y013055D01*
X026477Y012527D01*
X026477Y012548D02*
X026067Y012548D01*
X026067Y012569D02*
X026477Y012569D01*
X026477Y012590D02*
X026067Y012590D01*
X026067Y012611D02*
X026477Y012611D01*
X026477Y012632D02*
X026067Y012632D01*
X026067Y012653D02*
X026477Y012653D01*
X026477Y012674D02*
X026067Y012674D01*
X026067Y012695D02*
X026477Y012695D01*
X026477Y012716D02*
X026067Y012716D01*
X026067Y012737D02*
X026477Y012737D01*
X026477Y012758D02*
X026067Y012758D01*
X026067Y012779D02*
X026477Y012779D01*
X026477Y012800D02*
X026067Y012800D01*
X026067Y012821D02*
X026477Y012821D01*
X026477Y012842D02*
X026067Y012842D01*
X026067Y012863D02*
X026477Y012863D01*
X026477Y012884D02*
X026067Y012884D01*
X026067Y012905D02*
X026477Y012905D01*
X026477Y012926D02*
X026067Y012926D01*
X026067Y012947D02*
X026477Y012947D01*
X026477Y012968D02*
X026067Y012968D01*
X026067Y012989D02*
X026477Y012989D01*
X026477Y013010D02*
X026067Y013010D01*
X026067Y013031D02*
X026477Y013031D01*
X026477Y013052D02*
X026067Y013052D01*
X025690Y012527D02*
X025280Y012527D01*
X025280Y013055D01*
X025690Y013055D01*
X025690Y012527D01*
X025690Y012548D02*
X025280Y012548D01*
X025280Y012569D02*
X025690Y012569D01*
X025690Y012590D02*
X025280Y012590D01*
X025280Y012611D02*
X025690Y012611D01*
X025690Y012632D02*
X025280Y012632D01*
X025280Y012653D02*
X025690Y012653D01*
X025690Y012674D02*
X025280Y012674D01*
X025280Y012695D02*
X025690Y012695D01*
X025690Y012716D02*
X025280Y012716D01*
X025280Y012737D02*
X025690Y012737D01*
X025690Y012758D02*
X025280Y012758D01*
X025280Y012779D02*
X025690Y012779D01*
X025690Y012800D02*
X025280Y012800D01*
X025280Y012821D02*
X025690Y012821D01*
X025690Y012842D02*
X025280Y012842D01*
X025280Y012863D02*
X025690Y012863D01*
X025690Y012884D02*
X025280Y012884D01*
X025280Y012905D02*
X025690Y012905D01*
X025690Y012926D02*
X025280Y012926D01*
X025280Y012947D02*
X025690Y012947D01*
X025690Y012968D02*
X025280Y012968D01*
X025280Y012989D02*
X025690Y012989D01*
X025690Y013010D02*
X025280Y013010D01*
X025280Y013031D02*
X025690Y013031D01*
X025690Y013052D02*
X025280Y013052D01*
X030614Y018492D02*
X030614Y018902D01*
X031142Y018902D01*
X031142Y018492D01*
X030614Y018492D01*
X030614Y018513D02*
X031142Y018513D01*
X031142Y018534D02*
X030614Y018534D01*
X030614Y018555D02*
X031142Y018555D01*
X031142Y018576D02*
X030614Y018576D01*
X030614Y018597D02*
X031142Y018597D01*
X031142Y018618D02*
X030614Y018618D01*
X030614Y018639D02*
X031142Y018639D01*
X031142Y018660D02*
X030614Y018660D01*
X030614Y018681D02*
X031142Y018681D01*
X031142Y018702D02*
X030614Y018702D01*
X030614Y018723D02*
X031142Y018723D01*
X031142Y018744D02*
X030614Y018744D01*
X030614Y018765D02*
X031142Y018765D01*
X031142Y018786D02*
X030614Y018786D01*
X030614Y018807D02*
X031142Y018807D01*
X031142Y018828D02*
X030614Y018828D01*
X030614Y018849D02*
X031142Y018849D01*
X031142Y018870D02*
X030614Y018870D01*
X030614Y018891D02*
X031142Y018891D01*
X030614Y019279D02*
X030614Y019689D01*
X031142Y019689D01*
X031142Y019279D01*
X030614Y019279D01*
X030614Y019300D02*
X031142Y019300D01*
X031142Y019321D02*
X030614Y019321D01*
X030614Y019342D02*
X031142Y019342D01*
X031142Y019363D02*
X030614Y019363D01*
X030614Y019384D02*
X031142Y019384D01*
X031142Y019405D02*
X030614Y019405D01*
X030614Y019426D02*
X031142Y019426D01*
X031142Y019447D02*
X030614Y019447D01*
X030614Y019468D02*
X031142Y019468D01*
X031142Y019489D02*
X030614Y019489D01*
X030614Y019510D02*
X031142Y019510D01*
X031142Y019531D02*
X030614Y019531D01*
X030614Y019552D02*
X031142Y019552D01*
X031142Y019573D02*
X030614Y019573D01*
X030614Y019594D02*
X031142Y019594D01*
X031142Y019615D02*
X030614Y019615D01*
X030614Y019636D02*
X031142Y019636D01*
X031142Y019657D02*
X030614Y019657D01*
X030614Y019678D02*
X031142Y019678D01*
X032819Y017996D02*
X032819Y017586D01*
X032819Y017996D02*
X033347Y017996D01*
X033347Y017586D01*
X032819Y017586D01*
X032819Y017607D02*
X033347Y017607D01*
X033347Y017628D02*
X032819Y017628D01*
X032819Y017649D02*
X033347Y017649D01*
X033347Y017670D02*
X032819Y017670D01*
X032819Y017691D02*
X033347Y017691D01*
X033347Y017712D02*
X032819Y017712D01*
X032819Y017733D02*
X033347Y017733D01*
X033347Y017754D02*
X032819Y017754D01*
X032819Y017775D02*
X033347Y017775D01*
X033347Y017796D02*
X032819Y017796D01*
X032819Y017817D02*
X033347Y017817D01*
X033347Y017838D02*
X032819Y017838D01*
X032819Y017859D02*
X033347Y017859D01*
X033347Y017880D02*
X032819Y017880D01*
X032819Y017901D02*
X033347Y017901D01*
X033347Y017922D02*
X032819Y017922D01*
X032819Y017943D02*
X033347Y017943D01*
X033347Y017964D02*
X032819Y017964D01*
X032819Y017985D02*
X033347Y017985D01*
X032819Y017209D02*
X032819Y016799D01*
X032819Y017209D02*
X033347Y017209D01*
X033347Y016799D01*
X032819Y016799D01*
X032819Y016820D02*
X033347Y016820D01*
X033347Y016841D02*
X032819Y016841D01*
X032819Y016862D02*
X033347Y016862D01*
X033347Y016883D02*
X032819Y016883D01*
X032819Y016904D02*
X033347Y016904D01*
X033347Y016925D02*
X032819Y016925D01*
X032819Y016946D02*
X033347Y016946D01*
X033347Y016967D02*
X032819Y016967D01*
X032819Y016988D02*
X033347Y016988D01*
X033347Y017009D02*
X032819Y017009D01*
X032819Y017030D02*
X033347Y017030D01*
X033347Y017051D02*
X032819Y017051D01*
X032819Y017072D02*
X033347Y017072D01*
X033347Y017093D02*
X032819Y017093D01*
X032819Y017114D02*
X033347Y017114D01*
X033347Y017135D02*
X032819Y017135D01*
X032819Y017156D02*
X033347Y017156D01*
X033347Y017177D02*
X032819Y017177D01*
X032819Y017198D02*
X033347Y017198D01*
X030257Y025716D02*
X029847Y025716D01*
X029847Y026244D01*
X030257Y026244D01*
X030257Y025716D01*
X030257Y025737D02*
X029847Y025737D01*
X029847Y025758D02*
X030257Y025758D01*
X030257Y025779D02*
X029847Y025779D01*
X029847Y025800D02*
X030257Y025800D01*
X030257Y025821D02*
X029847Y025821D01*
X029847Y025842D02*
X030257Y025842D01*
X030257Y025863D02*
X029847Y025863D01*
X029847Y025884D02*
X030257Y025884D01*
X030257Y025905D02*
X029847Y025905D01*
X029847Y025926D02*
X030257Y025926D01*
X030257Y025947D02*
X029847Y025947D01*
X029847Y025968D02*
X030257Y025968D01*
X030257Y025989D02*
X029847Y025989D01*
X029847Y026010D02*
X030257Y026010D01*
X030257Y026031D02*
X029847Y026031D01*
X029847Y026052D02*
X030257Y026052D01*
X030257Y026073D02*
X029847Y026073D01*
X029847Y026094D02*
X030257Y026094D01*
X030257Y026115D02*
X029847Y026115D01*
X029847Y026136D02*
X030257Y026136D01*
X030257Y026157D02*
X029847Y026157D01*
X029847Y026178D02*
X030257Y026178D01*
X030257Y026199D02*
X029847Y026199D01*
X029847Y026220D02*
X030257Y026220D01*
X030257Y026241D02*
X029847Y026241D01*
X029469Y025716D02*
X029059Y025716D01*
X029059Y026244D01*
X029469Y026244D01*
X029469Y025716D01*
X029469Y025737D02*
X029059Y025737D01*
X029059Y025758D02*
X029469Y025758D01*
X029469Y025779D02*
X029059Y025779D01*
X029059Y025800D02*
X029469Y025800D01*
X029469Y025821D02*
X029059Y025821D01*
X029059Y025842D02*
X029469Y025842D01*
X029469Y025863D02*
X029059Y025863D01*
X029059Y025884D02*
X029469Y025884D01*
X029469Y025905D02*
X029059Y025905D01*
X029059Y025926D02*
X029469Y025926D01*
X029469Y025947D02*
X029059Y025947D01*
X029059Y025968D02*
X029469Y025968D01*
X029469Y025989D02*
X029059Y025989D01*
X029059Y026010D02*
X029469Y026010D01*
X029469Y026031D02*
X029059Y026031D01*
X029059Y026052D02*
X029469Y026052D01*
X029469Y026073D02*
X029059Y026073D01*
X029059Y026094D02*
X029469Y026094D01*
X029469Y026115D02*
X029059Y026115D01*
X029059Y026136D02*
X029469Y026136D01*
X029469Y026157D02*
X029059Y026157D01*
X029059Y026178D02*
X029469Y026178D01*
X029469Y026199D02*
X029059Y026199D01*
X029059Y026220D02*
X029469Y026220D01*
X029469Y026241D02*
X029059Y026241D01*
X028603Y032662D02*
X028193Y032662D01*
X028603Y032662D02*
X028603Y032134D01*
X028193Y032134D01*
X028193Y032662D01*
X028193Y032155D02*
X028603Y032155D01*
X028603Y032176D02*
X028193Y032176D01*
X028193Y032197D02*
X028603Y032197D01*
X028603Y032218D02*
X028193Y032218D01*
X028193Y032239D02*
X028603Y032239D01*
X028603Y032260D02*
X028193Y032260D01*
X028193Y032281D02*
X028603Y032281D01*
X028603Y032302D02*
X028193Y032302D01*
X028193Y032323D02*
X028603Y032323D01*
X028603Y032344D02*
X028193Y032344D01*
X028193Y032365D02*
X028603Y032365D01*
X028603Y032386D02*
X028193Y032386D01*
X028193Y032407D02*
X028603Y032407D01*
X028603Y032428D02*
X028193Y032428D01*
X028193Y032449D02*
X028603Y032449D01*
X028603Y032470D02*
X028193Y032470D01*
X028193Y032491D02*
X028603Y032491D01*
X028603Y032512D02*
X028193Y032512D01*
X028193Y032533D02*
X028603Y032533D01*
X028603Y032554D02*
X028193Y032554D01*
X028193Y032575D02*
X028603Y032575D01*
X028603Y032596D02*
X028193Y032596D01*
X028193Y032617D02*
X028603Y032617D01*
X028603Y032638D02*
X028193Y032638D01*
X028193Y032659D02*
X028603Y032659D01*
X028682Y033118D02*
X028272Y033118D01*
X028272Y033646D01*
X028682Y033646D01*
X028682Y033118D01*
X028682Y033139D02*
X028272Y033139D01*
X028272Y033160D02*
X028682Y033160D01*
X028682Y033181D02*
X028272Y033181D01*
X028272Y033202D02*
X028682Y033202D01*
X028682Y033223D02*
X028272Y033223D01*
X028272Y033244D02*
X028682Y033244D01*
X028682Y033265D02*
X028272Y033265D01*
X028272Y033286D02*
X028682Y033286D01*
X028682Y033307D02*
X028272Y033307D01*
X028272Y033328D02*
X028682Y033328D01*
X028682Y033349D02*
X028272Y033349D01*
X028272Y033370D02*
X028682Y033370D01*
X028682Y033391D02*
X028272Y033391D01*
X028272Y033412D02*
X028682Y033412D01*
X028682Y033433D02*
X028272Y033433D01*
X028272Y033454D02*
X028682Y033454D01*
X028682Y033475D02*
X028272Y033475D01*
X028272Y033496D02*
X028682Y033496D01*
X028682Y033517D02*
X028272Y033517D01*
X028272Y033538D02*
X028682Y033538D01*
X028682Y033559D02*
X028272Y033559D01*
X028272Y033580D02*
X028682Y033580D01*
X028682Y033601D02*
X028272Y033601D01*
X028272Y033622D02*
X028682Y033622D01*
X028682Y033643D02*
X028272Y033643D01*
X027894Y033118D02*
X027484Y033118D01*
X027484Y033646D01*
X027894Y033646D01*
X027894Y033118D01*
X027894Y033139D02*
X027484Y033139D01*
X027484Y033160D02*
X027894Y033160D01*
X027894Y033181D02*
X027484Y033181D01*
X027484Y033202D02*
X027894Y033202D01*
X027894Y033223D02*
X027484Y033223D01*
X027484Y033244D02*
X027894Y033244D01*
X027894Y033265D02*
X027484Y033265D01*
X027484Y033286D02*
X027894Y033286D01*
X027894Y033307D02*
X027484Y033307D01*
X027484Y033328D02*
X027894Y033328D01*
X027894Y033349D02*
X027484Y033349D01*
X027484Y033370D02*
X027894Y033370D01*
X027894Y033391D02*
X027484Y033391D01*
X027484Y033412D02*
X027894Y033412D01*
X027894Y033433D02*
X027484Y033433D01*
X027484Y033454D02*
X027894Y033454D01*
X027894Y033475D02*
X027484Y033475D01*
X027484Y033496D02*
X027894Y033496D01*
X027894Y033517D02*
X027484Y033517D01*
X027484Y033538D02*
X027894Y033538D01*
X027894Y033559D02*
X027484Y033559D01*
X027484Y033580D02*
X027894Y033580D01*
X027894Y033601D02*
X027484Y033601D01*
X027484Y033622D02*
X027894Y033622D01*
X027894Y033643D02*
X027484Y033643D01*
X027406Y032662D02*
X027816Y032662D01*
X027816Y032134D01*
X027406Y032134D01*
X027406Y032662D01*
X027406Y032155D02*
X027816Y032155D01*
X027816Y032176D02*
X027406Y032176D01*
X027406Y032197D02*
X027816Y032197D01*
X027816Y032218D02*
X027406Y032218D01*
X027406Y032239D02*
X027816Y032239D01*
X027816Y032260D02*
X027406Y032260D01*
X027406Y032281D02*
X027816Y032281D01*
X027816Y032302D02*
X027406Y032302D01*
X027406Y032323D02*
X027816Y032323D01*
X027816Y032344D02*
X027406Y032344D01*
X027406Y032365D02*
X027816Y032365D01*
X027816Y032386D02*
X027406Y032386D01*
X027406Y032407D02*
X027816Y032407D01*
X027816Y032428D02*
X027406Y032428D01*
X027406Y032449D02*
X027816Y032449D01*
X027816Y032470D02*
X027406Y032470D01*
X027406Y032491D02*
X027816Y032491D01*
X027816Y032512D02*
X027406Y032512D01*
X027406Y032533D02*
X027816Y032533D01*
X027816Y032554D02*
X027406Y032554D01*
X027406Y032575D02*
X027816Y032575D01*
X027816Y032596D02*
X027406Y032596D01*
X027406Y032617D02*
X027816Y032617D01*
X027816Y032638D02*
X027406Y032638D01*
X027406Y032659D02*
X027816Y032659D01*
X009469Y031700D02*
X009059Y031700D01*
X009059Y032228D01*
X009469Y032228D01*
X009469Y031700D01*
X009469Y031721D02*
X009059Y031721D01*
X009059Y031742D02*
X009469Y031742D01*
X009469Y031763D02*
X009059Y031763D01*
X009059Y031784D02*
X009469Y031784D01*
X009469Y031805D02*
X009059Y031805D01*
X009059Y031826D02*
X009469Y031826D01*
X009469Y031847D02*
X009059Y031847D01*
X009059Y031868D02*
X009469Y031868D01*
X009469Y031889D02*
X009059Y031889D01*
X009059Y031910D02*
X009469Y031910D01*
X009469Y031931D02*
X009059Y031931D01*
X009059Y031952D02*
X009469Y031952D01*
X009469Y031973D02*
X009059Y031973D01*
X009059Y031994D02*
X009469Y031994D01*
X009469Y032015D02*
X009059Y032015D01*
X009059Y032036D02*
X009469Y032036D01*
X009469Y032057D02*
X009059Y032057D01*
X009059Y032078D02*
X009469Y032078D01*
X009469Y032099D02*
X009059Y032099D01*
X009059Y032120D02*
X009469Y032120D01*
X009469Y032141D02*
X009059Y032141D01*
X009059Y032162D02*
X009469Y032162D01*
X009469Y032183D02*
X009059Y032183D01*
X009059Y032204D02*
X009469Y032204D01*
X009469Y032225D02*
X009059Y032225D01*
X008682Y031700D02*
X008272Y031700D01*
X008272Y032228D01*
X008682Y032228D01*
X008682Y031700D01*
X008682Y031721D02*
X008272Y031721D01*
X008272Y031742D02*
X008682Y031742D01*
X008682Y031763D02*
X008272Y031763D01*
X008272Y031784D02*
X008682Y031784D01*
X008682Y031805D02*
X008272Y031805D01*
X008272Y031826D02*
X008682Y031826D01*
X008682Y031847D02*
X008272Y031847D01*
X008272Y031868D02*
X008682Y031868D01*
X008682Y031889D02*
X008272Y031889D01*
X008272Y031910D02*
X008682Y031910D01*
X008682Y031931D02*
X008272Y031931D01*
X008272Y031952D02*
X008682Y031952D01*
X008682Y031973D02*
X008272Y031973D01*
X008272Y031994D02*
X008682Y031994D01*
X008682Y032015D02*
X008272Y032015D01*
X008272Y032036D02*
X008682Y032036D01*
X008682Y032057D02*
X008272Y032057D01*
X008272Y032078D02*
X008682Y032078D01*
X008682Y032099D02*
X008272Y032099D01*
X008272Y032120D02*
X008682Y032120D01*
X008682Y032141D02*
X008272Y032141D01*
X008272Y032162D02*
X008682Y032162D01*
X008682Y032183D02*
X008272Y032183D01*
X008272Y032204D02*
X008682Y032204D01*
X008682Y032225D02*
X008272Y032225D01*
X005414Y040890D02*
X005004Y040890D01*
X005414Y040890D02*
X005414Y040362D01*
X005004Y040362D01*
X005004Y040890D01*
X005004Y040383D02*
X005414Y040383D01*
X005414Y040404D02*
X005004Y040404D01*
X005004Y040425D02*
X005414Y040425D01*
X005414Y040446D02*
X005004Y040446D01*
X005004Y040467D02*
X005414Y040467D01*
X005414Y040488D02*
X005004Y040488D01*
X005004Y040509D02*
X005414Y040509D01*
X005414Y040530D02*
X005004Y040530D01*
X005004Y040551D02*
X005414Y040551D01*
X005414Y040572D02*
X005004Y040572D01*
X005004Y040593D02*
X005414Y040593D01*
X005414Y040614D02*
X005004Y040614D01*
X005004Y040635D02*
X005414Y040635D01*
X005414Y040656D02*
X005004Y040656D01*
X005004Y040677D02*
X005414Y040677D01*
X005414Y040698D02*
X005004Y040698D01*
X005004Y040719D02*
X005414Y040719D01*
X005414Y040740D02*
X005004Y040740D01*
X005004Y040761D02*
X005414Y040761D01*
X005414Y040782D02*
X005004Y040782D01*
X005004Y040803D02*
X005414Y040803D01*
X005414Y040824D02*
X005004Y040824D01*
X005004Y040845D02*
X005414Y040845D01*
X005414Y040866D02*
X005004Y040866D01*
X005004Y040887D02*
X005414Y040887D01*
X004627Y040890D02*
X004217Y040890D01*
X004627Y040890D02*
X004627Y040362D01*
X004217Y040362D01*
X004217Y040890D01*
X004217Y040383D02*
X004627Y040383D01*
X004627Y040404D02*
X004217Y040404D01*
X004217Y040425D02*
X004627Y040425D01*
X004627Y040446D02*
X004217Y040446D01*
X004217Y040467D02*
X004627Y040467D01*
X004627Y040488D02*
X004217Y040488D01*
X004217Y040509D02*
X004627Y040509D01*
X004627Y040530D02*
X004217Y040530D01*
X004217Y040551D02*
X004627Y040551D01*
X004627Y040572D02*
X004217Y040572D01*
X004217Y040593D02*
X004627Y040593D01*
X004627Y040614D02*
X004217Y040614D01*
X004217Y040635D02*
X004627Y040635D01*
X004627Y040656D02*
X004217Y040656D01*
X004217Y040677D02*
X004627Y040677D01*
X004627Y040698D02*
X004217Y040698D01*
X004217Y040719D02*
X004627Y040719D01*
X004627Y040740D02*
X004217Y040740D01*
X004217Y040761D02*
X004627Y040761D01*
X004627Y040782D02*
X004217Y040782D01*
X004217Y040803D02*
X004627Y040803D01*
X004627Y040824D02*
X004217Y040824D01*
X004217Y040845D02*
X004627Y040845D01*
X004627Y040866D02*
X004217Y040866D01*
X004217Y040887D02*
X004627Y040887D01*
X016933Y014299D02*
X017343Y014299D01*
X016933Y014299D02*
X016933Y014827D01*
X017343Y014827D01*
X017343Y014299D01*
X017343Y014320D02*
X016933Y014320D01*
X016933Y014341D02*
X017343Y014341D01*
X017343Y014362D02*
X016933Y014362D01*
X016933Y014383D02*
X017343Y014383D01*
X017343Y014404D02*
X016933Y014404D01*
X016933Y014425D02*
X017343Y014425D01*
X017343Y014446D02*
X016933Y014446D01*
X016933Y014467D02*
X017343Y014467D01*
X017343Y014488D02*
X016933Y014488D01*
X016933Y014509D02*
X017343Y014509D01*
X017343Y014530D02*
X016933Y014530D01*
X016933Y014551D02*
X017343Y014551D01*
X017343Y014572D02*
X016933Y014572D01*
X016933Y014593D02*
X017343Y014593D01*
X017343Y014614D02*
X016933Y014614D01*
X016933Y014635D02*
X017343Y014635D01*
X017343Y014656D02*
X016933Y014656D01*
X016933Y014677D02*
X017343Y014677D01*
X017343Y014698D02*
X016933Y014698D01*
X016933Y014719D02*
X017343Y014719D01*
X017343Y014740D02*
X016933Y014740D01*
X016933Y014761D02*
X017343Y014761D01*
X017343Y014782D02*
X016933Y014782D01*
X016933Y014803D02*
X017343Y014803D01*
X017343Y014824D02*
X016933Y014824D01*
X017721Y014299D02*
X018131Y014299D01*
X017721Y014299D02*
X017721Y014827D01*
X018131Y014827D01*
X018131Y014299D01*
X018131Y014320D02*
X017721Y014320D01*
X017721Y014341D02*
X018131Y014341D01*
X018131Y014362D02*
X017721Y014362D01*
X017721Y014383D02*
X018131Y014383D01*
X018131Y014404D02*
X017721Y014404D01*
X017721Y014425D02*
X018131Y014425D01*
X018131Y014446D02*
X017721Y014446D01*
X017721Y014467D02*
X018131Y014467D01*
X018131Y014488D02*
X017721Y014488D01*
X017721Y014509D02*
X018131Y014509D01*
X018131Y014530D02*
X017721Y014530D01*
X017721Y014551D02*
X018131Y014551D01*
X018131Y014572D02*
X017721Y014572D01*
X017721Y014593D02*
X018131Y014593D01*
X018131Y014614D02*
X017721Y014614D01*
X017721Y014635D02*
X018131Y014635D01*
X018131Y014656D02*
X017721Y014656D01*
X017721Y014677D02*
X018131Y014677D01*
X018131Y014698D02*
X017721Y014698D01*
X017721Y014719D02*
X018131Y014719D01*
X018131Y014740D02*
X017721Y014740D01*
X017721Y014761D02*
X018131Y014761D01*
X018131Y014782D02*
X017721Y014782D01*
X017721Y014803D02*
X018131Y014803D01*
X018131Y014824D02*
X017721Y014824D01*
X017681Y013843D02*
X018091Y013843D01*
X018091Y013315D01*
X017681Y013315D01*
X017681Y013843D01*
X017681Y013336D02*
X018091Y013336D01*
X018091Y013357D02*
X017681Y013357D01*
X017681Y013378D02*
X018091Y013378D01*
X018091Y013399D02*
X017681Y013399D01*
X017681Y013420D02*
X018091Y013420D01*
X018091Y013441D02*
X017681Y013441D01*
X017681Y013462D02*
X018091Y013462D01*
X018091Y013483D02*
X017681Y013483D01*
X017681Y013504D02*
X018091Y013504D01*
X018091Y013525D02*
X017681Y013525D01*
X017681Y013546D02*
X018091Y013546D01*
X018091Y013567D02*
X017681Y013567D01*
X017681Y013588D02*
X018091Y013588D01*
X018091Y013609D02*
X017681Y013609D01*
X017681Y013630D02*
X018091Y013630D01*
X018091Y013651D02*
X017681Y013651D01*
X017681Y013672D02*
X018091Y013672D01*
X018091Y013693D02*
X017681Y013693D01*
X017681Y013714D02*
X018091Y013714D01*
X018091Y013735D02*
X017681Y013735D01*
X017681Y013756D02*
X018091Y013756D01*
X018091Y013777D02*
X017681Y013777D01*
X017681Y013798D02*
X018091Y013798D01*
X018091Y013819D02*
X017681Y013819D01*
X017681Y013840D02*
X018091Y013840D01*
X017304Y013843D02*
X016894Y013843D01*
X017304Y013843D02*
X017304Y013315D01*
X016894Y013315D01*
X016894Y013843D01*
X016894Y013336D02*
X017304Y013336D01*
X017304Y013357D02*
X016894Y013357D01*
X016894Y013378D02*
X017304Y013378D01*
X017304Y013399D02*
X016894Y013399D01*
X016894Y013420D02*
X017304Y013420D01*
X017304Y013441D02*
X016894Y013441D01*
X016894Y013462D02*
X017304Y013462D01*
X017304Y013483D02*
X016894Y013483D01*
X016894Y013504D02*
X017304Y013504D01*
X017304Y013525D02*
X016894Y013525D01*
X016894Y013546D02*
X017304Y013546D01*
X017304Y013567D02*
X016894Y013567D01*
X016894Y013588D02*
X017304Y013588D01*
X017304Y013609D02*
X016894Y013609D01*
X016894Y013630D02*
X017304Y013630D01*
X017304Y013651D02*
X016894Y013651D01*
X016894Y013672D02*
X017304Y013672D01*
X017304Y013693D02*
X016894Y013693D01*
X016894Y013714D02*
X017304Y013714D01*
X017304Y013735D02*
X016894Y013735D01*
X016894Y013756D02*
X017304Y013756D01*
X017304Y013777D02*
X016894Y013777D01*
X016894Y013798D02*
X017304Y013798D01*
X017304Y013819D02*
X016894Y013819D01*
X016894Y013840D02*
X017304Y013840D01*
X045988Y020693D02*
X046398Y020693D01*
X046398Y020165D01*
X045988Y020165D01*
X045988Y020693D01*
X045988Y020186D02*
X046398Y020186D01*
X046398Y020207D02*
X045988Y020207D01*
X045988Y020228D02*
X046398Y020228D01*
X046398Y020249D02*
X045988Y020249D01*
X045988Y020270D02*
X046398Y020270D01*
X046398Y020291D02*
X045988Y020291D01*
X045988Y020312D02*
X046398Y020312D01*
X046398Y020333D02*
X045988Y020333D01*
X045988Y020354D02*
X046398Y020354D01*
X046398Y020375D02*
X045988Y020375D01*
X045988Y020396D02*
X046398Y020396D01*
X046398Y020417D02*
X045988Y020417D01*
X045988Y020438D02*
X046398Y020438D01*
X046398Y020459D02*
X045988Y020459D01*
X045988Y020480D02*
X046398Y020480D01*
X046398Y020501D02*
X045988Y020501D01*
X045988Y020522D02*
X046398Y020522D01*
X046398Y020543D02*
X045988Y020543D01*
X045988Y020564D02*
X046398Y020564D01*
X046398Y020585D02*
X045988Y020585D01*
X045988Y020606D02*
X046398Y020606D01*
X046398Y020627D02*
X045988Y020627D01*
X045988Y020648D02*
X046398Y020648D01*
X046398Y020669D02*
X045988Y020669D01*
X045988Y020690D02*
X046398Y020690D01*
X046776Y020693D02*
X047186Y020693D01*
X047186Y020165D01*
X046776Y020165D01*
X046776Y020693D01*
X046776Y020186D02*
X047186Y020186D01*
X047186Y020207D02*
X046776Y020207D01*
X046776Y020228D02*
X047186Y020228D01*
X047186Y020249D02*
X046776Y020249D01*
X046776Y020270D02*
X047186Y020270D01*
X047186Y020291D02*
X046776Y020291D01*
X046776Y020312D02*
X047186Y020312D01*
X047186Y020333D02*
X046776Y020333D01*
X046776Y020354D02*
X047186Y020354D01*
X047186Y020375D02*
X046776Y020375D01*
X046776Y020396D02*
X047186Y020396D01*
X047186Y020417D02*
X046776Y020417D01*
X046776Y020438D02*
X047186Y020438D01*
X047186Y020459D02*
X046776Y020459D01*
X046776Y020480D02*
X047186Y020480D01*
X047186Y020501D02*
X046776Y020501D01*
X046776Y020522D02*
X047186Y020522D01*
X047186Y020543D02*
X046776Y020543D01*
X046776Y020564D02*
X047186Y020564D01*
X047186Y020585D02*
X046776Y020585D01*
X046776Y020606D02*
X047186Y020606D01*
X047186Y020627D02*
X046776Y020627D01*
X046776Y020648D02*
X047186Y020648D01*
X047186Y020669D02*
X046776Y020669D01*
X046776Y020690D02*
X047186Y020690D01*
D13*
X012190Y015525D02*
X012190Y015107D01*
X011522Y015107D01*
X011522Y015525D01*
X012190Y015525D01*
X012190Y015128D02*
X011522Y015128D01*
X011522Y015149D02*
X012190Y015149D01*
X012190Y015170D02*
X011522Y015170D01*
X011522Y015191D02*
X012190Y015191D01*
X012190Y015212D02*
X011522Y015212D01*
X011522Y015233D02*
X012190Y015233D01*
X012190Y015254D02*
X011522Y015254D01*
X011522Y015275D02*
X012190Y015275D01*
X012190Y015296D02*
X011522Y015296D01*
X011522Y015317D02*
X012190Y015317D01*
X012190Y015338D02*
X011522Y015338D01*
X011522Y015359D02*
X012190Y015359D01*
X012190Y015380D02*
X011522Y015380D01*
X011522Y015401D02*
X012190Y015401D01*
X012190Y015422D02*
X011522Y015422D01*
X011522Y015443D02*
X012190Y015443D01*
X012190Y015464D02*
X011522Y015464D01*
X011522Y015485D02*
X012190Y015485D01*
X012190Y015506D02*
X011522Y015506D01*
X012190Y014365D02*
X012190Y013947D01*
X011522Y013947D01*
X011522Y014365D01*
X012190Y014365D01*
X012190Y013968D02*
X011522Y013968D01*
X011522Y013989D02*
X012190Y013989D01*
X012190Y014010D02*
X011522Y014010D01*
X011522Y014031D02*
X012190Y014031D01*
X012190Y014052D02*
X011522Y014052D01*
X011522Y014073D02*
X012190Y014073D01*
X012190Y014094D02*
X011522Y014094D01*
X011522Y014115D02*
X012190Y014115D01*
X012190Y014136D02*
X011522Y014136D01*
X011522Y014157D02*
X012190Y014157D01*
X012190Y014178D02*
X011522Y014178D01*
X011522Y014199D02*
X012190Y014199D01*
X012190Y014220D02*
X011522Y014220D01*
X011522Y014241D02*
X012190Y014241D01*
X012190Y014262D02*
X011522Y014262D01*
X011522Y014283D02*
X012190Y014283D01*
X012190Y014304D02*
X011522Y014304D01*
X011522Y014325D02*
X012190Y014325D01*
X012190Y014346D02*
X011522Y014346D01*
D14*
X023589Y040097D02*
X023829Y040097D01*
X023589Y040097D02*
X023589Y040447D01*
X023829Y040447D01*
X023829Y040097D01*
X023829Y040117D02*
X023589Y040117D01*
X023589Y040137D02*
X023829Y040137D01*
X023829Y040157D02*
X023589Y040157D01*
X023589Y040177D02*
X023829Y040177D01*
X023829Y040197D02*
X023589Y040197D01*
X023589Y040217D02*
X023829Y040217D01*
X023829Y040237D02*
X023589Y040237D01*
X023589Y040257D02*
X023829Y040257D01*
X023829Y040277D02*
X023589Y040277D01*
X023589Y040297D02*
X023829Y040297D01*
X023829Y040317D02*
X023589Y040317D01*
X023589Y040337D02*
X023829Y040337D01*
X023829Y040357D02*
X023589Y040357D01*
X023589Y040377D02*
X023829Y040377D01*
X023829Y040397D02*
X023589Y040397D01*
X023589Y040417D02*
X023829Y040417D01*
X023829Y040437D02*
X023589Y040437D01*
X024149Y040097D02*
X024389Y040097D01*
X024149Y040097D02*
X024149Y040447D01*
X024389Y040447D01*
X024389Y040097D01*
X024389Y040117D02*
X024149Y040117D01*
X024149Y040137D02*
X024389Y040137D01*
X024389Y040157D02*
X024149Y040157D01*
X024149Y040177D02*
X024389Y040177D01*
X024389Y040197D02*
X024149Y040197D01*
X024149Y040217D02*
X024389Y040217D01*
X024389Y040237D02*
X024149Y040237D01*
X024149Y040257D02*
X024389Y040257D01*
X024389Y040277D02*
X024149Y040277D01*
X024149Y040297D02*
X024389Y040297D01*
X024389Y040317D02*
X024149Y040317D01*
X024149Y040337D02*
X024389Y040337D01*
X024389Y040357D02*
X024149Y040357D01*
X024149Y040377D02*
X024389Y040377D01*
X024389Y040397D02*
X024149Y040397D01*
X024149Y040417D02*
X024389Y040417D01*
X024389Y040437D02*
X024149Y040437D01*
X043024Y012305D02*
X043264Y012305D01*
X043264Y011525D01*
X043024Y011525D01*
X043024Y012305D01*
X043024Y011545D02*
X043264Y011545D01*
X043264Y011565D02*
X043024Y011565D01*
X043024Y011585D02*
X043264Y011585D01*
X043264Y011605D02*
X043024Y011605D01*
X043024Y011625D02*
X043264Y011625D01*
X043264Y011645D02*
X043024Y011645D01*
X043024Y011665D02*
X043264Y011665D01*
X043264Y011685D02*
X043024Y011685D01*
X043024Y011705D02*
X043264Y011705D01*
X043264Y011725D02*
X043024Y011725D01*
X043024Y011745D02*
X043264Y011745D01*
X043264Y011765D02*
X043024Y011765D01*
X043024Y011785D02*
X043264Y011785D01*
X043264Y011805D02*
X043024Y011805D01*
X043024Y011825D02*
X043264Y011825D01*
X043264Y011845D02*
X043024Y011845D01*
X043024Y011865D02*
X043264Y011865D01*
X043264Y011885D02*
X043024Y011885D01*
X043024Y011905D02*
X043264Y011905D01*
X043264Y011925D02*
X043024Y011925D01*
X043024Y011945D02*
X043264Y011945D01*
X043264Y011965D02*
X043024Y011965D01*
X043024Y011985D02*
X043264Y011985D01*
X043264Y012005D02*
X043024Y012005D01*
X043024Y012025D02*
X043264Y012025D01*
X043264Y012045D02*
X043024Y012045D01*
X043024Y012065D02*
X043264Y012065D01*
X043264Y012085D02*
X043024Y012085D01*
X043024Y012105D02*
X043264Y012105D01*
X043264Y012125D02*
X043024Y012125D01*
X043024Y012145D02*
X043264Y012145D01*
X043264Y012165D02*
X043024Y012165D01*
X043024Y012185D02*
X043264Y012185D01*
X043264Y012205D02*
X043024Y012205D01*
X043024Y012225D02*
X043264Y012225D01*
X043264Y012245D02*
X043024Y012245D01*
X043024Y012265D02*
X043264Y012265D01*
X043264Y012285D02*
X043024Y012285D01*
X043024Y012305D02*
X043264Y012305D01*
X043524Y012305D02*
X043764Y012305D01*
X043764Y011525D01*
X043524Y011525D01*
X043524Y012305D01*
X043524Y011545D02*
X043764Y011545D01*
X043764Y011565D02*
X043524Y011565D01*
X043524Y011585D02*
X043764Y011585D01*
X043764Y011605D02*
X043524Y011605D01*
X043524Y011625D02*
X043764Y011625D01*
X043764Y011645D02*
X043524Y011645D01*
X043524Y011665D02*
X043764Y011665D01*
X043764Y011685D02*
X043524Y011685D01*
X043524Y011705D02*
X043764Y011705D01*
X043764Y011725D02*
X043524Y011725D01*
X043524Y011745D02*
X043764Y011745D01*
X043764Y011765D02*
X043524Y011765D01*
X043524Y011785D02*
X043764Y011785D01*
X043764Y011805D02*
X043524Y011805D01*
X043524Y011825D02*
X043764Y011825D01*
X043764Y011845D02*
X043524Y011845D01*
X043524Y011865D02*
X043764Y011865D01*
X043764Y011885D02*
X043524Y011885D01*
X043524Y011905D02*
X043764Y011905D01*
X043764Y011925D02*
X043524Y011925D01*
X043524Y011945D02*
X043764Y011945D01*
X043764Y011965D02*
X043524Y011965D01*
X043524Y011985D02*
X043764Y011985D01*
X043764Y012005D02*
X043524Y012005D01*
X043524Y012025D02*
X043764Y012025D01*
X043764Y012045D02*
X043524Y012045D01*
X043524Y012065D02*
X043764Y012065D01*
X043764Y012085D02*
X043524Y012085D01*
X043524Y012105D02*
X043764Y012105D01*
X043764Y012125D02*
X043524Y012125D01*
X043524Y012145D02*
X043764Y012145D01*
X043764Y012165D02*
X043524Y012165D01*
X043524Y012185D02*
X043764Y012185D01*
X043764Y012205D02*
X043524Y012205D01*
X043524Y012225D02*
X043764Y012225D01*
X043764Y012245D02*
X043524Y012245D01*
X043524Y012265D02*
X043764Y012265D01*
X043764Y012285D02*
X043524Y012285D01*
X043524Y012305D02*
X043764Y012305D01*
X044024Y012305D02*
X044264Y012305D01*
X044264Y011525D01*
X044024Y011525D01*
X044024Y012305D01*
X044024Y011545D02*
X044264Y011545D01*
X044264Y011565D02*
X044024Y011565D01*
X044024Y011585D02*
X044264Y011585D01*
X044264Y011605D02*
X044024Y011605D01*
X044024Y011625D02*
X044264Y011625D01*
X044264Y011645D02*
X044024Y011645D01*
X044024Y011665D02*
X044264Y011665D01*
X044264Y011685D02*
X044024Y011685D01*
X044024Y011705D02*
X044264Y011705D01*
X044264Y011725D02*
X044024Y011725D01*
X044024Y011745D02*
X044264Y011745D01*
X044264Y011765D02*
X044024Y011765D01*
X044024Y011785D02*
X044264Y011785D01*
X044264Y011805D02*
X044024Y011805D01*
X044024Y011825D02*
X044264Y011825D01*
X044264Y011845D02*
X044024Y011845D01*
X044024Y011865D02*
X044264Y011865D01*
X044264Y011885D02*
X044024Y011885D01*
X044024Y011905D02*
X044264Y011905D01*
X044264Y011925D02*
X044024Y011925D01*
X044024Y011945D02*
X044264Y011945D01*
X044264Y011965D02*
X044024Y011965D01*
X044024Y011985D02*
X044264Y011985D01*
X044264Y012005D02*
X044024Y012005D01*
X044024Y012025D02*
X044264Y012025D01*
X044264Y012045D02*
X044024Y012045D01*
X044024Y012065D02*
X044264Y012065D01*
X044264Y012085D02*
X044024Y012085D01*
X044024Y012105D02*
X044264Y012105D01*
X044264Y012125D02*
X044024Y012125D01*
X044024Y012145D02*
X044264Y012145D01*
X044264Y012165D02*
X044024Y012165D01*
X044024Y012185D02*
X044264Y012185D01*
X044264Y012205D02*
X044024Y012205D01*
X044024Y012225D02*
X044264Y012225D01*
X044264Y012245D02*
X044024Y012245D01*
X044024Y012265D02*
X044264Y012265D01*
X044264Y012285D02*
X044024Y012285D01*
X044024Y012305D02*
X044264Y012305D01*
X044524Y012305D02*
X044764Y012305D01*
X044764Y011525D01*
X044524Y011525D01*
X044524Y012305D01*
X044524Y011545D02*
X044764Y011545D01*
X044764Y011565D02*
X044524Y011565D01*
X044524Y011585D02*
X044764Y011585D01*
X044764Y011605D02*
X044524Y011605D01*
X044524Y011625D02*
X044764Y011625D01*
X044764Y011645D02*
X044524Y011645D01*
X044524Y011665D02*
X044764Y011665D01*
X044764Y011685D02*
X044524Y011685D01*
X044524Y011705D02*
X044764Y011705D01*
X044764Y011725D02*
X044524Y011725D01*
X044524Y011745D02*
X044764Y011745D01*
X044764Y011765D02*
X044524Y011765D01*
X044524Y011785D02*
X044764Y011785D01*
X044764Y011805D02*
X044524Y011805D01*
X044524Y011825D02*
X044764Y011825D01*
X044764Y011845D02*
X044524Y011845D01*
X044524Y011865D02*
X044764Y011865D01*
X044764Y011885D02*
X044524Y011885D01*
X044524Y011905D02*
X044764Y011905D01*
X044764Y011925D02*
X044524Y011925D01*
X044524Y011945D02*
X044764Y011945D01*
X044764Y011965D02*
X044524Y011965D01*
X044524Y011985D02*
X044764Y011985D01*
X044764Y012005D02*
X044524Y012005D01*
X044524Y012025D02*
X044764Y012025D01*
X044764Y012045D02*
X044524Y012045D01*
X044524Y012065D02*
X044764Y012065D01*
X044764Y012085D02*
X044524Y012085D01*
X044524Y012105D02*
X044764Y012105D01*
X044764Y012125D02*
X044524Y012125D01*
X044524Y012145D02*
X044764Y012145D01*
X044764Y012165D02*
X044524Y012165D01*
X044524Y012185D02*
X044764Y012185D01*
X044764Y012205D02*
X044524Y012205D01*
X044524Y012225D02*
X044764Y012225D01*
X044764Y012245D02*
X044524Y012245D01*
X044524Y012265D02*
X044764Y012265D01*
X044764Y012285D02*
X044524Y012285D01*
X044524Y012305D02*
X044764Y012305D01*
X045024Y012305D02*
X045264Y012305D01*
X045264Y011525D01*
X045024Y011525D01*
X045024Y012305D01*
X045024Y011545D02*
X045264Y011545D01*
X045264Y011565D02*
X045024Y011565D01*
X045024Y011585D02*
X045264Y011585D01*
X045264Y011605D02*
X045024Y011605D01*
X045024Y011625D02*
X045264Y011625D01*
X045264Y011645D02*
X045024Y011645D01*
X045024Y011665D02*
X045264Y011665D01*
X045264Y011685D02*
X045024Y011685D01*
X045024Y011705D02*
X045264Y011705D01*
X045264Y011725D02*
X045024Y011725D01*
X045024Y011745D02*
X045264Y011745D01*
X045264Y011765D02*
X045024Y011765D01*
X045024Y011785D02*
X045264Y011785D01*
X045264Y011805D02*
X045024Y011805D01*
X045024Y011825D02*
X045264Y011825D01*
X045264Y011845D02*
X045024Y011845D01*
X045024Y011865D02*
X045264Y011865D01*
X045264Y011885D02*
X045024Y011885D01*
X045024Y011905D02*
X045264Y011905D01*
X045264Y011925D02*
X045024Y011925D01*
X045024Y011945D02*
X045264Y011945D01*
X045264Y011965D02*
X045024Y011965D01*
X045024Y011985D02*
X045264Y011985D01*
X045264Y012005D02*
X045024Y012005D01*
X045024Y012025D02*
X045264Y012025D01*
X045264Y012045D02*
X045024Y012045D01*
X045024Y012065D02*
X045264Y012065D01*
X045264Y012085D02*
X045024Y012085D01*
X045024Y012105D02*
X045264Y012105D01*
X045264Y012125D02*
X045024Y012125D01*
X045024Y012145D02*
X045264Y012145D01*
X045264Y012165D02*
X045024Y012165D01*
X045024Y012185D02*
X045264Y012185D01*
X045264Y012205D02*
X045024Y012205D01*
X045024Y012225D02*
X045264Y012225D01*
X045264Y012245D02*
X045024Y012245D01*
X045024Y012265D02*
X045264Y012265D01*
X045264Y012285D02*
X045024Y012285D01*
X045024Y012305D02*
X045264Y012305D01*
X045524Y012305D02*
X045764Y012305D01*
X045764Y011525D01*
X045524Y011525D01*
X045524Y012305D01*
X045524Y011545D02*
X045764Y011545D01*
X045764Y011565D02*
X045524Y011565D01*
X045524Y011585D02*
X045764Y011585D01*
X045764Y011605D02*
X045524Y011605D01*
X045524Y011625D02*
X045764Y011625D01*
X045764Y011645D02*
X045524Y011645D01*
X045524Y011665D02*
X045764Y011665D01*
X045764Y011685D02*
X045524Y011685D01*
X045524Y011705D02*
X045764Y011705D01*
X045764Y011725D02*
X045524Y011725D01*
X045524Y011745D02*
X045764Y011745D01*
X045764Y011765D02*
X045524Y011765D01*
X045524Y011785D02*
X045764Y011785D01*
X045764Y011805D02*
X045524Y011805D01*
X045524Y011825D02*
X045764Y011825D01*
X045764Y011845D02*
X045524Y011845D01*
X045524Y011865D02*
X045764Y011865D01*
X045764Y011885D02*
X045524Y011885D01*
X045524Y011905D02*
X045764Y011905D01*
X045764Y011925D02*
X045524Y011925D01*
X045524Y011945D02*
X045764Y011945D01*
X045764Y011965D02*
X045524Y011965D01*
X045524Y011985D02*
X045764Y011985D01*
X045764Y012005D02*
X045524Y012005D01*
X045524Y012025D02*
X045764Y012025D01*
X045764Y012045D02*
X045524Y012045D01*
X045524Y012065D02*
X045764Y012065D01*
X045764Y012085D02*
X045524Y012085D01*
X045524Y012105D02*
X045764Y012105D01*
X045764Y012125D02*
X045524Y012125D01*
X045524Y012145D02*
X045764Y012145D01*
X045764Y012165D02*
X045524Y012165D01*
X045524Y012185D02*
X045764Y012185D01*
X045764Y012205D02*
X045524Y012205D01*
X045524Y012225D02*
X045764Y012225D01*
X045764Y012245D02*
X045524Y012245D01*
X045524Y012265D02*
X045764Y012265D01*
X045764Y012285D02*
X045524Y012285D01*
X045524Y012305D02*
X045764Y012305D01*
X046024Y012305D02*
X046264Y012305D01*
X046264Y011525D01*
X046024Y011525D01*
X046024Y012305D01*
X046024Y011545D02*
X046264Y011545D01*
X046264Y011565D02*
X046024Y011565D01*
X046024Y011585D02*
X046264Y011585D01*
X046264Y011605D02*
X046024Y011605D01*
X046024Y011625D02*
X046264Y011625D01*
X046264Y011645D02*
X046024Y011645D01*
X046024Y011665D02*
X046264Y011665D01*
X046264Y011685D02*
X046024Y011685D01*
X046024Y011705D02*
X046264Y011705D01*
X046264Y011725D02*
X046024Y011725D01*
X046024Y011745D02*
X046264Y011745D01*
X046264Y011765D02*
X046024Y011765D01*
X046024Y011785D02*
X046264Y011785D01*
X046264Y011805D02*
X046024Y011805D01*
X046024Y011825D02*
X046264Y011825D01*
X046264Y011845D02*
X046024Y011845D01*
X046024Y011865D02*
X046264Y011865D01*
X046264Y011885D02*
X046024Y011885D01*
X046024Y011905D02*
X046264Y011905D01*
X046264Y011925D02*
X046024Y011925D01*
X046024Y011945D02*
X046264Y011945D01*
X046264Y011965D02*
X046024Y011965D01*
X046024Y011985D02*
X046264Y011985D01*
X046264Y012005D02*
X046024Y012005D01*
X046024Y012025D02*
X046264Y012025D01*
X046264Y012045D02*
X046024Y012045D01*
X046024Y012065D02*
X046264Y012065D01*
X046264Y012085D02*
X046024Y012085D01*
X046024Y012105D02*
X046264Y012105D01*
X046264Y012125D02*
X046024Y012125D01*
X046024Y012145D02*
X046264Y012145D01*
X046264Y012165D02*
X046024Y012165D01*
X046024Y012185D02*
X046264Y012185D01*
X046264Y012205D02*
X046024Y012205D01*
X046024Y012225D02*
X046264Y012225D01*
X046264Y012245D02*
X046024Y012245D01*
X046024Y012265D02*
X046264Y012265D01*
X046264Y012285D02*
X046024Y012285D01*
X046024Y012305D02*
X046264Y012305D01*
X046524Y012305D02*
X046764Y012305D01*
X046764Y011525D01*
X046524Y011525D01*
X046524Y012305D01*
X046524Y011545D02*
X046764Y011545D01*
X046764Y011565D02*
X046524Y011565D01*
X046524Y011585D02*
X046764Y011585D01*
X046764Y011605D02*
X046524Y011605D01*
X046524Y011625D02*
X046764Y011625D01*
X046764Y011645D02*
X046524Y011645D01*
X046524Y011665D02*
X046764Y011665D01*
X046764Y011685D02*
X046524Y011685D01*
X046524Y011705D02*
X046764Y011705D01*
X046764Y011725D02*
X046524Y011725D01*
X046524Y011745D02*
X046764Y011745D01*
X046764Y011765D02*
X046524Y011765D01*
X046524Y011785D02*
X046764Y011785D01*
X046764Y011805D02*
X046524Y011805D01*
X046524Y011825D02*
X046764Y011825D01*
X046764Y011845D02*
X046524Y011845D01*
X046524Y011865D02*
X046764Y011865D01*
X046764Y011885D02*
X046524Y011885D01*
X046524Y011905D02*
X046764Y011905D01*
X046764Y011925D02*
X046524Y011925D01*
X046524Y011945D02*
X046764Y011945D01*
X046764Y011965D02*
X046524Y011965D01*
X046524Y011985D02*
X046764Y011985D01*
X046764Y012005D02*
X046524Y012005D01*
X046524Y012025D02*
X046764Y012025D01*
X046764Y012045D02*
X046524Y012045D01*
X046524Y012065D02*
X046764Y012065D01*
X046764Y012085D02*
X046524Y012085D01*
X046524Y012105D02*
X046764Y012105D01*
X046764Y012125D02*
X046524Y012125D01*
X046524Y012145D02*
X046764Y012145D01*
X046764Y012165D02*
X046524Y012165D01*
X046524Y012185D02*
X046764Y012185D01*
X046764Y012205D02*
X046524Y012205D01*
X046524Y012225D02*
X046764Y012225D01*
X046764Y012245D02*
X046524Y012245D01*
X046524Y012265D02*
X046764Y012265D01*
X046764Y012285D02*
X046524Y012285D01*
X046524Y012305D02*
X046764Y012305D01*
X046764Y009885D02*
X046524Y009885D01*
X046764Y009885D02*
X046764Y009105D01*
X046524Y009105D01*
X046524Y009885D01*
X046524Y009125D02*
X046764Y009125D01*
X046764Y009145D02*
X046524Y009145D01*
X046524Y009165D02*
X046764Y009165D01*
X046764Y009185D02*
X046524Y009185D01*
X046524Y009205D02*
X046764Y009205D01*
X046764Y009225D02*
X046524Y009225D01*
X046524Y009245D02*
X046764Y009245D01*
X046764Y009265D02*
X046524Y009265D01*
X046524Y009285D02*
X046764Y009285D01*
X046764Y009305D02*
X046524Y009305D01*
X046524Y009325D02*
X046764Y009325D01*
X046764Y009345D02*
X046524Y009345D01*
X046524Y009365D02*
X046764Y009365D01*
X046764Y009385D02*
X046524Y009385D01*
X046524Y009405D02*
X046764Y009405D01*
X046764Y009425D02*
X046524Y009425D01*
X046524Y009445D02*
X046764Y009445D01*
X046764Y009465D02*
X046524Y009465D01*
X046524Y009485D02*
X046764Y009485D01*
X046764Y009505D02*
X046524Y009505D01*
X046524Y009525D02*
X046764Y009525D01*
X046764Y009545D02*
X046524Y009545D01*
X046524Y009565D02*
X046764Y009565D01*
X046764Y009585D02*
X046524Y009585D01*
X046524Y009605D02*
X046764Y009605D01*
X046764Y009625D02*
X046524Y009625D01*
X046524Y009645D02*
X046764Y009645D01*
X046764Y009665D02*
X046524Y009665D01*
X046524Y009685D02*
X046764Y009685D01*
X046764Y009705D02*
X046524Y009705D01*
X046524Y009725D02*
X046764Y009725D01*
X046764Y009745D02*
X046524Y009745D01*
X046524Y009765D02*
X046764Y009765D01*
X046764Y009785D02*
X046524Y009785D01*
X046524Y009805D02*
X046764Y009805D01*
X046764Y009825D02*
X046524Y009825D01*
X046524Y009845D02*
X046764Y009845D01*
X046764Y009865D02*
X046524Y009865D01*
X046524Y009885D02*
X046764Y009885D01*
X046264Y009885D02*
X046024Y009885D01*
X046264Y009885D02*
X046264Y009105D01*
X046024Y009105D01*
X046024Y009885D01*
X046024Y009125D02*
X046264Y009125D01*
X046264Y009145D02*
X046024Y009145D01*
X046024Y009165D02*
X046264Y009165D01*
X046264Y009185D02*
X046024Y009185D01*
X046024Y009205D02*
X046264Y009205D01*
X046264Y009225D02*
X046024Y009225D01*
X046024Y009245D02*
X046264Y009245D01*
X046264Y009265D02*
X046024Y009265D01*
X046024Y009285D02*
X046264Y009285D01*
X046264Y009305D02*
X046024Y009305D01*
X046024Y009325D02*
X046264Y009325D01*
X046264Y009345D02*
X046024Y009345D01*
X046024Y009365D02*
X046264Y009365D01*
X046264Y009385D02*
X046024Y009385D01*
X046024Y009405D02*
X046264Y009405D01*
X046264Y009425D02*
X046024Y009425D01*
X046024Y009445D02*
X046264Y009445D01*
X046264Y009465D02*
X046024Y009465D01*
X046024Y009485D02*
X046264Y009485D01*
X046264Y009505D02*
X046024Y009505D01*
X046024Y009525D02*
X046264Y009525D01*
X046264Y009545D02*
X046024Y009545D01*
X046024Y009565D02*
X046264Y009565D01*
X046264Y009585D02*
X046024Y009585D01*
X046024Y009605D02*
X046264Y009605D01*
X046264Y009625D02*
X046024Y009625D01*
X046024Y009645D02*
X046264Y009645D01*
X046264Y009665D02*
X046024Y009665D01*
X046024Y009685D02*
X046264Y009685D01*
X046264Y009705D02*
X046024Y009705D01*
X046024Y009725D02*
X046264Y009725D01*
X046264Y009745D02*
X046024Y009745D01*
X046024Y009765D02*
X046264Y009765D01*
X046264Y009785D02*
X046024Y009785D01*
X046024Y009805D02*
X046264Y009805D01*
X046264Y009825D02*
X046024Y009825D01*
X046024Y009845D02*
X046264Y009845D01*
X046264Y009865D02*
X046024Y009865D01*
X046024Y009885D02*
X046264Y009885D01*
X045764Y009885D02*
X045524Y009885D01*
X045764Y009885D02*
X045764Y009105D01*
X045524Y009105D01*
X045524Y009885D01*
X045524Y009125D02*
X045764Y009125D01*
X045764Y009145D02*
X045524Y009145D01*
X045524Y009165D02*
X045764Y009165D01*
X045764Y009185D02*
X045524Y009185D01*
X045524Y009205D02*
X045764Y009205D01*
X045764Y009225D02*
X045524Y009225D01*
X045524Y009245D02*
X045764Y009245D01*
X045764Y009265D02*
X045524Y009265D01*
X045524Y009285D02*
X045764Y009285D01*
X045764Y009305D02*
X045524Y009305D01*
X045524Y009325D02*
X045764Y009325D01*
X045764Y009345D02*
X045524Y009345D01*
X045524Y009365D02*
X045764Y009365D01*
X045764Y009385D02*
X045524Y009385D01*
X045524Y009405D02*
X045764Y009405D01*
X045764Y009425D02*
X045524Y009425D01*
X045524Y009445D02*
X045764Y009445D01*
X045764Y009465D02*
X045524Y009465D01*
X045524Y009485D02*
X045764Y009485D01*
X045764Y009505D02*
X045524Y009505D01*
X045524Y009525D02*
X045764Y009525D01*
X045764Y009545D02*
X045524Y009545D01*
X045524Y009565D02*
X045764Y009565D01*
X045764Y009585D02*
X045524Y009585D01*
X045524Y009605D02*
X045764Y009605D01*
X045764Y009625D02*
X045524Y009625D01*
X045524Y009645D02*
X045764Y009645D01*
X045764Y009665D02*
X045524Y009665D01*
X045524Y009685D02*
X045764Y009685D01*
X045764Y009705D02*
X045524Y009705D01*
X045524Y009725D02*
X045764Y009725D01*
X045764Y009745D02*
X045524Y009745D01*
X045524Y009765D02*
X045764Y009765D01*
X045764Y009785D02*
X045524Y009785D01*
X045524Y009805D02*
X045764Y009805D01*
X045764Y009825D02*
X045524Y009825D01*
X045524Y009845D02*
X045764Y009845D01*
X045764Y009865D02*
X045524Y009865D01*
X045524Y009885D02*
X045764Y009885D01*
X045264Y009885D02*
X045024Y009885D01*
X045264Y009885D02*
X045264Y009105D01*
X045024Y009105D01*
X045024Y009885D01*
X045024Y009125D02*
X045264Y009125D01*
X045264Y009145D02*
X045024Y009145D01*
X045024Y009165D02*
X045264Y009165D01*
X045264Y009185D02*
X045024Y009185D01*
X045024Y009205D02*
X045264Y009205D01*
X045264Y009225D02*
X045024Y009225D01*
X045024Y009245D02*
X045264Y009245D01*
X045264Y009265D02*
X045024Y009265D01*
X045024Y009285D02*
X045264Y009285D01*
X045264Y009305D02*
X045024Y009305D01*
X045024Y009325D02*
X045264Y009325D01*
X045264Y009345D02*
X045024Y009345D01*
X045024Y009365D02*
X045264Y009365D01*
X045264Y009385D02*
X045024Y009385D01*
X045024Y009405D02*
X045264Y009405D01*
X045264Y009425D02*
X045024Y009425D01*
X045024Y009445D02*
X045264Y009445D01*
X045264Y009465D02*
X045024Y009465D01*
X045024Y009485D02*
X045264Y009485D01*
X045264Y009505D02*
X045024Y009505D01*
X045024Y009525D02*
X045264Y009525D01*
X045264Y009545D02*
X045024Y009545D01*
X045024Y009565D02*
X045264Y009565D01*
X045264Y009585D02*
X045024Y009585D01*
X045024Y009605D02*
X045264Y009605D01*
X045264Y009625D02*
X045024Y009625D01*
X045024Y009645D02*
X045264Y009645D01*
X045264Y009665D02*
X045024Y009665D01*
X045024Y009685D02*
X045264Y009685D01*
X045264Y009705D02*
X045024Y009705D01*
X045024Y009725D02*
X045264Y009725D01*
X045264Y009745D02*
X045024Y009745D01*
X045024Y009765D02*
X045264Y009765D01*
X045264Y009785D02*
X045024Y009785D01*
X045024Y009805D02*
X045264Y009805D01*
X045264Y009825D02*
X045024Y009825D01*
X045024Y009845D02*
X045264Y009845D01*
X045264Y009865D02*
X045024Y009865D01*
X045024Y009885D02*
X045264Y009885D01*
X044764Y009885D02*
X044524Y009885D01*
X044764Y009885D02*
X044764Y009105D01*
X044524Y009105D01*
X044524Y009885D01*
X044524Y009125D02*
X044764Y009125D01*
X044764Y009145D02*
X044524Y009145D01*
X044524Y009165D02*
X044764Y009165D01*
X044764Y009185D02*
X044524Y009185D01*
X044524Y009205D02*
X044764Y009205D01*
X044764Y009225D02*
X044524Y009225D01*
X044524Y009245D02*
X044764Y009245D01*
X044764Y009265D02*
X044524Y009265D01*
X044524Y009285D02*
X044764Y009285D01*
X044764Y009305D02*
X044524Y009305D01*
X044524Y009325D02*
X044764Y009325D01*
X044764Y009345D02*
X044524Y009345D01*
X044524Y009365D02*
X044764Y009365D01*
X044764Y009385D02*
X044524Y009385D01*
X044524Y009405D02*
X044764Y009405D01*
X044764Y009425D02*
X044524Y009425D01*
X044524Y009445D02*
X044764Y009445D01*
X044764Y009465D02*
X044524Y009465D01*
X044524Y009485D02*
X044764Y009485D01*
X044764Y009505D02*
X044524Y009505D01*
X044524Y009525D02*
X044764Y009525D01*
X044764Y009545D02*
X044524Y009545D01*
X044524Y009565D02*
X044764Y009565D01*
X044764Y009585D02*
X044524Y009585D01*
X044524Y009605D02*
X044764Y009605D01*
X044764Y009625D02*
X044524Y009625D01*
X044524Y009645D02*
X044764Y009645D01*
X044764Y009665D02*
X044524Y009665D01*
X044524Y009685D02*
X044764Y009685D01*
X044764Y009705D02*
X044524Y009705D01*
X044524Y009725D02*
X044764Y009725D01*
X044764Y009745D02*
X044524Y009745D01*
X044524Y009765D02*
X044764Y009765D01*
X044764Y009785D02*
X044524Y009785D01*
X044524Y009805D02*
X044764Y009805D01*
X044764Y009825D02*
X044524Y009825D01*
X044524Y009845D02*
X044764Y009845D01*
X044764Y009865D02*
X044524Y009865D01*
X044524Y009885D02*
X044764Y009885D01*
X044264Y009885D02*
X044024Y009885D01*
X044264Y009885D02*
X044264Y009105D01*
X044024Y009105D01*
X044024Y009885D01*
X044024Y009125D02*
X044264Y009125D01*
X044264Y009145D02*
X044024Y009145D01*
X044024Y009165D02*
X044264Y009165D01*
X044264Y009185D02*
X044024Y009185D01*
X044024Y009205D02*
X044264Y009205D01*
X044264Y009225D02*
X044024Y009225D01*
X044024Y009245D02*
X044264Y009245D01*
X044264Y009265D02*
X044024Y009265D01*
X044024Y009285D02*
X044264Y009285D01*
X044264Y009305D02*
X044024Y009305D01*
X044024Y009325D02*
X044264Y009325D01*
X044264Y009345D02*
X044024Y009345D01*
X044024Y009365D02*
X044264Y009365D01*
X044264Y009385D02*
X044024Y009385D01*
X044024Y009405D02*
X044264Y009405D01*
X044264Y009425D02*
X044024Y009425D01*
X044024Y009445D02*
X044264Y009445D01*
X044264Y009465D02*
X044024Y009465D01*
X044024Y009485D02*
X044264Y009485D01*
X044264Y009505D02*
X044024Y009505D01*
X044024Y009525D02*
X044264Y009525D01*
X044264Y009545D02*
X044024Y009545D01*
X044024Y009565D02*
X044264Y009565D01*
X044264Y009585D02*
X044024Y009585D01*
X044024Y009605D02*
X044264Y009605D01*
X044264Y009625D02*
X044024Y009625D01*
X044024Y009645D02*
X044264Y009645D01*
X044264Y009665D02*
X044024Y009665D01*
X044024Y009685D02*
X044264Y009685D01*
X044264Y009705D02*
X044024Y009705D01*
X044024Y009725D02*
X044264Y009725D01*
X044264Y009745D02*
X044024Y009745D01*
X044024Y009765D02*
X044264Y009765D01*
X044264Y009785D02*
X044024Y009785D01*
X044024Y009805D02*
X044264Y009805D01*
X044264Y009825D02*
X044024Y009825D01*
X044024Y009845D02*
X044264Y009845D01*
X044264Y009865D02*
X044024Y009865D01*
X044024Y009885D02*
X044264Y009885D01*
X043764Y009885D02*
X043524Y009885D01*
X043764Y009885D02*
X043764Y009105D01*
X043524Y009105D01*
X043524Y009885D01*
X043524Y009125D02*
X043764Y009125D01*
X043764Y009145D02*
X043524Y009145D01*
X043524Y009165D02*
X043764Y009165D01*
X043764Y009185D02*
X043524Y009185D01*
X043524Y009205D02*
X043764Y009205D01*
X043764Y009225D02*
X043524Y009225D01*
X043524Y009245D02*
X043764Y009245D01*
X043764Y009265D02*
X043524Y009265D01*
X043524Y009285D02*
X043764Y009285D01*
X043764Y009305D02*
X043524Y009305D01*
X043524Y009325D02*
X043764Y009325D01*
X043764Y009345D02*
X043524Y009345D01*
X043524Y009365D02*
X043764Y009365D01*
X043764Y009385D02*
X043524Y009385D01*
X043524Y009405D02*
X043764Y009405D01*
X043764Y009425D02*
X043524Y009425D01*
X043524Y009445D02*
X043764Y009445D01*
X043764Y009465D02*
X043524Y009465D01*
X043524Y009485D02*
X043764Y009485D01*
X043764Y009505D02*
X043524Y009505D01*
X043524Y009525D02*
X043764Y009525D01*
X043764Y009545D02*
X043524Y009545D01*
X043524Y009565D02*
X043764Y009565D01*
X043764Y009585D02*
X043524Y009585D01*
X043524Y009605D02*
X043764Y009605D01*
X043764Y009625D02*
X043524Y009625D01*
X043524Y009645D02*
X043764Y009645D01*
X043764Y009665D02*
X043524Y009665D01*
X043524Y009685D02*
X043764Y009685D01*
X043764Y009705D02*
X043524Y009705D01*
X043524Y009725D02*
X043764Y009725D01*
X043764Y009745D02*
X043524Y009745D01*
X043524Y009765D02*
X043764Y009765D01*
X043764Y009785D02*
X043524Y009785D01*
X043524Y009805D02*
X043764Y009805D01*
X043764Y009825D02*
X043524Y009825D01*
X043524Y009845D02*
X043764Y009845D01*
X043764Y009865D02*
X043524Y009865D01*
X043524Y009885D02*
X043764Y009885D01*
X043264Y009885D02*
X043024Y009885D01*
X043264Y009885D02*
X043264Y009105D01*
X043024Y009105D01*
X043024Y009885D01*
X043024Y009125D02*
X043264Y009125D01*
X043264Y009145D02*
X043024Y009145D01*
X043024Y009165D02*
X043264Y009165D01*
X043264Y009185D02*
X043024Y009185D01*
X043024Y009205D02*
X043264Y009205D01*
X043264Y009225D02*
X043024Y009225D01*
X043024Y009245D02*
X043264Y009245D01*
X043264Y009265D02*
X043024Y009265D01*
X043024Y009285D02*
X043264Y009285D01*
X043264Y009305D02*
X043024Y009305D01*
X043024Y009325D02*
X043264Y009325D01*
X043264Y009345D02*
X043024Y009345D01*
X043024Y009365D02*
X043264Y009365D01*
X043264Y009385D02*
X043024Y009385D01*
X043024Y009405D02*
X043264Y009405D01*
X043264Y009425D02*
X043024Y009425D01*
X043024Y009445D02*
X043264Y009445D01*
X043264Y009465D02*
X043024Y009465D01*
X043024Y009485D02*
X043264Y009485D01*
X043264Y009505D02*
X043024Y009505D01*
X043024Y009525D02*
X043264Y009525D01*
X043264Y009545D02*
X043024Y009545D01*
X043024Y009565D02*
X043264Y009565D01*
X043264Y009585D02*
X043024Y009585D01*
X043024Y009605D02*
X043264Y009605D01*
X043264Y009625D02*
X043024Y009625D01*
X043024Y009645D02*
X043264Y009645D01*
X043264Y009665D02*
X043024Y009665D01*
X043024Y009685D02*
X043264Y009685D01*
X043264Y009705D02*
X043024Y009705D01*
X043024Y009725D02*
X043264Y009725D01*
X043264Y009745D02*
X043024Y009745D01*
X043024Y009765D02*
X043264Y009765D01*
X043264Y009785D02*
X043024Y009785D01*
X043024Y009805D02*
X043264Y009805D01*
X043264Y009825D02*
X043024Y009825D01*
X043024Y009845D02*
X043264Y009845D01*
X043264Y009865D02*
X043024Y009865D01*
X043024Y009885D02*
X043264Y009885D01*
D15*
X042045Y011036D02*
X041583Y011036D01*
X041583Y011898D01*
X042045Y011898D01*
X042045Y011036D01*
X042045Y011054D02*
X041583Y011054D01*
X041583Y011072D02*
X042045Y011072D01*
X042045Y011090D02*
X041583Y011090D01*
X041583Y011108D02*
X042045Y011108D01*
X042045Y011126D02*
X041583Y011126D01*
X041583Y011144D02*
X042045Y011144D01*
X042045Y011162D02*
X041583Y011162D01*
X041583Y011180D02*
X042045Y011180D01*
X042045Y011198D02*
X041583Y011198D01*
X041583Y011216D02*
X042045Y011216D01*
X042045Y011234D02*
X041583Y011234D01*
X041583Y011252D02*
X042045Y011252D01*
X042045Y011270D02*
X041583Y011270D01*
X041583Y011288D02*
X042045Y011288D01*
X042045Y011306D02*
X041583Y011306D01*
X041583Y011324D02*
X042045Y011324D01*
X042045Y011342D02*
X041583Y011342D01*
X041583Y011360D02*
X042045Y011360D01*
X042045Y011378D02*
X041583Y011378D01*
X041583Y011396D02*
X042045Y011396D01*
X042045Y011414D02*
X041583Y011414D01*
X041583Y011432D02*
X042045Y011432D01*
X042045Y011450D02*
X041583Y011450D01*
X041583Y011468D02*
X042045Y011468D01*
X042045Y011486D02*
X041583Y011486D01*
X041583Y011504D02*
X042045Y011504D01*
X042045Y011522D02*
X041583Y011522D01*
X041583Y011540D02*
X042045Y011540D01*
X042045Y011558D02*
X041583Y011558D01*
X041583Y011576D02*
X042045Y011576D01*
X042045Y011594D02*
X041583Y011594D01*
X041583Y011612D02*
X042045Y011612D01*
X042045Y011630D02*
X041583Y011630D01*
X041583Y011648D02*
X042045Y011648D01*
X042045Y011666D02*
X041583Y011666D01*
X041583Y011684D02*
X042045Y011684D01*
X042045Y011702D02*
X041583Y011702D01*
X041583Y011720D02*
X042045Y011720D01*
X042045Y011738D02*
X041583Y011738D01*
X041583Y011756D02*
X042045Y011756D01*
X042045Y011774D02*
X041583Y011774D01*
X041583Y011792D02*
X042045Y011792D01*
X042045Y011810D02*
X041583Y011810D01*
X041583Y011828D02*
X042045Y011828D01*
X042045Y011846D02*
X041583Y011846D01*
X041583Y011864D02*
X042045Y011864D01*
X042045Y011882D02*
X041583Y011882D01*
X041135Y011036D02*
X040673Y011036D01*
X040673Y011898D01*
X041135Y011898D01*
X041135Y011036D01*
X041135Y011054D02*
X040673Y011054D01*
X040673Y011072D02*
X041135Y011072D01*
X041135Y011090D02*
X040673Y011090D01*
X040673Y011108D02*
X041135Y011108D01*
X041135Y011126D02*
X040673Y011126D01*
X040673Y011144D02*
X041135Y011144D01*
X041135Y011162D02*
X040673Y011162D01*
X040673Y011180D02*
X041135Y011180D01*
X041135Y011198D02*
X040673Y011198D01*
X040673Y011216D02*
X041135Y011216D01*
X041135Y011234D02*
X040673Y011234D01*
X040673Y011252D02*
X041135Y011252D01*
X041135Y011270D02*
X040673Y011270D01*
X040673Y011288D02*
X041135Y011288D01*
X041135Y011306D02*
X040673Y011306D01*
X040673Y011324D02*
X041135Y011324D01*
X041135Y011342D02*
X040673Y011342D01*
X040673Y011360D02*
X041135Y011360D01*
X041135Y011378D02*
X040673Y011378D01*
X040673Y011396D02*
X041135Y011396D01*
X041135Y011414D02*
X040673Y011414D01*
X040673Y011432D02*
X041135Y011432D01*
X041135Y011450D02*
X040673Y011450D01*
X040673Y011468D02*
X041135Y011468D01*
X041135Y011486D02*
X040673Y011486D01*
X040673Y011504D02*
X041135Y011504D01*
X041135Y011522D02*
X040673Y011522D01*
X040673Y011540D02*
X041135Y011540D01*
X041135Y011558D02*
X040673Y011558D01*
X040673Y011576D02*
X041135Y011576D01*
X041135Y011594D02*
X040673Y011594D01*
X040673Y011612D02*
X041135Y011612D01*
X041135Y011630D02*
X040673Y011630D01*
X040673Y011648D02*
X041135Y011648D01*
X041135Y011666D02*
X040673Y011666D01*
X040673Y011684D02*
X041135Y011684D01*
X041135Y011702D02*
X040673Y011702D01*
X040673Y011720D02*
X041135Y011720D01*
X041135Y011738D02*
X040673Y011738D01*
X040673Y011756D02*
X041135Y011756D01*
X041135Y011774D02*
X040673Y011774D01*
X040673Y011792D02*
X041135Y011792D01*
X041135Y011810D02*
X040673Y011810D01*
X040673Y011828D02*
X041135Y011828D01*
X041135Y011846D02*
X040673Y011846D01*
X040673Y011864D02*
X041135Y011864D01*
X041135Y011882D02*
X040673Y011882D01*
X040225Y011036D02*
X039763Y011036D01*
X039763Y011898D01*
X040225Y011898D01*
X040225Y011036D01*
X040225Y011054D02*
X039763Y011054D01*
X039763Y011072D02*
X040225Y011072D01*
X040225Y011090D02*
X039763Y011090D01*
X039763Y011108D02*
X040225Y011108D01*
X040225Y011126D02*
X039763Y011126D01*
X039763Y011144D02*
X040225Y011144D01*
X040225Y011162D02*
X039763Y011162D01*
X039763Y011180D02*
X040225Y011180D01*
X040225Y011198D02*
X039763Y011198D01*
X039763Y011216D02*
X040225Y011216D01*
X040225Y011234D02*
X039763Y011234D01*
X039763Y011252D02*
X040225Y011252D01*
X040225Y011270D02*
X039763Y011270D01*
X039763Y011288D02*
X040225Y011288D01*
X040225Y011306D02*
X039763Y011306D01*
X039763Y011324D02*
X040225Y011324D01*
X040225Y011342D02*
X039763Y011342D01*
X039763Y011360D02*
X040225Y011360D01*
X040225Y011378D02*
X039763Y011378D01*
X039763Y011396D02*
X040225Y011396D01*
X040225Y011414D02*
X039763Y011414D01*
X039763Y011432D02*
X040225Y011432D01*
X040225Y011450D02*
X039763Y011450D01*
X039763Y011468D02*
X040225Y011468D01*
X040225Y011486D02*
X039763Y011486D01*
X039763Y011504D02*
X040225Y011504D01*
X040225Y011522D02*
X039763Y011522D01*
X039763Y011540D02*
X040225Y011540D01*
X040225Y011558D02*
X039763Y011558D01*
X039763Y011576D02*
X040225Y011576D01*
X040225Y011594D02*
X039763Y011594D01*
X039763Y011612D02*
X040225Y011612D01*
X040225Y011630D02*
X039763Y011630D01*
X039763Y011648D02*
X040225Y011648D01*
X040225Y011666D02*
X039763Y011666D01*
X039763Y011684D02*
X040225Y011684D01*
X040225Y011702D02*
X039763Y011702D01*
X039763Y011720D02*
X040225Y011720D01*
X040225Y011738D02*
X039763Y011738D01*
X039763Y011756D02*
X040225Y011756D01*
X040225Y011774D02*
X039763Y011774D01*
X039763Y011792D02*
X040225Y011792D01*
X040225Y011810D02*
X039763Y011810D01*
X039763Y011828D02*
X040225Y011828D01*
X040225Y011846D02*
X039763Y011846D01*
X039763Y011864D02*
X040225Y011864D01*
X040225Y011882D02*
X039763Y011882D01*
D16*
X040204Y008602D02*
X041604Y008602D01*
X040204Y008602D02*
X040204Y009452D01*
X041604Y009452D01*
X041604Y008602D01*
X041604Y008618D02*
X040204Y008618D01*
X040204Y008634D02*
X041604Y008634D01*
X041604Y008650D02*
X040204Y008650D01*
X040204Y008666D02*
X041604Y008666D01*
X041604Y008682D02*
X040204Y008682D01*
X040204Y008698D02*
X041604Y008698D01*
X041604Y008714D02*
X040204Y008714D01*
X040204Y008730D02*
X041604Y008730D01*
X041604Y008746D02*
X040204Y008746D01*
X040204Y008762D02*
X041604Y008762D01*
X041604Y008778D02*
X040204Y008778D01*
X040204Y008794D02*
X041604Y008794D01*
X041604Y008810D02*
X040204Y008810D01*
X040204Y008826D02*
X041604Y008826D01*
X041604Y008842D02*
X040204Y008842D01*
X040204Y008858D02*
X041604Y008858D01*
X041604Y008874D02*
X040204Y008874D01*
X040204Y008890D02*
X041604Y008890D01*
X041604Y008906D02*
X040204Y008906D01*
X040204Y008922D02*
X041604Y008922D01*
X041604Y008938D02*
X040204Y008938D01*
X040204Y008954D02*
X041604Y008954D01*
X041604Y008970D02*
X040204Y008970D01*
X040204Y008986D02*
X041604Y008986D01*
X041604Y009002D02*
X040204Y009002D01*
X040204Y009018D02*
X041604Y009018D01*
X041604Y009034D02*
X040204Y009034D01*
X040204Y009050D02*
X041604Y009050D01*
X041604Y009066D02*
X040204Y009066D01*
X040204Y009082D02*
X041604Y009082D01*
X041604Y009098D02*
X040204Y009098D01*
X040204Y009114D02*
X041604Y009114D01*
X041604Y009130D02*
X040204Y009130D01*
X040204Y009146D02*
X041604Y009146D01*
X041604Y009162D02*
X040204Y009162D01*
X040204Y009178D02*
X041604Y009178D01*
X041604Y009194D02*
X040204Y009194D01*
X040204Y009210D02*
X041604Y009210D01*
X041604Y009226D02*
X040204Y009226D01*
X040204Y009242D02*
X041604Y009242D01*
X041604Y009258D02*
X040204Y009258D01*
X040204Y009274D02*
X041604Y009274D01*
X041604Y009290D02*
X040204Y009290D01*
X040204Y009306D02*
X041604Y009306D01*
X041604Y009322D02*
X040204Y009322D01*
X040204Y009338D02*
X041604Y009338D01*
X041604Y009354D02*
X040204Y009354D01*
X040204Y009370D02*
X041604Y009370D01*
X041604Y009386D02*
X040204Y009386D01*
X040204Y009402D02*
X041604Y009402D01*
X041604Y009418D02*
X040204Y009418D01*
X040204Y009434D02*
X041604Y009434D01*
X041604Y009450D02*
X040204Y009450D01*
D17*
X031446Y012390D02*
X031446Y012540D01*
X031518Y012540D01*
X031518Y012390D01*
X031446Y012390D01*
X030746Y012390D02*
X030746Y012540D01*
X030818Y012540D01*
X030818Y012390D01*
X030746Y012390D01*
X027442Y016674D02*
X027292Y016674D01*
X027292Y016746D01*
X027442Y016746D01*
X027442Y016674D01*
X027442Y017374D02*
X027292Y017374D01*
X027292Y017446D01*
X027442Y017446D01*
X027442Y017374D01*
X023274Y027411D02*
X023124Y027411D01*
X023124Y027483D01*
X023274Y027483D01*
X023274Y027411D01*
X023274Y028111D02*
X023124Y028111D01*
X023124Y028183D01*
X023274Y028183D01*
X023274Y028111D01*
X019995Y031732D02*
X019995Y031882D01*
X019995Y031732D02*
X019923Y031732D01*
X019923Y031882D01*
X019995Y031882D01*
X019295Y031882D02*
X019295Y031732D01*
X019223Y031732D01*
X019223Y031882D01*
X019295Y031882D01*
X015107Y028248D02*
X014957Y028248D01*
X015107Y028248D02*
X015107Y028176D01*
X014957Y028176D01*
X014957Y028248D01*
X014957Y027548D02*
X015107Y027548D01*
X015107Y027476D01*
X014957Y027476D01*
X014957Y027548D01*
X009524Y034950D02*
X009374Y034950D01*
X009524Y034950D02*
X009524Y034878D01*
X009374Y034878D01*
X009374Y034950D01*
X009374Y035650D02*
X009524Y035650D01*
X009524Y035578D01*
X009374Y035578D01*
X009374Y035650D01*
X044353Y032780D02*
X044353Y032630D01*
X044281Y032630D01*
X044281Y032780D01*
X044353Y032780D01*
X045053Y032780D02*
X045053Y032630D01*
X044981Y032630D01*
X044981Y032780D01*
X045053Y032780D01*
D18*
X047798Y038058D02*
X048240Y038058D01*
X048240Y037446D01*
X047798Y037446D01*
X047798Y038058D01*
X047798Y037463D02*
X048240Y037463D01*
X048240Y037480D02*
X047798Y037480D01*
X047798Y037497D02*
X048240Y037497D01*
X048240Y037514D02*
X047798Y037514D01*
X047798Y037531D02*
X048240Y037531D01*
X048240Y037548D02*
X047798Y037548D01*
X047798Y037565D02*
X048240Y037565D01*
X048240Y037582D02*
X047798Y037582D01*
X047798Y037599D02*
X048240Y037599D01*
X048240Y037616D02*
X047798Y037616D01*
X047798Y037633D02*
X048240Y037633D01*
X048240Y037650D02*
X047798Y037650D01*
X047798Y037667D02*
X048240Y037667D01*
X048240Y037684D02*
X047798Y037684D01*
X047798Y037701D02*
X048240Y037701D01*
X048240Y037718D02*
X047798Y037718D01*
X047798Y037735D02*
X048240Y037735D01*
X048240Y037752D02*
X047798Y037752D01*
X047798Y037769D02*
X048240Y037769D01*
X048240Y037786D02*
X047798Y037786D01*
X047798Y037803D02*
X048240Y037803D01*
X048240Y037820D02*
X047798Y037820D01*
X047798Y037837D02*
X048240Y037837D01*
X048240Y037854D02*
X047798Y037854D01*
X047798Y037871D02*
X048240Y037871D01*
X048240Y037888D02*
X047798Y037888D01*
X047798Y037905D02*
X048240Y037905D01*
X048240Y037922D02*
X047798Y037922D01*
X047798Y037939D02*
X048240Y037939D01*
X048240Y037956D02*
X047798Y037956D01*
X047798Y037973D02*
X048240Y037973D01*
X048240Y037990D02*
X047798Y037990D01*
X047798Y038007D02*
X048240Y038007D01*
X048240Y038024D02*
X047798Y038024D01*
X047798Y038041D02*
X048240Y038041D01*
X048240Y038058D02*
X047798Y038058D01*
X048398Y038058D02*
X048840Y038058D01*
X048840Y037446D01*
X048398Y037446D01*
X048398Y038058D01*
X048398Y037463D02*
X048840Y037463D01*
X048840Y037480D02*
X048398Y037480D01*
X048398Y037497D02*
X048840Y037497D01*
X048840Y037514D02*
X048398Y037514D01*
X048398Y037531D02*
X048840Y037531D01*
X048840Y037548D02*
X048398Y037548D01*
X048398Y037565D02*
X048840Y037565D01*
X048840Y037582D02*
X048398Y037582D01*
X048398Y037599D02*
X048840Y037599D01*
X048840Y037616D02*
X048398Y037616D01*
X048398Y037633D02*
X048840Y037633D01*
X048840Y037650D02*
X048398Y037650D01*
X048398Y037667D02*
X048840Y037667D01*
X048840Y037684D02*
X048398Y037684D01*
X048398Y037701D02*
X048840Y037701D01*
X048840Y037718D02*
X048398Y037718D01*
X048398Y037735D02*
X048840Y037735D01*
X048840Y037752D02*
X048398Y037752D01*
X048398Y037769D02*
X048840Y037769D01*
X048840Y037786D02*
X048398Y037786D01*
X048398Y037803D02*
X048840Y037803D01*
X048840Y037820D02*
X048398Y037820D01*
X048398Y037837D02*
X048840Y037837D01*
X048840Y037854D02*
X048398Y037854D01*
X048398Y037871D02*
X048840Y037871D01*
X048840Y037888D02*
X048398Y037888D01*
X048398Y037905D02*
X048840Y037905D01*
X048840Y037922D02*
X048398Y037922D01*
X048398Y037939D02*
X048840Y037939D01*
X048840Y037956D02*
X048398Y037956D01*
X048398Y037973D02*
X048840Y037973D01*
X048840Y037990D02*
X048398Y037990D01*
X048398Y038007D02*
X048840Y038007D01*
X048840Y038024D02*
X048398Y038024D01*
X048398Y038041D02*
X048840Y038041D01*
X048840Y038058D02*
X048398Y038058D01*
D19*
X047313Y037602D02*
X046939Y037602D01*
X047313Y037602D02*
X047313Y037072D01*
X046939Y037072D01*
X046939Y037602D01*
X046939Y037091D02*
X047313Y037091D01*
X047313Y037110D02*
X046939Y037110D01*
X046939Y037129D02*
X047313Y037129D01*
X047313Y037148D02*
X046939Y037148D01*
X046939Y037167D02*
X047313Y037167D01*
X047313Y037186D02*
X046939Y037186D01*
X046939Y037205D02*
X047313Y037205D01*
X047313Y037224D02*
X046939Y037224D01*
X046939Y037243D02*
X047313Y037243D01*
X047313Y037262D02*
X046939Y037262D01*
X046939Y037281D02*
X047313Y037281D01*
X047313Y037300D02*
X046939Y037300D01*
X046939Y037319D02*
X047313Y037319D01*
X047313Y037338D02*
X046939Y037338D01*
X046939Y037357D02*
X047313Y037357D01*
X047313Y037376D02*
X046939Y037376D01*
X046939Y037395D02*
X047313Y037395D01*
X047313Y037414D02*
X046939Y037414D01*
X046939Y037433D02*
X047313Y037433D01*
X047313Y037452D02*
X046939Y037452D01*
X046939Y037471D02*
X047313Y037471D01*
X047313Y037490D02*
X046939Y037490D01*
X046939Y037509D02*
X047313Y037509D01*
X047313Y037528D02*
X046939Y037528D01*
X046939Y037547D02*
X047313Y037547D01*
X047313Y037566D02*
X046939Y037566D01*
X046939Y037585D02*
X047313Y037585D01*
X046939Y038468D02*
X046565Y038468D01*
X046939Y038468D02*
X046939Y037938D01*
X046565Y037938D01*
X046565Y038468D01*
X046565Y037957D02*
X046939Y037957D01*
X046939Y037976D02*
X046565Y037976D01*
X046565Y037995D02*
X046939Y037995D01*
X046939Y038014D02*
X046565Y038014D01*
X046565Y038033D02*
X046939Y038033D01*
X046939Y038052D02*
X046565Y038052D01*
X046565Y038071D02*
X046939Y038071D01*
X046939Y038090D02*
X046565Y038090D01*
X046565Y038109D02*
X046939Y038109D01*
X046939Y038128D02*
X046565Y038128D01*
X046565Y038147D02*
X046939Y038147D01*
X046939Y038166D02*
X046565Y038166D01*
X046565Y038185D02*
X046939Y038185D01*
X046939Y038204D02*
X046565Y038204D01*
X046565Y038223D02*
X046939Y038223D01*
X046939Y038242D02*
X046565Y038242D01*
X046565Y038261D02*
X046939Y038261D01*
X046939Y038280D02*
X046565Y038280D01*
X046565Y038299D02*
X046939Y038299D01*
X046939Y038318D02*
X046565Y038318D01*
X046565Y038337D02*
X046939Y038337D01*
X046939Y038356D02*
X046565Y038356D01*
X046565Y038375D02*
X046939Y038375D01*
X046939Y038394D02*
X046565Y038394D01*
X046565Y038413D02*
X046939Y038413D01*
X046939Y038432D02*
X046565Y038432D01*
X046565Y038451D02*
X046939Y038451D01*
X046565Y037602D02*
X046191Y037602D01*
X046565Y037602D02*
X046565Y037072D01*
X046191Y037072D01*
X046191Y037602D01*
X046191Y037091D02*
X046565Y037091D01*
X046565Y037110D02*
X046191Y037110D01*
X046191Y037129D02*
X046565Y037129D01*
X046565Y037148D02*
X046191Y037148D01*
X046191Y037167D02*
X046565Y037167D01*
X046565Y037186D02*
X046191Y037186D01*
X046191Y037205D02*
X046565Y037205D01*
X046565Y037224D02*
X046191Y037224D01*
X046191Y037243D02*
X046565Y037243D01*
X046565Y037262D02*
X046191Y037262D01*
X046191Y037281D02*
X046565Y037281D01*
X046565Y037300D02*
X046191Y037300D01*
X046191Y037319D02*
X046565Y037319D01*
X046565Y037338D02*
X046191Y037338D01*
X046191Y037357D02*
X046565Y037357D01*
X046565Y037376D02*
X046191Y037376D01*
X046191Y037395D02*
X046565Y037395D01*
X046565Y037414D02*
X046191Y037414D01*
X046191Y037433D02*
X046565Y037433D01*
X046565Y037452D02*
X046191Y037452D01*
X046191Y037471D02*
X046565Y037471D01*
X046565Y037490D02*
X046191Y037490D01*
X046191Y037509D02*
X046565Y037509D01*
X046565Y037528D02*
X046191Y037528D01*
X046191Y037547D02*
X046565Y037547D01*
X046565Y037566D02*
X046191Y037566D01*
X046191Y037585D02*
X046565Y037585D01*
X033878Y032622D02*
X033466Y032622D01*
X033466Y032996D01*
X033878Y032996D01*
X033878Y032622D01*
X033878Y032641D02*
X033466Y032641D01*
X033466Y032660D02*
X033878Y032660D01*
X033878Y032679D02*
X033466Y032679D01*
X033466Y032698D02*
X033878Y032698D01*
X033878Y032717D02*
X033466Y032717D01*
X033466Y032736D02*
X033878Y032736D01*
X033878Y032755D02*
X033466Y032755D01*
X033466Y032774D02*
X033878Y032774D01*
X033878Y032793D02*
X033466Y032793D01*
X033466Y032812D02*
X033878Y032812D01*
X033878Y032831D02*
X033466Y032831D01*
X033466Y032850D02*
X033878Y032850D01*
X033878Y032869D02*
X033466Y032869D01*
X033466Y032888D02*
X033878Y032888D01*
X033878Y032907D02*
X033466Y032907D01*
X033466Y032926D02*
X033878Y032926D01*
X033878Y032945D02*
X033466Y032945D01*
X033466Y032964D02*
X033878Y032964D01*
X033878Y032983D02*
X033466Y032983D01*
X033208Y032622D02*
X032796Y032622D01*
X032796Y032996D01*
X033208Y032996D01*
X033208Y032622D01*
X033208Y032641D02*
X032796Y032641D01*
X032796Y032660D02*
X033208Y032660D01*
X033208Y032679D02*
X032796Y032679D01*
X032796Y032698D02*
X033208Y032698D01*
X033208Y032717D02*
X032796Y032717D01*
X032796Y032736D02*
X033208Y032736D01*
X033208Y032755D02*
X032796Y032755D01*
X032796Y032774D02*
X033208Y032774D01*
X033208Y032793D02*
X032796Y032793D01*
X032796Y032812D02*
X033208Y032812D01*
X033208Y032831D02*
X032796Y032831D01*
X032796Y032850D02*
X033208Y032850D01*
X033208Y032869D02*
X032796Y032869D01*
X032796Y032888D02*
X033208Y032888D01*
X033208Y032907D02*
X032796Y032907D01*
X032796Y032926D02*
X033208Y032926D01*
X033208Y032945D02*
X032796Y032945D01*
X032796Y032964D02*
X033208Y032964D01*
X033208Y032983D02*
X032796Y032983D01*
X032863Y031701D02*
X032863Y031289D01*
X032863Y031701D02*
X033237Y031701D01*
X033237Y031289D01*
X032863Y031289D01*
X032863Y031308D02*
X033237Y031308D01*
X033237Y031327D02*
X032863Y031327D01*
X032863Y031346D02*
X033237Y031346D01*
X033237Y031365D02*
X032863Y031365D01*
X032863Y031384D02*
X033237Y031384D01*
X033237Y031403D02*
X032863Y031403D01*
X032863Y031422D02*
X033237Y031422D01*
X033237Y031441D02*
X032863Y031441D01*
X032863Y031460D02*
X033237Y031460D01*
X033237Y031479D02*
X032863Y031479D01*
X032863Y031498D02*
X033237Y031498D01*
X033237Y031517D02*
X032863Y031517D01*
X032863Y031536D02*
X033237Y031536D01*
X033237Y031555D02*
X032863Y031555D01*
X032863Y031574D02*
X033237Y031574D01*
X033237Y031593D02*
X032863Y031593D01*
X032863Y031612D02*
X033237Y031612D01*
X033237Y031631D02*
X032863Y031631D01*
X032863Y031650D02*
X033237Y031650D01*
X033237Y031669D02*
X032863Y031669D01*
X032863Y031688D02*
X033237Y031688D01*
X032863Y031031D02*
X032863Y030619D01*
X032863Y031031D02*
X033237Y031031D01*
X033237Y030619D01*
X032863Y030619D01*
X032863Y030638D02*
X033237Y030638D01*
X033237Y030657D02*
X032863Y030657D01*
X032863Y030676D02*
X033237Y030676D01*
X033237Y030695D02*
X032863Y030695D01*
X032863Y030714D02*
X033237Y030714D01*
X033237Y030733D02*
X032863Y030733D01*
X032863Y030752D02*
X033237Y030752D01*
X033237Y030771D02*
X032863Y030771D01*
X032863Y030790D02*
X033237Y030790D01*
X033237Y030809D02*
X032863Y030809D01*
X032863Y030828D02*
X033237Y030828D01*
X033237Y030847D02*
X032863Y030847D01*
X032863Y030866D02*
X033237Y030866D01*
X033237Y030885D02*
X032863Y030885D01*
X032863Y030904D02*
X033237Y030904D01*
X033237Y030923D02*
X032863Y030923D01*
X032863Y030942D02*
X033237Y030942D01*
X033237Y030961D02*
X032863Y030961D01*
X032863Y030980D02*
X033237Y030980D01*
X033237Y030999D02*
X032863Y030999D01*
X032863Y031018D02*
X033237Y031018D01*
X033378Y023858D02*
X032966Y023858D01*
X032966Y024232D01*
X033378Y024232D01*
X033378Y023858D01*
X033378Y023877D02*
X032966Y023877D01*
X032966Y023896D02*
X033378Y023896D01*
X033378Y023915D02*
X032966Y023915D01*
X032966Y023934D02*
X033378Y023934D01*
X033378Y023953D02*
X032966Y023953D01*
X032966Y023972D02*
X033378Y023972D01*
X033378Y023991D02*
X032966Y023991D01*
X032966Y024010D02*
X033378Y024010D01*
X033378Y024029D02*
X032966Y024029D01*
X032966Y024048D02*
X033378Y024048D01*
X033378Y024067D02*
X032966Y024067D01*
X032966Y024086D02*
X033378Y024086D01*
X033378Y024105D02*
X032966Y024105D01*
X032966Y024124D02*
X033378Y024124D01*
X033378Y024143D02*
X032966Y024143D01*
X032966Y024162D02*
X033378Y024162D01*
X033378Y024181D02*
X032966Y024181D01*
X032966Y024200D02*
X033378Y024200D01*
X033378Y024219D02*
X032966Y024219D01*
X033636Y023858D02*
X034048Y023858D01*
X033636Y023858D02*
X033636Y024232D01*
X034048Y024232D01*
X034048Y023858D01*
X034048Y023877D02*
X033636Y023877D01*
X033636Y023896D02*
X034048Y023896D01*
X034048Y023915D02*
X033636Y023915D01*
X033636Y023934D02*
X034048Y023934D01*
X034048Y023953D02*
X033636Y023953D01*
X033636Y023972D02*
X034048Y023972D01*
X034048Y023991D02*
X033636Y023991D01*
X033636Y024010D02*
X034048Y024010D01*
X034048Y024029D02*
X033636Y024029D01*
X033636Y024048D02*
X034048Y024048D01*
X034048Y024067D02*
X033636Y024067D01*
X033636Y024086D02*
X034048Y024086D01*
X034048Y024105D02*
X033636Y024105D01*
X033636Y024124D02*
X034048Y024124D01*
X034048Y024143D02*
X033636Y024143D01*
X033636Y024162D02*
X034048Y024162D01*
X034048Y024181D02*
X033636Y024181D01*
X033636Y024200D02*
X034048Y024200D01*
X034048Y024219D02*
X033636Y024219D01*
X034941Y024302D02*
X035353Y024302D01*
X035353Y023928D01*
X034941Y023928D01*
X034941Y024302D01*
X034941Y023947D02*
X035353Y023947D01*
X035353Y023966D02*
X034941Y023966D01*
X034941Y023985D02*
X035353Y023985D01*
X035353Y024004D02*
X034941Y024004D01*
X034941Y024023D02*
X035353Y024023D01*
X035353Y024042D02*
X034941Y024042D01*
X034941Y024061D02*
X035353Y024061D01*
X035353Y024080D02*
X034941Y024080D01*
X034941Y024099D02*
X035353Y024099D01*
X035353Y024118D02*
X034941Y024118D01*
X034941Y024137D02*
X035353Y024137D01*
X035353Y024156D02*
X034941Y024156D01*
X034941Y024175D02*
X035353Y024175D01*
X035353Y024194D02*
X034941Y024194D01*
X034941Y024213D02*
X035353Y024213D01*
X035353Y024232D02*
X034941Y024232D01*
X034941Y024251D02*
X035353Y024251D01*
X035353Y024270D02*
X034941Y024270D01*
X034941Y024289D02*
X035353Y024289D01*
X035611Y024302D02*
X036023Y024302D01*
X036023Y023928D01*
X035611Y023928D01*
X035611Y024302D01*
X035611Y023947D02*
X036023Y023947D01*
X036023Y023966D02*
X035611Y023966D01*
X035611Y023985D02*
X036023Y023985D01*
X036023Y024004D02*
X035611Y024004D01*
X035611Y024023D02*
X036023Y024023D01*
X036023Y024042D02*
X035611Y024042D01*
X035611Y024061D02*
X036023Y024061D01*
X036023Y024080D02*
X035611Y024080D01*
X035611Y024099D02*
X036023Y024099D01*
X036023Y024118D02*
X035611Y024118D01*
X035611Y024137D02*
X036023Y024137D01*
X036023Y024156D02*
X035611Y024156D01*
X035611Y024175D02*
X036023Y024175D01*
X036023Y024194D02*
X035611Y024194D01*
X035611Y024213D02*
X036023Y024213D01*
X036023Y024232D02*
X035611Y024232D01*
X035611Y024251D02*
X036023Y024251D01*
X036023Y024270D02*
X035611Y024270D01*
X035611Y024289D02*
X036023Y024289D01*
X031458Y008703D02*
X031084Y008703D01*
X031084Y009233D01*
X031458Y009233D01*
X031458Y008703D01*
X031458Y008722D02*
X031084Y008722D01*
X031084Y008741D02*
X031458Y008741D01*
X031458Y008760D02*
X031084Y008760D01*
X031084Y008779D02*
X031458Y008779D01*
X031458Y008798D02*
X031084Y008798D01*
X031084Y008817D02*
X031458Y008817D01*
X031458Y008836D02*
X031084Y008836D01*
X031084Y008855D02*
X031458Y008855D01*
X031458Y008874D02*
X031084Y008874D01*
X031084Y008893D02*
X031458Y008893D01*
X031458Y008912D02*
X031084Y008912D01*
X031084Y008931D02*
X031458Y008931D01*
X031458Y008950D02*
X031084Y008950D01*
X031084Y008969D02*
X031458Y008969D01*
X031458Y008988D02*
X031084Y008988D01*
X031084Y009007D02*
X031458Y009007D01*
X031458Y009026D02*
X031084Y009026D01*
X031084Y009045D02*
X031458Y009045D01*
X031458Y009064D02*
X031084Y009064D01*
X031084Y009083D02*
X031458Y009083D01*
X031458Y009102D02*
X031084Y009102D01*
X031084Y009121D02*
X031458Y009121D01*
X031458Y009140D02*
X031084Y009140D01*
X031084Y009159D02*
X031458Y009159D01*
X031458Y009178D02*
X031084Y009178D01*
X031084Y009197D02*
X031458Y009197D01*
X031458Y009216D02*
X031084Y009216D01*
X030710Y008703D02*
X030336Y008703D01*
X030336Y009233D01*
X030710Y009233D01*
X030710Y008703D01*
X030710Y008722D02*
X030336Y008722D01*
X030336Y008741D02*
X030710Y008741D01*
X030710Y008760D02*
X030336Y008760D01*
X030336Y008779D02*
X030710Y008779D01*
X030710Y008798D02*
X030336Y008798D01*
X030336Y008817D02*
X030710Y008817D01*
X030710Y008836D02*
X030336Y008836D01*
X030336Y008855D02*
X030710Y008855D01*
X030710Y008874D02*
X030336Y008874D01*
X030336Y008893D02*
X030710Y008893D01*
X030710Y008912D02*
X030336Y008912D01*
X030336Y008931D02*
X030710Y008931D01*
X030710Y008950D02*
X030336Y008950D01*
X030336Y008969D02*
X030710Y008969D01*
X030710Y008988D02*
X030336Y008988D01*
X030336Y009007D02*
X030710Y009007D01*
X030710Y009026D02*
X030336Y009026D01*
X030336Y009045D02*
X030710Y009045D01*
X030710Y009064D02*
X030336Y009064D01*
X030336Y009083D02*
X030710Y009083D01*
X030710Y009102D02*
X030336Y009102D01*
X030336Y009121D02*
X030710Y009121D01*
X030710Y009140D02*
X030336Y009140D01*
X030336Y009159D02*
X030710Y009159D01*
X030710Y009178D02*
X030336Y009178D01*
X030336Y009197D02*
X030710Y009197D01*
X030710Y009216D02*
X030336Y009216D01*
X030710Y007837D02*
X031084Y007837D01*
X030710Y007837D02*
X030710Y008367D01*
X031084Y008367D01*
X031084Y007837D01*
X031084Y007856D02*
X030710Y007856D01*
X030710Y007875D02*
X031084Y007875D01*
X031084Y007894D02*
X030710Y007894D01*
X030710Y007913D02*
X031084Y007913D01*
X031084Y007932D02*
X030710Y007932D01*
X030710Y007951D02*
X031084Y007951D01*
X031084Y007970D02*
X030710Y007970D01*
X030710Y007989D02*
X031084Y007989D01*
X031084Y008008D02*
X030710Y008008D01*
X030710Y008027D02*
X031084Y008027D01*
X031084Y008046D02*
X030710Y008046D01*
X030710Y008065D02*
X031084Y008065D01*
X031084Y008084D02*
X030710Y008084D01*
X030710Y008103D02*
X031084Y008103D01*
X031084Y008122D02*
X030710Y008122D01*
X030710Y008141D02*
X031084Y008141D01*
X031084Y008160D02*
X030710Y008160D01*
X030710Y008179D02*
X031084Y008179D01*
X031084Y008198D02*
X030710Y008198D01*
X030710Y008217D02*
X031084Y008217D01*
X031084Y008236D02*
X030710Y008236D01*
X030710Y008255D02*
X031084Y008255D01*
X031084Y008274D02*
X030710Y008274D01*
X030710Y008293D02*
X031084Y008293D01*
X031084Y008312D02*
X030710Y008312D01*
X030710Y008331D02*
X031084Y008331D01*
X031084Y008350D02*
X030710Y008350D01*
X015948Y008858D02*
X015574Y008858D01*
X015574Y009388D01*
X015948Y009388D01*
X015948Y008858D01*
X015948Y008877D02*
X015574Y008877D01*
X015574Y008896D02*
X015948Y008896D01*
X015948Y008915D02*
X015574Y008915D01*
X015574Y008934D02*
X015948Y008934D01*
X015948Y008953D02*
X015574Y008953D01*
X015574Y008972D02*
X015948Y008972D01*
X015948Y008991D02*
X015574Y008991D01*
X015574Y009010D02*
X015948Y009010D01*
X015948Y009029D02*
X015574Y009029D01*
X015574Y009048D02*
X015948Y009048D01*
X015948Y009067D02*
X015574Y009067D01*
X015574Y009086D02*
X015948Y009086D01*
X015948Y009105D02*
X015574Y009105D01*
X015574Y009124D02*
X015948Y009124D01*
X015948Y009143D02*
X015574Y009143D01*
X015574Y009162D02*
X015948Y009162D01*
X015948Y009181D02*
X015574Y009181D01*
X015574Y009200D02*
X015948Y009200D01*
X015948Y009219D02*
X015574Y009219D01*
X015574Y009238D02*
X015948Y009238D01*
X015948Y009257D02*
X015574Y009257D01*
X015574Y009276D02*
X015948Y009276D01*
X015948Y009295D02*
X015574Y009295D01*
X015574Y009314D02*
X015948Y009314D01*
X015948Y009333D02*
X015574Y009333D01*
X015574Y009352D02*
X015948Y009352D01*
X015948Y009371D02*
X015574Y009371D01*
X015200Y008858D02*
X014826Y008858D01*
X014826Y009388D01*
X015200Y009388D01*
X015200Y008858D01*
X015200Y008877D02*
X014826Y008877D01*
X014826Y008896D02*
X015200Y008896D01*
X015200Y008915D02*
X014826Y008915D01*
X014826Y008934D02*
X015200Y008934D01*
X015200Y008953D02*
X014826Y008953D01*
X014826Y008972D02*
X015200Y008972D01*
X015200Y008991D02*
X014826Y008991D01*
X014826Y009010D02*
X015200Y009010D01*
X015200Y009029D02*
X014826Y009029D01*
X014826Y009048D02*
X015200Y009048D01*
X015200Y009067D02*
X014826Y009067D01*
X014826Y009086D02*
X015200Y009086D01*
X015200Y009105D02*
X014826Y009105D01*
X014826Y009124D02*
X015200Y009124D01*
X015200Y009143D02*
X014826Y009143D01*
X014826Y009162D02*
X015200Y009162D01*
X015200Y009181D02*
X014826Y009181D01*
X014826Y009200D02*
X015200Y009200D01*
X015200Y009219D02*
X014826Y009219D01*
X014826Y009238D02*
X015200Y009238D01*
X015200Y009257D02*
X014826Y009257D01*
X014826Y009276D02*
X015200Y009276D01*
X015200Y009295D02*
X014826Y009295D01*
X014826Y009314D02*
X015200Y009314D01*
X015200Y009333D02*
X014826Y009333D01*
X014826Y009352D02*
X015200Y009352D01*
X015200Y009371D02*
X014826Y009371D01*
X015200Y007992D02*
X015574Y007992D01*
X015200Y007992D02*
X015200Y008522D01*
X015574Y008522D01*
X015574Y007992D01*
X015574Y008011D02*
X015200Y008011D01*
X015200Y008030D02*
X015574Y008030D01*
X015574Y008049D02*
X015200Y008049D01*
X015200Y008068D02*
X015574Y008068D01*
X015574Y008087D02*
X015200Y008087D01*
X015200Y008106D02*
X015574Y008106D01*
X015574Y008125D02*
X015200Y008125D01*
X015200Y008144D02*
X015574Y008144D01*
X015574Y008163D02*
X015200Y008163D01*
X015200Y008182D02*
X015574Y008182D01*
X015574Y008201D02*
X015200Y008201D01*
X015200Y008220D02*
X015574Y008220D01*
X015574Y008239D02*
X015200Y008239D01*
X015200Y008258D02*
X015574Y008258D01*
X015574Y008277D02*
X015200Y008277D01*
X015200Y008296D02*
X015574Y008296D01*
X015574Y008315D02*
X015200Y008315D01*
X015200Y008334D02*
X015574Y008334D01*
X015574Y008353D02*
X015200Y008353D01*
X015200Y008372D02*
X015574Y008372D01*
X015574Y008391D02*
X015200Y008391D01*
X015200Y008410D02*
X015574Y008410D01*
X015574Y008429D02*
X015200Y008429D01*
X015200Y008448D02*
X015574Y008448D01*
X015574Y008467D02*
X015200Y008467D01*
X015200Y008486D02*
X015574Y008486D01*
X015574Y008505D02*
X015200Y008505D01*
X012266Y036817D02*
X012090Y036817D01*
X012090Y037053D01*
X012266Y037053D01*
X012266Y036817D01*
X012266Y036836D02*
X012090Y036836D01*
X012090Y036855D02*
X012266Y036855D01*
X012266Y036874D02*
X012090Y036874D01*
X012090Y036893D02*
X012266Y036893D01*
X012266Y036912D02*
X012090Y036912D01*
X012090Y036931D02*
X012266Y036931D01*
X012266Y036950D02*
X012090Y036950D01*
X012090Y036969D02*
X012266Y036969D01*
X012266Y036988D02*
X012090Y036988D01*
X012090Y037007D02*
X012266Y037007D01*
X012266Y037026D02*
X012090Y037026D01*
X012090Y037045D02*
X012266Y037045D01*
X011951Y036817D02*
X011775Y036817D01*
X011775Y037053D01*
X011951Y037053D01*
X011951Y036817D01*
X011951Y036836D02*
X011775Y036836D01*
X011775Y036855D02*
X011951Y036855D01*
X011951Y036874D02*
X011775Y036874D01*
X011775Y036893D02*
X011951Y036893D01*
X011951Y036912D02*
X011775Y036912D01*
X011775Y036931D02*
X011951Y036931D01*
X011951Y036950D02*
X011775Y036950D01*
X011775Y036969D02*
X011951Y036969D01*
X011951Y036988D02*
X011775Y036988D01*
X011775Y037007D02*
X011951Y037007D01*
X011951Y037026D02*
X011775Y037026D01*
X011775Y037045D02*
X011951Y037045D01*
X011636Y036817D02*
X011460Y036817D01*
X011460Y037053D01*
X011636Y037053D01*
X011636Y036817D01*
X011636Y036836D02*
X011460Y036836D01*
X011460Y036855D02*
X011636Y036855D01*
X011636Y036874D02*
X011460Y036874D01*
X011460Y036893D02*
X011636Y036893D01*
X011636Y036912D02*
X011460Y036912D01*
X011460Y036931D02*
X011636Y036931D01*
X011636Y036950D02*
X011460Y036950D01*
X011460Y036969D02*
X011636Y036969D01*
X011636Y036988D02*
X011460Y036988D01*
X011460Y037007D02*
X011636Y037007D01*
X011636Y037026D02*
X011460Y037026D01*
X011460Y037045D02*
X011636Y037045D01*
X011321Y036817D02*
X011145Y036817D01*
X011145Y037053D01*
X011321Y037053D01*
X011321Y036817D01*
X011321Y036836D02*
X011145Y036836D01*
X011145Y036855D02*
X011321Y036855D01*
X011321Y036874D02*
X011145Y036874D01*
X011145Y036893D02*
X011321Y036893D01*
X011321Y036912D02*
X011145Y036912D01*
X011145Y036931D02*
X011321Y036931D01*
X011321Y036950D02*
X011145Y036950D01*
X011145Y036969D02*
X011321Y036969D01*
X011321Y036988D02*
X011145Y036988D01*
X011145Y037007D02*
X011321Y037007D01*
X011321Y037026D02*
X011145Y037026D01*
X011145Y037045D02*
X011321Y037045D01*
X011321Y037348D02*
X011145Y037348D01*
X011145Y037584D01*
X011321Y037584D01*
X011321Y037348D01*
X011321Y037367D02*
X011145Y037367D01*
X011145Y037386D02*
X011321Y037386D01*
X011321Y037405D02*
X011145Y037405D01*
X011145Y037424D02*
X011321Y037424D01*
X011321Y037443D02*
X011145Y037443D01*
X011145Y037462D02*
X011321Y037462D01*
X011321Y037481D02*
X011145Y037481D01*
X011145Y037500D02*
X011321Y037500D01*
X011321Y037519D02*
X011145Y037519D01*
X011145Y037538D02*
X011321Y037538D01*
X011321Y037557D02*
X011145Y037557D01*
X011145Y037576D02*
X011321Y037576D01*
X011460Y037348D02*
X011636Y037348D01*
X011460Y037348D02*
X011460Y037584D01*
X011636Y037584D01*
X011636Y037348D01*
X011636Y037367D02*
X011460Y037367D01*
X011460Y037386D02*
X011636Y037386D01*
X011636Y037405D02*
X011460Y037405D01*
X011460Y037424D02*
X011636Y037424D01*
X011636Y037443D02*
X011460Y037443D01*
X011460Y037462D02*
X011636Y037462D01*
X011636Y037481D02*
X011460Y037481D01*
X011460Y037500D02*
X011636Y037500D01*
X011636Y037519D02*
X011460Y037519D01*
X011460Y037538D02*
X011636Y037538D01*
X011636Y037557D02*
X011460Y037557D01*
X011460Y037576D02*
X011636Y037576D01*
X011775Y037348D02*
X011951Y037348D01*
X011775Y037348D02*
X011775Y037584D01*
X011951Y037584D01*
X011951Y037348D01*
X011951Y037367D02*
X011775Y037367D01*
X011775Y037386D02*
X011951Y037386D01*
X011951Y037405D02*
X011775Y037405D01*
X011775Y037424D02*
X011951Y037424D01*
X011951Y037443D02*
X011775Y037443D01*
X011775Y037462D02*
X011951Y037462D01*
X011951Y037481D02*
X011775Y037481D01*
X011775Y037500D02*
X011951Y037500D01*
X011951Y037519D02*
X011775Y037519D01*
X011775Y037538D02*
X011951Y037538D01*
X011951Y037557D02*
X011775Y037557D01*
X011775Y037576D02*
X011951Y037576D01*
X012090Y037348D02*
X012266Y037348D01*
X012090Y037348D02*
X012090Y037584D01*
X012266Y037584D01*
X012266Y037348D01*
X012266Y037367D02*
X012090Y037367D01*
X012090Y037386D02*
X012266Y037386D01*
X012266Y037405D02*
X012090Y037405D01*
X012090Y037424D02*
X012266Y037424D01*
X012266Y037443D02*
X012090Y037443D01*
X012090Y037462D02*
X012266Y037462D01*
X012266Y037481D02*
X012090Y037481D01*
X012090Y037500D02*
X012266Y037500D01*
X012266Y037519D02*
X012090Y037519D01*
X012090Y037538D02*
X012266Y037538D01*
X012266Y037557D02*
X012090Y037557D01*
X012090Y037576D02*
X012266Y037576D01*
D20*
X020297Y034975D02*
X020577Y034975D01*
X020297Y034975D02*
X020297Y035325D01*
X020577Y035325D01*
X020577Y034975D01*
X020577Y034995D02*
X020297Y034995D01*
X020297Y035015D02*
X020577Y035015D01*
X020577Y035035D02*
X020297Y035035D01*
X020297Y035055D02*
X020577Y035055D01*
X020577Y035075D02*
X020297Y035075D01*
X020297Y035095D02*
X020577Y035095D01*
X020577Y035115D02*
X020297Y035115D01*
X020297Y035135D02*
X020577Y035135D01*
X020577Y035155D02*
X020297Y035155D01*
X020297Y035175D02*
X020577Y035175D01*
X020577Y035195D02*
X020297Y035195D01*
X020297Y035215D02*
X020577Y035215D01*
X020577Y035235D02*
X020297Y035235D01*
X020297Y035255D02*
X020577Y035255D01*
X020577Y035275D02*
X020297Y035275D01*
X020297Y035295D02*
X020577Y035295D01*
X020577Y035315D02*
X020297Y035315D01*
X020957Y034975D02*
X021237Y034975D01*
X020957Y034975D02*
X020957Y035325D01*
X021237Y035325D01*
X021237Y034975D01*
X021237Y034995D02*
X020957Y034995D01*
X020957Y035015D02*
X021237Y035015D01*
X021237Y035035D02*
X020957Y035035D01*
X020957Y035055D02*
X021237Y035055D01*
X021237Y035075D02*
X020957Y035075D01*
X020957Y035095D02*
X021237Y035095D01*
X021237Y035115D02*
X020957Y035115D01*
X020957Y035135D02*
X021237Y035135D01*
X021237Y035155D02*
X020957Y035155D01*
X020957Y035175D02*
X021237Y035175D01*
X021237Y035195D02*
X020957Y035195D01*
X020957Y035215D02*
X021237Y035215D01*
X021237Y035235D02*
X020957Y035235D01*
X020957Y035255D02*
X021237Y035255D01*
X021237Y035275D02*
X020957Y035275D01*
X020957Y035295D02*
X021237Y035295D01*
X021237Y035315D02*
X020957Y035315D01*
X043182Y038195D02*
X043462Y038195D01*
X043462Y037845D01*
X043182Y037845D01*
X043182Y038195D01*
X043182Y037865D02*
X043462Y037865D01*
X043462Y037885D02*
X043182Y037885D01*
X043182Y037905D02*
X043462Y037905D01*
X043462Y037925D02*
X043182Y037925D01*
X043182Y037945D02*
X043462Y037945D01*
X043462Y037965D02*
X043182Y037965D01*
X043182Y037985D02*
X043462Y037985D01*
X043462Y038005D02*
X043182Y038005D01*
X043182Y038025D02*
X043462Y038025D01*
X043462Y038045D02*
X043182Y038045D01*
X043182Y038065D02*
X043462Y038065D01*
X043462Y038085D02*
X043182Y038085D01*
X043182Y038105D02*
X043462Y038105D01*
X043462Y038125D02*
X043182Y038125D01*
X043182Y038145D02*
X043462Y038145D01*
X043462Y038165D02*
X043182Y038165D01*
X043182Y038185D02*
X043462Y038185D01*
X043842Y038195D02*
X044122Y038195D01*
X044122Y037845D01*
X043842Y037845D01*
X043842Y038195D01*
X043842Y037865D02*
X044122Y037865D01*
X044122Y037885D02*
X043842Y037885D01*
X043842Y037905D02*
X044122Y037905D01*
X044122Y037925D02*
X043842Y037925D01*
X043842Y037945D02*
X044122Y037945D01*
X044122Y037965D02*
X043842Y037965D01*
X043842Y037985D02*
X044122Y037985D01*
X044122Y038005D02*
X043842Y038005D01*
X043842Y038025D02*
X044122Y038025D01*
X044122Y038045D02*
X043842Y038045D01*
X043842Y038065D02*
X044122Y038065D01*
X044122Y038085D02*
X043842Y038085D01*
X043842Y038105D02*
X044122Y038105D01*
X044122Y038125D02*
X043842Y038125D01*
X043842Y038145D02*
X044122Y038145D01*
X044122Y038165D02*
X043842Y038165D01*
X043842Y038185D02*
X044122Y038185D01*
X044087Y035970D02*
X044367Y035970D01*
X044087Y035970D02*
X044087Y036320D01*
X044367Y036320D01*
X044367Y035970D01*
X044367Y035990D02*
X044087Y035990D01*
X044087Y036010D02*
X044367Y036010D01*
X044367Y036030D02*
X044087Y036030D01*
X044087Y036050D02*
X044367Y036050D01*
X044367Y036070D02*
X044087Y036070D01*
X044087Y036090D02*
X044367Y036090D01*
X044367Y036110D02*
X044087Y036110D01*
X044087Y036130D02*
X044367Y036130D01*
X044367Y036150D02*
X044087Y036150D01*
X044087Y036170D02*
X044367Y036170D01*
X044367Y036190D02*
X044087Y036190D01*
X044087Y036210D02*
X044367Y036210D01*
X044367Y036230D02*
X044087Y036230D01*
X044087Y036250D02*
X044367Y036250D01*
X044367Y036270D02*
X044087Y036270D01*
X044087Y036290D02*
X044367Y036290D01*
X044367Y036310D02*
X044087Y036310D01*
X044747Y035970D02*
X045027Y035970D01*
X044747Y035970D02*
X044747Y036320D01*
X045027Y036320D01*
X045027Y035970D01*
X045027Y035990D02*
X044747Y035990D01*
X044747Y036010D02*
X045027Y036010D01*
X045027Y036030D02*
X044747Y036030D01*
X044747Y036050D02*
X045027Y036050D01*
X045027Y036070D02*
X044747Y036070D01*
X044747Y036090D02*
X045027Y036090D01*
X045027Y036110D02*
X044747Y036110D01*
X044747Y036130D02*
X045027Y036130D01*
X045027Y036150D02*
X044747Y036150D01*
X044747Y036170D02*
X045027Y036170D01*
X045027Y036190D02*
X044747Y036190D01*
X044747Y036210D02*
X045027Y036210D01*
X045027Y036230D02*
X044747Y036230D01*
X044747Y036250D02*
X045027Y036250D01*
X045027Y036270D02*
X044747Y036270D01*
X044747Y036290D02*
X045027Y036290D01*
X045027Y036310D02*
X044747Y036310D01*
X029487Y007450D02*
X029487Y007170D01*
X029487Y007450D02*
X029837Y007450D01*
X029837Y007170D01*
X029487Y007170D01*
X029487Y007190D02*
X029837Y007190D01*
X029837Y007210D02*
X029487Y007210D01*
X029487Y007230D02*
X029837Y007230D01*
X029837Y007250D02*
X029487Y007250D01*
X029487Y007270D02*
X029837Y007270D01*
X029837Y007290D02*
X029487Y007290D01*
X029487Y007310D02*
X029837Y007310D01*
X029837Y007330D02*
X029487Y007330D01*
X029487Y007350D02*
X029837Y007350D01*
X029837Y007370D02*
X029487Y007370D01*
X029487Y007390D02*
X029837Y007390D01*
X029837Y007410D02*
X029487Y007410D01*
X029487Y007430D02*
X029837Y007430D01*
X029837Y007450D02*
X029487Y007450D01*
X029487Y006790D02*
X029487Y006510D01*
X029487Y006790D02*
X029837Y006790D01*
X029837Y006510D01*
X029487Y006510D01*
X029487Y006530D02*
X029837Y006530D01*
X029837Y006550D02*
X029487Y006550D01*
X029487Y006570D02*
X029837Y006570D01*
X029837Y006590D02*
X029487Y006590D01*
X029487Y006610D02*
X029837Y006610D01*
X029837Y006630D02*
X029487Y006630D01*
X029487Y006650D02*
X029837Y006650D01*
X029837Y006670D02*
X029487Y006670D01*
X029487Y006690D02*
X029837Y006690D01*
X029837Y006710D02*
X029487Y006710D01*
X029487Y006730D02*
X029837Y006730D01*
X029837Y006750D02*
X029487Y006750D01*
X029487Y006770D02*
X029837Y006770D01*
X029837Y006790D02*
X029487Y006790D01*
D21*
X013367Y008250D02*
X012987Y008250D01*
X012987Y008780D01*
X013367Y008780D01*
X013367Y008250D01*
X013367Y008269D02*
X012987Y008269D01*
X012987Y008288D02*
X013367Y008288D01*
X013367Y008307D02*
X012987Y008307D01*
X012987Y008326D02*
X013367Y008326D01*
X013367Y008345D02*
X012987Y008345D01*
X012987Y008364D02*
X013367Y008364D01*
X013367Y008383D02*
X012987Y008383D01*
X012987Y008402D02*
X013367Y008402D01*
X013367Y008421D02*
X012987Y008421D01*
X012987Y008440D02*
X013367Y008440D01*
X013367Y008459D02*
X012987Y008459D01*
X012987Y008478D02*
X013367Y008478D01*
X013367Y008497D02*
X012987Y008497D01*
X012987Y008516D02*
X013367Y008516D01*
X013367Y008535D02*
X012987Y008535D01*
X012987Y008554D02*
X013367Y008554D01*
X013367Y008573D02*
X012987Y008573D01*
X012987Y008592D02*
X013367Y008592D01*
X013367Y008611D02*
X012987Y008611D01*
X012987Y008630D02*
X013367Y008630D01*
X013367Y008649D02*
X012987Y008649D01*
X012987Y008668D02*
X013367Y008668D01*
X013367Y008687D02*
X012987Y008687D01*
X012987Y008706D02*
X013367Y008706D01*
X013367Y008725D02*
X012987Y008725D01*
X012987Y008744D02*
X013367Y008744D01*
X013367Y008763D02*
X012987Y008763D01*
X013727Y008250D02*
X014107Y008250D01*
X013727Y008250D02*
X013727Y008780D01*
X014107Y008780D01*
X014107Y008250D01*
X014107Y008269D02*
X013727Y008269D01*
X013727Y008288D02*
X014107Y008288D01*
X014107Y008307D02*
X013727Y008307D01*
X013727Y008326D02*
X014107Y008326D01*
X014107Y008345D02*
X013727Y008345D01*
X013727Y008364D02*
X014107Y008364D01*
X014107Y008383D02*
X013727Y008383D01*
X013727Y008402D02*
X014107Y008402D01*
X014107Y008421D02*
X013727Y008421D01*
X013727Y008440D02*
X014107Y008440D01*
X014107Y008459D02*
X013727Y008459D01*
X013727Y008478D02*
X014107Y008478D01*
X014107Y008497D02*
X013727Y008497D01*
X013727Y008516D02*
X014107Y008516D01*
X014107Y008535D02*
X013727Y008535D01*
X013727Y008554D02*
X014107Y008554D01*
X014107Y008573D02*
X013727Y008573D01*
X013727Y008592D02*
X014107Y008592D01*
X014107Y008611D02*
X013727Y008611D01*
X013727Y008630D02*
X014107Y008630D01*
X014107Y008649D02*
X013727Y008649D01*
X013727Y008668D02*
X014107Y008668D01*
X014107Y008687D02*
X013727Y008687D01*
X013727Y008706D02*
X014107Y008706D01*
X014107Y008725D02*
X013727Y008725D01*
X013727Y008744D02*
X014107Y008744D01*
X014107Y008763D02*
X013727Y008763D01*
X045197Y035915D02*
X045197Y036295D01*
X045727Y036295D01*
X045727Y035915D01*
X045197Y035915D01*
X045197Y035934D02*
X045727Y035934D01*
X045727Y035953D02*
X045197Y035953D01*
X045197Y035972D02*
X045727Y035972D01*
X045727Y035991D02*
X045197Y035991D01*
X045197Y036010D02*
X045727Y036010D01*
X045727Y036029D02*
X045197Y036029D01*
X045197Y036048D02*
X045727Y036048D01*
X045727Y036067D02*
X045197Y036067D01*
X045197Y036086D02*
X045727Y036086D01*
X045727Y036105D02*
X045197Y036105D01*
X045197Y036124D02*
X045727Y036124D01*
X045727Y036143D02*
X045197Y036143D01*
X045197Y036162D02*
X045727Y036162D01*
X045727Y036181D02*
X045197Y036181D01*
X045197Y036200D02*
X045727Y036200D01*
X045727Y036219D02*
X045197Y036219D01*
X045197Y036238D02*
X045727Y036238D01*
X045727Y036257D02*
X045197Y036257D01*
X045197Y036276D02*
X045727Y036276D01*
X045727Y036295D02*
X045197Y036295D01*
X045197Y036655D02*
X045197Y037035D01*
X045727Y037035D01*
X045727Y036655D01*
X045197Y036655D01*
X045197Y036674D02*
X045727Y036674D01*
X045727Y036693D02*
X045197Y036693D01*
X045197Y036712D02*
X045727Y036712D01*
X045727Y036731D02*
X045197Y036731D01*
X045197Y036750D02*
X045727Y036750D01*
X045727Y036769D02*
X045197Y036769D01*
X045197Y036788D02*
X045727Y036788D01*
X045727Y036807D02*
X045197Y036807D01*
X045197Y036826D02*
X045727Y036826D01*
X045727Y036845D02*
X045197Y036845D01*
X045197Y036864D02*
X045727Y036864D01*
X045727Y036883D02*
X045197Y036883D01*
X045197Y036902D02*
X045727Y036902D01*
X045727Y036921D02*
X045197Y036921D01*
X045197Y036940D02*
X045727Y036940D01*
X045727Y036959D02*
X045197Y036959D01*
X045197Y036978D02*
X045727Y036978D01*
X045727Y036997D02*
X045197Y036997D01*
X045197Y037016D02*
X045727Y037016D01*
X045727Y037035D02*
X045197Y037035D01*
X043827Y036645D02*
X043447Y036645D01*
X043447Y037175D01*
X043827Y037175D01*
X043827Y036645D01*
X043827Y036664D02*
X043447Y036664D01*
X043447Y036683D02*
X043827Y036683D01*
X043827Y036702D02*
X043447Y036702D01*
X043447Y036721D02*
X043827Y036721D01*
X043827Y036740D02*
X043447Y036740D01*
X043447Y036759D02*
X043827Y036759D01*
X043827Y036778D02*
X043447Y036778D01*
X043447Y036797D02*
X043827Y036797D01*
X043827Y036816D02*
X043447Y036816D01*
X043447Y036835D02*
X043827Y036835D01*
X043827Y036854D02*
X043447Y036854D01*
X043447Y036873D02*
X043827Y036873D01*
X043827Y036892D02*
X043447Y036892D01*
X043447Y036911D02*
X043827Y036911D01*
X043827Y036930D02*
X043447Y036930D01*
X043447Y036949D02*
X043827Y036949D01*
X043827Y036968D02*
X043447Y036968D01*
X043447Y036987D02*
X043827Y036987D01*
X043827Y037006D02*
X043447Y037006D01*
X043447Y037025D02*
X043827Y037025D01*
X043827Y037044D02*
X043447Y037044D01*
X043447Y037063D02*
X043827Y037063D01*
X043827Y037082D02*
X043447Y037082D01*
X043447Y037101D02*
X043827Y037101D01*
X043827Y037120D02*
X043447Y037120D01*
X043447Y037139D02*
X043827Y037139D01*
X043827Y037158D02*
X043447Y037158D01*
X043087Y036645D02*
X042707Y036645D01*
X042707Y037175D01*
X043087Y037175D01*
X043087Y036645D01*
X043087Y036664D02*
X042707Y036664D01*
X042707Y036683D02*
X043087Y036683D01*
X043087Y036702D02*
X042707Y036702D01*
X042707Y036721D02*
X043087Y036721D01*
X043087Y036740D02*
X042707Y036740D01*
X042707Y036759D02*
X043087Y036759D01*
X043087Y036778D02*
X042707Y036778D01*
X042707Y036797D02*
X043087Y036797D01*
X043087Y036816D02*
X042707Y036816D01*
X042707Y036835D02*
X043087Y036835D01*
X043087Y036854D02*
X042707Y036854D01*
X042707Y036873D02*
X043087Y036873D01*
X043087Y036892D02*
X042707Y036892D01*
X042707Y036911D02*
X043087Y036911D01*
X043087Y036930D02*
X042707Y036930D01*
X042707Y036949D02*
X043087Y036949D01*
X043087Y036968D02*
X042707Y036968D01*
X042707Y036987D02*
X043087Y036987D01*
X043087Y037006D02*
X042707Y037006D01*
X042707Y037025D02*
X043087Y037025D01*
X043087Y037044D02*
X042707Y037044D01*
X042707Y037063D02*
X043087Y037063D01*
X043087Y037082D02*
X042707Y037082D01*
X042707Y037101D02*
X043087Y037101D01*
X043087Y037120D02*
X042707Y037120D01*
X042707Y037139D02*
X043087Y037139D01*
X043087Y037158D02*
X042707Y037158D01*
D22*
X013832Y016480D02*
X013494Y016480D01*
X013494Y017028D01*
X013832Y017028D01*
X013832Y016480D01*
X013832Y016501D02*
X013494Y016501D01*
X013494Y016522D02*
X013832Y016522D01*
X013832Y016543D02*
X013494Y016543D01*
X013494Y016564D02*
X013832Y016564D01*
X013832Y016585D02*
X013494Y016585D01*
X013494Y016606D02*
X013832Y016606D01*
X013832Y016627D02*
X013494Y016627D01*
X013494Y016648D02*
X013832Y016648D01*
X013832Y016669D02*
X013494Y016669D01*
X013494Y016690D02*
X013832Y016690D01*
X013832Y016711D02*
X013494Y016711D01*
X013494Y016732D02*
X013832Y016732D01*
X013832Y016753D02*
X013494Y016753D01*
X013494Y016774D02*
X013832Y016774D01*
X013832Y016795D02*
X013494Y016795D01*
X013494Y016816D02*
X013832Y016816D01*
X013832Y016837D02*
X013494Y016837D01*
X013494Y016858D02*
X013832Y016858D01*
X013832Y016879D02*
X013494Y016879D01*
X013494Y016900D02*
X013832Y016900D01*
X013832Y016921D02*
X013494Y016921D01*
X013494Y016942D02*
X013832Y016942D01*
X013832Y016963D02*
X013494Y016963D01*
X013494Y016984D02*
X013832Y016984D01*
X013832Y017005D02*
X013494Y017005D01*
X013494Y017026D02*
X013832Y017026D01*
X013192Y016480D02*
X012854Y016480D01*
X012854Y017028D01*
X013192Y017028D01*
X013192Y016480D01*
X013192Y016501D02*
X012854Y016501D01*
X012854Y016522D02*
X013192Y016522D01*
X013192Y016543D02*
X012854Y016543D01*
X012854Y016564D02*
X013192Y016564D01*
X013192Y016585D02*
X012854Y016585D01*
X012854Y016606D02*
X013192Y016606D01*
X013192Y016627D02*
X012854Y016627D01*
X012854Y016648D02*
X013192Y016648D01*
X013192Y016669D02*
X012854Y016669D01*
X012854Y016690D02*
X013192Y016690D01*
X013192Y016711D02*
X012854Y016711D01*
X012854Y016732D02*
X013192Y016732D01*
X013192Y016753D02*
X012854Y016753D01*
X012854Y016774D02*
X013192Y016774D01*
X013192Y016795D02*
X012854Y016795D01*
X012854Y016816D02*
X013192Y016816D01*
X013192Y016837D02*
X012854Y016837D01*
X012854Y016858D02*
X013192Y016858D01*
X013192Y016879D02*
X012854Y016879D01*
X012854Y016900D02*
X013192Y016900D01*
X013192Y016921D02*
X012854Y016921D01*
X012854Y016942D02*
X013192Y016942D01*
X013192Y016963D02*
X012854Y016963D01*
X012854Y016984D02*
X013192Y016984D01*
X013192Y017005D02*
X012854Y017005D01*
X012854Y017026D02*
X013192Y017026D01*
M02*
